<svg id="Layer_1" data-name="Layer 1" xmlns="http://www.w3.org/2000/svg" viewBox="0 0 1181.611 225.662">
  <defs>
    <style>
      .cls-1 {
        fill: #ee6c11;
      }

      .cls-2 {
        fill: #e95716;
      }

      .cls-3 {
        fill: #ec6513;
      }

      .cls-4 {
        fill: #f27b0f;
      }

      .cls-5 {
        fill: #f89818;
      }

      .cls-6 {
        fill: #f27d10;
      }

      .cls-7 {
        fill: #e14718;
      }

      .cls-8 {
        fill: #e75c16;
      }

      .cls-9 {
        fill: #fffef4;
      }

      .cls-10 {
        fill: #fff;
      }

      .cls-11 {
        fill: #4ca134;
      }

      .cls-12 {
        fill: #2a7e33;
      }

      .cls-13 {
        fill: #318e36;
      }

      .cls-14 {
        fill: #3d9a36;
      }

      .cls-15 {
        fill: #3d9c36;
      }

      .cls-16 {
        fill: #226b2e;
      }

      .cls-17 {
        fill: #2c8134;
      }

      .cls-18 {
        fill: #369736;
      }

      .cls-19 {
        fill: #2c89cb;
      }

      .cls-20 {
        fill: #19539d;
      }

      .cls-21 {
        fill: #1c5ba4;
      }

      .cls-22 {
        fill: #286fb7;
      }

      .cls-23 {
        fill: #3d88bd;
      }

      .cls-24 {
        fill: #184a98;
      }

      .cls-25 {
        fill: #1c539e;
      }

      .cls-26 {
        fill: #1c5fa7;
      }

      .cls-27 {
        fill: #fcfdfe;
      }

      .cls-28 {
        fill: #e15186;
      }

      .cls-29 {
        fill: #d9006a;
      }

      .cls-30 {
        fill: #e22363;
      }

      .cls-31 {
        fill: #e1386d;
      }

      .cls-32 {
        fill: #d8005a;
      }

      .cls-33 {
        fill: #dd0663;
      }

      .cls-34 {
        fill: #de2e6e;
      }

      .cls-35 {
        fill: #212a80;
      }

      .cls-36 {
        fill: #492f87;
      }

      .cls-37 {
        fill: #4d3b8d;
      }

      .cls-38 {
        fill: #454996;
      }

      .cls-39 {
        fill: #3a237b;
      }

      .cls-40 {
        fill: #342880;
      }

      .cls-41 {
        fill: #3f3687;
      }

      .cls-42 {
        fill: #e53a37;
      }

      .cls-43 {
        fill: #dd1035;
      }

      .cls-44 {
        fill: #e6262c;
      }

      .cls-45 {
        fill: #e43a37;
      }

      .cls-46 {
        fill: #e55152;
      }

      .cls-47 {
        fill: #e53a38;
      }

      .cls-48 {
        fill: #da0024;
      }

      .cls-49 {
        fill: #e1112e;
      }

      .cls-50 {
        fill: #e22f39;
      }
    </style>
  </defs>
  <title>d24d8367-b889-4003-a68d-20bdb65466f5</title>
  <g>
    <g>
      <g>
        <circle class="cls-1" cx="44.427" cy="44.427" r="44.427"/>
        <path class="cls-2" d="M20.237,37.252H60.988l-1.8-34.738A44.276,44.276,0,0,0,46.095.034Z"/>
        <path class="cls-3" d="M36.943,88.223,20.237,37.252,11.571,74.33A44.35,44.35,0,0,0,36.943,88.223Z"/>
        <path class="cls-4" d="M84.364,63.906,20.237,37.252l16.706,50.97A44.472,44.472,0,0,0,84.364,63.906Z"/>
        <path class="cls-5" d="M84.364,63.906a44.526,44.526,0,0,0,1.288-36.063L60.988,37.252Z"/>
        <path class="cls-6" d="M59.186,2.514l1.8,34.738,24.664-9.409A44.556,44.556,0,0,0,59.186,2.514Z"/>
        <path class="cls-7" d="M46.095.034C45.541.014,44.986,0,44.427,0A44.427,44.427,0,0,0,0,44.427q0,1.8.142,3.563L20.237,37.252Z"/>
        <path class="cls-8" d="M11.571,74.33l8.666-37.078L.142,47.99A44.253,44.253,0,0,0,11.571,74.33Z"/>
        <polygon class="cls-1" points="84.365 63.907 60.988 37.252 20.237 37.252 84.365 63.907"/>
      </g>
      <path class="cls-9" d="M63.275,15.217h-37.7a2.432,2.432,0,0,0-2.432,2.432V71.2a2.432,2.432,0,0,0,2.432,2.432h37.7A2.432,2.432,0,0,0,65.707,71.2V17.65A2.432,2.432,0,0,0,63.275,15.217ZM44.427,70.6a2.2,2.2,0,1,1,2.2-2.2A2.2,2.2,0,0,1,44.427,70.6ZM60.087,58.8a2.264,2.264,0,0,1-2.264,2.264H31.031A2.264,2.264,0,0,1,28.767,58.8V24.573a2.264,2.264,0,0,1,2.264-2.264H57.823a2.264,2.264,0,0,1,2.264,2.264Z"/>
    </g>
    <g>
      <path class="cls-10" d="M124.169,33.7a2.4,2.4,0,0,1,2.383-2.383,2.345,2.345,0,0,1,1.7.7,2.366,2.366,0,0,1,0,3.381,2.332,2.332,0,0,1-1.7.7,2.27,2.27,0,0,1-1.68-.718A2.323,2.323,0,0,1,124.169,33.7Zm.359,19.869V39.484h4.077V53.568Z"/>
      <path class="cls-10" d="M133.113,53.568V32.55h5.168q4.135,0,6.109,1.58a5.876,5.876,0,0,1,1.974,4.881,6.033,6.033,0,0,1-1.988,4.795,8.089,8.089,0,0,1-5.505,1.737h-1.235v8.025Zm4.522-11.528h.646a3.884,3.884,0,0,0,2.67-.761,3.163,3.163,0,0,0,.833-2.44,2.817,2.817,0,0,0-.833-2.261,4.078,4.078,0,0,0-2.67-.711h-.646Z"/>
      <path class="cls-10" d="M162.17,53.568h-3.962l.057-2.024a5.363,5.363,0,0,1-2,1.96,5.99,5.99,0,0,1-2.85.625,5.563,5.563,0,0,1-4.515-2.082,8.367,8.367,0,0,1-1.716-5.5A8.321,8.321,0,0,1,148.869,41a5.816,5.816,0,0,1,4.687-1.988,5.284,5.284,0,0,1,2.75.7,5.647,5.647,0,0,1,1.988,2.1V39.484h3.876ZM158.438,46.5a4.436,4.436,0,0,0-.955-3,3.232,3.232,0,0,0-2.577-1.105,3.291,3.291,0,0,0-2.62,1.1,4.431,4.431,0,0,0-.955,3.008,4.333,4.333,0,0,0,.94,2.972,3.754,3.754,0,0,0,5.233,0A4.355,4.355,0,0,0,158.438,46.5Z"/>
      <path class="cls-10" d="M180.129,53.568h-3.962l.057-2.024a5.363,5.363,0,0,1-2,1.96,5.99,5.99,0,0,1-2.85.625,5.563,5.563,0,0,1-4.515-2.082,8.367,8.367,0,0,1-1.716-5.5,8.374,8.374,0,0,1,1.687-5.57,5.806,5.806,0,0,1,4.687-2,5.114,5.114,0,0,1,2.7.7,7.239,7.239,0,0,1,2.182,2.225q-.072-.517-.108-1.141t-.036-1.429V31.316h3.876ZM176.4,46.5a4.436,4.436,0,0,0-.955-3,3.232,3.232,0,0,0-2.577-1.105,3.311,3.311,0,0,0-2.62,1.084,4.375,4.375,0,0,0-.955,2.993,4.388,4.388,0,0,0,.94,2.986,3.277,3.277,0,0,0,2.605,1.077,3.313,3.313,0,0,0,2.627-1.062A4.355,4.355,0,0,0,176.4,46.5Z"/>
      <path class="cls-10" d="M182.757,51.1l3.144-1.622a1.965,1.965,0,0,0,.847,1.292,3.441,3.441,0,0,0,3.288.107,1.143,1.143,0,0,0,.574-1.012q0-1.019-2.039-1.708-.632-.215-1-.359a10.081,10.081,0,0,1-3.438-1.881,3.166,3.166,0,0,1-.955-2.34,4.056,4.056,0,0,1,1.622-3.345,7.647,7.647,0,0,1,7.559-.517,4.559,4.559,0,0,1,2.017,2.153l-3,1.493a2.16,2.16,0,0,0-.847-1.2,3.02,3.02,0,0,0-2.972-.036,1.13,1.13,0,0,0-.56.976q0,1.048,2.785,1.953.33.1.5.158a8.121,8.121,0,0,1,3.287,1.773,3.561,3.561,0,0,1,.977,2.577,3.967,3.967,0,0,1-1.623,3.331,7.058,7.058,0,0,1-4.378,1.235,7.914,7.914,0,0,1-3.726-.812A4.1,4.1,0,0,1,182.757,51.1Z"/>
    </g>
  </g>
  <g>
    <g>
      <path class="cls-10" d="M124.728,190.375V169.358h4.666l9.3,12.231a9.459,9.459,0,0,1,.883,1.457q.481.94,1,2.219-.158-.933-.23-1.853t-.072-2.3V169.358h4.292v21.018H140.16L130.6,177.915a9.12,9.12,0,0,1-.876-1.457q-.473-.94-1-2.247.158.9.23,1.83t.072,2.333v12Z"/>
      <path class="cls-10" d="M163.7,183.384a7.209,7.209,0,0,1-2.218,5.4,8.458,8.458,0,0,1-11.276,0,7.643,7.643,0,0,1,.014-10.8,8.451,8.451,0,0,1,11.27-.028A7.23,7.23,0,0,1,163.7,183.384Zm-4.163-.029a3.761,3.761,0,0,0-1.005-2.749,3.607,3.607,0,0,0-2.7-1.026,3.569,3.569,0,0,0-2.685,1.02,4.33,4.33,0,0,0,0,5.513,3.541,3.541,0,0,0,2.685,1.033,3.6,3.6,0,0,0,2.692-1.033A3.771,3.771,0,0,0,159.541,183.355Z"/>
      <path class="cls-10" d="M167.293,190.375V179.494h-1.967v-3.2h1.967v-4.681h4.091v4.681h1.967v3.2h-1.967v10.882Z"/>
      <path class="cls-10" d="M189.631,184.346H179.051a3.683,3.683,0,0,0,1.105,2.275,3.433,3.433,0,0,0,2.34.754,4.062,4.062,0,0,0,1.931-.431,3.575,3.575,0,0,0,1.357-1.307l3.3,1.65a7.6,7.6,0,0,1-2.785,2.75,7.981,7.981,0,0,1-3.891.9A7.224,7.224,0,0,1,177,188.9a8.346,8.346,0,0,1,.093-10.939,7.151,7.151,0,0,1,5.348-2.139,7.077,7.077,0,0,1,5.312,2,7.492,7.492,0,0,1,1.952,5.463c0,.124,0,.261-.014.409S189.66,184.059,189.631,184.346Zm-4.048-2.47a3.05,3.05,0,0,0-.969-2.017,3.232,3.232,0,0,0-2.175-.683,3.35,3.35,0,0,0-2.2.683,3.207,3.207,0,0,0-1.055,2.017Z"/>
      <path class="cls-10" d="M192.732,190.375V168.124h3.919v8.025q0,.661-.05,1.313t-.136,1.271a6.943,6.943,0,0,1,2.182-2.218,5.194,5.194,0,0,1,2.7-.7,5.831,5.831,0,0,1,4.7,1.988,9.846,9.846,0,0,1-.022,11.054,5.537,5.537,0,0,1-4.493,2.074,5.987,5.987,0,0,1-2.85-.624,5.353,5.353,0,0,1-2-1.96l.029,2.024Zm3.732-7.063a4.331,4.331,0,0,0,.94,2.972,3.761,3.761,0,0,0,5.24,0,4.331,4.331,0,0,0,.94-2.972,4.433,4.433,0,0,0-.955-3.008,3.309,3.309,0,0,0-2.634-1.1,3.23,3.23,0,0,0-2.577,1.105A4.437,4.437,0,0,0,196.465,183.312Z"/>
      <path class="cls-10" d="M225.666,183.384a7.209,7.209,0,0,1-2.218,5.4,8.458,8.458,0,0,1-11.276,0,7.643,7.643,0,0,1,.014-10.8,8.451,8.451,0,0,1,11.27-.028A7.23,7.23,0,0,1,225.666,183.384Zm-4.163-.029a3.761,3.761,0,0,0-1.005-2.749,3.607,3.607,0,0,0-2.7-1.026,3.569,3.569,0,0,0-2.685,1.02,4.33,4.33,0,0,0,0,5.513,3.541,3.541,0,0,0,2.685,1.033,3.6,3.6,0,0,0,2.692-1.033A3.771,3.771,0,0,0,221.5,183.355Z"/>
      <path class="cls-10" d="M243.567,183.384a7.209,7.209,0,0,1-2.218,5.4,8.458,8.458,0,0,1-11.276,0,7.643,7.643,0,0,1,.014-10.8,8.451,8.451,0,0,1,11.27-.028A7.23,7.23,0,0,1,243.567,183.384Zm-4.163-.029a3.761,3.761,0,0,0-1.005-2.749,3.607,3.607,0,0,0-2.7-1.026,3.569,3.569,0,0,0-2.685,1.02,4.33,4.33,0,0,0,0,5.513,3.541,3.541,0,0,0,2.685,1.033,3.6,3.6,0,0,0,2.692-1.033A3.771,3.771,0,0,0,239.4,183.355Z"/>
      <path class="cls-10" d="M246.654,168.124h4.091v14.4l5.226-6.23h4.91l-5.67,6.23,6.23,7.853h-5.053l-5.642-7.465v7.465h-4.091Z"/>
      <path class="cls-10" d="M261.886,187.906l3.144-1.622a1.963,1.963,0,0,0,.847,1.292,3.445,3.445,0,0,0,3.288.108,1.143,1.143,0,0,0,.574-1.013q0-1.02-2.039-1.708-.632-.215-1-.359a10.1,10.1,0,0,1-3.438-1.88,3.167,3.167,0,0,1-.955-2.341,4.055,4.055,0,0,1,1.622-3.345,7.65,7.65,0,0,1,7.559-.517,4.554,4.554,0,0,1,2.017,2.153l-3,1.493a2.164,2.164,0,0,0-.847-1.2,2.627,2.627,0,0,0-1.507-.409,2.6,2.6,0,0,0-1.464.374,1.129,1.129,0,0,0-.56.976q0,1.049,2.785,1.953.33.1.5.157a8.115,8.115,0,0,1,3.287,1.773,3.559,3.559,0,0,1,.977,2.577,3.967,3.967,0,0,1-1.623,3.33,7.057,7.057,0,0,1-4.378,1.234,7.926,7.926,0,0,1-3.726-.811A4.1,4.1,0,0,1,261.886,187.906Z"/>
    </g>
    <g>
      <g>
        <circle class="cls-11" cx="44.427" cy="181.236" r="44.427"/>
        <path class="cls-12" d="M20.237,174.061H60.988l-1.8-34.738a44.276,44.276,0,0,0-13.091-2.48Z"/>
        <path class="cls-13" d="M36.943,225.032l-16.706-50.97-8.666,37.078A44.35,44.35,0,0,0,36.943,225.032Z"/>
        <path class="cls-14" d="M84.364,200.715,20.237,174.061l16.706,50.97a44.472,44.472,0,0,0,47.421-24.316Z"/>
        <path class="cls-11" d="M84.364,200.715a44.526,44.526,0,0,0,1.288-36.063l-24.664,9.409Z"/>
        <path class="cls-15" d="M59.186,139.323l1.8,34.738,24.664-9.409A44.556,44.556,0,0,0,59.186,139.323Z"/>
        <path class="cls-16" d="M46.095,136.843c-.554-.02-1.109-.034-1.668-.034A44.427,44.427,0,0,0,0,181.236q0,1.8.142,3.563l20.094-10.737Z"/>
        <path class="cls-17" d="M11.571,211.139l8.666-37.078L.142,184.8A44.253,44.253,0,0,0,11.571,211.139Z"/>
        <polygon class="cls-18" points="84.365 200.716 60.988 174.061 20.237 174.061 84.365 200.716"/>
      </g>
      <g>
        <rect class="cls-9" x="13.355" y="197.737" width="62.144" height="3.931" rx="1.503" ry="1.503"/>
        <path class="cls-9" d="M70.045,160.8H18.808a1.439,1.439,0,0,0-1.439,1.439V193.93a1.439,1.439,0,0,0,1.439,1.439H70.045a1.439,1.439,0,0,0,1.439-1.439V162.243A1.439,1.439,0,0,0,70.045,160.8Zm-3.52,27.423a1.4,1.4,0,0,1-1.351,1.444H23.68a1.4,1.4,0,0,1-1.351-1.444V166.395a1.4,1.4,0,0,1,1.351-1.444H65.174a1.4,1.4,0,0,1,1.351,1.444Z"/>
      </g>
    </g>
  </g>
  <g>
    <g>
      <path class="cls-10" d="M894.116,35.923V14.906h12.375V18.7h-7.882v4.321h7.882v3.819h-7.882V32.1h7.882v3.819Z"/>
      <path class="cls-10" d="M909.161,33.454l3.144-1.622a1.965,1.965,0,0,0,.847,1.292,3.441,3.441,0,0,0,3.288.107,1.143,1.143,0,0,0,.574-1.012q0-1.019-2.039-1.708-.632-.215-1-.359a10.081,10.081,0,0,1-3.438-1.881,3.166,3.166,0,0,1-.955-2.34,4.056,4.056,0,0,1,1.622-3.345,7.647,7.647,0,0,1,7.559-.517,4.559,4.559,0,0,1,2.017,2.153l-3,1.493a2.16,2.16,0,0,0-.847-1.2,3.02,3.02,0,0,0-2.972-.036,1.13,1.13,0,0,0-.56.976q0,1.048,2.785,1.953.33.1.5.158a8.121,8.121,0,0,1,3.287,1.773,3.561,3.561,0,0,1,.977,2.577,3.967,3.967,0,0,1-1.623,3.331,7.058,7.058,0,0,1-4.378,1.235,7.914,7.914,0,0,1-3.726-.812A4.1,4.1,0,0,1,909.161,33.454Z"/>
      <path class="cls-10" d="M924.451,35.923V25.042h-1.967v-3.2h1.967V17.16h4.091v4.68h1.967v3.2h-1.967V35.923Z"/>
      <path class="cls-10" d="M937.041,21.84v7.408a3.951,3.951,0,0,0,.725,2.67,3.845,3.845,0,0,0,4.716-.007,3.93,3.93,0,0,0,.732-2.663V21.84h4.092v7.408q0,3.719-1.737,5.477t-5.383,1.759q-3.719,0-5.463-1.751t-1.744-5.484V21.84Zm7.321-7.379-4.493,5.3h-2.039l2.828-5.3Z"/>
      <path class="cls-10" d="M965.351,35.923h-3.962l.057-2.024a5.363,5.363,0,0,1-2,1.96,5.99,5.99,0,0,1-2.85.625,5.563,5.563,0,0,1-4.515-2.082,8.367,8.367,0,0,1-1.716-5.5,8.374,8.374,0,0,1,1.687-5.57,5.806,5.806,0,0,1,4.687-2,5.114,5.114,0,0,1,2.7.7,7.239,7.239,0,0,1,2.182,2.225q-.072-.517-.108-1.141t-.036-1.429V13.671h3.876Zm-3.732-7.063a4.436,4.436,0,0,0-.955-3,3.232,3.232,0,0,0-2.577-1.105,3.311,3.311,0,0,0-2.62,1.084,4.375,4.375,0,0,0-.955,2.993,4.388,4.388,0,0,0,.94,2.986,3.277,3.277,0,0,0,2.605,1.077,3.313,3.313,0,0,0,2.627-1.062A4.355,4.355,0,0,0,961.619,28.86Z"/>
      <path class="cls-10" d="M969.155,16.055a2.4,2.4,0,0,1,2.383-2.383,2.345,2.345,0,0,1,1.7.7,2.366,2.366,0,0,1,0,3.381,2.332,2.332,0,0,1-1.7.7,2.27,2.27,0,0,1-1.68-.718A2.323,2.323,0,0,1,969.155,16.055Zm.359,19.869V21.84h4.077V35.923Z"/>
      <path class="cls-10" d="M992.556,28.932a7.209,7.209,0,0,1-2.218,5.4,8.457,8.457,0,0,1-11.276,0,7.2,7.2,0,0,1-2.225-5.4,7.205,7.205,0,0,1,2.239-5.4,8.449,8.449,0,0,1,11.27-.029A7.23,7.23,0,0,1,992.556,28.932Zm-4.163-.029a3.762,3.762,0,0,0-1.005-2.75A4.053,4.053,0,0,0,982,26.147a3.787,3.787,0,0,0-.991,2.756A3.818,3.818,0,0,0,982,31.66a3.543,3.543,0,0,0,2.685,1.034,3.6,3.6,0,0,0,2.692-1.034A3.769,3.769,0,0,0,988.393,28.9Z"/>
      <path class="cls-10" d="M1018.784,35.923h-3.962l.057-2.024a5.363,5.363,0,0,1-2,1.96,5.99,5.99,0,0,1-2.85.625,5.563,5.563,0,0,1-4.515-2.082,8.367,8.367,0,0,1-1.716-5.5,8.374,8.374,0,0,1,1.687-5.57,5.806,5.806,0,0,1,4.687-2,5.114,5.114,0,0,1,2.7.7,7.239,7.239,0,0,1,2.182,2.225q-.072-.517-.108-1.141t-.036-1.429V13.671h3.876Zm-3.732-7.063a4.436,4.436,0,0,0-.955-3,3.232,3.232,0,0,0-2.577-1.105,3.311,3.311,0,0,0-2.62,1.084,4.375,4.375,0,0,0-.955,2.993,4.388,4.388,0,0,0,.94,2.986,3.277,3.277,0,0,0,2.605,1.077,3.313,3.313,0,0,0,2.627-1.062A4.355,4.355,0,0,0,1015.052,28.86Z"/>
      <path class="cls-10" d="M1036.543,29.894h-10.581a3.683,3.683,0,0,0,1.105,2.276,3.431,3.431,0,0,0,2.34.753,4.062,4.062,0,0,0,1.931-.431,3.578,3.578,0,0,0,1.357-1.306l3.3,1.651a7.6,7.6,0,0,1-2.785,2.749,7.976,7.976,0,0,1-3.891.9,7.226,7.226,0,0,1-5.412-2.039,7.5,7.5,0,0,1-2-5.484A7.485,7.485,0,0,1,1024,23.505a7.15,7.15,0,0,1,5.348-2.139,7.076,7.076,0,0,1,5.312,2,7.491,7.491,0,0,1,1.952,5.462q0,.187-.014.409T1036.543,29.894Zm-4.048-2.469a3.051,3.051,0,0,0-.969-2.017,3.235,3.235,0,0,0-2.175-.682,3.352,3.352,0,0,0-2.2.682,3.209,3.209,0,0,0-1.055,2.017Z"/>
      <path class="cls-10" d="M907.84,70.976a12.622,12.622,0,0,1-.265,3.129,3.691,3.691,0,0,1-.912,1.565,5.489,5.489,0,0,1-2.354,1.464,11.217,11.217,0,0,1-3.489.474,10.085,10.085,0,0,1-5.211-1.091,3.984,3.984,0,0,1-1.938-3.316h4.494a1.541,1.541,0,0,0,.747,1.206,3.766,3.766,0,0,0,1.909.388,3.011,3.011,0,0,0,2.4-.861,4.41,4.41,0,0,0,.739-2.871v-2.01a5.407,5.407,0,0,1-1.974,1.938,5.621,5.621,0,0,1-2.735.632,5.793,5.793,0,0,1-4.637-2.032,8.144,8.144,0,0,1-1.737-5.477,8.174,8.174,0,0,1,1.694-5.484,5.829,5.829,0,0,1,4.68-1.981,5.26,5.26,0,0,1,2.735.71,5.7,5.7,0,0,1,2,2.089V57.122h3.847Zm-3.7-6.833a4.3,4.3,0,0,0-.948-2.943,3.265,3.265,0,0,0-2.584-1.077,3.328,3.328,0,0,0-2.627,1.07,5.063,5.063,0,0,0-.015,5.878,3.789,3.789,0,0,0,5.233,0A4.23,4.23,0,0,0,904.137,64.142Z"/>
      <path class="cls-10" d="M915.822,60.739a6.477,6.477,0,0,1,1.773-3.072,4.173,4.173,0,0,1,2.864-1.02,9.174,9.174,0,0,1,1.277.144l.259.043-.618,4.393a5.141,5.141,0,0,0-.926-.28,5.02,5.02,0,0,0-.983-.093,3.362,3.362,0,0,0-2.685.955A4.916,4.916,0,0,0,915.966,65v6.2h-4.091V57.122h4.034Z"/>
      <path class="cls-10" d="M937.959,71.205H934l.057-2.024a5.363,5.363,0,0,1-2,1.96,5.99,5.99,0,0,1-2.85.625,5.563,5.563,0,0,1-4.515-2.082,8.367,8.367,0,0,1-1.716-5.5,8.321,8.321,0,0,1,1.687-5.549,5.816,5.816,0,0,1,4.687-1.988,5.284,5.284,0,0,1,2.75.7,5.647,5.647,0,0,1,1.988,2.1V57.122h3.876Zm-3.732-7.063a4.436,4.436,0,0,0-.955-3,3.232,3.232,0,0,0-2.577-1.105,3.291,3.291,0,0,0-2.62,1.1,4.431,4.431,0,0,0-.955,3.008,4.333,4.333,0,0,0,.94,2.972,3.754,3.754,0,0,0,5.233,0A4.355,4.355,0,0,0,934.227,64.142Z"/>
      <path class="cls-10" d="M945.281,71.205l-5.728-14.083h4.723l2.383,7.322q.287.891.459,1.651a12.132,12.132,0,0,1,.244,1.493q.172-1.105.345-1.881a11.274,11.274,0,0,1,.4-1.407l2.4-7.178h4.651l-5.786,14.083Z"/>
      <path class="cls-10" d="M971.036,71.205h-3.962l.057-2.024a5.363,5.363,0,0,1-2,1.96,5.99,5.99,0,0,1-2.85.625,5.563,5.563,0,0,1-4.515-2.082,8.367,8.367,0,0,1-1.716-5.5,8.321,8.321,0,0,1,1.687-5.549,5.816,5.816,0,0,1,4.687-1.988,5.284,5.284,0,0,1,2.75.7,5.647,5.647,0,0,1,1.988,2.1V57.122h3.876ZM967.3,64.142a4.436,4.436,0,0,0-.955-3,3.232,3.232,0,0,0-2.577-1.105,3.291,3.291,0,0,0-2.62,1.1,4.431,4.431,0,0,0-.955,3.008,4.333,4.333,0,0,0,.94,2.972,3.754,3.754,0,0,0,5.233,0A4.355,4.355,0,0,0,967.3,64.142Z"/>
      <path class="cls-10" d="M985.263,70.789a6.53,6.53,0,0,1-1.751.74,8.052,8.052,0,0,1-2.01.237,7.3,7.3,0,0,1-5.427-2.118,7.488,7.488,0,0,1-2.1-5.505,7.274,7.274,0,0,1,2.11-5.405,7.443,7.443,0,0,1,5.47-2.089,8.576,8.576,0,0,1,2.01.215,6.468,6.468,0,0,1,1.694.675l-.029,4.106a4.559,4.559,0,0,0-3.288-1.378,3.684,3.684,0,0,0-2.756,1.055A3.884,3.884,0,0,0,982.062,68a4.1,4.1,0,0,0,1.759-.359,4.2,4.2,0,0,0,1.414-1.12Zm-8.111,6.7V75.67q1.148.3,2.11.459a10.219,10.219,0,0,0,1.594.158,1.8,1.8,0,0,0,1.084-.266.951.951,0,0,0,.352-.811.8.8,0,0,0-.4-.754,2.923,2.923,0,0,0-1.342-.222c-.182,0-.335,0-.459.007s-.244.012-.359.021V71.205H981.2V72.5h.215a3.913,3.913,0,0,1,2.52.7,2.52,2.52,0,0,1,.854,2.075,2.488,2.488,0,0,1-.955,2.132,4.778,4.778,0,0,1-2.864.71,11.179,11.179,0,0,1-1.7-.158A20.622,20.622,0,0,1,977.152,77.493Z"/>
      <path class="cls-10" d="M1002.461,71.205H998.5l.057-2.024a5.363,5.363,0,0,1-2,1.96,5.99,5.99,0,0,1-2.85.625,5.563,5.563,0,0,1-4.515-2.082,8.367,8.367,0,0,1-1.716-5.5,8.321,8.321,0,0,1,1.687-5.549,5.816,5.816,0,0,1,4.687-1.988,5.284,5.284,0,0,1,2.75.7,5.647,5.647,0,0,1,1.988,2.1V57.122h3.876Zm-2.3-20.759a6.058,6.058,0,0,1-1.12,2.648,2.356,2.356,0,0,1-1.866.826,4.08,4.08,0,0,1-.56-.036,2.834,2.834,0,0,1-.517-.122l-1.249-.373a3.688,3.688,0,0,0-.517-.115,3.272,3.272,0,0,0-.431-.029,1.15,1.15,0,0,0-.79.266,1.772,1.772,0,0,0-.474.84h-1.579a5.7,5.7,0,0,1,1.083-2.562,2.339,2.339,0,0,1,1.845-.811,3.723,3.723,0,0,1,.574.05,5.456,5.456,0,0,1,.66.151l1.335.359a2.123,2.123,0,0,0,.366.086,2.917,2.917,0,0,0,.423.028,1.063,1.063,0,0,0,.775-.294,1.917,1.917,0,0,0,.459-.912Zm-1.436,13.7a4.436,4.436,0,0,0-.955-3,3.232,3.232,0,0,0-2.577-1.105,3.291,3.291,0,0,0-2.62,1.1,4.431,4.431,0,0,0-.955,3.008,4.333,4.333,0,0,0,.94,2.972,3.754,3.754,0,0,0,5.233,0A4.355,4.355,0,0,0,998.729,64.142Z"/>
      <path class="cls-10" d="M1021.125,64.214a7.209,7.209,0,0,1-2.218,5.4,8.457,8.457,0,0,1-11.276,0,7.642,7.642,0,0,1,.014-10.8,8.449,8.449,0,0,1,11.27-.029A7.23,7.23,0,0,1,1021.125,64.214Zm-4.163-.029a3.762,3.762,0,0,0-1.005-2.75,4.053,4.053,0,0,0-5.383-.007,4.33,4.33,0,0,0,0,5.513,3.543,3.543,0,0,0,2.685,1.034,3.6,3.6,0,0,0,2.692-1.034A3.769,3.769,0,0,0,1016.961,64.185Z"/>
      <path class="cls-10" d="M1037.275,71.205h-4.092V57.122h4.092v2.211a6.94,6.94,0,0,1,2.146-2.039,5.769,5.769,0,0,1,5.441.072,3.876,3.876,0,0,1,1.558,2.168,6.975,6.975,0,0,1,2.218-2.161,5.745,5.745,0,0,1,5.254-.172,3.814,3.814,0,0,1,1.615,1.658,4.834,4.834,0,0,1,.431,1.364,15.024,15.024,0,0,1,.129,2.312v8.671h-4.091V64.242a7.349,7.349,0,0,0-.524-3.417,1.979,1.979,0,0,0-1.83-.847,2.472,2.472,0,0,0-2.29,1.177,7.791,7.791,0,0,0-.71,3.848v6.2h-4.092V64.242a7.767,7.767,0,0,0-.488-3.359,1.762,1.762,0,0,0-1.68-.875,2.56,2.56,0,0,0-2.354,1.185,7.522,7.522,0,0,0-.732,3.812Z"/>
      <path class="cls-10" d="M1063.978,57.122v7.408a3.951,3.951,0,0,0,.725,2.67,3.845,3.845,0,0,0,4.716-.007,3.93,3.93,0,0,0,.732-2.663V57.122h4.092v7.408q0,3.719-1.737,5.477t-5.383,1.759q-3.719,0-5.463-1.751t-1.744-5.484V57.122Z"/>
      <path class="cls-10" d="M1078.333,71.205V48.953h4.077V71.205Z"/>
      <path class="cls-10" d="M1087.063,71.205V60.323H1085.1v-3.2h1.967v-4.68h4.091v4.68h1.967v3.2h-1.967V71.205Z"/>
      <path class="cls-10" d="M1095.446,51.336a2.4,2.4,0,0,1,2.383-2.383,2.345,2.345,0,0,1,1.7.7,2.366,2.366,0,0,1,0,3.381,2.332,2.332,0,0,1-1.7.7,2.27,2.27,0,0,1-1.68-.718A2.323,2.323,0,0,1,1095.446,51.336Zm.359,19.869V57.122h4.077V71.205Z"/>
      <path class="cls-10" d="M1108.065,71.205h-4.092V57.122h4.092v2.211a6.94,6.94,0,0,1,2.146-2.039,5.769,5.769,0,0,1,5.441.072,3.876,3.876,0,0,1,1.558,2.168,6.975,6.975,0,0,1,2.218-2.161,5.745,5.745,0,0,1,5.254-.172,3.814,3.814,0,0,1,1.615,1.658,4.834,4.834,0,0,1,.431,1.364,15.024,15.024,0,0,1,.129,2.312v8.671h-4.091V64.242a7.349,7.349,0,0,0-.524-3.417,1.979,1.979,0,0,0-1.83-.847,2.472,2.472,0,0,0-2.29,1.177,7.791,7.791,0,0,0-.71,3.848v6.2h-4.092V64.242a7.767,7.767,0,0,0-.488-3.359,1.762,1.762,0,0,0-1.68-.875,2.56,2.56,0,0,0-2.354,1.185,7.522,7.522,0,0,0-.732,3.812Z"/>
      <path class="cls-10" d="M1137.179,49.743l-4.493,5.3h-2.039l2.828-5.3Zm-6.259,21.462V57.122H1135V71.205Z"/>
      <path class="cls-10" d="M1153.258,71.205H1149.3l.057-2.024a5.363,5.363,0,0,1-2,1.96,5.99,5.99,0,0,1-2.85.625,5.563,5.563,0,0,1-4.515-2.082,8.367,8.367,0,0,1-1.716-5.5,8.374,8.374,0,0,1,1.687-5.57,5.806,5.806,0,0,1,4.687-2,5.114,5.114,0,0,1,2.7.7,7.239,7.239,0,0,1,2.182,2.225q-.072-.517-.108-1.141t-.036-1.429V48.953h3.876Zm-3.732-7.063a4.436,4.436,0,0,0-.955-3,3.232,3.232,0,0,0-2.577-1.105,3.311,3.311,0,0,0-2.62,1.084,5.19,5.19,0,0,0-.014,5.979,3.277,3.277,0,0,0,2.605,1.077,3.313,3.313,0,0,0,2.627-1.062A4.355,4.355,0,0,0,1149.526,64.142Z"/>
      <path class="cls-10" d="M1157.063,51.336a2.4,2.4,0,0,1,2.383-2.383,2.345,2.345,0,0,1,1.7.7,2.366,2.366,0,0,1,0,3.381,2.332,2.332,0,0,1-1.7.7,2.27,2.27,0,0,1-1.68-.718A2.323,2.323,0,0,1,1157.063,51.336Zm.359,19.869V57.122h4.077V71.205Z"/>
      <path class="cls-10" d="M1179.759,71.205H1175.8l.057-2.024a5.363,5.363,0,0,1-2,1.96,5.99,5.99,0,0,1-2.85.625,5.563,5.563,0,0,1-4.515-2.082,8.367,8.367,0,0,1-1.716-5.5,8.321,8.321,0,0,1,1.687-5.549,5.816,5.816,0,0,1,4.687-1.988,5.284,5.284,0,0,1,2.75.7,5.647,5.647,0,0,1,1.988,2.1V57.122h3.876Zm-3.732-7.063a4.436,4.436,0,0,0-.955-3,3.232,3.232,0,0,0-2.577-1.105,3.291,3.291,0,0,0-2.62,1.1,4.431,4.431,0,0,0-.955,3.008,4.333,4.333,0,0,0,.94,2.972,3.754,3.754,0,0,0,5.233,0A4.355,4.355,0,0,0,1176.027,64.142Z"/>
    </g>
    <g>
      <g>
        <circle class="cls-19" cx="813.813" cy="44.427" r="44.427"/>
        <path class="cls-20" d="M789.623,37.252h40.751l-1.8-34.738A44.276,44.276,0,0,0,815.481.034Z"/>
        <path class="cls-21" d="M806.329,88.223l-16.706-50.97L780.957,74.33A44.35,44.35,0,0,0,806.329,88.223Z"/>
        <path class="cls-22" d="M853.75,63.906,789.623,37.252l16.706,50.97A44.472,44.472,0,0,0,853.75,63.906Z"/>
        <path class="cls-23" d="M853.75,63.906a44.526,44.526,0,0,0,1.288-36.063l-24.664,9.409Z"/>
        <path class="cls-22" d="M828.572,2.514l1.8,34.738,24.664-9.409A44.556,44.556,0,0,0,828.572,2.514Z"/>
        <path class="cls-24" d="M815.481.034C814.927.014,814.372,0,813.813,0a44.427,44.427,0,0,0-44.427,44.427q0,1.8.142,3.563l20.094-10.737Z"/>
        <path class="cls-25" d="M780.957,74.33l8.666-37.078L769.529,47.99A44.253,44.253,0,0,0,780.957,74.33Z"/>
        <polygon class="cls-26" points="853.751 63.907 830.374 37.252 789.623 37.252 853.751 63.907"/>
      </g>
      <g>
        <rect class="cls-27" x="783.319" y="27.701" width="38.212" height="33.452" transform="translate(1604.85 88.854) rotate(180)"/>
        <polygon class="cls-27" points="823.568 50.978 837.269 58.889 837.269 29.965 823.568 37.875 823.568 50.978"/>
        <rect class="cls-27" x="839.186" y="29.781" width="5.121" height="29.108" transform="translate(1683.493 88.67) rotate(180)"/>
      </g>
    </g>
  </g>
  <g>
    <g>
      <path class="cls-10" d="M490.431,170.066l2.5-2.828a3.835,3.835,0,0,0,1.521,1.83,4.288,4.288,0,0,0,2.354.668,3.847,3.847,0,0,0,2.5-.747,2.454,2.454,0,0,0,.919-2.01q0-1.493-3.058-2.972-.99-.473-1.564-.775a11.665,11.665,0,0,1-3.819-2.807,5.171,5.171,0,0,1-1.062-3.266,5.261,5.261,0,0,1,2.06-4.271,8.215,8.215,0,0,1,5.348-1.673,7.52,7.52,0,0,1,3.295.668,6.7,6.7,0,0,1,2.448,2.088l-2.656,2.542a3.244,3.244,0,0,0-1.256-1.371,3.711,3.711,0,0,0-1.888-.452,3.3,3.3,0,0,0-2.154.667,2.128,2.128,0,0,0-.818,1.73q0,1.666,3.244,3.043.646.272.991.431a11.084,11.084,0,0,1,3.955,2.756,5.31,5.31,0,0,1,1.285,3.5,5.942,5.942,0,0,1-2.017,4.716,7.956,7.956,0,0,1-5.419,1.759,9.432,9.432,0,0,1-4.135-.832A5.6,5.6,0,0,1,490.431,170.066Z"/>
      <path class="cls-10" d="M522.7,165.745a7.209,7.209,0,0,1-2.218,5.4,8.458,8.458,0,0,1-11.276,0,7.642,7.642,0,0,1,.014-10.8,8.449,8.449,0,0,1,11.27-.029A7.23,7.23,0,0,1,522.7,165.745Zm-4.163-.029a3.761,3.761,0,0,0-1.005-2.749,3.607,3.607,0,0,0-2.7-1.026,3.569,3.569,0,0,0-2.685,1.02,4.33,4.33,0,0,0,0,5.513,3.541,3.541,0,0,0,2.685,1.033,3.6,3.6,0,0,0,2.692-1.033A3.771,3.771,0,0,0,518.54,165.715Z"/>
      <path class="cls-10" d="M526.292,172.736V161.854h-1.823v-3.2h1.823V155.48a5.392,5.392,0,0,1,1.306-4.07q1.307-1.228,4.307-1.227a5.363,5.363,0,0,1,.768.064q.437.064,1.141.237v3.259a3.432,3.432,0,0,0-.718-.294,2.742,2.742,0,0,0-.718-.093,1.868,1.868,0,0,0-1.536.567,3.175,3.175,0,0,0-.459,1.959v2.771H533v3.2h-2.613v10.882Z"/>
      <path class="cls-10" d="M536.026,172.736V161.854h-1.967v-3.2h1.967v-4.68h4.091v4.68h1.967v3.2h-1.967v10.882Z"/>
      <path class="cls-10" d="M556.842,158.652l2.039,7.293c.038.144.088.4.15.761s.175,1.11.337,2.239q.13-.661.323-1.393t.481-1.637l2.2-7.264h4.451l-4.881,14.083h-4.364l-2.11-7.293c-.038-.134-.1-.35-.187-.646q-.474-1.651-.689-2.7-.187.976-.366,1.78t-.38,1.507l-2.168,7.351h-4.35l-4.881-14.083h4.465l2.153,6.992q.287.948.474,1.716t.316,1.571q.115-.875.273-1.687t.373-1.572l1.881-7.02Z"/>
      <path class="cls-10" d="M582.74,172.736h-3.962l.057-2.024a5.356,5.356,0,0,1-2,1.96,5.99,5.99,0,0,1-2.85.624,5.564,5.564,0,0,1-4.515-2.081,9.817,9.817,0,0,1-.029-11.047,5.816,5.816,0,0,1,4.687-1.988,5.284,5.284,0,0,1,2.75.7,5.647,5.647,0,0,1,1.988,2.1v-2.326h3.876Zm-3.732-7.063a4.437,4.437,0,0,0-.955-3,3.23,3.23,0,0,0-2.577-1.105,3.29,3.29,0,0,0-2.62,1.1,4.428,4.428,0,0,0-.955,3.007,4.331,4.331,0,0,0,.94,2.972,3.753,3.753,0,0,0,5.233,0A4.353,4.353,0,0,0,579.008,165.672Z"/>
      <path class="cls-10" d="M590.536,162.27a6.477,6.477,0,0,1,1.773-3.072,4.173,4.173,0,0,1,2.864-1.02,9.174,9.174,0,0,1,1.277.144l.259.043-.618,4.393a5.183,5.183,0,0,0-.926-.28,5.059,5.059,0,0,0-.983-.093,3.364,3.364,0,0,0-2.685.954,4.916,4.916,0,0,0-.818,3.194v6.2h-4.091V158.652h4.034Z"/>
      <path class="cls-10" d="M612.314,166.707H601.733a3.683,3.683,0,0,0,1.105,2.275,3.433,3.433,0,0,0,2.34.754,4.062,4.062,0,0,0,1.931-.431A3.575,3.575,0,0,0,608.467,168l3.3,1.65a7.6,7.6,0,0,1-2.785,2.75,7.981,7.981,0,0,1-3.891.9,7.224,7.224,0,0,1-5.412-2.038,8.346,8.346,0,0,1,.093-10.939,7.15,7.15,0,0,1,5.348-2.139,7.076,7.076,0,0,1,5.312,2,7.491,7.491,0,0,1,1.952,5.462c0,.124,0,.261-.014.409S612.343,166.419,612.314,166.707Zm-4.048-2.47a3.052,3.052,0,0,0-.969-2.017,3.235,3.235,0,0,0-2.175-.682,3.352,3.352,0,0,0-2.2.682,3.21,3.21,0,0,0-1.055,2.017Z"/>
      <path class="cls-10" d="M614.037,170.266l3.144-1.622a1.963,1.963,0,0,0,.847,1.292,3.445,3.445,0,0,0,3.288.108,1.143,1.143,0,0,0,.574-1.013q0-1.02-2.039-1.708-.632-.215-1-.359a10.1,10.1,0,0,1-3.438-1.88,3.167,3.167,0,0,1-.955-2.341,4.056,4.056,0,0,1,1.622-3.345,7.647,7.647,0,0,1,7.559-.517,4.559,4.559,0,0,1,2.017,2.153l-3,1.493a2.16,2.16,0,0,0-.847-1.2,3.02,3.02,0,0,0-2.972-.036,1.13,1.13,0,0,0-.56.976q0,1.049,2.785,1.953.33.1.5.157a8.115,8.115,0,0,1,3.287,1.773,3.559,3.559,0,0,1,.977,2.577,3.967,3.967,0,0,1-1.623,3.33,7.057,7.057,0,0,1-4.378,1.234,7.926,7.926,0,0,1-3.726-.811A4.1,4.1,0,0,1,614.037,170.266Z"/>
      <path class="cls-10" d="M651.965,172.736H648l.057-2.024a5.356,5.356,0,0,1-2,1.96,5.99,5.99,0,0,1-2.85.624,5.564,5.564,0,0,1-4.515-2.081,9.851,9.851,0,0,1-.029-11.069,5.806,5.806,0,0,1,4.687-2,5.114,5.114,0,0,1,2.7.7,7.239,7.239,0,0,1,2.182,2.225q-.072-.517-.108-1.141t-.036-1.429v-8.025h3.876Zm-3.732-7.063a4.437,4.437,0,0,0-.955-3,3.23,3.23,0,0,0-2.577-1.105,3.311,3.311,0,0,0-2.62,1.084,5.191,5.191,0,0,0-.014,5.979,3.277,3.277,0,0,0,2.605,1.076,3.311,3.311,0,0,0,2.627-1.062A4.353,4.353,0,0,0,648.233,165.672Z"/>
      <path class="cls-10" d="M669.724,166.707H659.144a3.683,3.683,0,0,0,1.105,2.275,3.433,3.433,0,0,0,2.34.754,4.062,4.062,0,0,0,1.931-.431A3.575,3.575,0,0,0,665.877,168l3.3,1.65a7.6,7.6,0,0,1-2.785,2.75,7.981,7.981,0,0,1-3.891.9,7.224,7.224,0,0,1-5.412-2.038,8.346,8.346,0,0,1,.093-10.939,7.15,7.15,0,0,1,5.348-2.139,7.076,7.076,0,0,1,5.312,2,7.491,7.491,0,0,1,1.952,5.462c0,.124,0,.261-.014.409S669.753,166.419,669.724,166.707Zm-4.048-2.47a3.052,3.052,0,0,0-.969-2.017,3.235,3.235,0,0,0-2.175-.682,3.352,3.352,0,0,0-2.2.682,3.21,3.21,0,0,0-1.055,2.017Z"/>
      <path class="cls-10" d="M505.174,201.988H494.594a3.683,3.683,0,0,0,1.105,2.275,3.433,3.433,0,0,0,2.34.754,4.062,4.062,0,0,0,1.931-.431,3.575,3.575,0,0,0,1.357-1.307l3.3,1.65a7.6,7.6,0,0,1-2.785,2.75,7.981,7.981,0,0,1-3.891.9,7.224,7.224,0,0,1-5.412-2.038,8.346,8.346,0,0,1,.093-10.939,7.151,7.151,0,0,1,5.348-2.139,7.077,7.077,0,0,1,5.312,2,7.492,7.492,0,0,1,1.952,5.463c0,.124,0,.261-.014.409S505.2,201.7,505.174,201.988Zm-4.048-2.47a3.05,3.05,0,0,0-.969-2.017,3.232,3.232,0,0,0-2.175-.683,3.35,3.35,0,0,0-2.2.683,3.207,3.207,0,0,0-1.055,2.017Z"/>
      <path class="cls-10" d="M522.387,208.017h-3.962l.057-2.024a5.356,5.356,0,0,1-2,1.96,5.99,5.99,0,0,1-2.85.624,5.564,5.564,0,0,1-4.515-2.081,9.851,9.851,0,0,1-.029-11.068,5.8,5.8,0,0,1,4.687-2,5.114,5.114,0,0,1,2.7.7,7.241,7.241,0,0,1,2.182,2.226q-.072-.517-.108-1.142t-.036-1.428v-8.025h3.876Zm-3.732-7.063a4.437,4.437,0,0,0-.955-3,3.23,3.23,0,0,0-2.577-1.105,3.311,3.311,0,0,0-2.62,1.084,5.191,5.191,0,0,0-.014,5.979,3.277,3.277,0,0,0,2.605,1.076,3.311,3.311,0,0,0,2.627-1.062A4.353,4.353,0,0,0,518.655,200.954Z"/>
      <path class="cls-10" d="M526.192,188.148a2.4,2.4,0,0,1,2.383-2.383,2.346,2.346,0,0,1,1.7.7,2.274,2.274,0,0,1,.71,1.687,2.3,2.3,0,0,1-.71,1.694,2.334,2.334,0,0,1-1.7.7,2.27,2.27,0,0,1-1.68-.718A2.322,2.322,0,0,1,526.192,188.148Zm.359,19.869V193.934h4.077v14.083Z"/>
      <path class="cls-10" d="M545.156,207.6a6.544,6.544,0,0,1-1.751.739,8.075,8.075,0,0,1-2.01.236,7.3,7.3,0,0,1-5.427-2.117,7.49,7.49,0,0,1-2.1-5.506,7.274,7.274,0,0,1,2.11-5.405,7.446,7.446,0,0,1,5.47-2.088,8.578,8.578,0,0,1,2.01.215,6.451,6.451,0,0,1,1.694.675l-.029,4.105a4.566,4.566,0,0,0-3.288-1.378,3.681,3.681,0,0,0-2.756,1.056,3.884,3.884,0,0,0,2.871,6.683,4.11,4.11,0,0,0,1.759-.359,4.209,4.209,0,0,0,1.414-1.119Zm-8.111,6.7v-1.823q1.148.3,2.11.459a10.169,10.169,0,0,0,1.594.158,1.8,1.8,0,0,0,1.084-.266.951.951,0,0,0,.352-.812.794.794,0,0,0-.4-.753,2.922,2.922,0,0,0-1.342-.223c-.182,0-.335,0-.459.007s-.244.012-.359.021v-3.058h1.464v1.292h.215a3.916,3.916,0,0,1,2.52.7,2.519,2.519,0,0,1,.854,2.074,2.487,2.487,0,0,1-.955,2.132,4.777,4.777,0,0,1-2.864.711,11.125,11.125,0,0,1-1.7-.158A20.485,20.485,0,0,1,537.045,214.305Z"/>
      <path class="cls-10" d="M562.354,208.017h-3.962l.057-2.024a5.356,5.356,0,0,1-2,1.96,5.99,5.99,0,0,1-2.85.624,5.564,5.564,0,0,1-4.515-2.081,9.816,9.816,0,0,1-.029-11.047,5.813,5.813,0,0,1,4.687-1.988,5.284,5.284,0,0,1,2.75.7,5.651,5.651,0,0,1,1.988,2.1v-2.325h3.876Zm-2.3-20.759a6.053,6.053,0,0,1-1.12,2.648,2.356,2.356,0,0,1-1.866.825,4.165,4.165,0,0,1-.56-.035,2.918,2.918,0,0,1-.517-.122l-1.249-.374a3.9,3.9,0,0,0-.517-.114,3.191,3.191,0,0,0-.431-.029,1.153,1.153,0,0,0-.79.266,1.779,1.779,0,0,0-.474.84h-1.579a5.708,5.708,0,0,1,1.083-2.562,2.341,2.341,0,0,1,1.845-.811,3.723,3.723,0,0,1,.574.05,5.462,5.462,0,0,1,.66.151l1.335.358a2.123,2.123,0,0,0,.366.086,2.844,2.844,0,0,0,.423.029,1.064,1.064,0,0,0,.775-.295,1.913,1.913,0,0,0,.459-.911Zm-1.436,13.7a4.437,4.437,0,0,0-.955-3,3.23,3.23,0,0,0-2.577-1.105,3.293,3.293,0,0,0-2.62,1.1,4.433,4.433,0,0,0-.955,3.008,4.331,4.331,0,0,0,.94,2.972,3.753,3.753,0,0,0,5.233,0A4.353,4.353,0,0,0,558.622,200.954Z"/>
      <path class="cls-10" d="M581.018,201.026a7.209,7.209,0,0,1-2.218,5.4,8.458,8.458,0,0,1-11.276,0,7.643,7.643,0,0,1,.014-10.8,8.451,8.451,0,0,1,11.27-.028A7.23,7.23,0,0,1,581.018,201.026ZM576.854,201a3.761,3.761,0,0,0-1.005-2.749,3.607,3.607,0,0,0-2.7-1.026,3.569,3.569,0,0,0-2.685,1.02,4.33,4.33,0,0,0,0,5.513,3.541,3.541,0,0,0,2.685,1.033,3.6,3.6,0,0,0,2.692-1.033A3.771,3.771,0,0,0,576.854,201Z"/>
      <path class="cls-10" d="M607.246,208.017h-3.962l.057-2.024a5.356,5.356,0,0,1-2,1.96,5.99,5.99,0,0,1-2.85.624,5.564,5.564,0,0,1-4.515-2.081,9.851,9.851,0,0,1-.029-11.068,5.8,5.8,0,0,1,4.687-2,5.114,5.114,0,0,1,2.7.7,7.241,7.241,0,0,1,2.182,2.226q-.072-.517-.108-1.142t-.036-1.428v-8.025h3.876Zm-3.732-7.063a4.437,4.437,0,0,0-.955-3,3.23,3.23,0,0,0-2.577-1.105,3.311,3.311,0,0,0-2.62,1.084,5.191,5.191,0,0,0-.014,5.979,3.277,3.277,0,0,0,2.605,1.076,3.311,3.311,0,0,0,2.627-1.062A4.353,4.353,0,0,0,603.514,200.954Z"/>
      <path class="cls-10" d="M625,201.988H614.424a3.683,3.683,0,0,0,1.105,2.275,3.433,3.433,0,0,0,2.34.754,4.062,4.062,0,0,0,1.931-.431,3.575,3.575,0,0,0,1.357-1.307l3.3,1.65a7.6,7.6,0,0,1-2.785,2.75,7.981,7.981,0,0,1-3.891.9,7.224,7.224,0,0,1-5.412-2.038,8.346,8.346,0,0,1,.093-10.939,7.151,7.151,0,0,1,5.348-2.139,7.077,7.077,0,0,1,5.312,2,7.492,7.492,0,0,1,1.952,5.463c0,.124,0,.261-.014.409S625.034,201.7,625,201.988Zm-4.048-2.47a3.05,3.05,0,0,0-.969-2.017,3.232,3.232,0,0,0-2.175-.683,3.35,3.35,0,0,0-2.2.683,3.207,3.207,0,0,0-1.055,2.017Z"/>
      <path class="cls-10" d="M640.61,208.017l-5.728-14.083H639.6l2.383,7.321q.287.891.459,1.651a12.132,12.132,0,0,1,.244,1.492q.172-1.1.345-1.88a11.21,11.21,0,0,1,.4-1.407l2.4-7.178h4.651L644.7,208.017Z"/>
      <path class="cls-10" d="M658.67,186.555l-4.493,5.3h-2.039l2.828-5.3Zm-6.259,21.462V193.934h4.077v14.083Z"/>
      <path class="cls-10" d="M674.749,208.017h-3.962l.057-2.024a5.356,5.356,0,0,1-2,1.96,5.99,5.99,0,0,1-2.85.624,5.564,5.564,0,0,1-4.515-2.081,9.851,9.851,0,0,1-.029-11.068,5.8,5.8,0,0,1,4.687-2,5.114,5.114,0,0,1,2.7.7,7.241,7.241,0,0,1,2.182,2.226q-.072-.517-.108-1.142t-.036-1.428v-8.025h3.876Zm-3.732-7.063a4.437,4.437,0,0,0-.955-3,3.23,3.23,0,0,0-2.577-1.105,3.311,3.311,0,0,0-2.62,1.084,5.191,5.191,0,0,0-.014,5.979,3.277,3.277,0,0,0,2.605,1.076,3.311,3.311,0,0,0,2.627-1.062A4.353,4.353,0,0,0,671.016,200.954Z"/>
      <path class="cls-10" d="M692.507,201.988H681.927a3.683,3.683,0,0,0,1.105,2.275,3.433,3.433,0,0,0,2.34.754,4.062,4.062,0,0,0,1.931-.431,3.575,3.575,0,0,0,1.357-1.307l3.3,1.65a7.6,7.6,0,0,1-2.785,2.75,7.981,7.981,0,0,1-3.891.9,7.224,7.224,0,0,1-5.412-2.038,8.346,8.346,0,0,1,.093-10.939,7.151,7.151,0,0,1,5.348-2.139,7.077,7.077,0,0,1,5.312,2,7.492,7.492,0,0,1,1.952,5.463c0,.124,0,.261-.014.409S692.536,201.7,692.507,201.988Zm-4.048-2.47a3.05,3.05,0,0,0-.969-2.017,3.232,3.232,0,0,0-2.175-.683,3.35,3.35,0,0,0-2.2.683,3.207,3.207,0,0,0-1.055,2.017Z"/>
      <path class="cls-10" d="M710.424,201.026a7.209,7.209,0,0,1-2.218,5.4,8.458,8.458,0,0,1-11.276,0,7.643,7.643,0,0,1,.014-10.8,8.451,8.451,0,0,1,11.27-.028A7.23,7.23,0,0,1,710.424,201.026ZM706.261,201a3.761,3.761,0,0,0-1.005-2.749,3.607,3.607,0,0,0-2.7-1.026,3.569,3.569,0,0,0-2.685,1.02,4.33,4.33,0,0,0,0,5.513,3.541,3.541,0,0,0,2.685,1.033,3.6,3.6,0,0,0,2.692-1.033A3.771,3.771,0,0,0,706.261,201Z"/>
      <path class="cls-10" d="M712.132,205.547l3.144-1.622a1.963,1.963,0,0,0,.847,1.292,3.445,3.445,0,0,0,3.288.108,1.143,1.143,0,0,0,.574-1.013q0-1.02-2.039-1.708-.632-.215-1-.359a10.1,10.1,0,0,1-3.438-1.88,3.167,3.167,0,0,1-.955-2.341,4.055,4.055,0,0,1,1.622-3.345,7.65,7.65,0,0,1,7.559-.517,4.554,4.554,0,0,1,2.017,2.153l-3,1.493a2.164,2.164,0,0,0-.847-1.2,2.627,2.627,0,0,0-1.507-.409,2.6,2.6,0,0,0-1.464.374,1.129,1.129,0,0,0-.56.976q0,1.049,2.785,1.953.33.1.5.157a8.115,8.115,0,0,1,3.287,1.773,3.559,3.559,0,0,1,.977,2.577,3.967,3.967,0,0,1-1.623,3.33,7.057,7.057,0,0,1-4.378,1.234,7.926,7.926,0,0,1-3.726-.811A4.1,4.1,0,0,1,712.132,205.547Z"/>
    </g>
    <g>
      <g>
        <circle class="cls-28" cx="411.477" cy="181.236" r="44.427"/>
        <path class="cls-29" d="M387.287,174.061h40.751l-1.8-34.738a44.276,44.276,0,0,0-13.091-2.48Z"/>
        <path class="cls-30" d="M403.993,225.032l-16.706-50.97-8.666,37.078A44.35,44.35,0,0,0,403.993,225.032Z"/>
        <path class="cls-31" d="M451.414,200.715l-64.127-26.654,16.706,50.97a44.472,44.472,0,0,0,47.421-24.316Z"/>
        <path class="cls-28" d="M451.415,200.715a44.526,44.526,0,0,0,1.288-36.063l-24.664,9.409Z"/>
        <path class="cls-31" d="M426.236,139.323l1.8,34.738,24.664-9.409A44.556,44.556,0,0,0,426.236,139.323Z"/>
        <path class="cls-32" d="M413.145,136.843c-.554-.02-1.109-.034-1.668-.034a44.427,44.427,0,0,0-44.427,44.427q0,1.8.142,3.563l20.094-10.737Z"/>
        <path class="cls-33" d="M378.621,211.139l8.666-37.078L367.193,184.8A44.253,44.253,0,0,0,378.621,211.139Z"/>
        <polygon class="cls-34" points="451.416 200.716 428.038 174.061 387.287 174.061 451.416 200.716"/>
      </g>
      <g>
        <polygon class="cls-27" points="412.047 181.236 382.546 164.203 382.546 198.268 412.047 181.236"/>
        <rect class="cls-27" x="417.627" y="164.203" width="8.955" height="34.065"/>
        <rect class="cls-27" x="431.453" y="164.203" width="8.955" height="34.065"/>
      </g>
    </g>
  </g>
  <g>
    <g>
      <path class="cls-10" d="M490.429,33.256l2.5-2.828a3.829,3.829,0,0,0,1.521,1.831,4.291,4.291,0,0,0,2.354.667,3.847,3.847,0,0,0,2.5-.747,2.455,2.455,0,0,0,.919-2.01q0-1.493-3.058-2.972-.99-.474-1.564-.775a11.658,11.658,0,0,1-3.819-2.807,5.171,5.171,0,0,1-1.062-3.266,5.261,5.261,0,0,1,2.06-4.271,8.215,8.215,0,0,1,5.348-1.673,7.52,7.52,0,0,1,3.295.668,6.7,6.7,0,0,1,2.448,2.088L501.21,19.7a3.244,3.244,0,0,0-1.256-1.371,3.711,3.711,0,0,0-1.888-.452,3.3,3.3,0,0,0-2.154.667,2.128,2.128,0,0,0-.818,1.73q0,1.666,3.244,3.043.646.272.991.431a11.078,11.078,0,0,1,3.955,2.756,5.307,5.307,0,0,1,1.285,3.5,5.942,5.942,0,0,1-2.017,4.716,7.959,7.959,0,0,1-5.419,1.759A9.425,9.425,0,0,1,493,35.653,5.587,5.587,0,0,1,490.429,33.256Z"/>
      <path class="cls-10" d="M522.7,28.935a7.209,7.209,0,0,1-2.218,5.4,8.457,8.457,0,0,1-11.276,0,7.2,7.2,0,0,1-2.225-5.4,7.205,7.205,0,0,1,2.239-5.4,8.449,8.449,0,0,1,11.27-.029A7.23,7.23,0,0,1,522.7,28.935Zm-4.163-.029a3.762,3.762,0,0,0-1.005-2.75,4.053,4.053,0,0,0-5.383-.007,3.787,3.787,0,0,0-.991,2.756,3.818,3.818,0,0,0,.991,2.756,3.543,3.543,0,0,0,2.685,1.034,3.6,3.6,0,0,0,2.692-1.034A3.769,3.769,0,0,0,518.538,28.906Z"/>
      <path class="cls-10" d="M526.291,35.926V25.044h-1.823v-3.2h1.823V18.67A5.392,5.392,0,0,1,527.6,14.6q1.307-1.228,4.307-1.227a5.363,5.363,0,0,1,.768.064q.437.064,1.141.237v3.259a3.432,3.432,0,0,0-.718-.294,2.742,2.742,0,0,0-.718-.093,1.868,1.868,0,0,0-1.536.567,3.175,3.175,0,0,0-.459,1.959v2.771h2.613v3.2h-2.613V35.926Z"/>
      <path class="cls-10" d="M536.024,35.926V25.044h-1.967v-3.2h1.967v-4.68h4.091v4.68h1.967v3.2h-1.967V35.926Z"/>
      <path class="cls-10" d="M556.84,21.843l2.039,7.293q.057.215.15.761t.337,2.24q.13-.66.323-1.393t.481-1.637l2.2-7.264h4.451l-4.881,14.083h-4.364l-2.11-7.293q-.057-.2-.187-.646-.474-1.651-.689-2.7-.187.976-.366,1.78t-.38,1.508l-2.168,7.35h-4.35l-4.881-14.083h4.465l2.153,6.992q.287.947.474,1.715t.316,1.572q.115-.876.273-1.687t.373-1.572l1.881-7.021Z"/>
      <path class="cls-10" d="M582.738,35.926h-3.962l.057-2.024a5.363,5.363,0,0,1-2,1.96,5.99,5.99,0,0,1-2.85.625,5.563,5.563,0,0,1-4.515-2.082,8.367,8.367,0,0,1-1.716-5.5,8.321,8.321,0,0,1,1.687-5.549,5.816,5.816,0,0,1,4.687-1.988,5.284,5.284,0,0,1,2.75.7,5.647,5.647,0,0,1,1.988,2.1V21.843h3.876Zm-3.732-7.063a4.436,4.436,0,0,0-.955-3,3.232,3.232,0,0,0-2.577-1.105,3.291,3.291,0,0,0-2.62,1.1,4.431,4.431,0,0,0-.955,3.008,4.333,4.333,0,0,0,.94,2.972,3.754,3.754,0,0,0,5.233,0A4.355,4.355,0,0,0,579.006,28.863Z"/>
      <path class="cls-10" d="M590.534,25.46a6.477,6.477,0,0,1,1.773-3.072,4.173,4.173,0,0,1,2.864-1.02,9.174,9.174,0,0,1,1.277.144l.259.043-.618,4.393a5.141,5.141,0,0,0-.926-.28,5.02,5.02,0,0,0-.983-.093,3.362,3.362,0,0,0-2.685.955,4.916,4.916,0,0,0-.818,3.194v6.2h-4.091V21.843h4.034Z"/>
      <path class="cls-10" d="M612.312,29.9H601.731a3.683,3.683,0,0,0,1.105,2.276,3.431,3.431,0,0,0,2.34.753,4.062,4.062,0,0,0,1.931-.431,3.578,3.578,0,0,0,1.357-1.306l3.3,1.651a7.6,7.6,0,0,1-2.785,2.749,7.976,7.976,0,0,1-3.891.9,7.226,7.226,0,0,1-5.412-2.039,7.5,7.5,0,0,1-2-5.484,7.485,7.485,0,0,1,2.089-5.455,7.15,7.15,0,0,1,5.348-2.139,7.076,7.076,0,0,1,5.312,2,7.491,7.491,0,0,1,1.952,5.462q0,.187-.014.409T612.312,29.9Zm-4.048-2.469a3.051,3.051,0,0,0-.969-2.017,3.235,3.235,0,0,0-2.175-.682,3.352,3.352,0,0,0-2.2.682,3.209,3.209,0,0,0-1.055,2.017Z"/>
      <path class="cls-10" d="M614.035,33.457l3.144-1.622a1.965,1.965,0,0,0,.847,1.292,3.441,3.441,0,0,0,3.288.107,1.143,1.143,0,0,0,.574-1.012q0-1.019-2.039-1.708-.632-.215-1-.359a10.081,10.081,0,0,1-3.438-1.881,3.166,3.166,0,0,1-.955-2.34,4.056,4.056,0,0,1,1.622-3.345,7.647,7.647,0,0,1,7.559-.517,4.559,4.559,0,0,1,2.017,2.153l-3,1.493a2.16,2.16,0,0,0-.847-1.2,3.02,3.02,0,0,0-2.972-.036,1.13,1.13,0,0,0-.56.976q0,1.048,2.785,1.953.33.1.5.158a8.121,8.121,0,0,1,3.287,1.773,3.561,3.561,0,0,1,.977,2.577,3.967,3.967,0,0,1-1.623,3.331,7.058,7.058,0,0,1-4.378,1.235,7.914,7.914,0,0,1-3.726-.812A4.1,4.1,0,0,1,614.035,33.457Z"/>
      <path class="cls-10" d="M505.531,71.208h-3.962l.057-2.024a5.363,5.363,0,0,1-2,1.96,5.99,5.99,0,0,1-2.85.625,5.563,5.563,0,0,1-4.515-2.082,8.367,8.367,0,0,1-1.716-5.5,8.374,8.374,0,0,1,1.687-5.57,5.806,5.806,0,0,1,4.687-2,5.114,5.114,0,0,1,2.7.7,7.239,7.239,0,0,1,2.182,2.225q-.072-.517-.108-1.141t-.036-1.429V48.956h3.876ZM501.8,64.145a4.436,4.436,0,0,0-.955-3,3.232,3.232,0,0,0-2.577-1.105,3.311,3.311,0,0,0-2.62,1.084,5.19,5.19,0,0,0-.014,5.979,3.277,3.277,0,0,0,2.605,1.077,3.313,3.313,0,0,0,2.627-1.062A4.355,4.355,0,0,0,501.8,64.145Z"/>
      <path class="cls-10" d="M523.29,65.178H512.709a3.683,3.683,0,0,0,1.105,2.276,3.431,3.431,0,0,0,2.34.753,4.062,4.062,0,0,0,1.931-.431,3.578,3.578,0,0,0,1.357-1.306l3.3,1.651a7.6,7.6,0,0,1-2.785,2.749,7.976,7.976,0,0,1-3.891.9,7.226,7.226,0,0,1-5.412-2.039,8.346,8.346,0,0,1,.093-10.939,7.15,7.15,0,0,1,5.348-2.139,7.076,7.076,0,0,1,5.312,2,7.491,7.491,0,0,1,1.952,5.462q0,.187-.014.409T523.29,65.178Zm-4.048-2.469a3.051,3.051,0,0,0-.969-2.017,3.235,3.235,0,0,0-2.175-.682,3.352,3.352,0,0,0-2.2.682,3.209,3.209,0,0,0-1.055,2.017Z"/>
      <path class="cls-10" d="M535.421,77.611V57.125h3.919V59.45a5.609,5.609,0,0,1,1.974-2.1,5.221,5.221,0,0,1,2.721-.7,5.838,5.838,0,0,1,4.694,1.988,8.3,8.3,0,0,1,1.694,5.549,8.386,8.386,0,0,1-1.708,5.505,5.536,5.536,0,0,1-4.493,2.075,5.987,5.987,0,0,1-2.85-.625,5.361,5.361,0,0,1-2-1.96q.072.532.108,1.156t.036,1.429v5.843Zm3.732-13.466a4.333,4.333,0,0,0,.94,2.972,3.762,3.762,0,0,0,5.24,0,4.333,4.333,0,0,0,.94-2.972,4.431,4.431,0,0,0-.955-3.008,3.308,3.308,0,0,0-2.634-1.1,3.232,3.232,0,0,0-2.577,1.105A4.436,4.436,0,0,0,539.153,64.145Z"/>
      <path class="cls-10" d="M557.486,60.742a6.477,6.477,0,0,1,1.773-3.072,4.173,4.173,0,0,1,2.864-1.02,9.174,9.174,0,0,1,1.277.144l.259.043-.618,4.393a5.141,5.141,0,0,0-.926-.28,5.02,5.02,0,0,0-.983-.093,3.362,3.362,0,0,0-2.685.955,4.916,4.916,0,0,0-.818,3.194v6.2h-4.091V57.125h4.034Z"/>
      <path class="cls-10" d="M580.327,64.217a7.209,7.209,0,0,1-2.218,5.4,8.457,8.457,0,0,1-11.276,0,7.642,7.642,0,0,1,.014-10.8,8.449,8.449,0,0,1,11.27-.029A7.23,7.23,0,0,1,580.327,64.217Zm-4.163-.029a3.762,3.762,0,0,0-1.005-2.75,4.053,4.053,0,0,0-5.383-.007,4.33,4.33,0,0,0,0,5.513,3.543,3.543,0,0,0,2.685,1.034,3.6,3.6,0,0,0,2.692-1.034A3.769,3.769,0,0,0,576.164,64.188Z"/>
      <path class="cls-10" d="M597.5,70.979a12.622,12.622,0,0,1-.265,3.129,3.691,3.691,0,0,1-.912,1.565,5.489,5.489,0,0,1-2.354,1.464,11.217,11.217,0,0,1-3.489.474,10.085,10.085,0,0,1-5.211-1.091,3.984,3.984,0,0,1-1.938-3.316h4.494a1.541,1.541,0,0,0,.747,1.206,3.766,3.766,0,0,0,1.909.388,3.011,3.011,0,0,0,2.4-.861,4.41,4.41,0,0,0,.739-2.871v-2.01a5.407,5.407,0,0,1-1.974,1.938,5.621,5.621,0,0,1-2.735.632,5.793,5.793,0,0,1-4.637-2.032,8.144,8.144,0,0,1-1.737-5.477,8.174,8.174,0,0,1,1.694-5.484,5.829,5.829,0,0,1,4.68-1.981,5.26,5.26,0,0,1,2.735.71,5.7,5.7,0,0,1,2,2.089V57.125H597.5Zm-3.7-6.833a4.3,4.3,0,0,0-.948-2.943,3.265,3.265,0,0,0-2.584-1.077,3.328,3.328,0,0,0-2.627,1.07,5.063,5.063,0,0,0-.015,5.878,3.789,3.789,0,0,0,5.233,0A4.23,4.23,0,0,0,593.793,64.145Z"/>
      <path class="cls-10" d="M605.479,60.742a6.477,6.477,0,0,1,1.773-3.072,4.173,4.173,0,0,1,2.864-1.02,9.174,9.174,0,0,1,1.277.144l.259.043-.618,4.393a5.141,5.141,0,0,0-.926-.28,5.02,5.02,0,0,0-.983-.093,3.362,3.362,0,0,0-2.685.955,4.916,4.916,0,0,0-.818,3.194v6.2h-4.091V57.125h4.034Z"/>
      <path class="cls-10" d="M627.616,71.208h-3.962l.057-2.024a5.363,5.363,0,0,1-2,1.96,5.99,5.99,0,0,1-2.85.625,5.563,5.563,0,0,1-4.515-2.082,8.367,8.367,0,0,1-1.716-5.5,8.321,8.321,0,0,1,1.687-5.549A5.816,5.816,0,0,1,619,56.651a5.284,5.284,0,0,1,2.75.7,5.647,5.647,0,0,1,1.988,2.1V57.125h3.876Zm-3.732-7.063a4.436,4.436,0,0,0-.955-3,3.232,3.232,0,0,0-2.577-1.105,3.291,3.291,0,0,0-2.62,1.1,4.431,4.431,0,0,0-.955,3.008,4.333,4.333,0,0,0,.94,2.972,3.754,3.754,0,0,0,5.233,0A4.355,4.355,0,0,0,623.883,64.145Z"/>
      <path class="cls-10" d="M635.5,71.208h-4.092V57.125H635.5v2.211a6.94,6.94,0,0,1,2.146-2.039,5.769,5.769,0,0,1,5.441.072,3.876,3.876,0,0,1,1.558,2.168,6.975,6.975,0,0,1,2.218-2.161,5.745,5.745,0,0,1,5.254-.172,3.814,3.814,0,0,1,1.615,1.658,4.834,4.834,0,0,1,.431,1.364,15.024,15.024,0,0,1,.129,2.312v8.671H650.2V64.245a7.349,7.349,0,0,0-.524-3.417,1.979,1.979,0,0,0-1.83-.847,2.472,2.472,0,0,0-2.29,1.177,7.791,7.791,0,0,0-.71,3.848v6.2h-4.092V64.245a7.767,7.767,0,0,0-.488-3.359,1.762,1.762,0,0,0-1.68-.875,2.56,2.56,0,0,0-2.354,1.185,7.522,7.522,0,0,0-.732,3.812Z"/>
      <path class="cls-10" d="M672.306,71.208h-3.962l.057-2.024a5.363,5.363,0,0,1-2,1.96,5.99,5.99,0,0,1-2.85.625,5.563,5.563,0,0,1-4.515-2.082,8.367,8.367,0,0,1-1.716-5.5,8.321,8.321,0,0,1,1.687-5.549,5.816,5.816,0,0,1,4.687-1.988,5.284,5.284,0,0,1,2.75.7,5.647,5.647,0,0,1,1.988,2.1V57.125h3.876Zm-3.732-7.063a4.436,4.436,0,0,0-.955-3,3.232,3.232,0,0,0-2.577-1.105,3.291,3.291,0,0,0-2.62,1.1,4.431,4.431,0,0,0-.955,3.008,4.333,4.333,0,0,0,.94,2.972,3.754,3.754,0,0,0,5.233,0A4.355,4.355,0,0,0,668.574,64.145Z"/>
      <path class="cls-10" d="M686.533,70.792a6.53,6.53,0,0,1-1.751.74,8.052,8.052,0,0,1-2.01.237,7.3,7.3,0,0,1-5.427-2.118,7.488,7.488,0,0,1-2.1-5.505,7.274,7.274,0,0,1,2.11-5.405,7.443,7.443,0,0,1,5.47-2.089,8.576,8.576,0,0,1,2.01.215,6.468,6.468,0,0,1,1.694.675l-.029,4.106a4.559,4.559,0,0,0-3.288-1.378,3.684,3.684,0,0,0-2.756,1.055,3.884,3.884,0,0,0,2.871,6.683,4.1,4.1,0,0,0,1.759-.359,4.2,4.2,0,0,0,1.414-1.12Zm-8.111,6.7V75.673q1.148.3,2.11.459a10.219,10.219,0,0,0,1.594.158,1.8,1.8,0,0,0,1.084-.266.951.951,0,0,0,.352-.811.8.8,0,0,0-.4-.754,2.923,2.923,0,0,0-1.342-.222c-.182,0-.335,0-.459.007s-.244.012-.359.021V71.208h1.464V72.5h.215a3.913,3.913,0,0,1,2.52.7,2.52,2.52,0,0,1,.854,2.075A2.488,2.488,0,0,1,685.1,77.4a4.778,4.778,0,0,1-2.864.71,11.179,11.179,0,0,1-1.7-.158A20.622,20.622,0,0,1,678.422,77.5Z"/>
      <path class="cls-10" d="M703.731,71.208H699.77l.057-2.024a5.363,5.363,0,0,1-2,1.96,5.99,5.99,0,0,1-2.85.625,5.563,5.563,0,0,1-4.515-2.082,8.367,8.367,0,0,1-1.716-5.5,8.321,8.321,0,0,1,1.687-5.549,5.816,5.816,0,0,1,4.687-1.988,5.284,5.284,0,0,1,2.75.7,5.647,5.647,0,0,1,1.988,2.1V57.125h3.876Zm-2.3-20.759a6.058,6.058,0,0,1-1.12,2.648,2.356,2.356,0,0,1-1.866.826,4.08,4.08,0,0,1-.56-.036,2.834,2.834,0,0,1-.517-.122l-1.249-.373a3.688,3.688,0,0,0-.517-.115,3.272,3.272,0,0,0-.431-.029,1.15,1.15,0,0,0-.79.266,1.772,1.772,0,0,0-.474.84h-1.579a5.7,5.7,0,0,1,1.083-2.562,2.339,2.339,0,0,1,1.845-.811,3.723,3.723,0,0,1,.574.05,5.456,5.456,0,0,1,.66.151l1.335.359a2.123,2.123,0,0,0,.366.086,2.917,2.917,0,0,0,.423.028,1.063,1.063,0,0,0,.775-.294,1.917,1.917,0,0,0,.459-.912ZM700,64.145a4.436,4.436,0,0,0-.955-3,3.232,3.232,0,0,0-2.577-1.105,3.291,3.291,0,0,0-2.62,1.1,4.431,4.431,0,0,0-.955,3.008,4.333,4.333,0,0,0,.94,2.972,3.754,3.754,0,0,0,5.233,0A4.355,4.355,0,0,0,700,64.145Z"/>
      <path class="cls-10" d="M722.4,64.217a7.209,7.209,0,0,1-2.218,5.4,8.457,8.457,0,0,1-11.276,0,7.642,7.642,0,0,1,.014-10.8,8.449,8.449,0,0,1,11.27-.029A7.23,7.23,0,0,1,722.4,64.217Zm-4.163-.029a3.762,3.762,0,0,0-1.005-2.75,4.053,4.053,0,0,0-5.383-.007,4.33,4.33,0,0,0,0,5.513,3.543,3.543,0,0,0,2.685,1.034,3.6,3.6,0,0,0,2.692-1.034A3.769,3.769,0,0,0,718.232,64.188Z"/>
    </g>
    <g>
      <g>
        <circle class="cls-35" cx="411.477" cy="44.427" r="44.427"/>
        <g>
          <path class="cls-35" d="M387.287,37.252h40.751l-1.8-34.738A44.276,44.276,0,0,0,413.145.034Z"/>
          <path class="cls-36" d="M403.993,88.223l-16.706-50.97L378.621,74.33A44.35,44.35,0,0,0,403.993,88.223Z"/>
          <path class="cls-37" d="M451.414,63.906,387.287,37.252l16.706,50.97a44.472,44.472,0,0,0,47.421-24.316Z"/>
          <path class="cls-38" d="M451.415,63.906A44.526,44.526,0,0,0,452.7,27.843l-24.664,9.409Z"/>
          <path class="cls-37" d="M426.236,2.514l1.8,34.738L452.7,27.843A44.556,44.556,0,0,0,426.236,2.514Z"/>
          <path class="cls-39" d="M413.145.034C412.591.014,412.036,0,411.477,0A44.427,44.427,0,0,0,367.05,44.427q0,1.8.142,3.563l20.094-10.737Z"/>
          <path class="cls-40" d="M378.621,74.33l8.666-37.078L367.193,47.99A44.253,44.253,0,0,0,378.621,74.33Z"/>
          <polygon class="cls-41" points="451.416 63.907 428.038 37.252 387.287 37.252 451.416 63.907"/>
        </g>
      </g>
      <g>
        <path class="cls-10" d="M392.5,27.635v4.829a2.325,2.325,0,0,1-.419-.04h-.4a3.618,3.618,0,0,0-2.614.7,4.415,4.415,0,0,0-.7,2.934v4.789a6.822,6.822,0,0,1-.9,4.011,5.587,5.587,0,0,1-3.325,1.676,5.64,5.64,0,0,1,3.325,1.617,6.654,6.654,0,0,1,.9,4.011v4.83q0,2.235.7,2.894a3.55,3.55,0,0,0,2.574.7,2.26,2.26,0,0,0,.439-.04h.419v4.829a7.418,7.418,0,0,0-.819.04h-.819a19.643,19.643,0,0,1-3.555-.26,8.054,8.054,0,0,1-2.423-.718,3.268,3.268,0,0,1-1.643-1.756,10.983,10.983,0,0,1-.48-3.852V53.717a5.578,5.578,0,0,0-.994-3.751,4.34,4.34,0,0,0-3.339-1.078h-.358a1.463,1.463,0,0,1-.358.04V44.119a1.462,1.462,0,0,1,.358.04h.358a4.31,4.31,0,0,0,3.329-1.108,5.579,5.579,0,0,0,1-3.762V34.221a10.959,10.959,0,0,1,.48-3.872,3.489,3.489,0,0,1,1.643-1.776,8.068,8.068,0,0,1,2.423-.718A19.933,19.933,0,0,1,390.9,27.6h.779A7.418,7.418,0,0,0,392.5,27.635Z"/>
        <path class="cls-10" d="M398.106,41.165a3.885,3.885,0,0,1,1.178-2.854,3.7,3.7,0,0,1,2.813-1.138,3.945,3.945,0,0,1,2.914,1.138,3.87,3.87,0,0,1,1.138,2.854,4,4,0,0,1-1.177,2.874,3.91,3.91,0,0,1-2.874,1.178,3.839,3.839,0,0,1-2.813-1.178A3.908,3.908,0,0,1,398.106,41.165Zm0,12.682A3.872,3.872,0,0,1,399.284,51a3.711,3.711,0,0,1,2.813-1.155A3.956,3.956,0,0,1,405.011,51a3.856,3.856,0,0,1,1.138,2.847,4.016,4.016,0,0,1-4.051,4.041,4.016,4.016,0,0,1-3.991-4.041Z"/>
        <path class="cls-10" d="M423.431,60.9,409.123,27.236h4.45L427.841,60.9Z"/>
        <path class="cls-10" d="M430.5,27.635a7.412,7.412,0,0,0,.818-.04h.778a19.913,19.913,0,0,1,3.592.259,8.8,8.8,0,0,1,2.415.718,3.807,3.807,0,0,1,1.676,1.776,11.987,11.987,0,0,1,.459,3.872v5.068a5.544,5.544,0,0,0,.978,3.752,4.234,4.234,0,0,0,3.353,1.118h.359a1.471,1.471,0,0,1,.359-.04v4.829a1.5,1.5,0,0,1-.359-.04h-.359a4.238,4.238,0,0,0-3.353,1.116,5.552,5.552,0,0,0-.978,3.707v5.1a12.266,12.266,0,0,1-.459,3.887,3.822,3.822,0,0,1-1.676,1.754,6.5,6.5,0,0,1-2.255.678,19.627,19.627,0,0,1-3.552.259h-.9a8.305,8.305,0,0,0-.9-.04V60.542h.459a2.043,2.043,0,0,0,.4.04,3.622,3.622,0,0,0,2.614-.7q.658-.639.659-2.892V52.167q0-2.851.9-3.948a5.5,5.5,0,0,1,3.313-1.675,5.559,5.559,0,0,1-3.312-1.678,6.681,6.681,0,0,1-.9-4.014V36.059q0-2.257-.659-2.936a3.477,3.477,0,0,0-2.534-.7h-.439a2.782,2.782,0,0,1-.5.04Z"/>
      </g>
    </g>
  </g>
  <g>
    <g>
      <path class="cls-10" d="M894.114,172.733V151.715h12.375v3.79h-7.882v4.321h7.882v3.818h-7.882v5.27h7.882v3.818Z"/>
      <path class="cls-10" d="M924.649,172.733h-3.962l.057-2.024a5.356,5.356,0,0,1-2,1.96,5.99,5.99,0,0,1-2.85.624,5.564,5.564,0,0,1-4.515-2.081,9.851,9.851,0,0,1-.029-11.069,5.806,5.806,0,0,1,4.687-2,5.114,5.114,0,0,1,2.7.7,7.239,7.239,0,0,1,2.182,2.225q-.072-.517-.108-1.141t-.036-1.429v-8.025h3.876Zm-3.732-7.063a4.437,4.437,0,0,0-.955-3,3.233,3.233,0,0,0-2.577-1.105,3.311,3.311,0,0,0-2.62,1.084,5.191,5.191,0,0,0-.014,5.979,3.277,3.277,0,0,0,2.605,1.076,3.311,3.311,0,0,0,2.627-1.062A4.353,4.353,0,0,0,920.917,165.669Z"/>
      <path class="cls-10" d="M932.661,158.649v7.408a3.954,3.954,0,0,0,.725,2.671,3.846,3.846,0,0,0,4.716-.008,3.93,3.93,0,0,0,.732-2.663v-7.408h4.092v7.408q0,3.719-1.737,5.477t-5.383,1.759q-3.719,0-5.463-1.751t-1.744-5.484v-7.408Z"/>
      <path class="cls-10" d="M957.238,172.317a6.544,6.544,0,0,1-1.751.739,8.075,8.075,0,0,1-2.01.236,7.3,7.3,0,0,1-5.427-2.117,7.49,7.49,0,0,1-2.1-5.506,7.273,7.273,0,0,1,2.11-5.4,7.443,7.443,0,0,1,5.47-2.089,8.576,8.576,0,0,1,2.01.215,6.468,6.468,0,0,1,1.694.675l-.029,4.105a4.556,4.556,0,0,0-3.288-1.378,3.685,3.685,0,0,0-2.756,1.056,3.884,3.884,0,0,0,2.871,6.683,4.11,4.11,0,0,0,1.759-.359,4.209,4.209,0,0,0,1.414-1.119Z"/>
      <path class="cls-10" d="M974.437,172.733h-3.962l.057-2.024a5.356,5.356,0,0,1-2,1.96,5.99,5.99,0,0,1-2.85.624,5.564,5.564,0,0,1-4.515-2.081,9.817,9.817,0,0,1-.029-11.047,5.816,5.816,0,0,1,4.687-1.988,5.284,5.284,0,0,1,2.75.7,5.647,5.647,0,0,1,1.988,2.1v-2.326h3.876Zm-3.732-7.063a4.437,4.437,0,0,0-.955-3,3.233,3.233,0,0,0-2.577-1.105,3.293,3.293,0,0,0-2.62,1.1,4.433,4.433,0,0,0-.955,3.008,4.331,4.331,0,0,0,.94,2.972,3.753,3.753,0,0,0,5.233,0A4.353,4.353,0,0,0,970.7,165.669Z"/>
      <path class="cls-10" d="M992.4,172.733h-3.962l.057-2.024a5.356,5.356,0,0,1-2,1.96,5.99,5.99,0,0,1-2.85.624,5.564,5.564,0,0,1-4.515-2.081,9.851,9.851,0,0,1-.029-11.069,5.806,5.806,0,0,1,4.687-2,5.114,5.114,0,0,1,2.7.7,7.239,7.239,0,0,1,2.182,2.225q-.072-.517-.108-1.141t-.036-1.429v-8.025H992.4Zm-3.732-7.063a4.437,4.437,0,0,0-.955-3,3.233,3.233,0,0,0-2.577-1.105,3.311,3.311,0,0,0-2.62,1.084,5.191,5.191,0,0,0-.014,5.979A3.277,3.277,0,0,0,985.1,169.7a3.311,3.311,0,0,0,2.627-1.062A4.353,4.353,0,0,0,988.664,165.669Z"/>
      <path class="cls-10" d="M1011.217,165.742a7.209,7.209,0,0,1-2.218,5.4,8.458,8.458,0,0,1-11.276,0,7.642,7.642,0,0,1,.014-10.8,8.449,8.449,0,0,1,11.27-.029A7.23,7.23,0,0,1,1011.217,165.742Zm-4.163-.029a3.761,3.761,0,0,0-1.005-2.749,4.053,4.053,0,0,0-5.383-.007,4.33,4.33,0,0,0,0,5.513,3.541,3.541,0,0,0,2.685,1.033,3.6,3.6,0,0,0,2.692-1.033A3.771,3.771,0,0,0,1007.054,165.712Z"/>
      <path class="cls-10" d="M1018.251,162.267a6.477,6.477,0,0,1,1.773-3.072,4.173,4.173,0,0,1,2.864-1.02,9.174,9.174,0,0,1,1.277.144l.259.043-.618,4.393a5.1,5.1,0,0,0-.926-.279,4.983,4.983,0,0,0-.983-.094,3.364,3.364,0,0,0-2.685.954,4.916,4.916,0,0,0-.818,3.194v6.2H1014.3V158.649h4.034Z"/>
      <path class="cls-10" d="M1040.03,166.7h-10.581a3.683,3.683,0,0,0,1.105,2.275,3.433,3.433,0,0,0,2.34.754,4.062,4.062,0,0,0,1.931-.431,3.575,3.575,0,0,0,1.357-1.307l3.3,1.65a7.6,7.6,0,0,1-2.785,2.75,7.981,7.981,0,0,1-3.891.9,7.224,7.224,0,0,1-5.412-2.038,8.346,8.346,0,0,1,.093-10.939,7.15,7.15,0,0,1,5.348-2.139,7.076,7.076,0,0,1,5.312,2,7.491,7.491,0,0,1,1.952,5.462c0,.124,0,.261-.014.409S1040.059,166.417,1040.03,166.7Zm-4.048-2.47a3.05,3.05,0,0,0-.969-2.017,3.235,3.235,0,0,0-2.175-.682,3.352,3.352,0,0,0-2.2.682,3.207,3.207,0,0,0-1.055,2.017Z"/>
      <path class="cls-10" d="M1041.752,170.263l3.144-1.622a1.963,1.963,0,0,0,.847,1.292,3.445,3.445,0,0,0,3.288.108,1.143,1.143,0,0,0,.574-1.013q0-1.02-2.039-1.708-.632-.215-1-.359a10.1,10.1,0,0,1-3.438-1.88,3.167,3.167,0,0,1-.955-2.341,4.056,4.056,0,0,1,1.622-3.345,7.647,7.647,0,0,1,7.559-.517,4.559,4.559,0,0,1,2.017,2.153l-3,1.493a2.16,2.16,0,0,0-.847-1.2,3.02,3.02,0,0,0-2.972-.036,1.129,1.129,0,0,0-.56.976q0,1.049,2.785,1.953.33.1.5.157a8.115,8.115,0,0,1,3.287,1.773,3.559,3.559,0,0,1,.977,2.577,3.967,3.967,0,0,1-1.623,3.33,7.057,7.057,0,0,1-4.378,1.234,7.926,7.926,0,0,1-3.726-.811A4.1,4.1,0,0,1,1041.752,170.263Z"/>
      <path class="cls-10" d="M907.508,201.985H896.928a3.683,3.683,0,0,0,1.105,2.275,3.433,3.433,0,0,0,2.34.754,4.062,4.062,0,0,0,1.931-.431,3.575,3.575,0,0,0,1.357-1.307l3.3,1.65a7.6,7.6,0,0,1-2.785,2.75,7.981,7.981,0,0,1-3.891.9,7.224,7.224,0,0,1-5.412-2.038,8.346,8.346,0,0,1,.093-10.939,7.151,7.151,0,0,1,5.348-2.139,7.077,7.077,0,0,1,5.312,2,7.492,7.492,0,0,1,1.952,5.463c0,.124,0,.261-.014.409S907.537,201.7,907.508,201.985Zm-4.048-2.47a3.05,3.05,0,0,0-.969-2.017,3.232,3.232,0,0,0-2.175-.683,3.35,3.35,0,0,0-2.2.683,3.207,3.207,0,0,0-1.055,2.017Z"/>
      <path class="cls-10" d="M909.231,205.544l3.144-1.622a1.963,1.963,0,0,0,.847,1.292,3.445,3.445,0,0,0,3.288.108,1.143,1.143,0,0,0,.574-1.013q0-1.02-2.039-1.708-.632-.215-1-.359a10.1,10.1,0,0,1-3.438-1.88,3.167,3.167,0,0,1-.955-2.341,4.055,4.055,0,0,1,1.622-3.345,7.65,7.65,0,0,1,7.559-.517,4.554,4.554,0,0,1,2.017,2.153l-3,1.493a2.164,2.164,0,0,0-.847-1.2,2.627,2.627,0,0,0-1.507-.409,2.6,2.6,0,0,0-1.464.374,1.129,1.129,0,0,0-.56.976q0,1.049,2.785,1.953.33.1.5.157a8.115,8.115,0,0,1,3.287,1.773,3.559,3.559,0,0,1,.977,2.577,3.967,3.967,0,0,1-1.623,3.33,7.057,7.057,0,0,1-4.378,1.234,7.926,7.926,0,0,1-3.726-.811A4.1,4.1,0,0,1,909.231,205.544Z"/>
      <path class="cls-10" d="M924.018,214.417V193.931h3.919v2.325a5.6,5.6,0,0,1,1.974-2.1,5.212,5.212,0,0,1,2.721-.7,5.835,5.835,0,0,1,4.694,1.988,8.3,8.3,0,0,1,1.694,5.548,8.386,8.386,0,0,1-1.708,5.506,5.537,5.537,0,0,1-4.493,2.074,5.987,5.987,0,0,1-2.85-.624,5.353,5.353,0,0,1-2-1.96q.072.532.108,1.156t.036,1.428v5.843Zm3.732-13.466a4.331,4.331,0,0,0,.94,2.972,3.761,3.761,0,0,0,5.24,0,4.331,4.331,0,0,0,.94-2.972,4.433,4.433,0,0,0-.955-3.008,3.309,3.309,0,0,0-2.634-1.1,3.23,3.23,0,0,0-2.577,1.105A4.437,4.437,0,0,0,927.75,200.951Z"/>
      <path class="cls-10" d="M955.888,201.985H945.308a3.683,3.683,0,0,0,1.105,2.275,3.433,3.433,0,0,0,2.34.754,4.062,4.062,0,0,0,1.931-.431,3.575,3.575,0,0,0,1.357-1.307l3.3,1.65a7.6,7.6,0,0,1-2.785,2.75,7.981,7.981,0,0,1-3.891.9,7.224,7.224,0,0,1-5.412-2.038,8.346,8.346,0,0,1,.093-10.939,7.151,7.151,0,0,1,5.348-2.139,7.077,7.077,0,0,1,5.312,2,7.492,7.492,0,0,1,1.952,5.463c0,.124,0,.261-.014.409S955.917,201.7,955.888,201.985Zm-4.048-2.47a3.05,3.05,0,0,0-.969-2.017,3.232,3.232,0,0,0-2.175-.683,3.35,3.35,0,0,0-2.2.683,3.207,3.207,0,0,0-1.055,2.017Z"/>
      <path class="cls-10" d="M969.369,207.6a6.544,6.544,0,0,1-1.751.739,8.075,8.075,0,0,1-2.01.236,7.3,7.3,0,0,1-5.427-2.117,7.49,7.49,0,0,1-2.1-5.506,7.274,7.274,0,0,1,2.11-5.405,7.446,7.446,0,0,1,5.47-2.088,8.578,8.578,0,0,1,2.01.215,6.451,6.451,0,0,1,1.694.675l-.029,4.105a4.566,4.566,0,0,0-3.288-1.378,3.681,3.681,0,0,0-2.756,1.056,3.884,3.884,0,0,0,2.871,6.683,4.11,4.11,0,0,0,1.759-.359,4.209,4.209,0,0,0,1.414-1.119Z"/>
      <path class="cls-10" d="M972.254,188.145a2.4,2.4,0,0,1,2.383-2.383,2.346,2.346,0,0,1,1.7.7,2.274,2.274,0,0,1,.71,1.687,2.3,2.3,0,0,1-.71,1.694,2.334,2.334,0,0,1-1.7.7,2.27,2.27,0,0,1-1.68-.718A2.322,2.322,0,0,1,972.254,188.145Zm.359,19.869V193.931h4.077v14.083Z"/>
      <path class="cls-10" d="M994.951,208.014h-3.962l.057-2.024a5.356,5.356,0,0,1-2,1.96,5.99,5.99,0,0,1-2.85.624,5.564,5.564,0,0,1-4.515-2.081,9.816,9.816,0,0,1-.029-11.047,5.813,5.813,0,0,1,4.687-1.988,5.284,5.284,0,0,1,2.75.7,5.651,5.651,0,0,1,1.988,2.1v-2.325h3.876Zm-3.732-7.063a4.437,4.437,0,0,0-.955-3,3.23,3.23,0,0,0-2.577-1.105,3.293,3.293,0,0,0-2.62,1.1,4.433,4.433,0,0,0-.955,3.008,4.331,4.331,0,0,0,.94,2.972,3.753,3.753,0,0,0,5.233,0A4.353,4.353,0,0,0,991.219,200.951Z"/>
      <path class="cls-10" d="M998.957,208.014V185.762h4.077v22.252Z"/>
      <path class="cls-10" d="M1006.982,188.145a2.4,2.4,0,0,1,2.383-2.383,2.346,2.346,0,0,1,1.7.7,2.274,2.274,0,0,1,.71,1.687,2.3,2.3,0,0,1-.71,1.694,2.334,2.334,0,0,1-1.7.7,2.27,2.27,0,0,1-1.68-.718A2.322,2.322,0,0,1,1006.982,188.145Zm.359,19.869V193.931h4.077v14.083Z"/>
      <path class="cls-10" d="M1014.188,205.544l3.144-1.622a1.963,1.963,0,0,0,.847,1.292,3.445,3.445,0,0,0,3.288.108,1.143,1.143,0,0,0,.574-1.013q0-1.02-2.039-1.708-.632-.215-1-.359a10.1,10.1,0,0,1-3.438-1.88,3.167,3.167,0,0,1-.955-2.341,4.055,4.055,0,0,1,1.622-3.345,7.65,7.65,0,0,1,7.559-.517,4.554,4.554,0,0,1,2.017,2.153l-3,1.493a2.164,2.164,0,0,0-.847-1.2,2.627,2.627,0,0,0-1.507-.409,2.6,2.6,0,0,0-1.464.374,1.129,1.129,0,0,0-.56.976q0,1.049,2.785,1.953.33.1.5.157a8.115,8.115,0,0,1,3.287,1.773,3.559,3.559,0,0,1,.977,2.577,3.967,3.967,0,0,1-1.623,3.33,7.057,7.057,0,0,1-4.378,1.234,7.926,7.926,0,0,1-3.726-.811A4.1,4.1,0,0,1,1014.188,205.544Z"/>
      <path class="cls-10" d="M1029.478,208.014V197.132h-1.967v-3.2h1.967V189.25h4.091v4.681h1.967v3.2h-1.967v10.882Z"/>
      <path class="cls-10" d="M1052.175,208.014h-3.962l.057-2.024a5.356,5.356,0,0,1-2,1.96,5.99,5.99,0,0,1-2.85.624,5.564,5.564,0,0,1-4.515-2.081,9.816,9.816,0,0,1-.029-11.047,5.813,5.813,0,0,1,4.687-1.988,5.284,5.284,0,0,1,2.75.7,5.651,5.651,0,0,1,1.988,2.1v-2.325h3.876Zm-3.732-7.063a4.437,4.437,0,0,0-.955-3,3.23,3.23,0,0,0-2.577-1.105,3.293,3.293,0,0,0-2.62,1.1,4.433,4.433,0,0,0-.955,3.008,4.331,4.331,0,0,0,.94,2.972,3.753,3.753,0,0,0,5.233,0A4.353,4.353,0,0,0,1048.442,200.951Z"/>
      <path class="cls-10" d="M1054.644,205.544l3.144-1.622a1.963,1.963,0,0,0,.847,1.292,3.445,3.445,0,0,0,3.288.108,1.143,1.143,0,0,0,.574-1.013q0-1.02-2.039-1.708-.632-.215-1-.359a10.1,10.1,0,0,1-3.438-1.88,3.167,3.167,0,0,1-.955-2.341,4.055,4.055,0,0,1,1.622-3.345,7.65,7.65,0,0,1,7.559-.517,4.554,4.554,0,0,1,2.017,2.153l-3,1.493a2.164,2.164,0,0,0-.847-1.2,2.627,2.627,0,0,0-1.507-.409,2.6,2.6,0,0,0-1.464.374,1.129,1.129,0,0,0-.56.976q0,1.049,2.785,1.953.33.1.5.157a8.115,8.115,0,0,1,3.287,1.773,3.559,3.559,0,0,1,.977,2.577,3.967,3.967,0,0,1-1.623,3.33,7.057,7.057,0,0,1-4.378,1.234,7.926,7.926,0,0,1-3.726-.811A4.1,4.1,0,0,1,1054.644,205.544Z"/>
    </g>
    <g>
      <g>
        <circle class="cls-42" cx="813.813" cy="181.236" r="44.427"/>
        <path class="cls-43" d="M789.623,174.061h40.751l-1.8-34.738a44.276,44.276,0,0,0-13.091-2.48Z"/>
        <path class="cls-44" d="M806.329,225.032l-16.706-50.97-8.666,37.078A44.35,44.35,0,0,0,806.329,225.032Z"/>
        <path class="cls-45" d="M853.75,200.715l-64.127-26.654,16.706,50.97a44.472,44.472,0,0,0,47.421-24.316Z"/>
        <path class="cls-46" d="M853.75,200.715a44.526,44.526,0,0,0,1.288-36.063l-24.664,9.409Z"/>
        <path class="cls-47" d="M828.572,139.323l1.8,34.738,24.664-9.409A44.556,44.556,0,0,0,828.572,139.323Z"/>
        <path class="cls-48" d="M815.481,136.843c-.554-.02-1.109-.034-1.668-.034a44.427,44.427,0,0,0-44.427,44.427q0,1.8.142,3.563l20.094-10.737Z"/>
        <path class="cls-49" d="M780.957,211.139l8.666-37.078L769.529,184.8A44.253,44.253,0,0,0,780.957,211.139Z"/>
        <polygon class="cls-50" points="853.751 200.716 830.374 174.061 789.623 174.061 853.751 200.716"/>
      </g>
      <g>
        <rect class="cls-10" x="778.542" y="170.672" width="69.08" height="4.284"/>
        <rect class="cls-10" x="793.521" y="172.814" width="39.122" height="23.011"/>
        <polygon class="cls-10" points="844.434 193.409 839.784 201.464 849.084 201.464 844.434 193.409"/>
        <rect class="cls-10" x="843.86" y="174.956" width="1.148" height="21.691"/>
      </g>
    </g>
  </g>
</svg>
