<svg xmlns="http://www.w3.org/2000/svg" viewBox="0 0 332.924 799.186">
  <defs>
    <style>
      .cls-1 {
        isolation: isolate;
      }

      .cls-2 {
        fill: #ffaa82;
      }

      .cls-3 {
        fill: #f49f7d;
      }

      .cls-4 {
        fill: #93aecc;
        opacity: 0.39;
        mix-blend-mode: multiply;
      }

      .cls-5 {
        fill: #adbd37;
      }

      .cls-6 {
        fill: #744628;
      }

      .cls-7 {
        fill: #383554;
      }

      .cls-8 {
        fill: #ea8a6c;
      }

      .cls-9 {
        fill: #f9f6f2;
      }

      .cls-10 {
        fill: #492817;
      }

      .cls-11 {
        fill: #633820;
      }

      .cls-12 {
        fill: #4a486d;
      }

      .cls-13 {
        opacity: 0.31;
      }

      .cls-14 {
        fill: #91991f;
      }

      .cls-15 {
        fill: #a0621f;
      }

      .cls-16 {
        fill: #7f4641;
      }

      .cls-17 {
        fill: #1d87ce;
      }

      .cls-18 {
        fill: #fcfeff;
      }
    </style>
  </defs>
  <title>022cf5dc-c402-4d8f-9c8f-55162691c5e8</title>
  <g class="cls-1">
    <g id="Layer_1" data-name="Layer 1">
      <path class="cls-2" d="M255.433,221.44c15.042,15.224,30.341,30.231,45.143,45.688,10.337,10.794,9.437,25.858-.44,36.57l-25.957,28.151-23.264,25.23c-9.513,10.317,5.889,25.8,15.439,15.439l48.972-53.11c14.371-15.586,18.886-36.853,9.085-56.247-5.627-11.133-17.1-20.283-25.738-29.023L270.872,206c-9.891-10.01-25.329,5.429-15.439,15.439Z" transform="translate(0)"/>
      <g>
        <path class="cls-3" d="M250.507,423.629s10-19.112,7.293-24.469S239.454,420.491,250.507,423.629Z" transform="translate(0)"/>
        <path class="cls-3" d="M258.642,412.2s2.461-37.648-11.719-27.107C246.923,385.091,251.521,413.569,258.642,412.2Z" transform="translate(0)"/>
        <path class="cls-3" d="M251.817,433.329s8.523-19.824,5.424-24.961S240.577,431.04,251.817,433.329Z" transform="translate(0)"/>
        <path class="cls-2" d="M263.513,365.526l5.427,32.538s-6.395,41.278-13.7,41.85c-9.539.746.977-24.15.977-24.15s-2.012-24.017-2.716-24.225c-.3-.087-1.234-2.223-2.871-2.079a5.794,5.794,0,0,0-5.2,5.308l-.769,8.54s-2.42,14.047-7.689,12.828c-4.731-1.095-1.534-14.549-1.534-14.549l2.073-18.748,2.919-13.877A13.934,13.934,0,0,1,254.066,357.9h.437A9.134,9.134,0,0,1,263.513,365.526Z" transform="translate(0)"/>
      </g>
      <rect class="cls-4" x="60.718" y="790.818" width="269.523" height="8.367" rx="3.106" ry="3.106" transform="translate(390.959 1590.004) rotate(-180)"/>
      <path class="cls-5" d="M209.859,159.542c-4.21-2.854-15.641-5.525-17.117-4.924-1.451-.658-7.389.18-11.708,2.868-26.283,16.358-71.635,19.668-72.673,53.384,0,0,.172,18.4,13.809,18.661l69.083,1.349,69.083,1.349c13.637.266,14.527-18.108,14.527-18.108C276.124,182.238,235.483,176.913,209.859,159.542Z" transform="translate(0)"/>
      <path class="cls-2" d="M223.555,166.253s-4.7,12.817-29.8,13.04a30.7,30.7,0,0,1-27.379-15.249l19.581-9.7,20.1.347Z" transform="translate(0)"/>
      <path class="cls-6" d="M245.566,28.825c10.742,10.054,13.8,27.772,14.98,41.37,1.355,15.658-9.587,16.9-14.352,31.9-4.642,14.61-8.522,35.714-27.181,37.118-6.992.526-28.235,13.008-51.94-9.214-6.459-6.055-16.2-22.634-16.686-41.857-.307-12.189.169-18.041,2.7-29.914s4.749-23.3,15.5-30.423c16.069-10.652,39.752-8.459,39.752-8.459A38.9,38.9,0,0,1,245.566,28.825Z" transform="translate(0)"/>
      <path class="cls-7" d="M143.9,328.541l49.578,3,49.578-3a5.457,5.457,0,0,1,5.466,4.222c3.141,11.355,9.969,43.5,1.746,86.588-3.005,15.749-40.88,16.933-56.79,16.729-15.91.2-53.785-.98-56.79-16.729-8.222-43.092-1.395-75.232,1.746-86.588A5.457,5.457,0,0,1,143.9,328.541Z" transform="translate(0)"/>
      <rect class="cls-2" x="179.626" y="113.266" width="34.772" height="63.612" rx="13.116" ry="13.116" transform="translate(353.444 333.191) rotate(-166.112)"/>
      <path class="cls-8" d="M215.221,144.4l-28.87-17.681-1.058,6.183c.7,8.031,15.5,23.775,26.647,23.9Z" transform="translate(0)"/>
      <path class="cls-2" d="M211.445,146.573l.7.015c21.242.458,39.014-17.4,39.494-39.688l-1.918-26.643c1.475-29.618-14.69-40.493-35.932-40.951l-.172-.023c-21.242-.458-38.765,12.216-39.244,34.5l-.677,31.435C173.216,127.507,190.2,146.116,211.445,146.573Z" transform="translate(0)"/>
      <path class="cls-9" d="M229.713,114.965l-23.834.114a3.012,3.012,0,0,0-2.731,4.242c1.946,4.4,6.21,10.659,14.719,10.619s12.714-6.339,14.617-10.759A3.012,3.012,0,0,0,229.713,114.965Z" transform="translate(0)"/>
      <ellipse class="cls-10" cx="197.246" cy="94.374" rx="4.606" ry="6.446" transform="translate(-0.449 0.943) rotate(-0.274)"/>
      <ellipse class="cls-10" cx="233.566" cy="94.201" rx="4.606" ry="6.446" transform="translate(-0.446 1.114) rotate(-0.273)"/>
      <path class="cls-11" d="M201.905,82.741a43.23,43.23,0,0,0-11.7.988,2.831,2.831,0,0,1-3.4-2.416l0-.023a2.851,2.851,0,0,1,2.051-3.117,35.472,35.472,0,0,1,13.55-1.123,2.849,2.849,0,0,1,2.519,2.77v.017A2.858,2.858,0,0,1,201.905,82.741Z" transform="translate(0)"/>
      <path class="cls-11" d="M241.955,81.333a43.233,43.233,0,0,0-11.739.155A2.831,2.831,0,0,1,227,78.837v-.023a2.851,2.851,0,0,1,2.267-2.963,35.472,35.472,0,0,1,13.6-.159,2.849,2.849,0,0,1,2.316,2.942v.017A2.859,2.859,0,0,1,241.955,81.333Z" transform="translate(0)"/>
      <ellipse class="cls-2" cx="167.913" cy="98.188" rx="10.181" ry="13.302" transform="translate(-14.455 30.53) rotate(-9.963)"/>
      <path class="cls-8" d="M189.777,110.783l-4.26.29a3.133,3.133,0,0,1-3.329-2.9h0a3.133,3.133,0,0,1,2.9-3.329l4.26-.29a3.133,3.133,0,0,1,3.329,2.9h0A3.133,3.133,0,0,1,189.777,110.783Z" transform="translate(0)"/>
      <path class="cls-8" d="M246.06,106.809l-4.26.29a3.133,3.133,0,0,1-3.329-2.9h0a3.133,3.133,0,0,1,2.9-3.329l4.26-.29a3.133,3.133,0,0,1,3.329,2.9h0A3.133,3.133,0,0,1,246.06,106.809Z" transform="translate(0)"/>
      <path class="cls-6" d="M189.639,11.7c7.7-.674,15.158,2.073,19.647,4.212a2.013,2.013,0,0,1,.4.274c3.817-3.219,9.908-7.408,17.035-8.757a2.016,2.016,0,0,1,2,3.2l-7.708,9.979L210.562,32.452,199.68,22.541a2.012,2.012,0,0,1-1.794-.306l-9.3-6.907A2.016,2.016,0,0,1,189.639,11.7Z" transform="translate(0)"/>
      <path class="cls-7" d="M207.848,377.306q1.512,9.663,2.882,19.347.266,1.894.526,3.789c-.516-3.751.314,2.385.333,2.527q.659,5.075,1.271,10.156,2.134,17.742,3.642,35.552,2.818,33.506,3.236,67.154c.537,42.963-1.918,85.873-5.095,128.7-2.037,27.467-4.319,54.915-6.42,82.377-.748,9.784,9.142,19.143,18.715,18.715,10.779-.483,17.913-8.233,18.715-18.715,6.934-90.646,15.842-181.268,8.766-272.207-2.276-29.243-5.943-58.371-10.478-87.346-1.519-9.7-14.161-15.938-23.021-13.071-10.547,3.413-14.7,12.624-13.071,23.021Z" transform="translate(0)"/>
      <rect class="cls-2" x="212.555" y="720.67" width="27.725" height="41.242" transform="translate(452.836 1482.582) rotate(-180)"/>
      <rect class="cls-12" x="206.923" y="713.739" width="41.328" height="27.032" rx="3.77" ry="3.77" transform="translate(455.175 1454.51) rotate(-180)"/>
      <path class="cls-7" d="M136.48,367.825c-.5,49.3-2.021,98.613-5.819,147.78q-2.564,33.192-6.542,66.254-.943,7.8-1.966,15.582-.2,1.559-.413,3.118c.626-4.7-.08.556-.177,1.264q-.646,4.69-1.319,9.376-2.384,16.581-5.109,33.11c-4.271,25.968-9.14,51.834-14.373,77.625-1.941,9.567,2.754,20.671,13.071,23.021,9.326,2.124,20.939-2.811,23.021-13.071,18.5-91.155,30.731-183.1,34.818-276.057,1.289-29.317,1.94-58.658,2.236-88,.1-9.792-8.679-19.164-18.715-18.715-10.224.458-18.609,8.221-18.715,18.715Z" transform="translate(0)"/>
      <rect class="cls-2" x="104.426" y="720.67" width="27.725" height="41.242" transform="translate(236.578 1482.582) rotate(-180)"/>
      <rect class="cls-12" x="98.794" y="713.739" width="41.328" height="27.032" rx="3.77" ry="3.77" transform="translate(238.917 1454.51) rotate(-180)"/>
      <path class="cls-5" d="M249.491,305.784c.044,12.481,6.17,47.418,6.618,62.61.627,9.391,6.87,15.642-2.868,16.941-10.714,1.429-47.438,8.821-63.972,8.471-20.845-.442-46.4-4.951-60.415-8.1-9.655-2.17-5.061-7.978-2.868-22.1,2.151-27.254,6.05-38.969,8.315-51.193,5.542-29.906-17.694-54.025-15.724-83.234,1.173-17.392,9.733-39.7,26.2-47.565,5.347-2.556,41.1-7.14,45.8-3.825A8.036,8.036,0,0,1,192.5,179.9a8.034,8.034,0,0,1,1.933-2.115c4.7-3.315,40.451,1.269,45.8,3.825,16.463,7.869,37.84,22.486,33.745,39.37C266.477,251.921,249.368,271.165,249.491,305.784Z" transform="translate(0)"/>
      <path class="cls-6" d="M230.332,39.75c2.283,16.81-3.378,34.408-14.563,47.1a6.068,6.068,0,0,1-10.537-3.2l-3-21.245c-.849-6.018-1.42-19.1,1.681-24.324,2.784-4.69,8.035-3.673,13.235-3.656,3.215.011,6.462.091,9.424,1.339s5.623,5.168,4.222,8.061Z" transform="translate(0)"/>
      <path class="cls-6" d="M207.072,44.609c-16.21,15.509-26.109,33.369-32.429,54.083a4.88,4.88,0,0,1-9.351-.07c-4.992-18.332-1.722-37.262,7.958-55.034,3.647-6.7,17.474-10.4,25.389-10.37a1.2,1.2,0,0,1,.924.453l7.616,9.307A1.2,1.2,0,0,1,207.072,44.609Z" transform="translate(0)"/>
      <path class="cls-6" d="M217.937,38.89c16.21,15.509,26.109,33.369,32.429,54.083a4.88,4.88,0,0,0,9.351-.07c4.993-18.332,1.723-37.262-7.958-55.034-3.647-6.7-17.474-10.4-25.389-10.37a1.2,1.2,0,0,0-.924.453l-7.616,9.307A1.2,1.2,0,0,0,217.937,38.89Z" transform="translate(0)"/>
      <path class="cls-7" d="M221.869,164.048c-14.067,17.518-40.756,15.168-54.8-1.216-2.616-3.053-7.011,1.376-4.411,4.411,16.068,18.751,47.539,21.239,63.618,1.216,2.49-3.1-1.9-7.543-4.411-4.411Z" transform="translate(0)"/>
      <g class="cls-13">
        <path class="cls-14" d="M207.827,186.707a20.933,20.933,0,0,1-22.615-.668c-2.686-1.777-5.189,2.543-2.519,4.309a25.954,25.954,0,0,0,27.653.668c2.767-1.626.259-5.941-2.519-4.309Z" transform="translate(0)"/>
      </g>
      <g class="cls-13">
        <path class="cls-14" d="M218.26,269.078c-5.543,32.294-11.3,65.336-23.19,96-1.161,3,3.662,4.294,4.812,1.327,11.887-30.668,17.647-63.711,23.19-96,.539-3.141-4.269-4.491-4.812-1.327Z" transform="translate(0)"/>
      </g>
      <g class="cls-13">
        <path class="cls-14" d="M193.794,269.112l-44.637,92.032c-1.4,2.878,2.906,5.411,4.309,2.519L198.1,271.631c1.4-2.878-2.906-5.411-4.309-2.519Z" transform="translate(0)"/>
      </g>
      <path class="cls-15" d="M221.2,49.677a44,44,0,0,1-8.984,26.968c-2.4,3.218,3.009,6.331,5.387,3.149a49.508,49.508,0,0,0,9.835-30.117c-.019-4.013-6.257-4.021-6.238,0Z" transform="translate(0)"/>
      <path class="cls-15" d="M186.981,52.357A60.682,60.682,0,0,0,169.7,86.776c-.558,3.927,5.452,5.623,6.015,1.658a55.247,55.247,0,0,1,15.676-31.666c2.838-2.846-1.571-7.259-4.411-4.411Z" transform="translate(0)"/>
      <path class="cls-15" d="M256.96,83.03a77.383,77.383,0,0,0-16.138-30.641c-2.61-3.058-7,1.372-4.411,4.411a70.282,70.282,0,0,1,14.533,27.889c1.027,3.877,7.046,2.233,6.015-1.658Z" transform="translate(0)"/>
      <path class="cls-5" d="M327.77,260.846l-23.895,23.009c-1.1,1.064-3.15.72-4.56-.767l-56.333-59.4c-8.51-8.974-8.369-22.567-1.65-28.938l1.32-1.252c5.281-5.008,13.19-8.567,28.418,3.022l53.782,50.2C329.859,250.732,331.255,257.491,327.77,260.846Z" transform="translate(0)"/>
      <path class="cls-7" d="M304.676,286.221a156.812,156.812,0,0,0,27.643-28.6c2.411-3.212-3-6.324-5.387-3.149a150.945,150.945,0,0,1-26.668,27.342c-3.137,2.5,1.3,6.892,4.411,4.411Z" transform="translate(0)"/>
      <g>
        <path class="cls-5" d="M205.947,786.5l101.628.31h0c1.777-14.028-8.74-25.4-23.49-25.4H205.407Z" transform="translate(0)"/>
        <path class="cls-5" d="M260.307,786.5l47.277.311h0c1.69-14.028-8.315-25.4-22.346-25.4h-4.494c-11.287,0-20.436,9.615-20.436,21.475Z" transform="translate(0)"/>
        <path class="cls-7" d="M302.238,796.118H209.209a5.467,5.467,0,0,1-5.531-5.339h0a5.464,5.464,0,0,1,5.531-5.454h93.029a5.467,5.467,0,0,1,5.531,5.339h0A5.464,5.464,0,0,1,302.238,796.118Z" transform="translate(0)"/>
        <path class="cls-7" d="M258.065,761.4,246.2,749.626c-11.077,5.085-23.02,6.9-37.221.167a3.6,3.6,0,0,0-3.579,3.6l.006,8.012Z" transform="translate(0)"/>
        <rect class="cls-5" x="226.296" y="729.08" width="31.769" height="44.459" rx="14.003" ry="14.003"/>
        <path class="cls-7" d="M250.194,764.608l11.476-3.374c3.743-1.1,2.15-6.965-1.615-5.858l-11.476,3.374c-3.743,1.1-2.15,6.965,1.615,5.858Z" transform="translate(0)"/>
        <path class="cls-7" d="M263.09,765.721a17.417,17.417,0,0,1,7.917-2.96,3.124,3.124,0,0,0,3.038-3.038,3.059,3.059,0,0,0-3.038-3.038,23.858,23.858,0,0,0-10.983,3.79c-3.244,2.151-.2,7.415,3.066,5.246Z" transform="translate(0)"/>
      </g>
      <g>
        <rect class="cls-5" x="99.312" y="756.694" width="39.639" height="31.061" transform="translate(238.262 1544.45) rotate(-180)"/>
        <path class="cls-7" d="M102.6,745.7a44.545,44.545,0,0,0,13.089,4.013v7.6H99.025l-.006-8.012A3.6,3.6,0,0,1,102.6,745.7Z" transform="translate(0)"/>
        <path class="cls-7" d="M135.241,745.7a44.543,44.543,0,0,1-13.089,4.013v7.6h16.662l.006-8.012A3.6,3.6,0,0,0,135.241,745.7Z" transform="translate(0)"/>
        <rect class="cls-5" x="103.801" y="729.149" width="31.769" height="44.459" rx="14.003" ry="14.003"/>
        <path class="cls-5" d="M96.095,786.562l47.277.32h0c1.69-14.449-8.315-26.162-22.346-26.162h-4.494c-11.287,0-20.436,9.9-20.436,22.12Z" transform="translate(0)"/>
        <path class="cls-7" d="M116.123,765.415a17.426,17.426,0,0,1,8.446-.219,3.119,3.119,0,0,0,3.858-1.88,3.058,3.058,0,0,0-1.887-3.856,23.874,23.874,0,0,0-11.615,0c-3.765.976-2.6,6.935,1.2,5.951Z" transform="translate(0)"/>
        <path class="cls-7" d="M98.337,795.943h42.108a5.133,5.133,0,0,0,5.133-5.133h0a5.133,5.133,0,0,0-5.133-5.134H98.337A5.133,5.133,0,0,0,93.2,790.81h0A5.133,5.133,0,0,0,98.337,795.943Z" transform="translate(0)"/>
      </g>
      <g>
        <path class="cls-16" d="M182.1,408.452l-2.157,1.3a9.169,9.169,0,0,0-3.111,12.548h0a9.169,9.169,0,0,0,12.549,3.111l2.157-1.3a9.169,9.169,0,0,0,3.111-12.548h0A9.168,9.168,0,0,0,182.1,408.452Z" transform="translate(0)"/>
        <path class="cls-16" d="M52.39,477.312l-2.157,1.3a9.169,9.169,0,0,0-3.111,12.548h0a9.169,9.169,0,0,0,12.549,3.111l2.157-1.3a9.169,9.169,0,0,0,3.111-12.548h0A9.168,9.168,0,0,0,52.39,477.312Z" transform="translate(0)"/>
        <path class="cls-7" d="M175.145,356.009c-49.926,31.32-101.829,57.892-156.08,78.826a30.01,30.01,0,0,0-13.22,40.2h0c7.419,14.69,23.695,16.841,40.2,13.22,52.908-20.3,104.9-46.827,156.08-78.826,16.883-13.24,20.639-25.508,13.22-40.2h0A30.01,30.01,0,0,0,175.145,356.009Z" transform="translate(0)"/>
        <path class="cls-17" d="M172.494,350.867c-49.926,31.32-101.829,57.892-156.08,78.826a30.01,30.01,0,0,0-13.22,40.2h0c7.419,14.69,23.694,16.841,40.2,13.22,52.908-20.3,104.9-46.827,156.08-78.826,16.883-13.24,20.639-25.508,13.22-40.2h0A30.01,30.01,0,0,0,172.494,350.867Z" transform="translate(0)"/>
      </g>
      <path class="cls-2" d="M116.521,212.434C90.036,277.248,81.607,347.319,84.713,416.929c.624,13.994,22.462,14.071,21.834,0-3.031-67.928,5.182-135.442,31.028-198.69,2.231-5.46-2.421-12-7.625-13.429-6.255-1.719-11.19,2.144-13.429,7.625Z" transform="translate(0)"/>
      <path class="cls-5" d="M89.684,286.571l32.174,8.074c1.487.373,3.091-.943,3.574-2.933l19.317-79.556c2.918-12.019-3.966-23.74-12.964-25.925l-1.768-.429c-7.072-1.717-15.7-.871-23.149,16.758L85.188,272.866C82.841,278.836,84.992,285.393,89.684,286.571Z" transform="translate(0)"/>
      <path class="cls-7" d="M123.591,292.05A150.646,150.646,0,0,1,87.465,279.7c-3.589-1.767-6.754,3.611-3.149,5.387a157.069,157.069,0,0,0,37.616,12.983c3.918.812,5.593-5.2,1.658-6.015Z" transform="translate(0)"/>
      <g class="cls-13">
        <path class="cls-14" d="M132.4,268.666a257.556,257.556,0,0,1,15.355-53.7c1.211-2.972-3.614-4.266-4.812-1.327a257.556,257.556,0,0,0-15.355,53.7c-.539,3.141,4.269,4.491,4.812,1.327Z" transform="translate(0)"/>
      </g>
      <path class="cls-2" d="M86.113,458.088c-1.166-14.187-3.391-40.918-3.669-41.68-.019-.052-.039-.116-.061-.191a6.808,6.808,0,0,1,4.953-8.378l12.514-3.166a6.857,6.857,0,0,1,8.123,4.3l1.289,3.532,7.415,3.963A26.078,26.078,0,0,1,129.122,431.2l5.62,16.834a3.107,3.107,0,0,1-1.184,3.542l-1.2.824a4.767,4.767,0,0,1-7.2-2.339l-4.975-14.094.37,5.687,3.712,14.565a5.273,5.273,0,0,1-9.456,4.295l.02.078a5.285,5.285,0,1,1-10.243,2.611l-.088-.347a5.249,5.249,0,0,1-9.633,1.787A7.316,7.316,0,0,1,86.113,458.088Z" transform="translate(0)"/>
      <circle class="cls-7" cx="208.033" cy="10.527" r="10.527"/>
      <path class="cls-7" d="M162.478,5.545h86.865A12.365,12.365,0,0,1,261.708,17.91v0a51.057,51.057,0,0,1-51.057,51.057h-9.48A51.057,51.057,0,0,1,150.113,17.91v0A12.365,12.365,0,0,1,162.478,5.545Z" transform="translate(411.821 74.512) rotate(180)"/>
      <path class="cls-17" d="M196.308,68.967H252.25a8.938,8.938,0,0,0,8.938-8.939V42.454A36.909,36.909,0,0,0,224.279,5.545h0a36.909,36.909,0,0,0-36.909,36.909V60.028A8.938,8.938,0,0,0,196.308,68.967Z" transform="translate(0)"/>
      <path class="cls-18" d="M217.2,9.459c13.447,3.456,10.456,25.177,9.37,35.4-.423,3.987,5.818,3.958,6.238,0,1.439-13.548,3.327-36.979-13.95-41.42-3.89-1-5.55,5.015-1.658,6.015Z" transform="translate(0)"/>
      <path class="cls-7" d="M263.411,53a58.511,58.511,0,0,0-76.462,10.612c-2.606,3.029,1.787,7.461,4.411,4.411a52.331,52.331,0,0,1,68.9-9.636c3.363,2.214,6.491-3.186,3.149-5.387Z" transform="translate(0)"/>
      <path class="cls-12" d="M265.867,58.223,289.8,73.789a2.808,2.808,0,0,1-2.135,5.1c-12.819-2.968-29.419-4.3-43.419,2.811a21.6,21.6,0,0,1-17.373.74L190.216,68.616C211.665,43.894,245.073,43.667,265.867,58.223Z" transform="translate(0)"/>
    </g>
  </g>
</svg>
