<svg id="Layer_1" data-name="Layer 1" xmlns="http://www.w3.org/2000/svg" viewBox="0 0 322.065 322.065">
  <defs>
    <style>
      .cls-1 {
        fill: #2c89cb;
      }

      .cls-2 {
        fill: #19539d;
      }

      .cls-3 {
        fill: #1c5ba4;
      }

      .cls-4 {
        fill: #286fb7;
      }

      .cls-5 {
        fill: #3d88bd;
      }

      .cls-6 {
        fill: #184a98;
      }

      .cls-7 {
        fill: #1c539e;
      }

      .cls-8 {
        fill: #1c5fa7;
      }

      .cls-9 {
        fill: #fff;
        stroke: #fff;
        stroke-miterlimit: 10;
        stroke-width: 3px;
        fill-rule: evenodd;
      }
    </style>
  </defs>
  <title>9a238880-5990-4568-a17f-33e5a4805550</title>
  <g>
    <circle class="cls-1" cx="161.032" cy="161.032" r="161.032"/>
    <path class="cls-2" d="M73.351,135.027h147.71L214.528,9.112A160.485,160.485,0,0,0,167.079.124Z"/>
    <path class="cls-3" d="M133.9,319.778,73.351,135.027l-31.411,134.4A160.756,160.756,0,0,0,133.9,319.778Z"/>
    <path class="cls-4" d="M305.791,231.64,73.351,135.027,133.9,319.778A161.2,161.2,0,0,0,305.791,231.64Z"/>
    <path class="cls-5" d="M305.792,231.638a161.391,161.391,0,0,0,4.668-130.717l-89.4,34.106Z"/>
    <path class="cls-4" d="M214.528,9.112l6.533,125.915,89.4-34.106A161.5,161.5,0,0,0,214.528,9.112Z"/>
    <path class="cls-6" d="M167.079.124C165.071.05,163.058,0,161.032,0A161.032,161.032,0,0,0,0,161.032q0,6.521.516,12.914l72.835-38.92Z"/>
    <path class="cls-7" d="M41.941,269.423l31.411-134.4L.516,173.946A160.4,160.4,0,0,0,41.941,269.423Z"/>
    <polygon class="cls-8" points="305.796 231.642 221.062 135.027 73.351 135.027 305.796 231.642"/>
  </g>
  <path class="cls-9" d="M43.519,120.236l117.5-67.546,22.118,12.664V46.537h30.945V83.123l64.459,37.113ZM205.013,88.431V55.6H192.252l-.036.055v25.43l-31.3-17.854-83.37,47.945H244.57Zm44.361,157.1H167.847v-47.5l-.053-.038H144.612l-.053.038v47.5H71.575V127.334h177.8ZM240.3,136.4H80.649v100.07h54.835v-47.54h41.437V236.4l.018.068H240.3ZM222.08,177.7H187.5V145.13H222.08ZM89.351,145.13h34.6V177.7h-34.6Z"/>
</svg>
