<svg id="Layer_1" data-name="Layer 1" xmlns="http://www.w3.org/2000/svg" viewBox="0 0 911.114 614.609">
  <defs>
    <style>
      .cls-1 {
        fill: #fff;
      }

      .cls-2 {
        opacity: 0.9;
      }

      .cls-3 {
        fill: #c6bcb9;
      }

      .cls-4 {
        fill: #cfc9c5;
      }

      .cls-5 {
        fill: #d9d2cf;
      }

      .cls-6 {
        fill: #e3dfdc;
      }

      .cls-7 {
        fill: #c7beba;
      }

      .cls-8 {
        fill: #d4cdc9;
      }

      .cls-9 {
        fill: #c1b6b3;
      }

      .cls-10, .cls-15 {
        fill: none;
        stroke: #fff;
        stroke-miterlimit: 10;
      }

      .cls-10 {
        stroke-width: 3.782px;
      }

      .cls-11 {
        fill: #030504;
        opacity: 0.26;
      }

      .cls-12 {
        fill: #ffe71c;
      }

      .cls-13 {
        fill: #fbc625;
      }

      .cls-14 {
        fill: #f6bb00;
      }

      .cls-15 {
        stroke-width: 4.444px;
      }

      .cls-16 {
        fill: #7279b9;
      }

      .cls-17 {
        fill: #3a2941;
      }

      .cls-18 {
        fill: #6168a1;
      }

      .cls-19 {
        fill: #d3d2d0;
      }

      .cls-20 {
        fill: #f8966f;
      }

      .cls-21 {
        fill: #f5d0d9;
      }

      .cls-22 {
        fill: #b0b9ba;
      }

      .cls-23 {
        fill: #2f1d33;
      }

      .cls-24 {
        fill: #fdfeff;
      }

      .cls-25 {
        fill: #ea768c;
      }

      .cls-26 {
        fill: #8e5533;
      }

      .cls-27 {
        fill: #78482c;
      }

      .cls-28 {
        fill: #643d25;
      }

      .cls-29 {
        fill: #e47356;
      }

      .cls-30 {
        fill: #f7f3ef;
      }

      .cls-31 {
        fill: #3f161e;
      }

      .cls-32 {
        fill: #dedad9;
      }

      .cls-33 {
        fill: #b59eb4;
      }

      .cls-34 {
        fill: #54385b;
      }

      .cls-35 {
        fill: #57b898;
      }

      .cls-36 {
        fill: #3f2945;
      }

      .cls-37 {
        fill: #8dccb7;
      }

      .cls-38 {
        fill: #2c1e17;
      }

      .cls-39 {
        fill: #a9b022;
      }

      .cls-40 {
        fill: #16161e;
      }

      .cls-41 {
        fill: #606484;
      }

      .cls-42 {
        fill: #282843;
      }

      .cls-43 {
        opacity: 0.31;
      }

      .cls-44 {
        fill: #868826;
      }

      .cls-45 {
        fill: #391e12;
      }

      .cls-46 {
        fill: #512a17;
      }

      .cls-47 {
        fill: #62361d;
      }

      .cls-48 {
        fill: #904f1a;
      }

      .cls-49 {
        fill: #0076be;
      }

      .cls-50 {
        fill: #35395b;
      }

      .cls-51 {
        fill: #f18b68;
      }

      .cls-52 {
        fill: #646464;
      }

      .cls-53 {
        fill: #eb8a66;
      }
    </style>
  </defs>
  <title>c77ad819-0525-469d-93d5-a8172929764a</title>
  <g>
    <g>
      <g>
        <path class="cls-1" d="M258.517,1.891H774.063a19.222,19.222,0,0,1,19.222,19.222V360.819a19.223,19.223,0,0,1-19.223,19.223H258.517a19.223,19.223,0,0,1-19.223-19.223V21.113A19.222,19.222,0,0,1,258.517,1.891Z"/>
        <path class="cls-1" d="M774.063,3.782a17.332,17.332,0,0,1,17.332,17.332V360.819a17.332,17.332,0,0,1-17.332,17.332H258.517a17.332,17.332,0,0,1-17.332-17.332V21.114A17.332,17.332,0,0,1,258.517,3.782H774.063m0-3.781H258.517A21.137,21.137,0,0,0,237.4,21.114V360.819a21.137,21.137,0,0,0,21.113,21.113H774.063a21.137,21.137,0,0,0,21.113-21.113V21.114A21.137,21.137,0,0,0,774.063,0Z" transform="translate(0 0)"/>
      </g>
      <g class="cls-2">
        <polygon class="cls-3" points="322.638 175.145 655.926 175.145 647.034 3.782 441.698 3.782 322.638 175.145"/>
        <polygon class="cls-4" points="322.638 175.145 275.193 378.151 389.175 378.151 322.638 175.145"/>
        <path class="cls-5" d="M789.287,369.107,322.638,175.145l66.536,203.006H774.063A17.327,17.327,0,0,0,789.287,369.107Z" transform="translate(0 0)"/>
        <polygon class="cls-6" points="791.395 329.608 791.395 123.463 655.926 175.145 791.395 329.608"/>
        <path class="cls-5" d="M647.034,3.782l8.891,171.364,135.469-51.682V21.114A17.332,17.332,0,0,0,774.063,3.782Z" transform="translate(0 0)"/>
        <path class="cls-7" d="M241.185,360.819a17.332,17.332,0,0,0,17.332,17.332h16.676l47.446-203.006L241.185,218.67Z" transform="translate(0 0)"/>
        <path class="cls-8" d="M791.395,360.819V329.608L655.926,175.145H322.638L789.287,369.107A17.252,17.252,0,0,0,791.395,360.819Z" transform="translate(0 0)"/>
        <path class="cls-9" d="M322.638,175.145,441.7,3.782H258.517a17.332,17.332,0,0,0-17.332,17.332V218.67Z" transform="translate(0 0)"/>
      </g>
      <rect class="cls-10" x="348.013" y="-65.231" width="336.554" height="512.395" rx="14.241" ry="14.241" transform="translate(707.256 -325.323) rotate(90)"/>
      <g>
        <polygon class="cls-11" points="312.201 57.23 312.201 97.46 339.136 124.396 379.366 124.396 379.366 57.23 312.201 57.23"/>
        <g>
          <polygon class="cls-12" points="310.473 55.286 310.473 95.516 337.408 122.452 377.639 122.452 377.639 55.286 310.473 55.286"/>
          <polygon class="cls-13" points="377.639 55.286 377.639 122.452 310.473 55.286 377.639 55.286"/>
          <polygon class="cls-14" points="337.408 122.452 337.408 95.516 310.473 95.516 337.408 122.452"/>
        </g>
      </g>
      <g>
        <polygon class="cls-11" points="449.988 57.23 449.988 97.46 476.923 124.396 517.154 124.396 517.154 57.23 449.988 57.23"/>
        <g>
          <polygon class="cls-12" points="448.26 55.286 448.26 95.516 475.196 122.452 515.426 122.452 515.426 55.286 448.26 55.286"/>
          <polygon class="cls-13" points="515.426 55.286 515.426 122.452 448.26 55.286 515.426 55.286"/>
          <polygon class="cls-14" points="475.196 122.452 475.196 95.516 448.26 95.516 475.196 122.452"/>
        </g>
      </g>
      <g>
        <polygon class="cls-11" points="586.047 57.23 586.047 97.46 612.983 124.396 653.213 124.396 653.213 57.23 586.047 57.23"/>
        <g>
          <polygon class="cls-12" points="584.32 55.286 584.32 95.516 611.255 122.452 651.485 122.452 651.485 55.286 584.32 55.286"/>
          <polygon class="cls-13" points="651.485 55.286 651.485 122.452 584.32 55.286 651.485 55.286"/>
          <polygon class="cls-14" points="611.255 122.452 611.255 95.516 584.32 95.516 611.255 122.452"/>
        </g>
      </g>
      <polygon class="cls-11" points="381.094 154.657 381.094 194.888 408.03 221.823 448.26 221.823 448.26 154.657 381.094 154.657"/>
      <polygon class="cls-12" points="379.366 152.714 379.366 192.944 406.302 219.88 446.532 219.88 446.532 152.714 379.366 152.714"/>
      <polygon class="cls-13" points="446.532 152.714 446.532 219.88 379.366 152.714 446.532 152.714"/>
      <polygon class="cls-14" points="406.302 219.88 406.302 192.944 379.366 192.944 406.302 219.88"/>
      <g>
        <polygon class="cls-11" points="518.881 154.657 518.881 194.888 545.817 221.823 586.047 221.823 586.047 154.657 518.881 154.657"/>
        <g>
          <polygon class="cls-12" points="517.154 152.714 517.154 192.944 544.089 219.88 584.32 219.88 584.32 152.714 517.154 152.714"/>
          <polygon class="cls-13" points="584.32 152.714 584.32 219.88 517.154 152.714 584.32 152.714"/>
          <polygon class="cls-14" points="544.089 219.88 544.089 192.944 517.154 192.944 544.089 219.88"/>
        </g>
      </g>
      <g>
        <polygon class="cls-11" points="450.852 240.282 450.852 280.513 477.787 307.448 518.018 307.448 518.018 240.282 450.852 240.282"/>
        <g>
          <polygon class="cls-12" points="449.124 238.338 449.124 278.569 476.059 305.504 516.29 305.504 516.29 238.338 449.124 238.338"/>
          <polygon class="cls-13" points="516.29 238.338 516.29 305.504 449.124 238.338 516.29 238.338"/>
          <polygon class="cls-14" points="476.059 305.504 476.059 278.569 449.124 278.569 476.059 305.504"/>
        </g>
      </g>
      <g>
        <polygon class="cls-11" points="654.941 154.657 654.941 194.888 681.876 221.823 722.107 221.823 722.107 154.657 654.941 154.657"/>
        <g>
          <polygon class="cls-12" points="653.213 152.714 653.213 192.944 680.149 219.88 720.379 219.88 720.379 152.714 653.213 152.714"/>
          <polygon class="cls-13" points="720.379 152.714 720.379 219.88 653.213 152.714 720.379 152.714"/>
          <polygon class="cls-14" points="680.149 219.88 680.149 192.944 653.213 192.944 680.149 219.88"/>
        </g>
      </g>
    </g>
    <line class="cls-15" y1="612.387" x2="911.114" y2="612.387"/>
  </g>
  <g>
    <g>
      <path class="cls-16" d="M673.83,268.584H726.7a7.909,7.909,0,0,1,7.909,7.909V339.91a25.544,25.544,0,0,1-25.544,25.544h-17.6a25.544,25.544,0,0,1-25.544-25.544V276.493a7.909,7.909,0,0,1,7.909-7.909Z" transform="translate(1400.528 634.04) rotate(-180)"/>
      <path class="cls-1" d="M670.1,268.584h48.922a6.421,6.421,0,0,1,6.421,6.421V318.86A20.74,20.74,0,0,1,704.7,339.6H684.419a20.74,20.74,0,0,1-20.74-20.74V275.005a6.421,6.421,0,0,1,6.421-6.421Z" transform="translate(1389.121 608.186) rotate(-180)"/>
      <path class="cls-17" d="M718.269,326.783h15.974a1.774,1.774,0,0,1,1.774,1.774v34.775a1.774,1.774,0,0,1-1.774,1.774H713.3a1.774,1.774,0,0,1-1.774-1.774V333.523a6.74,6.74,0,0,1,6.74-6.74Z" transform="translate(1447.545 691.889) rotate(180)"/>
      <path class="cls-16" d="M736.016,334.414v-5.935a1.786,1.786,0,0,0-1.855-1.7H713.384a1.786,1.786,0,0,0-1.855,1.7v5.85Z" transform="translate(0 0)"/>
      <path class="cls-18" d="M661.49,365.455h52.76c4.887,0,8.886-3.274,8.886-7.276v-68.64c0-11.878-11.869-21.6-26.375-21.6H678.979c-14.506,0-22.713,9.326-22.989,21.6l-3.386,68.64C652.6,362.18,656.6,365.455,661.49,365.455Z" transform="translate(0 0)"/>
      <path class="cls-16" d="M736.09,346.257v11.637c0,4.159-3.722,7.561-8.272,7.561H675.678c-4.549,0-8.272-3.4-8.272-7.561V346.256Z" transform="translate(0 0)"/>
      <path class="cls-17" d="M723.066,346.257v11.922c0,4-4,7.276-8.886,7.276h-52.76c-4.887,0-8.886-3.274-8.886-7.276l.588-11.922Z" transform="translate(0 0)"/>
      <rect class="cls-19" x="652.745" y="345.944" width="70.48" height="2.883" transform="translate(1375.97 694.773) rotate(-180)"/>
      <rect class="cls-1" x="715.858" y="345.944" width="20.529" height="2.883" transform="translate(1452.245 694.771) rotate(180)"/>
    </g>
    <path class="cls-20" d="M551.788,271.986l7.107-3.9,1.632-3.384,8.619,10.222c.32.191.638.375.949.555.826-1.49,1.714-3.366,2.694-5.248,2.251-4.321,4.681-5.02,6.344-4.831a1.774,1.774,0,0,1,1.457,2.376L577.8,275.36l-2.7,7.916c.286,1.977.554,4.236.773,6.244a9.577,9.577,0,0,1-3.869,8.773h0a9.585,9.585,0,0,1-12.959-1.523l-10.673-12.54s-1.444-1.976-1.438-1.987Z" transform="translate(0 0)"/>
    <path class="cls-20" d="M625.735,283.656l-24.089,34.5c-2.415,3.458-5.288,6.98-8.7,1.883-4.208-6.293-8.054-12.862-12.071-19.278l-11.2-17.88c-4.444-7.1-15.731-.559-11.26,6.582,7.884,12.591,15.483,25.413,23.672,37.806,6.977,10.56,20.936,11.065,28.474.818,4.348-5.91,8.414-12.049,12.614-18.064L637,290.238c4.816-6.9-6.485-13.421-11.26-6.582Z" transform="translate(0 0)"/>
    <path class="cls-21" d="M615.978,323.122,600.9,310.268a1.652,1.652,0,0,1-.179-2.336l23.908-27.722a10.014,10.014,0,0,1,14.123-1.043h0c4.188,3.612,4.167,8.719,1.043,14.123L623,321.937A4.644,4.644,0,0,1,615.978,323.122Z" transform="translate(0 0)"/>
    <g>
      <polygon class="cls-22" points="539.206 292.908 545.135 284.271 549.299 290.018 539.206 292.908"/>
      <polygon class="cls-23" points="538.341 293.599 541.269 289.902 542.788 291.882 538.341 293.599"/>
      <polygon class="cls-16" points="549.223 290.027 545.144 284.347 570.932 265.915 574.609 271.577 549.223 290.027"/>
      <polygon class="cls-24" points="573.676 270.767 573.341 270.299 548.203 288.491 548.538 288.96 573.676 270.767"/>
      <polygon class="cls-24" points="571.326 267.517 570.991 267.049 545.885 285.219 546.22 285.687 571.326 267.517"/>
      <path class="cls-22" d="M578.089,266.345l-1.4-1.952a2.148,2.148,0,0,0-3.005-.487l-3.165,2.294,3.905,5.441,3.181-2.306A2.148,2.148,0,0,0,578.089,266.345Z" transform="translate(0 0)"/>
      <polygon class="cls-25" points="576.367 270.232 572.462 264.791 570.518 266.2 574.424 271.641 576.367 270.232"/>
    </g>
    <path class="cls-26" d="M691.113,199.5c1.089,1.283.5-9.778,1.5-8.429,5.411,7.281,9.763,28.8,9.039,37.581s-2.958,26.1-9.447,31.885c-.544-3.483-1.231-15.881-.441-19.258a44.74,44.74,0,0,0,.966-14.3c-.232-2.5-.67-4.983-1.109-7.463-.975-5.521-2.029-11.144-3-16.666Z" transform="translate(0 0)"/>
    <path class="cls-26" d="M630.049,249.069c-.395-7.773-2.238-15.39-3.381-23.088s-1.03-11.619.861-19.168c5-19.955,14.39-26.3,21.944-28.172Z" transform="translate(0 0)"/>
    <path class="cls-27" d="M632.6,258.636l52.311,4.264a7.854,7.854,0,0,0,8.713-7.891l2.125-50.164-29.985-16.788-26.156,22.5-9,38.257C629.45,253.731,627.347,258.207,632.6,258.636Z" transform="translate(0 0)"/>
    <polygon class="cls-28" points="681.387 262.345 644.397 259.432 645.898 216.115 682.888 219.028 681.387 262.345"/>
    <path class="cls-21" d="M656.471,262.788c2.013-1.127,7.431-2.1,8.122-1.833.691-.254,4.294.234,6.308,1.388C683.156,269.37,702.464,274,702.3,285.2c0,0,.49,7.9-5.948,7.857l-31.751-.712-26.618-.109c-6.438-.044-8.5-10.4-8.5-10.4C629.5,271.277,644.221,269.646,656.471,262.788Z" transform="translate(0 0)"/>
    <path class="cls-20" d="M659.094,279.275c14.436.277,24.13-4.417,29.306-8.625-5.479-3.116-11.367-5.071-16.649-8.058-2.017-1.14-7.014-1.881-7.706-1.622a8.709,8.709,0,0,0-5.706.614c-5.651,3.2-15.143,7.145-21.124,10.125C641.83,274.992,645.5,279.014,659.094,279.275Z" transform="translate(0 0)"/>
    <rect class="cls-20" x="656.34" y="235.584" width="15.044" height="40.778" rx="6.904" ry="6.904"/>
    <path class="cls-21" d="M701.6,289.331l-23.442,1.827-28.443-.546-20.02-8.769s1.04,21.858,5.99,38.478l1.046,30.054c1.073,6.465,49.247,5.814,50.094,2.277l4.825-30.869Z" transform="translate(0 0)"/>
    <path class="cls-29" d="M656.276,251.585l15.271-6.127-.214,3.737c-1.232,4.557-9.816,11.573-14.954,10.05Z" transform="translate(0 0)"/>
    <path class="cls-20" d="M655.108,253.975l-.411-.079c-12.462-2.4-20.6-15.052-18.09-28.127l4.46-15.318c2.851-17.481,13.654-21.806,26.117-19.411l.1.008c12.462,2.4,21.107,11.993,18.594,25.067l-3.545,18.443C679.823,247.633,667.571,256.371,655.108,253.975Z" transform="translate(0 0)"/>
    <path class="cls-30" d="M648.4,233.227l13.9,3.054a1.8,1.8,0,0,1,1.063,2.82c-1.688,2.327-4.962,5.447-9.927,4.356s-6.63-5.3-7.188-8.115A1.8,1.8,0,0,1,648.4,233.227Z" transform="translate(0 0)"/>
    <ellipse class="cls-31" cx="667.868" cy="223.197" rx="3.85" ry="2.751" transform="translate(306.596 827.636) rotate(-77.613)"/>
    <ellipse class="cls-31" cx="646.679" cy="218.543" rx="3.85" ry="2.751" transform="translate(294.498 803.286) rotate(-77.613)"/>
    <path class="cls-26" d="M668.516,216.687a25.821,25.821,0,0,1,6.708,2.043,1.691,1.691,0,0,0,2.288-.985l0-.013a1.7,1.7,0,0,0-.807-2.077,21.185,21.185,0,0,0-7.772-2.354,1.7,1.7,0,0,0-1.818,1.3l0,.01A1.707,1.707,0,0,0,668.516,216.687Z" transform="translate(0 0)"/>
    <path class="cls-26" d="M644.631,212.142a25.823,25.823,0,0,1,6.836,1.562,1.691,1.691,0,0,0,2.212-1.145l0-.013a1.7,1.7,0,0,0-.952-2.015,21.187,21.187,0,0,0-7.92-1.8,1.7,1.7,0,0,0-1.721,1.428l0,.01A1.707,1.707,0,0,0,644.631,212.142Z" transform="translate(0 0)"/>
    <path class="cls-29" d="M672.248,235.791l2.451.7a1.871,1.871,0,0,0,2.308-1.279h0a1.871,1.871,0,0,0-1.279-2.308l-2.451-.7a1.871,1.871,0,0,0-2.308,1.279h0A1.872,1.872,0,0,0,672.248,235.791Z" transform="translate(0 0)"/>
    <path class="cls-29" d="M639.878,226.415l2.451.7a1.871,1.871,0,0,0,2.308-1.279h0a1.872,1.872,0,0,0-1.279-2.308l-2.451-.7a1.872,1.872,0,0,0-2.308,1.279h0A1.871,1.871,0,0,0,639.878,226.415Z" transform="translate(0 0)"/>
    <path class="cls-20" d="M635.452,413.392c-4.721,30.033-9.761,60.243-11.074,90.664-1.265,29.306,1.168,58.664,3.392,87.864.382,5.017,4.008,9.315,9.315,9.315,4.744,0,9.7-4.271,9.315-9.315-2.2-28.817-4.6-57.786-3.441-86.709,1.166-29.166,5.931-58.078,10.456-86.867.78-4.964-1.27-10.02-6.506-11.458-4.425-1.216-10.673,1.507-11.458,6.506Z" transform="translate(0 0)"/>
    <rect class="cls-32" x="623.838" y="563.535" width="22.666" height="34.155" rx="2.924" ry="2.924"/>
    <g>
      <g>
        <path class="cls-33" d="M647.771,603.837l-55.539.2h0c-.971-9,4.777-16.3,12.837-16.3h43Z" transform="translate(0 0)"/>
        <path class="cls-21" d="M618.064,603.837l-25.836.2h0c-.924-9,4.544-16.3,12.212-16.3H606.9c6.168,0,11.168,6.171,11.168,13.783Z" transform="translate(0 0)"/>
        <path class="cls-34" d="M595.147,609.123h50.84a2.988,2.988,0,0,0,3.023-2.918h0a2.986,2.986,0,0,0-3.023-2.981h-50.84a2.988,2.988,0,0,0-3.023,2.918h0A2.986,2.986,0,0,0,595.147,609.123Z" transform="translate(0 0)"/>
        <path class="cls-34" d="M619.288,590.151l6.485-6.436c6.054,2.779,12.58,3.768,20.341.091a1.965,1.965,0,0,1,1.956,1.966l0,4.378Z" transform="translate(0 0)"/>
        <rect class="cls-33" x="619.288" y="572.487" width="17.362" height="24.297" rx="7.652" ry="7.652" transform="translate(1255.937 1169.271) rotate(180)"/>
      </g>
      <path class="cls-34" d="M623.589,591.9l-6.271-1.844c-2.045-.6-1.175-3.806.883-3.2l6.271,1.844c2.045.6,1.175,3.806-.883,3.2Z" transform="translate(0 0)"/>
      <path class="cls-34" d="M616.542,592.512a9.518,9.518,0,0,0-4.327-1.618,1.707,1.707,0,0,1-1.66-1.66,1.671,1.671,0,0,1,1.66-1.66,13.037,13.037,0,0,1,6,2.071c1.773,1.176.112,4.052-1.676,2.867Z" transform="translate(0 0)"/>
    </g>
    <path class="cls-20" d="M679.087,402.753c-3.994,25.584-7.177,51.48-6.141,77.423.895,22.428,5.03,44.548,9.764,66.438,3.449,15.946,7.119,31.843,10.6,47.782,2.556,11.708,20.52,6.753,17.964-4.953-6.586-30.169-14.9-60.419-18.32-91.171-3.371-30.286-.584-60.574,4.1-90.567.775-4.965-1.267-10.019-6.506-11.458-4.421-1.215-10.678,1.506-11.458,6.506Z" transform="translate(0 0)"/>
    <rect class="cls-32" x="688.111" y="563.535" width="22.666" height="34.155" rx="2.924" ry="2.924" transform="translate(-82.135 116.429) rotate(-8.99)"/>
    <path class="cls-35" d="M688.69,342.509,672.215,343.9c-11.907,2.574-26.076,1.789-36.62-5.423,0,0-15.835,54.027,3.415,61.065,8.084,2.955,36.995,3.1,45.263,0C719.05,386.5,688.69,342.509,688.69,342.509Z" transform="translate(0 0)"/>
    <path class="cls-35" d="M692.553,271.656s-20.915,46.068-20.713,44.836-6.965-5.992-6.965-5.992l22.387-42.287Z" transform="translate(0 0)"/>
    <path class="cls-35" d="M632.512,271.777s10.019,46.461,10.1,45.3,8.134-3.758,8.134-3.758l-12.3-43.4Z" transform="translate(0 0)"/>
    <path class="cls-26" d="M662.22,192.777s20.63,11.591,22.438,32.134c0,0,8.133,18.183,10.695,18.44,0,0-.171-21.556,1.112-37.858C697.5,192.4,684.42,175.5,664.643,178.485Z" transform="translate(0 0)"/>
    <path class="cls-26" d="M631.506,258.137a3.514,3.514,0,0,0,4.072-3.682c-.375-7.983-.227-26.73,6.184-37.32,7.985-13.191,20.91-15.7,24.513-28.571l.5,1.319-.336-9.842s-.411-5.11-10.972-4.04c-15.179,1.539-20.925,14.677-22.192,29.355-1.988,23.034-5.826,40.511-7.765,47.55a3.871,3.871,0,0,0,3.134,4.793Z" transform="translate(0 0)"/>
    <path class="cls-35" d="M673.786,346.235c-11.852,21.388-23.189,13.8-34.155-5.382V307.319h34.155Z" transform="translate(0 0)"/>
    <ellipse class="cls-36" cx="644.134" cy="314.047" rx="3.053" ry="3.933"/>
    <ellipse class="cls-36" cx="668.198" cy="314.047" rx="3.312" ry="3.933"/>
    <path class="cls-35" d="M693.569,454.288l-61.686.946a8.325,8.325,0,0,1-8.425-9L629.7,370.04h70.172v77.949A6.3,6.3,0,0,1,693.569,454.288Z" transform="translate(0 0)"/>
    <path class="cls-37" d="M656.3,419.616h0a17.181,17.181,0,0,1-17.181-17.181V382.563a4.347,4.347,0,0,1,4.347-4.347h25.668a4.347,4.347,0,0,1,4.347,4.347v19.872A17.181,17.181,0,0,1,656.3,419.616Z" transform="translate(0 0)"/>
    <ellipse class="cls-20" cx="686.595" cy="231.176" rx="7.945" ry="6.081" transform="translate(214.317 780.547) rotate(-67.924)"/>
    <path class="cls-20" d="M557.127,280.363l.151-.115a2.446,2.446,0,0,0,.858-3.291l-3.668-4.848a2.426,2.426,0,0,0-3.389-.055l-.151.115a2.446,2.446,0,0,0-.858,3.291l3.668,4.848A2.426,2.426,0,0,0,557.127,280.363Z" transform="translate(0 0)"/>
    <path class="cls-20" d="M553.392,283.458l.151-.115a2.45,2.45,0,0,0,.863-3.294l-3.668-4.849a2.43,2.43,0,0,0-3.394-.051l-.151.115a2.45,2.45,0,0,0-.863,3.294L550,283.407A2.43,2.43,0,0,0,553.392,283.458Z" transform="translate(0 0)"/>
    <path class="cls-20" d="M560.984,276.688l.153-.117c1.194-.909,1.595-2.4.9-3.319l-3.668-4.848c-.7-.924-2.233-.935-3.427-.026l-.153.117c-1.194.909-1.595,2.4-.9,3.319l3.668,4.848C558.256,277.586,559.791,277.6,560.984,276.688Z" transform="translate(0 0)"/>
    <path class="cls-20" d="M565.249,273.662l.139-.106a2.307,2.307,0,0,0,.687-3.161l-3.669-4.848a2.288,2.288,0,0,0-3.219-.184l-.139.106a2.307,2.307,0,0,0-.687,3.161l3.669,4.848A2.288,2.288,0,0,0,565.249,273.662Z" transform="translate(0 0)"/>
    <path class="cls-17" d="M682.858,344.426l1.355-51.031c.234-8.8,9.445-15.928,20.574-15.928h1.155a25.194,25.194,0,0,1,4.421.387,23.115,23.115,0,0,0-14.634-4.885h0c-11.448,0-20.923,7.336-21.164,16.385l-1.458,54.937c-.24,9.049,8.846,16.385,20.294,16.385h0a26.159,26.159,0,0,0,5.522-.586C689.583,358.726,682.651,352.232,682.858,344.426Z" transform="translate(0 0)"/>
    <g>
      <g>
        <path class="cls-24" d="M613.566,300.264l6.312-3.239a3.791,3.791,0,0,1,2.96-.213l29.456,10.1S636,327.229,613.566,300.264Z" transform="translate(0 0)"/>
        <path class="cls-24" d="M685.881,298.438l-5.525-2.743a3.792,3.792,0,0,0-3.082-.129L648.392,307S664.728,326.422,685.881,298.438Z" transform="translate(0 0)"/>
        <path class="cls-25" d="M645.417,358.857l-29.071-7.072a3.586,3.586,0,0,1-2.737-3.4l-1.064-45.549a3.586,3.586,0,0,1,4.432-3.568l29.071,7.072a3.586,3.586,0,0,1,2.737,3.4l1.064,45.549A3.586,3.586,0,0,1,645.417,358.857Z" transform="translate(0 0)"/>
        <path class="cls-25" d="M658.247,358.481l27.958-8.287A3.762,3.762,0,0,0,688.9,346.5l-1.055-45.178a3.762,3.762,0,0,0-4.83-3.519l-27.958,8.287a3.762,3.762,0,0,0-2.692,3.695l1.055,45.178A3.762,3.762,0,0,0,658.247,358.481Z" transform="translate(0 0)"/>
        <rect class="cls-23" x="646.395" y="306.505" width="10.793" height="53.757" rx="4.091" ry="4.091" transform="translate(-7.612 15.321) rotate(-1.339)"/>
      </g>
      <path class="cls-24" d="M679.341,316.01l-13.046,3.615A2.341,2.341,0,0,1,663.422,318h0a2.341,2.341,0,0,1,1.626-2.872l13.046-3.615a2.341,2.341,0,0,1,2.872,1.626h0A2.341,2.341,0,0,1,679.341,316.01Z" transform="translate(0 0)"/>
    </g>
    <path class="cls-20" d="M653.513,355.693l21.008-1.87c.04-.005.286-.022.673-.048a7.715,7.715,0,0,0,6.96-9.6c-.664-2.656-1.649-5.089-3.1-5.986l-10.777-5.812-7.21-5.135s-2.716,1.015,1.236,6.385c1.218,1.655,3.246,2.9,4.029,4.124a16.945,16.945,0,0,1-2.791,1.367l-18.566.367c-1.469-.039-2.816.148-2.855,1.616l-.007.269c-.039,1.468,1.295,1.816,2.763,1.856l5.5.379-7.363.917c-1.465.114-2.786.44-2.672,1.9l.021.269c.114,1.464,1.476,1.672,2.941,1.558l5.457-.193-1,.18c-1.456.192-2.758.588-2.566,2.044l.035.267c.192,1.456,1.564,1.591,3.02,1.4l9.852-.877-5.075.91c-1.456.192-2.758.588-2.566,2.044l.035.267C650.685,355.751,652.057,355.885,653.513,355.693Z" transform="translate(0 0)"/>
    <path class="cls-20" d="M692.337,291.951,710.723,329.8c1.8,3.7,3.516,7.964-2.45,8.534-7.522.719-15.171.766-22.717,1.147l-21.069,1.064c-8.352.422-8.4,13.465,0,13.041,14.8-.747,29.648-1.172,44.426-2.243,12.7-.921,20.224-12.729,14.825-24.513-3.047-6.65-6.4-13.177-9.6-19.756l-10.543-21.7c-3.667-7.547-14.916-.943-11.26,6.582Z" transform="translate(0 0)"/>
    <path class="cls-21" d="M722.06,319.724l-18.572,6.9a1.652,1.652,0,0,1-2.127-.981L688.8,291.26a10.014,10.014,0,0,1,5.971-12.841h0c5.195-1.9,9.644.61,12.841,5.97l16.83,28.628A4.644,4.644,0,0,1,722.06,319.724Z" transform="translate(0 0)"/>
    <g>
      <rect class="cls-33" x="688.708" y="587.936" width="23.675" height="18.552"/>
      <path class="cls-34" d="M710.421,581.371a26.606,26.606,0,0,1-7.818,2.4v4.537h9.952l0-4.785A2.147,2.147,0,0,0,710.421,581.371Z" transform="translate(0 0)"/>
      <path class="cls-34" d="M690.924,581.371a26.606,26.606,0,0,0,7.818,2.4v4.537h-9.952l0-4.785A2.147,2.147,0,0,1,690.924,581.371Z" transform="translate(0 0)"/>
      <rect class="cls-33" x="690.727" y="571.484" width="18.975" height="26.555" rx="8.364" ry="8.364" transform="translate(1400.429 1169.523) rotate(180)"/>
      <path class="cls-21" d="M714.307,605.747l-28.238.218h0c-1.009-9.84,4.966-17.817,13.347-17.817H702.1c6.741,0,12.206,6.744,12.206,15.064Z" transform="translate(0 0)"/>
      <path class="cls-34" d="M702.343,589.419a10.407,10.407,0,0,0-5.045-.131,1.863,1.863,0,0,1-2.3-1.123,1.826,1.826,0,0,1,1.127-2.3,14.258,14.258,0,0,1,6.937,0c2.249.583,1.552,4.142-.715,3.554Z" transform="translate(0 0)"/>
      <path class="cls-34" d="M712.966,611.379h-25.15a3.066,3.066,0,0,1-3.066-3.066h0a3.066,3.066,0,0,1,3.066-3.066h25.15a3.066,3.066,0,0,1,3.066,3.066h0A3.066,3.066,0,0,1,712.966,611.379Z" transform="translate(0 0)"/>
    </g>
  </g>
  <g>
    <path class="cls-20" d="M407.489,305.622c-8.578-3.972-24.751-11.439-25.282-11.528-.036-.006-.08-.015-.13-.028a4.521,4.521,0,0,1-3.219-5.6l2.268-8.267a4.554,4.554,0,0,1,5.142-3.287l2.463.412,4.718-2.987a17.318,17.318,0,0,1,12.591-2.363l11.566,2.265a2.063,2.063,0,0,1,1.659,1.844l.085.961a3.166,3.166,0,0,1-3.709,3.395l-9.772-1.74,3.407,1.649,9.63,2.624a3.5,3.5,0,0,1-.615,6.869l.051.014a3.51,3.51,0,1,1-1.846,6.773l-.23-.063a3.486,3.486,0,0,1-2.122,6.151A4.859,4.859,0,0,1,407.489,305.622Z" transform="translate(0 0)"/>
    <g>
      <g>
        <path class="cls-38" d="M281.886,99.469c6.232,7.643,6.673,19.687,6.233,28.825-.507,10.522-7.886,10.365-12.4,19.9-4.4,9.287-8.87,22.957-21.39,22.213-4.692-.279-19.923,6.1-33.673-10.787-3.746-4.6-8.728-16.49-7.322-29.3a71.017,71.017,0,0,1,4.48-19.628c2.747-7.66,5.248-15.047,13.03-18.815,11.631-5.632,27.165-2.047,27.165-2.047A26.074,26.074,0,0,1,281.886,99.469Z" transform="translate(0 0)"/>
        <path class="cls-20" d="M283.351,239.281c6.443,21.043,9.944,56.172,33.881,64.719,20.328,7.259,50.339-6.977,70.057-12.024,9.517-2.436,5.483-17.172-4.061-14.729-16.1,4.122-33.881,11.555-50.413,12.9-25.249,2.06-29.158-36.716-34.734-54.93-2.869-9.372-17.618-5.376-14.729,4.061Z" transform="translate(0 0)"/>
        <path class="cls-39" d="M228.489,182.341c2.822-1.913,10.484-3.7,11.473-3.3.973-.441,4.953.12,7.847,1.922,17.617,10.964,48.016,13.183,48.712,35.782,0,0-.115,12.33-9.256,12.508l-46.306.9-46.306.9c-9.141.178-9.737-12.138-9.737-12.138C184.072,197.553,211.313,193.984,228.489,182.341Z" transform="translate(0 0)"/>
        <path class="cls-20" d="M259.713,186.839s-3.15,8.591-19.978,8.74a20.575,20.575,0,0,1-18.352-10.221l13.125-6.5,13.473.232Z" transform="translate(0 0)"/>
        <path class="cls-40" d="M206.32,295.618l33.232,2.01,33.232-2.01a3.658,3.658,0,0,1,3.664,2.83c2.105,7.611,6.682,29.155,1.17,58.039-2.014,10.556-27.4,11.35-38.066,11.214-10.664.137-36.051-.657-38.066-11.214-5.511-28.884-.935-50.427,1.17-58.039A3.658,3.658,0,0,1,206.32,295.618Z" transform="translate(0 0)"/>
        <path class="cls-20" d="M239.059,151.323h5.724a8.792,8.792,0,0,1,8.792,8.792V185.17a8.791,8.791,0,0,1-8.791,8.791h-5.724a8.792,8.792,0,0,1-8.792-8.792V160.114A8.792,8.792,0,0,1,239.059,151.323Z" transform="translate(435.332 398.303) rotate(-166.112)"/>
        <path class="cls-29" d="M254.126,172.189l-19.351-11.851-.709,4.144c.471,5.383,10.388,15.936,17.861,16.017Z" transform="translate(0 0)"/>
        <path class="cls-40" d="M249.185,328.3c11.954,78.512,6.322,155.618.251,234.334-1.242,16.1,23.853,16.021,25.088,0,6.265-81.233,11.182-160.022-1.147-241-2.422-15.91-26.6-9.151-24.192,6.669Z" transform="translate(0 0)"/>
        <rect class="cls-20" x="252.34" y="558.457" width="18.584" height="27.644" transform="translate(523.263 1144.558) rotate(-180)"/>
        <rect class="cls-41" x="248.565" y="553.811" width="27.702" height="18.119" rx="2.527" ry="2.527" transform="translate(524.831 1125.742) rotate(-180)"/>
        <path class="cls-40" d="M201.348,321.95c-.931,80.16-8.129,158.722-23.941,237.354-3.17,15.765,21.007,22.511,24.192,6.669,16.247-80.791,23.881-161.644,24.837-244.023.187-16.149-24.9-16.16-25.088,0Z" transform="translate(0 0)"/>
        <path class="cls-39" d="M201.924,280.365c-.03,8.366-4.135,31.783-4.436,41.966-.42,6.295-4.6,10.485,1.922,11.356,7.181.958,31.8,5.913,42.879,5.678,13.972-.3,31.1-3.319,40.5-5.431,6.471-1.455,3.392-5.348,1.922-14.812-1.442-18.268-4.055-26.12-5.574-34.314-3.715-20.045,11.86-36.212,10.54-55.791-.786-11.657-6.524-26.608-17.559-31.882-3.584-1.713-27.548-4.786-30.7-2.564a5.387,5.387,0,0,0-1.3,1.418,5.385,5.385,0,0,0-1.3-1.418c-3.15-2.222-27.114.851-30.7,2.564-11.035,5.274-25.364,15.072-22.619,26.389C190.539,244.261,202.007,257.16,201.924,280.365Z" transform="translate(0 0)"/>
        <path class="cls-42" d="M217.482,188.317c10.955,13.408,31.674,11.706,42.642-.815,1.767-2.017-1.179-4.986-2.957-2.957-9.59,10.948-27.151,12.538-36.729.815-1.7-2.085-4.646.889-2.957,2.957Z" transform="translate(0 0)"/>
        <g class="cls-43">
          <path class="cls-44" d="M249.17,200.549a14.031,14.031,0,0,1-15.159-.448c-1.8-1.191-3.478,1.7-1.688,2.888a17.4,17.4,0,0,0,18.535.448,1.674,1.674,0,0,0-1.688-2.888Z" transform="translate(0 0)"/>
        </g>
        <g class="cls-43">
          <path class="cls-44" d="M266.119,255.761c-3.722,21.661-7.611,43.767-15.544,64.35-.775,2.01,2.458,2.88,3.226.889,7.933-20.584,11.822-42.689,15.544-64.35.362-2.106-2.861-3.01-3.226-.889Z" transform="translate(0 0)"/>
        </g>
        <g class="cls-43">
          <path class="cls-44" d="M249.72,255.784,219.8,317.472c-.936,1.929,1.948,3.627,2.888,1.688l29.919-61.688c.935-1.929-1.948-3.627-2.888-1.688Z" transform="translate(0 0)"/>
        </g>
        <g>
          <path class="cls-39" d="M247.91,602.584l68.12.208h0c1.191-9.4-5.859-17.025-15.745-17.025H247.548Z" transform="translate(0 0)"/>
          <path class="cls-39" d="M284.347,602.584l31.689.208h0c1.133-9.4-5.573-17.025-14.978-17.025h-3.013c-7.565,0-13.7,6.445-13.7,14.394Z" transform="translate(0 0)"/>
          <path class="cls-42" d="M312.453,609.029H250.1a3.664,3.664,0,0,1-3.708-3.579h0A3.662,3.662,0,0,1,250.1,601.8h62.356a3.664,3.664,0,0,1,3.708,3.579h0A3.662,3.662,0,0,1,312.453,609.029Z" transform="translate(0 0)"/>
          <path class="cls-42" d="M282.844,585.759l-7.954-7.894c-7.425,3.408-15.43,4.622-24.949.112a2.41,2.41,0,0,0-2.4,2.411l0,5.37Z" transform="translate(0 0)"/>
          <rect class="cls-39" x="261.55" y="564.094" width="21.295" height="29.8" rx="9.386" ry="9.386"/>
          <path class="cls-42" d="M277.568,587.908l7.692-2.262c2.509-.738,1.441-4.669-1.083-3.927l-7.692,2.262c-2.509.738-1.441,4.669,1.083,3.927Z" transform="translate(0 0)"/>
          <path class="cls-42" d="M286.212,588.654a11.675,11.675,0,0,1,5.307-1.984,2.094,2.094,0,0,0,2.036-2.036,2.05,2.05,0,0,0-2.036-2.036,15.992,15.992,0,0,0-7.362,2.54c-2.174,1.442-.137,4.97,2.055,3.516Z" transform="translate(0 0)"/>
        </g>
        <path class="cls-39" d="M309.041,267.486,287.475,272.9c-1,.25-2.072-.632-2.4-1.966l-12.948-53.326c-1.956-8.056,2.658-15.913,8.689-17.377l1.185-.288c4.741-1.151,10.526-.584,15.517,11.233L312.054,258.3C313.627,262.3,312.185,266.7,309.041,267.486Z" transform="translate(0 0)"/>
        <path class="cls-42" d="M287.425,275.191a107.468,107.468,0,0,0,25.213-8.7c2.417-1.182.3-4.789-2.11-3.61a102.994,102.994,0,0,1-24.214,8.281c-2.632.553-1.518,4.585,1.112,4.032Z" transform="translate(0 0)"/>
        <g class="cls-43">
          <path class="cls-44" d="M283.631,254.6A175.48,175.48,0,0,0,273.338,218.6c-.8-1.969-4.035-1.108-3.226.889a175.48,175.48,0,0,1,10.293,35.994c.368,2.117,3.592,1.22,3.226-.889Z" transform="translate(0 0)"/>
        </g>
        <path class="cls-20" d="M248.642,174.616l.464.073c14.069,2.213,27.478-8.053,29.8-22.813l1.12-17.869c3.641-19.541-6.119-28.217-20.188-30.43l-.112-.031c-14.069-2.213-26.847,4.631-29.168,19.391l-3.274,20.82C224.962,158.517,234.573,172.4,248.642,174.616Z" transform="translate(0 0)"/>
        <path class="cls-30" d="M263.616,155.263,247.774,153.2a2.019,2.019,0,0,0-2.2,2.573c.9,3.1,3.167,7.638,8.823,8.376s9.014-3.068,10.676-5.833A2.019,2.019,0,0,0,263.616,155.263Z" transform="translate(0 0)"/>
        <ellipse class="cls-45" cx="246.358" cy="138.668" rx="4.321" ry="3.087" transform="translate(76.996 365.026) rotate(-82.57)"/>
        <ellipse class="cls-45" cx="270.499" cy="141.816" rx="4.321" ry="3.087" transform="translate(94.891 391.703) rotate(-82.569)"/>
        <path class="cls-46" d="M248.041,131.359a28.977,28.977,0,0,0-7.859-.395,1.9,1.9,0,0,1-2.041-1.91v-.016a1.911,1.911,0,0,1,1.642-1.886,23.776,23.776,0,0,1,9.1.471,1.91,1.91,0,0,1,1.425,2.066v.011A1.916,1.916,0,0,1,248.041,131.359Z" transform="translate(0 0)"/>
        <path class="cls-46" d="M274.77,134.023a28.979,28.979,0,0,0-7.811-.952,1.9,1.9,0,0,1-1.9-2.05v-.016a1.911,1.911,0,0,1,1.772-1.765,23.776,23.776,0,0,1,9.045,1.116,1.909,1.909,0,0,1,1.274,2.162l0,.011A1.916,1.916,0,0,1,274.77,134.023Z" transform="translate(0 0)"/>
        <ellipse class="cls-20" cx="224.074" cy="138.565" rx="6.824" ry="8.916" transform="translate(-5.287 8.939) rotate(-2.259)"/>
        <path class="cls-29" d="M237.465,148.9l-2.856-.19a2.1,2.1,0,0,1-1.95-2.229h0a2.1,2.1,0,0,1,2.229-1.95l2.856.19a2.1,2.1,0,0,1,1.95,2.229h0A2.1,2.1,0,0,1,237.465,148.9Z" transform="translate(0 0)"/>
        <path class="cls-29" d="M275.207,151.314l-2.856-.19a2.1,2.1,0,0,1-1.95-2.229h0a2.1,2.1,0,0,1,2.229-1.95l2.856.19a2.1,2.1,0,0,1,1.95,2.229h0A2.1,2.1,0,0,1,275.207,151.314Z" transform="translate(0 0)"/>
        <path class="cls-47" d="M246.276,83.071c5.173.244,9.882,2.739,12.672,4.563a1.35,1.35,0,0,1,.242.218,26.037,26.037,0,0,1,12.1-4.286,1.351,1.351,0,0,1,1.041,2.307l-6.017,5.935-8.006,6.925-6.337-7.561a1.348,1.348,0,0,1-1.164-.365l-5.56-5.424A1.351,1.351,0,0,1,246.276,83.071Z" transform="translate(0 0)"/>
        <path class="cls-47" d="M270.786,105.357a40.331,40.331,0,0,1-13.906,29.977,4.068,4.068,0,0,1-6.712-3.071l-.081-14.381c-.023-4.073.773-12.813,3.3-16.006,2.271-2.865,5.667-1.718,9.12-1.239a16.209,16.209,0,0,1,6.139,1.736c1.856,1.1,3.271,3.938,2.08,5.734Z" transform="translate(0 0)"/>
        <path class="cls-47" d="M254.9,106.495c-12.161,8.845-20.341,19.819-26.4,33.01a3.271,3.271,0,0,1-6.2-.887c-1.669-12.625,2.2-24.905,10.231-35.841,3.024-4.12,12.542-5.341,17.8-4.607a.8.8,0,0,1,.573.384l4.223,6.866A.806.806,0,0,1,254.9,106.495Z" transform="translate(0 0)"/>
        <path class="cls-47" d="M262.63,103.673c9.374,11.758,14.344,24.511,16.681,38.837a3.271,3.271,0,0,0,6.217.794c4.963-11.728,4.492-24.6-.341-37.271-1.821-4.776-10.672-8.481-15.933-9.169a.8.8,0,0,0-.654.218l-5.9,5.5A.806.806,0,0,0,262.63,103.673Z" transform="translate(0 0)"/>
        <path class="cls-48" d="M263.812,111.411a29,29,0,0,1-8.2,16.635c-1.885,1.924,1.07,4.883,2.957,2.957a33.724,33.724,0,0,0,9.427-19.592c.35-2.66-3.835-2.634-4.181,0Z" transform="translate(0 0)"/>
        <path class="cls-48" d="M241.069,109.694a41.393,41.393,0,0,0-14.875,21.717c-.741,2.592,3.292,3.7,4.032,1.112A36.742,36.742,0,0,1,243.18,113.3c2.1-1.617.024-5.251-2.11-3.61Z" transform="translate(0 0)"/>
        <path class="cls-48" d="M284.6,136.779a52.36,52.36,0,0,0-7.842-21.872c-1.446-2.26-5.066-.165-3.61,2.11a47.617,47.617,0,0,1,7.271,19.762c.337,2.632,4.523,2.666,4.181,0Z" transform="translate(0 0)"/>
        <circle class="cls-42" cx="258.6" cy="83.943" r="7.056" transform="translate(140.749 328.956) rotate(-82.296)"/>
        <path class="cls-42" d="M225.676,80.251H283.9a8.288,8.288,0,0,1,8.288,8.288v0a34.223,34.223,0,0,1-34.223,34.223h-6.355a34.223,34.223,0,0,1-34.223-34.223v0a8.288,8.288,0,0,1,8.288-8.288Z" transform="translate(493.669 236.252) rotate(-172.296)"/>
        <path class="cls-49" d="M245.56,121.707l37.159,5.027a5.991,5.991,0,0,0,6.74-5.134l1.579-11.673a24.74,24.74,0,0,0-21.2-27.833h0a24.74,24.74,0,0,0-27.833,21.2l-1.579,11.673A5.991,5.991,0,0,0,245.56,121.707Z" transform="translate(0 0)"/>
        <path class="cls-24" d="M264.552,83.939c8.7,3.732,5.013,17.215,3.333,24.2-.629,2.615,3.4,3.731,4.032,1.112,2.143-8.914,5.671-24.238-5.254-28.924-2.446-1.049-4.579,2.552-2.11,3.61Z" transform="translate(0 0)"/>
        <path class="cls-42" d="M291.758,117.3a39.374,39.374,0,0,0-52.145.194c-2.03,1.774.937,4.721,2.957,2.957a35.067,35.067,0,0,1,46.231-.194c2.031,1.746,5-1.2,2.957-2.957Z" transform="translate(0 0)"/>
        <path class="cls-50" d="M292.729,120.821l14.5,12.49a1.882,1.882,0,0,1-1.876,3.195c-8.248-3.123-19.155-5.5-29.093-2.034a14.481,14.481,0,0,1-11.607-1.07l-23.106-12.474A38.35,38.35,0,0,1,292.729,120.821Z" transform="translate(0 0)"/>
        <g>
          <path class="cls-51" d="M201.243,359.355s-6.7-12.81-4.888-16.4S208.652,357.251,201.243,359.355Z" transform="translate(0 0)"/>
          <path class="cls-51" d="M195.79,351.692s-1.649-25.235,7.855-18.169C203.646,333.523,200.563,352.611,195.79,351.692Z" transform="translate(0 0)"/>
          <path class="cls-51" d="M200.365,365.857s-5.713-13.288-3.636-16.731S207.9,364.322,200.365,365.857Z" transform="translate(0 0)"/>
          <path class="cls-20" d="M192.525,320.409l-3.638,21.81s4.286,27.668,9.184,28.051c6.394.5-.655-16.187-.655-16.187s1.349-16.1,1.821-16.238c.2-.059.827-1.49,1.924-1.393a3.883,3.883,0,0,1,3.484,3.558l.515,5.724s1.622,9.416,5.154,8.6c3.171-.734,1.028-9.752,1.028-9.752l-1.389-12.566-1.957-9.3a9.34,9.34,0,0,0-9.14-7.417h-.293A6.122,6.122,0,0,0,192.525,320.409Z" transform="translate(0 0)"/>
          <path class="cls-40" d="M200.225,371.663A1192.119,1192.119,0,0,1,177.407,559.3c-3.167,15.765,21.01,22.511,24.192,6.669a1235.163,1235.163,0,0,0,23.715-194.31c.648-16.145-24.442-16.116-25.088,0Z" transform="translate(0 0)"/>
        </g>
        <path class="cls-20" d="M187.593,213.481c-14.7,14.873-42.241,33.452-39.154,57.188,2.7,20.725,28.86,39.978,42.183,54.426,6.4,6.939,16.728-3.43,10.348-10.348-10.394-11.273-26.127-23.2-33.638-36.48-12.088-21.373,17.646-41.317,30.609-54.437,6.626-6.706-3.716-17.061-10.348-10.348Z" transform="translate(0 0)"/>
        <path class="cls-39" d="M149.454,250.243l16.016,15.423c.74.713,2.112.482,3.056-.514l37.759-39.818c5.7-6.015,5.61-15.126,1.106-19.4l-.885-.839c-3.54-3.357-8.841-5.742-19.048,2.025L151.41,240.775C148.055,243.464,147.119,247.994,149.454,250.243Z" transform="translate(0 0)"/>
        <path class="cls-42" d="M167.891,264.295a101.619,101.619,0,0,1-17.875-18.327c-1.6-2.125-5.229-.043-3.61,2.11a105.577,105.577,0,0,0,18.529,19.173c2.082,1.664,5.059-1.276,2.957-2.957Z" transform="translate(0 0)"/>
        <path class="cls-40" d="M199.238,337.845s1.671,41.373-.116,60.141l12.959-11.618s-3.242-18.594-6.368-33.849c-1.1-5.387-.682-10.724-1.955-14.16C202.64,335.342,199.345,336.989,199.238,337.845Z" transform="translate(0 0)"/>
        <rect class="cls-20" x="179.862" y="558.457" width="18.584" height="27.644" transform="translate(378.308 1144.558) rotate(-180)"/>
        <rect class="cls-41" x="176.087" y="553.811" width="27.702" height="18.119" rx="2.527" ry="2.527" transform="translate(379.876 1125.742) rotate(-180)"/>
        <g>
          <rect class="cls-39" x="176.434" y="582.604" width="26.569" height="20.82" transform="translate(379.437 1186.027) rotate(-180)"/>
          <path class="cls-42" d="M178.637,575.237a29.858,29.858,0,0,0,8.773,2.69v5.092H176.242l0-5.37A2.41,2.41,0,0,1,178.637,575.237Z" transform="translate(0 0)"/>
          <path class="cls-42" d="M200.517,575.237a29.857,29.857,0,0,1-8.773,2.69v5.092h11.168l0-5.37A2.41,2.41,0,0,0,200.517,575.237Z" transform="translate(0 0)"/>
          <rect class="cls-39" x="179.443" y="564.141" width="21.295" height="29.8" rx="9.386" ry="9.386"/>
          <path class="cls-39" d="M174.278,602.624l31.689.215h0c1.133-9.685-5.573-17.536-14.978-17.536h-3.013c-7.565,0-13.7,6.638-13.7,14.827Z" transform="translate(0 0)"/>
          <path class="cls-42" d="M187.7,588.449a11.681,11.681,0,0,1,5.662-.147,2.091,2.091,0,0,0,2.586-1.26,2.05,2.05,0,0,0-1.265-2.585,16,16,0,0,0-7.785,0c-2.523.654-1.742,4.648.8,3.989Z" transform="translate(0 0)"/>
          <path class="cls-42" d="M175.781,608.912h28.224a3.441,3.441,0,0,0,3.441-3.441h0a3.441,3.441,0,0,0-3.441-3.441H175.781a3.441,3.441,0,0,0-3.441,3.441h0A3.441,3.441,0,0,0,175.781,608.912Z" transform="translate(0 0)"/>
        </g>
      </g>
      <path class="cls-52" d="M390.751,306.505A3.112,3.112,0,0,1,388.764,301L515.329,196.215a3.113,3.113,0,1,1,3.971,4.794L392.735,305.79A3.106,3.106,0,0,1,390.751,306.505Z" transform="translate(0 0)"/>
      <path class="cls-53" d="M421.369,287.277a3.473,3.473,0,0,0-1.905-4.028l-8.4-2.256a2.512,2.512,0,0,0-2.144,1.96c-.246,1.714.519,2.3,1.165,2.606s8.026,4.173,8.22,4.275A3.511,3.511,0,0,0,421.369,287.277Z" transform="translate(0 0)"/>
      <path class="cls-53" d="M405.392,285.7c-.776.817-.365,1.867-.089,2.713s10.964,8.15,10.964,8.15l.3.067a3.513,3.513,0,0,0,4.242-2.468,3.474,3.474,0,0,0-.965-3.385c-3.789-2.186-9.88-5.651-11.011-5.991A3.062,3.062,0,0,0,405.392,285.7Z" transform="translate(0 0)"/>
      <path class="cls-53" d="M403.185,288.878c-2.581,1.8-1.085,3.752-1.085,3.752l12.145,10.061a3.439,3.439,0,0,0,2.327-5.785c-1.307-1.019-2.884-2.241-4.5-3.473C408.415,290.641,404.678,287.838,403.185,288.878Z" transform="translate(0 0)"/>
      <path class="cls-53" d="M408.7,305.984a4.857,4.857,0,0,0,5.445-3.261L402.1,292.63s-1.459-.2-2.772,2.013-.375,3.274-.375,3.274l9.463,7.926Z" transform="translate(0 0)"/>
    </g>
  </g>
</svg>
