<svg id="Layer_1" data-name="Layer 1" xmlns="http://www.w3.org/2000/svg" xmlns:xlink="http://www.w3.org/1999/xlink" viewBox="0 0 1397.681 513.183">
  <defs>
    <style>
      .cls-1, .cls-58 {
        fill: none;
      }

      .cls-2 {
        fill: #181818;
        opacity: 0.44;
      }

      .cls-3 {
        fill: #1a1a1a;
      }

      .cls-4 {
        fill: #6168a1;
      }

      .cls-5 {
        fill: #fff;
      }

      .cls-6 {
        fill: #3a2941;
      }

      .cls-7 {
        fill: #828ac3;
      }

      .cls-8 {
        fill: #7279b9;
      }

      .cls-9 {
        fill: #2f1d33;
      }

      .cls-10 {
        fill: #ffcc21;
      }

      .cls-11 {
        fill: #404040;
        opacity: 0.4;
      }

      .cls-12 {
        fill: #b93f22;
      }

      .cls-13 {
        fill: #8b2618;
      }

      .cls-14 {
        fill: #3c1f64;
        opacity: 0.54;
      }

      .cls-15 {
        fill: #9b9b9b;
      }

      .cls-16 {
        fill: #858180;
      }

      .cls-17 {
        fill: #7b7b7a;
      }

      .cls-18 {
        fill: #c5bbb9;
      }

      .cls-19 {
        fill: #f8966f;
      }

      .cls-20 {
        fill: #dedad9;
      }

      .cls-21 {
        fill: #d8322b;
      }

      .cls-22, .cls-23 {
        fill: #1c4c85;
      }

      .cls-23 {
        opacity: 0.25;
      }

      .cls-24 {
        fill: #ffa900;
      }

      .cls-25 {
        fill: #fdfeff;
      }

      .cls-26 {
        fill: #62361d;
      }

      .cls-27 {
        fill: #e47356;
      }

      .cls-28 {
        fill: #f7f3ef;
      }

      .cls-29 {
        fill: #904f1a;
      }

      .cls-30 {
        fill: #282843;
      }

      .cls-31 {
        fill: #3671b7;
      }

      .cls-32 {
        fill: #391e12;
      }

      .cls-33 {
        fill: #282828;
      }

      .cls-34 {
        fill: #676767;
      }

      .cls-35 {
        fill: #c1c1c0;
      }

      .cls-36 {
        fill: #f18b68;
      }

      .cls-37 {
        fill: #286fb7;
      }

      .cls-38 {
        clip-path: url(#clip-path);
      }

      .cls-39 {
        fill: #2c89cb;
      }

      .cls-40 {
        fill: #19539d;
      }

      .cls-41 {
        fill: #1c5ba4;
      }

      .cls-42 {
        fill: #3d88bd;
      }

      .cls-43 {
        fill: #184a98;
      }

      .cls-44 {
        fill: #1c539e;
      }

      .cls-45 {
        fill: #1c5fa7;
      }

      .cls-46 {
        fill: #b59eb4;
      }

      .cls-47 {
        fill: #f5d0d9;
      }

      .cls-48 {
        fill: #54385b;
      }

      .cls-49 {
        fill: #8e5533;
      }

      .cls-50 {
        fill: #78482c;
      }

      .cls-51 {
        fill: #643d25;
      }

      .cls-52 {
        fill: #57b898;
      }

      .cls-53 {
        fill: #3f2945;
      }

      .cls-54 {
        fill: #8dccb7;
      }

      .cls-55 {
        fill: #535453;
      }

      .cls-56 {
        fill: #a6a6a7;
      }

      .cls-57 {
        fill: #3f161e;
      }

      .cls-58 {
        stroke: #535453;
        stroke-linecap: round;
        stroke-miterlimit: 10;
        stroke-width: 1.044px;
      }

      .cls-59 {
        fill: #011e34;
      }

      .cls-60 {
        fill: #c7c6c5;
      }

      .cls-61 {
        fill: #a9b022;
      }

      .cls-62 {
        fill: #1e1e1e;
      }

      .cls-63 {
        fill: #295fa1;
      }

      .cls-64 {
        fill: #ed4c32;
      }

      .cls-65 {
        fill: #553024;
      }

      .cls-66 {
        fill: #683b2e;
      }
    </style>
    <clipPath id="clip-path" transform="translate(0 0)">
      <path class="cls-1" d="M460.847,406.253c-27.232,19.97-168.141,31.019-224.207,7.262C183.084,390.822,186,341.061,211.224,311.85c34.493-39.94,108.473-44.932,135.7-39.486,12.777,2.555,35.917-12.335,44.63-57.64,6.051-31.468-6.959-55.371,16.642-84.418,21.661-26.66,58.917-28.529,80.787-12.708,21.952,15.88,47.738,60.336,49.017,116.188C540.727,352.7,472.358,397.811,460.847,406.253Z"/>
    </clipPath>
  </defs>
  <title>040ae58a-74b9-488f-b745-361acd32d980</title>
  <ellipse class="cls-2" cx="69.502" cy="404.092" rx="63.701" ry="10.552"/>
  <g>
    <path class="cls-3" d="M11.924,374.063l8.448-61.721c1.456-10.64,13.549-19.265,27.009-19.265h1.4a29.6,29.6,0,0,1,5.3.468c-4.048-3.647-10.058-5.908-17.048-5.908h0c-13.846,0-26.285,8.872-27.783,19.817L.148,373.9c-1.5,10.945,8.512,19.817,22.358,19.817h0a32.746,32.746,0,0,0,6.757-.709C18.15,391.358,10.632,383.5,11.924,374.063Z" transform="translate(0 0)"/>
    <path class="cls-4" d="M56.15,282.4H74.89a30.566,30.566,0,0,1,30.566,30.566v79.246a9.463,9.463,0,0,1-9.463,9.463H35.047a9.463,9.463,0,0,1-9.463-9.463V312.966A30.566,30.566,0,0,1,56.15,282.4Z"/>
    <path class="cls-5" d="M61.057,282.4H83.246a24.818,24.818,0,0,1,24.818,24.818v54.94a7.684,7.684,0,0,1-7.684,7.684H43.923a7.684,7.684,0,0,1-7.684-7.684v-54.94A24.818,24.818,0,0,1,61.057,282.4Z"/>
    <path class="cls-6" d="M26.066,354.059H50.3a2.122,2.122,0,0,1,2.122,2.122v42.942a2.122,2.122,0,0,1-2.122,2.122H32.009a8.065,8.065,0,0,1-8.065-8.065v-37a2.122,2.122,0,0,1,2.122-2.122Z"/>
    <path class="cls-7" d="M23.944,363.455v-7.308a2.13,2.13,0,0,1,2.157-2.088H50.262a2.13,2.13,0,0,1,2.157,2.088v7.2Z" transform="translate(0 0)"/>
    <path class="cls-8" d="M110.609,401.675H49.256c-5.683,0-10.333-4.031-10.333-8.959V308.2c0-14.625,13.8-26.591,30.671-26.591H90.272c16.869,0,26.413,11.483,26.734,26.591l3.937,84.516C120.943,397.644,116.293,401.675,110.609,401.675Z" transform="translate(0 0)"/>
    <path class="cls-4" d="M23.858,378.037v14.328a9.5,9.5,0,0,0,9.619,9.31H94.111a9.5,9.5,0,0,0,9.619-9.31V378.037Z" transform="translate(0 0)"/>
    <path class="cls-8" d="M39,378.037v14.68c0,4.927,4.65,8.959,10.333,8.959H110.69c5.683,0,10.333-4.031,10.333-8.959l-.684-14.68Z" transform="translate(0 0)"/>
    <rect class="cls-5" x="38.818" y="377.653" width="81.96" height="3.549"/>
    <rect class="cls-5" x="23.513" y="377.653" width="15.305" height="3.549"/>
    <rect class="cls-9" x="57.255" y="361.721" width="50.135" height="3.893" rx="1.892" ry="1.892"/>
    <path class="cls-9" d="M43.638,308.368c-1.144,15.278,9.5,28.831,22.653,33.737,12.905,4.813,28.872,2.563,38.1-8.867a31.108,31.108,0,0,0,6.251-23.546,2.605,2.605,0,0,1,1.648-3.074,2.363,2.363,0,0,1,2.9,1.745,37.036,37.036,0,0,1-4.767,24.595,34.426,34.426,0,0,1-18.682,14.619c-15.462,5.121-34.006-.056-44.421-13.39-5.6-7.168-9.111-16.423-8.408-25.819.238-3.185,4.96-3.212,4.72,0Z" transform="translate(0 0)"/>
    <path class="cls-9" d="M48.113,350.159h0a1.967,1.967,0,0,1-1.9-2.014V330.2a1.967,1.967,0,0,1,1.9-2.014h0a1.967,1.967,0,0,1,1.9,2.014v17.947A1.967,1.967,0,0,1,48.113,350.159Z" transform="translate(0 0)"/>
    <path class="cls-10" d="M80.321,294.346l3.938,7.979a1.042,1.042,0,0,0,.784.57l8.806,1.28a1.041,1.041,0,0,1,.577,1.776l-6.372,6.211a1.041,1.041,0,0,0-.3.922l1.5,8.77a1.041,1.041,0,0,1-1.511,1.1l-7.876-4.141a1.041,1.041,0,0,0-.969,0l-7.876,4.141a1.041,1.041,0,0,1-1.511-1.1l1.5-8.77a1.041,1.041,0,0,0-.3-.922l-6.372-6.211a1.041,1.041,0,0,1,.577-1.776l8.806-1.28a1.042,1.042,0,0,0,.784-.57l3.938-7.979A1.041,1.041,0,0,1,80.321,294.346Z" transform="translate(0 0)"/>
  </g>
  <g>
    <g>
      <polygon class="cls-3" points="809.853 443.464 802.746 332.344 819.457 332.344 812.35 443.464 809.853 443.464"/>
      <polygon class="cls-11" points="806.793 395.629 802.746 332.344 817.446 332.344 806.793 395.629"/>
    </g>
    <g>
      <g>
        <g>
          <polygon class="cls-12" points="1109.547 443.464 1097.3 233.03 1126.096 233.03 1113.85 443.464 1109.547 443.464"/>
          <polygon class="cls-13" points="1104.275 352.876 1097.3 233.03 1122.631 233.03 1104.275 352.876"/>
        </g>
        <polygon class="cls-14" points="1122.631 233.03 1126.096 233.03 1113.85 443.464 1109.547 443.464 1097.3 233.03 1122.631 233.03"/>
      </g>
      <g>
        <g>
          <polygon class="cls-12" points="828.939 443.464 816.693 233.03 845.489 233.03 833.243 443.464 828.939 443.464"/>
          <polygon class="cls-13" points="823.667 352.876 816.693 233.03 842.023 233.03 823.667 352.876"/>
        </g>
        <polygon class="cls-14" points="842.023 233.03 845.489 233.03 833.243 443.464 828.939 443.464 816.693 233.03 842.023 233.03"/>
      </g>
    </g>
    <g>
      <polygon class="cls-3" points="705.438 443.464 698.331 332.344 715.043 332.344 707.936 443.464 705.438 443.464"/>
      <polygon class="cls-11" points="702.379 395.629 698.331 332.344 713.032 332.344 702.379 395.629"/>
    </g>
    <path class="cls-15" d="M629.109,284.361h74.218a15.923,15.923,0,0,0,15.923-15.923l-15.675-93.224a15.923,15.923,0,0,0-15.923-15.923H613.434a15.923,15.923,0,0,0-15.923,15.923l15.675,93.224A15.923,15.923,0,0,0,629.109,284.361Z" transform="translate(0 0)"/>
    <g>
      <path class="cls-16" d="M613.186,268.438l-15.675-93.224a15.863,15.863,0,0,1,4.275-10.852l76.962,77.693-31.622,42.306H629.109A15.923,15.923,0,0,1,613.186,268.438Z" transform="translate(0 0)"/>
      <path class="cls-15" d="M678.748,242.055l-76.962-77.693a15.876,15.876,0,0,1,11.648-5.072h74.218A15.914,15.914,0,0,1,701.3,167Z" transform="translate(0 0)"/>
      <path class="cls-17" d="M678.748,242.055,701.3,167a15.847,15.847,0,0,1,2.279,8.211l8.348,49.645Z" transform="translate(0 0)"/>
      <path class="cls-18" d="M711.923,224.859l7.327,43.579a15.864,15.864,0,0,1-1.314,6.336l-39.189-32.719Z" transform="translate(0 0)"/>
      <path class="cls-15" d="M678.748,242.055l39.189,32.719a15.925,15.925,0,0,1-14.61,9.588h-56.2Z" transform="translate(0 0)"/>
    </g>
    <path class="cls-3" d="M671.537,310.789h23.538a5.05,5.05,0,0,0,5.05-5.05l-4.971-29.566a5.05,5.05,0,0,0-5.05-5.05H666.566a5.05,5.05,0,0,0-5.05,5.05l4.971,29.566A5.05,5.05,0,0,0,671.537,310.789Z" transform="translate(0 0)"/>
    <g>
      <g>
        <path class="cls-19" d="M757.433,293.78l79.084,9.415a50.384,50.384,0,0,1,17.37,5.137A46.759,46.759,0,0,1,875.836,331.9c2.526,5.746,3.5,12.512,3.743,19.595l.673,19.983,1.517,45.055c.512,15.2,24.2,15.269,23.683,0L904.1,376.295c-.51-15.158.542-32.051-4-46.667-8.584-27.623-32.58-46.288-60.919-49.8-12.621-1.564-25.258-3.007-37.887-4.51L757.433,270.1c-6.361-.757-11.841,5.984-11.841,11.841,0,7.03,5.462,11.082,11.841,11.841Z" transform="translate(0 0)"/>
        <rect class="cls-20" x="880.189" y="375.715" width="28.814" height="43.419" rx="3.717" ry="3.717" transform="translate(1789.193 794.849) rotate(-180)"/>
        <g>
          <g>
            <path class="cls-21" d="M878.76,432.227l69.328.249h0c1.212-11.238-5.963-20.349-16.025-20.349H878.392Z" transform="translate(0 0)"/>
            <path class="cls-20" d="M915.843,432.227l32.251.249h0c1.153-11.238-5.672-20.349-15.244-20.349h-3.066c-7.7,0-13.941,7.7-13.941,17.2Z" transform="translate(0 0)"/>
            <path class="cls-9" d="M944.45,438.826H880.987a3.73,3.73,0,0,1-3.773-3.642h0a3.727,3.727,0,0,1,3.773-3.721H944.45a3.73,3.73,0,0,1,3.773,3.642h0A3.727,3.727,0,0,1,944.45,438.826Z" transform="translate(0 0)"/>
            <path class="cls-9" d="M914.316,415.143l-8.1-8.034c-7.557,3.469-15.7,4.7-25.391.114a2.453,2.453,0,0,0-2.442,2.454l0,5.465Z" transform="translate(0 0)"/>
            <rect class="cls-21" x="892.643" y="393.094" width="21.672" height="30.329" rx="9.553" ry="9.553"/>
          </g>
          <path class="cls-9" d="M908.946,417.33l7.828-2.3c2.553-.751,1.466-4.751-1.1-4l-7.828,2.3c-2.553.751-1.467,4.751,1.1,4Z" transform="translate(0 0)"/>
          <path class="cls-9" d="M917.743,418.09a11.879,11.879,0,0,1,5.4-2.02A2.131,2.131,0,0,0,925.217,414a2.086,2.086,0,0,0-2.072-2.072,16.274,16.274,0,0,0-7.493,2.585c-2.213,1.468-.14,5.058,2.092,3.579Z" transform="translate(0 0)"/>
        </g>
        <path class="cls-22" d="M837.282,307.214l4.789-30.417a3.947,3.947,0,0,0-3.286-4.513l-96.314-15.15a19.342,19.342,0,0,0-22.113,16.1v0a19.342,19.342,0,0,0,16.1,22.116l96.31,15.15A3.948,3.948,0,0,0,837.282,307.214Z" transform="translate(0 0)"/>
      </g>
      <path class="cls-23" d="M947.019,432.472l1.069,0h.006c1.153-11.238-5.672-20.349-15.244-20.349h-8.812a1.576,1.576,0,0,0-.894-.2c-.442.044-.872.127-1.3.2h-3.852a1.851,1.851,0,0,0-2.316-1.095l-1.357.4v-8.785a9.549,9.549,0,0,0-5.312-8.51v-14.7a3.718,3.718,0,0,0-3.718-3.718h-.093c-.628-31.422-4.919-63.212-30.9-82.348-10.044-7.4-21.187-10.916-32.779-13.025l.558-3.546a3.947,3.947,0,0,0-3.286-4.513l-96.314-15.15a19.343,19.343,0,0,0-22.113,16.1v0a19.342,19.342,0,0,0,16.1,22.116L832.769,310.5a3.948,3.948,0,0,0,4.513-3.286l.644-4.091a58.294,58.294,0,0,1,17.484,6.086c22.285,12.676,23.91,34.623,24.672,57.234q.194,5.794.39,11.588a3.7,3.7,0,0,0-.283,1.4v27.922a2.42,2.42,0,0,0-1.8,2.323l0,5.465h.055l.313,17.084h.04a3.587,3.587,0,0,0-1.586,2.957,3.729,3.729,0,0,0,3.773,3.642h63.463a3.728,3.728,0,0,0,3.774-3.721A3.611,3.611,0,0,0,947.019,432.472Z" transform="translate(0 0)"/>
    </g>
    <g>
      <path class="cls-19" d="M762.521,175.471l30.884,34.4c4.635,5.163,8.915,11.153,15.729,13.517a20.653,20.653,0,0,0,20.177-4.205c2.756-2.49,4.562-5.923,6.723-8.94l15.046-21c2.532-3.534.618-8.958-2.886-11.008-4.047-2.367-8.47-.656-11.008,2.886l-11.7,16.336c-2.337,3.262-6.777,12.8-11.738,10.489-3.733-1.74-7.147-7.43-9.781-10.365L785.81,177.362,773.9,164.093c-6.932-7.722-18.281,3.688-11.378,11.378Z" transform="translate(0 0)"/>
      <g>
        <path class="cls-24" d="M776.675,205.849l-19.591-32.541c-6.025-12.751-2.25-17.908,2.168-20.95l1.1-.76c5.62-3.869,15.44-1.893,20.608,5.615l21.342,31.006a6.066,6.066,0,0,1-1.557,8.436l-15.916,10.958A5.729,5.729,0,0,1,776.675,205.849Z" transform="translate(0 0)"/>
        <rect class="cls-25" x="770.962" y="188" width="29.754" height="5.746" transform="translate(1541.347 -97.545) rotate(145.453)"/>
      </g>
      <path class="cls-24" d="M745.094,123.473c-2.858-2.426-11.019-5.293-12.148-4.97-1.011-.6-5.428-.456-8.806,1.169-20.558,9.892-54.049,8.707-57.494,33.326,0,0-1.339,13.491,8.632,14.771l50.506,6.488,44.412,5.826c9.97,1.281,12.085-12.11,12.085-12.11C785.742,144.714,762.485,138.24,745.094,123.473Z" transform="translate(0 0)"/>
      <path class="cls-22" d="M675.2,245.957l33.141-15.542,31.027-19.422a4.022,4.022,0,0,1,5.026.805c6.037,6.241,21.788,24.633,31.662,55.418,3.609,11.251-28,37.4-38.37,42.877-10.224,5.742-45.564,0-56.955-22.389-8.478-16.663-6.184-31.106-7.578-37.088A4.022,4.022,0,0,1,675.2,245.957Z" transform="translate(0 0)"/>
      <path class="cls-24" d="M758.505,263.006c-25.433-.036-51.711-3.639-82.331-9.576-3-.581-5.114-2.971-4.983-5.61.833-16.815,8.656-77.053,11.454-91.943,1.954-10.4,4.59-21.089,16.591-24.585,3.9-1.136,29.142-1.19,32.2,1.166a5.23,5.23,0,0,1,1.211,1.422,5.226,5.226,0,0,1,1.487-1.129c3.5-1.643,28.141,3.832,31.7,5.779,10.973,5.993,20.354,12.516,15.827,26.974-15.51,49.527-13.72,77.718-16.71,94.6C764.506,262.655,761.5,263.01,758.505,263.006Z" transform="translate(0 0)"/>
      <path class="cls-25" d="M757.392,132.514s-4.706,12.167-28.129,9.622S704.4,126.307,704.4,126.307l16.162-5.219,31.355,7.685Z" transform="translate(0 0)"/>
      <path class="cls-26" d="M744.693,11.887S711.016,15.162,705.08,46.08s4.338,52.083,21.079,57.611c18.677,6.167,44.5-63.3,44.5-63.3Z" transform="translate(0 0)"/>
      <path class="cls-19" d="M751.625,128.836s-4.527,9.331-22.7,7.521c-14.172-1.412-18.02-12.267-18.02-12.267l14.368-6.628,14.507,1.833Z" transform="translate(0 0)"/>
      <path class="cls-19" d="M726.485,128.92l5.481.535c4.628.452,8.938-3.35,9.577-8.448l3.311-26.428c.639-5.1-2.628-9.647-7.26-10.1l-5.481-.535c-4.628-.452-8.938,3.35-9.576,8.448l-3.311,26.428C718.585,123.923,721.852,128.468,726.485,128.92Z" transform="translate(0 0)"/>
      <path class="cls-27" d="M743.357,107.656l-19.77-9.523-.287,4.64c.968,5.783,11.528,15.545,18.734,14.324Z" transform="translate(0 0)"/>
      <path class="cls-19" d="M744.456,117.513l.557.136c16.881,4.136,34.244-6.971,38.583-24.682l3.2-21.616c6.435-23.389-4.543-34.943-21.425-39.08l-.133-.049c-16.881-4.136-33.124,2.874-37.463,20.585l-6.121,24.982C717.313,95.5,727.575,113.377,744.456,117.513Z" transform="translate(0 0)"/>
      <path class="cls-28" d="M764.655,95.515,745.6,91.375a2.464,2.464,0,0,0-2.934,2.9c.772,3.86,3.067,9.614,9.869,11.092s11.278-2.805,13.582-6A2.464,2.464,0,0,0,764.655,95.515Z" transform="translate(0 0)"/>
      <path class="cls-29" d="M748.169,64.846a35.362,35.362,0,0,0-9.517-1.288,2.316,2.316,0,0,1-2.285-2.532l0-.019a2.333,2.333,0,0,1,2.191-2.125,29.018,29.018,0,0,1,11.02,1.508,2.33,2.33,0,0,1,1.52,2.659l0,.013A2.339,2.339,0,0,1,748.169,64.846Z" transform="translate(0 0)"/>
      <path class="cls-29" d="M780.4,70.832a35.366,35.366,0,0,0-9.4-1.96,2.316,2.316,0,0,1-2.1-2.688l0-.019a2.332,2.332,0,0,1,2.336-1.964,29.016,29.016,0,0,1,10.885,2.287,2.33,2.33,0,0,1,1.328,2.76l0,.013A2.339,2.339,0,0,1,780.4,70.832Z" transform="translate(0 0)"/>
      <ellipse class="cls-19" cx="718.282" cy="71.148" rx="10.881" ry="8.328" transform="translate(615 785.517) rotate(-87.43)"/>
      <path class="cls-27" d="M733.506,85.087l-3.453-.525a2.563,2.563,0,0,1-2.143-2.911h0a2.563,2.563,0,0,1,2.91-2.143l3.453.525a2.563,2.563,0,0,1,2.143,2.911h0A2.563,2.563,0,0,1,733.506,85.087Z" transform="translate(0 0)"/>
      <path class="cls-27" d="M779.156,95.046l-3.453-.525a2.563,2.563,0,0,1-2.143-2.911h0a2.563,2.563,0,0,1,2.91-2.143l3.453.524a2.563,2.563,0,0,1,2.143,2.911h0A2.563,2.563,0,0,1,779.156,95.046Z" transform="translate(0 0)"/>
      <path class="cls-26" d="M744.252,11.744c2.3-.286,6.945.166,9.246.267,54.473,2.4,46.08,38.429,37.594,57.684-1.983,4.5-7.517,5.378-10.173,1.614C770.8,56.963,746.457,65.2,741.071,36.532Z" transform="translate(0 0)"/>
      <path class="cls-29" d="M793.7,64.878c-9.367-6.889-28.125-5.653-39.472-15.24-8.628-7.29-10.824-20.919-5.39-31.989,1.766-3.6,4.409-6.392,8.355-6.26,42.938,1.437,43.32,35.872,41.457,50.779C798.321,64.764,795.613,66.287,793.7,64.878Z" transform="translate(0 0)"/>
      <path class="cls-26" d="M744.643,33.959c-14.276,6.411-19.218,41.62-22.742,39.6-9.917-5.689,5.923-49.508,5.923-49.508Z" transform="translate(0 0)"/>
      <g>
        <path class="cls-30" d="M753.71,6.658a9.058,9.058,0,0,0,6.471,10.826,8.594,8.594,0,0,0,10.569-6.372A9.058,9.058,0,0,0,764.279.286,8.594,8.594,0,0,0,753.71,6.658Z" transform="translate(0 0)"/>
        <path class="cls-30" d="M713.986,46.987l70.3,18.376A10.1,10.1,0,0,0,796.7,57.878h0A43.931,43.931,0,0,0,765.318,5.369l-7.673-2.006a41.684,41.684,0,0,0-51.26,30.907h0A10.639,10.639,0,0,0,713.986,46.987Z" transform="translate(0 0)"/>
        <path class="cls-31" d="M741.365,54.144,786.64,65.978a7.3,7.3,0,0,0,8.974-5.411l3.421-14.356A31.758,31.758,0,0,0,776.347,8.252h0A30.134,30.134,0,0,0,739.291,30.6l-3.421,14.356A7.691,7.691,0,0,0,741.365,54.144Z" transform="translate(0 0)"/>
        <path class="cls-25" d="M769.8,9.924c10.2,5.773,3.755,22.393.761,30.9-1.117,3.174,3.923,4.539,5.032,1.387,3.875-11.01,9.842-29.433-3.159-36.792-2.927-1.657-5.56,2.85-2.634,4.506Z" transform="translate(0 0)"/>
        <path class="cls-30" d="M798.828,55.319c-16.526-18.1-43.743-21.779-63.956-7.513-2.722,1.921-.118,6.448,2.634,4.506,18.4-12.984,42.572-9.8,57.632,6.7,2.269,2.485,5.952-1.213,3.69-3.69Z" transform="translate(0 0)"/>
        <path class="cls-21" d="M799.752,60.082,816.091,77.86a2.334,2.334,0,0,1-2.72,3.713c-9.8-5.136-22.973-9.735-35.687-6.889a17.965,17.965,0,0,1-14.2-3.071L736.5,52.568C758.674,36.911,785.756,43.793,799.752,60.082Z" transform="translate(0 0)"/>
      </g>
      <ellipse class="cls-32" cx="746.816" cy="77.447" rx="5.588" ry="3.992" transform="translate(512.559 790.789) rotate(-77.741)"/>
      <ellipse class="cls-32" cx="775.802" cy="83.887" rx="5.588" ry="3.16" transform="translate(529.096 824.185) rotate(-77.741)"/>
    </g>
    <g>
      <path class="cls-19" d="M669.777,149.831l.626,34.992c.241,13.469-1.147,28.181,5.95,40.248a40.826,40.826,0,0,0,29,19.578c6.411.94,9.507-.4,14.23-3.867l33.136-24.337,27.8-20.418c4.072-2.991,6.105-8.128,3.361-12.819-2.35-4.018-8.718-6.374-12.819-3.361l-65.186,47.878,4.729-1.279a22.32,22.32,0,0,1-20.928-18.666c-.783-5.19-.314-10.83-.407-16.048l-.749-41.9c-.215-12.045-18.955-12.083-18.739,0Z" transform="translate(0 0)"/>
      <g>
        <path class="cls-24" d="M663.54,198.714l1.316-44.217c2.134-16.285,9.081-18.956,15.324-19.151l1.561-.049c7.943-.247,16.316,7.877,16.646,18.487l1.366,43.816a7.064,7.064,0,0,1-6.841,7.281l-22.494.7A6.674,6.674,0,0,1,663.54,198.714Z" transform="translate(0 0)"/>
        <rect class="cls-25" x="664.627" y="186.477" width="34.653" height="6.692" transform="translate(1369.488 358.314) rotate(178.215)"/>
      </g>
    </g>
    <rect class="cls-12" x="713.244" y="210.456" width="516.302" height="22.574" transform="translate(1942.789 443.486) rotate(-180)"/>
    <g>
      <polygon class="cls-12" points="1176.084 460.312 1161.547 233.03 1195.729 233.03 1181.192 460.312 1176.084 460.312"/>
      <polygon class="cls-13" points="1169.826 362.472 1161.547 233.03 1191.615 233.03 1169.826 362.472"/>
    </g>
    <rect class="cls-15" x="643.496" y="307.156" width="193.415" height="25.188" rx="12.594" ry="12.594" transform="translate(1480.406 639.499) rotate(180)"/>
    <path class="cls-17" d="M647.539,328.977a12.546,12.546,0,0,1-4.043-9.227h0a12.594,12.594,0,0,1,12.594-12.594H813.5Z" transform="translate(0 0)"/>
    <g>
      <path class="cls-19" d="M716.236,302.844l83.473,9.937a53.35,53.35,0,0,1,18.728,5.589,49.264,49.264,0,0,1,23.1,25.163,24.567,24.567,0,0,0,.929,2.65c.5,1.5.95,3.018,1.334,4.553s.716,3.113.983,4.688c.247,1.454.082.4.044.093.145,1.152.228,2.316.3,3.475.1,1.652.132,3.31.188,4.964l.712,21.158,1.6,47.442c.541,16.061,25.568,16.134,25.025,0l-1.435-42.637c-.537-15.943.568-33.729-4.2-49.1-9.073-29.265-34.406-48.97-64.414-52.717-13.384-1.671-26.789-3.189-40.183-4.784l-46.175-5.5c-6.721-.8-12.512,6.324-12.512,12.512,0,7.428,5.772,11.71,12.512,12.512Z" transform="translate(0 0)"/>
      <rect class="cls-20" x="845.947" y="389.422" width="30.447" height="45.879" rx="3.928" ry="3.928" transform="translate(1722.342 824.723) rotate(-180)"/>
      <g>
        <g>
          <path class="cls-21" d="M844.437,449.136l73.256.263h0c1.28-11.875-6.3-21.5-16.933-21.5H844.048Z" transform="translate(0 0)"/>
          <path class="cls-20" d="M883.622,449.136l34.079.263h0c1.218-11.875-5.993-21.5-16.108-21.5h-3.24c-8.136,0-14.731,8.139-14.731,18.18Z" transform="translate(0 0)"/>
          <path class="cls-9" d="M913.849,456.109H846.79a3.941,3.941,0,0,1-3.987-3.848h0a3.938,3.938,0,0,1,3.987-3.931h67.058a3.941,3.941,0,0,1,3.987,3.848h0A3.938,3.938,0,0,1,913.849,456.109Z" transform="translate(0 0)"/>
          <path class="cls-9" d="M882.007,431.084l-8.554-8.489c-7.985,3.665-16.594,4.971-26.83.12a2.592,2.592,0,0,0-2.58,2.593l0,5.775Z" transform="translate(0 0)"/>
          <rect class="cls-21" x="859.107" y="407.785" width="22.9" height="32.048" rx="10.094" ry="10.094"/>
        </g>
        <path class="cls-9" d="M876.333,433.395l8.272-2.432c2.7-.793,1.55-5.021-1.164-4.223l-8.272,2.432c-2.7.793-1.55,5.021,1.164,4.223Z" transform="translate(0 0)"/>
        <path class="cls-9" d="M885.629,434.2a12.552,12.552,0,0,1,5.707-2.134,2.252,2.252,0,0,0,2.19-2.19,2.2,2.2,0,0,0-2.19-2.19,17.2,17.2,0,0,0-7.917,2.732c-2.338,1.551-.147,5.345,2.21,3.781Z" transform="translate(0 0)"/>
      </g>
      <path class="cls-22" d="M817.21,322.02l5.061-32.14a4.171,4.171,0,0,0-3.472-4.769L717.028,269.1a20.438,20.438,0,0,0-23.365,17.011v0a20.438,20.438,0,0,0,17.014,23.369l101.767,16.008A4.171,4.171,0,0,0,817.21,322.02Z" transform="translate(0 0)"/>
    </g>
    <g>
      <polygon class="cls-3" points="768.23 460.312 760.045 332.344 779.291 332.344 771.106 460.312 768.23 460.312"/>
      <polygon class="cls-33" points="764.706 405.224 760.045 332.344 776.974 332.344 764.706 405.224"/>
    </g>
    <g>
      <polygon class="cls-12" points="761.597 460.312 747.061 233.03 781.243 233.03 766.706 460.312 761.597 460.312"/>
      <polygon class="cls-13" points="755.34 362.472 747.061 233.03 777.129 233.03 755.34 362.472"/>
    </g>
    <g>
      <polygon class="cls-3" points="667.687 460.312 659.502 332.344 678.748 332.344 670.563 460.312 667.687 460.312"/>
      <polygon class="cls-11" points="664.164 405.224 659.502 332.344 676.432 332.344 664.164 405.224"/>
    </g>
    <polygon class="cls-13" points="713.244 232.356 713.244 210.456 1229.546 210.456 713.244 232.356"/>
    <g>
      <rect class="cls-15" x="779.323" y="199.719" width="120.988" height="10.736" transform="translate(1679.634 410.175) rotate(-180)"/>
      <rect class="cls-34" x="900.311" y="199.719" width="89.929" height="10.736"/>
      <polygon class="cls-35" points="900.311 196.293 945.117 84.914 1035.046 84.914 1043.531 90.751 1036.489 99.228 1030.35 96.587 990.24 196.293 900.311 196.293"/>
      <polygon class="cls-15" points="939.518 96.198 939.518 96.198 939.521 96.193 942.182 90.751 942.221 90.751 945.117 84.914 953.602 90.751 1032.111 90.751 978.82 199.719 888.891 199.719 939.518 96.198"/>
      <polygon class="cls-34" points="1043.531 91.131 953.602 91.131 900.311 200.1 990.24 200.1 1043.531 91.131"/>
      <polygon class="cls-17" points="1043.531 91.131 900.311 200.1 953.602 91.131 1043.531 91.131"/>
      <polygon class="cls-17" points="990.24 210.456 900.311 200.1 990.24 200.1 990.24 210.456"/>
      <polyline class="cls-17" points="779.323 199.719 900.311 210.456 779.323 210.456"/>
    </g>
    <g>
      <path class="cls-36" d="M879.728,191.16s-11.5-8.2-15.217-6.929S876.7,198.048,879.728,191.16Z" transform="translate(0 0)"/>
      <path class="cls-36" d="M873.044,184.856s-24.2-4.979-18.636,5.166C854.408,190.023,873.293,189.6,873.044,184.856Z" transform="translate(0 0)"/>
      <path class="cls-36" d="M886.138,191.182s-12.093-7.309-15.7-5.761S883.643,198.267,886.138,191.182Z" transform="translate(0 0)"/>
      <path class="cls-19" d="M843.207,177.5l21.594-.6s26.2,7.857,25.915,12.648c-.373,6.255-15.578-2.8-15.578-2.8s-15.76-.853-15.958-.415c-.083.184-1.553.6-1.606,1.676a3.794,3.794,0,0,0,2.976,3.849l5.47,1.266s8.894,2.832,7.63,6.14c-1.135,2.97-9.576-.312-9.576-.312L852.1,195.925l-8.739-3.14a9.125,9.125,0,0,1-5.953-9.839l.039-.284A5.982,5.982,0,0,1,843.207,177.5Z" transform="translate(0 0)"/>
    </g>
    <g>
      <path class="cls-27" d="M784.517,177.737l19.6-.542s23.781,7.131,23.521,11.48c-.339,5.677-14.139-2.545-14.139-2.545s-14.3-.774-14.484-.376c-.076.167-1.41.545-1.458,1.521a3.444,3.444,0,0,0,2.7,3.493l4.965,1.149s8.073,2.57,6.925,5.573c-1.03,2.7-8.691-.283-8.691-.283l-10.869-2.749-7.932-2.85a8.282,8.282,0,0,1-5.4-8.93l.036-.257A5.429,5.429,0,0,1,784.517,177.737Z" transform="translate(0 0)"/>
      <g>
        <path class="cls-36" d="M818.181,191.173s-12.117-8.646-16.036-7.3S814.989,198.431,818.181,191.173Z" transform="translate(0 0)"/>
        <path class="cls-36" d="M811.137,184.53s-25.5-5.247-19.639,5.444C791.5,189.974,811.4,189.527,811.137,184.53Z" transform="translate(0 0)"/>
        <path class="cls-36" d="M824.936,191.2s-12.744-7.7-16.549-6.071S822.307,198.662,824.936,191.2Z" transform="translate(0 0)"/>
        <path class="cls-19" d="M779.7,176.781l22.756-.629s27.611,8.28,27.31,13.329c-.393,6.591-16.416-2.954-16.416-2.954s-16.608-.9-16.817-.437c-.088.194-1.156.767-1.693,1.766-3.4,6.336-14.978,5.03-14.978,5.03a9.616,9.616,0,0,1-6.273-10.369l.041-.3A6.3,6.3,0,0,1,779.7,176.781Z" transform="translate(0 0)"/>
      </g>
    </g>
  </g>
  <g>
    <ellipse class="cls-2" cx="335.905" cy="423.89" rx="153.851" ry="21.103"/>
    <path class="cls-37" d="M460.847,406.253c-27.232,19.97-168.141,31.019-224.207,7.262C183.084,390.822,186,341.061,211.224,311.85c34.493-39.94,108.473-44.932,135.7-39.486,12.777,2.555,35.917-12.335,44.63-57.64,6.051-31.468-6.959-55.371,16.642-84.418,21.661-26.66,58.917-28.529,80.787-12.708,21.952,15.88,47.738,60.336,49.017,116.188C540.727,352.7,472.358,397.811,460.847,406.253Z" transform="translate(0 0)"/>
    <g class="cls-38">
      <g>
        <circle class="cls-39" cx="382.545" cy="296.836" r="216.288" transform="translate(-72.833 132.266) rotate(-17.94)"/>
        <path class="cls-40" d="M281.262,366.343l188.748-61.11,43.745,163.6a215.553,215.553,0,0,1-56.914,31.115Z" transform="translate(0 0)"/>
        <path class="cls-41" d="M282.2,105.21l-.941,261.132L185.523,207.6A215.916,215.916,0,0,1,282.2,105.21Z" transform="translate(0 0)"/>
        <path class="cls-37" d="M538.31,146.723,281.262,366.343,282.2,105.21A216.508,216.508,0,0,1,538.31,146.723Z" transform="translate(0 0)"/>
        <path class="cls-42" d="M538.312,146.725a216.77,216.77,0,0,1,60.044,165.1l-128.346-6.6Z" transform="translate(0 0)"/>
        <path class="cls-37" d="M513.756,468.832l-43.745-163.6,128.346,6.6A216.919,216.919,0,0,1,513.756,468.832Z" transform="translate(0 0)"/>
        <path class="cls-43" d="M456.841,499.948c-2.534.925-5.086,1.822-7.675,2.66-113.645,36.794-235.6-25.5-272.394-139.15q-2.7-8.333-4.683-16.715l109.173,19.6Z" transform="translate(0 0)"/>
        <path class="cls-44" d="M185.523,207.6l95.739,158.74-109.173-19.6A215.444,215.444,0,0,1,185.523,207.6Z" transform="translate(0 0)"/>
        <polygon class="cls-45" points="538.315 146.718 470.011 305.232 281.262 366.343 538.315 146.718"/>
      </g>
    </g>
    <g>
      <g>
        <path class="cls-19" d="M329.432,314.723l-84.091-6.376c-6.212-.471-12.02-.885-17.819,2.331-11.585,6.425-15.475,21.977-7.91,32.949s16.173,21.39,24.218,32.032L270,410.275c3.377,4.467,8.962,6.8,14.21,3.726,4.4-2.574,7.129-9.709,3.726-14.21l-47.885-63.333c-.834-1.1-1.709-2.185-2.506-3.315a7.87,7.87,0,0,1-1.039-1.632c-.39-1.024.06-1.337.486-2.292.009-.021,1.391-.715.142-.269,1.277-.457.747-.308,2.155-.29.23,0,.462.038.692.052,1.614.1,3.226.245,4.838.367L291.3,332.6l38.135,2.891c5.6.425,10.386-5.077,10.386-10.386,0-5.973-4.77-9.96-10.386-10.386Z" transform="translate(0 0)"/>
        <rect class="cls-20" x="256.342" y="374.716" width="25.272" height="38.082" rx="3.26" ry="3.26" transform="translate(-184.366 245.863) rotate(-37.595)"/>
        <g>
          <g>
            <path class="cls-46" d="M296.959,404.894l-48.93,37.955h0c-6.982-7.293-6.869-17.651.252-23.134l37.985-29.247Z" transform="translate(0 0)"/>
            <path class="cls-47" d="M270.714,425.1l-22.689,17.751h0c-6.94-7.326-7.074-17.492-.3-22.708l2.17-1.671c5.449-4.2,14.064-2.145,19.242,4.579Z" transform="translate(0 0)"/>
            <path class="cls-48" d="M254.064,445.36l44.914-34.582a3.331,3.331,0,0,0,.686-4.634h0a3.329,3.329,0,0,0-4.7-.577l-44.914,34.582a3.331,3.331,0,0,0-.686,4.634h0A3.329,3.329,0,0,0,254.064,445.36Z" transform="translate(0 0)"/>
            <path class="cls-48" d="M262.486,412.178l1.352-10.1c7.238-1.663,13.677-5.228,18.032-13.756a2.19,2.19,0,0,1,3.065.407l2.976,3.87Z" transform="translate(0 0)"/>
            <rect class="cls-46" x="256.724" y="387.856" width="19.358" height="27.09" rx="8.532" ry="8.532" transform="translate(722.37 556.922) rotate(142.405)"/>
          </g>
          <path class="cls-48" d="M267.478,410.8l-6.795,2.637c-2.216.86-3.627-2.564-1.4-3.429l6.795-2.637c2.216-.86,3.627,2.564,1.4,3.429Z" transform="translate(0 0)"/>
          <path class="cls-48" d="M261.665,416.132a10.614,10.614,0,0,0-4.923,1.514,1.9,1.9,0,0,1-2.6-.337,1.863,1.863,0,0,1,.337-2.6,14.538,14.538,0,0,1,6.712-2.253c2.366-.167,2.855,3.5.47,3.672Z" transform="translate(0 0)"/>
        </g>
      </g>
      <g>
        <path class="cls-19" d="M347.756,308.534c-20.8-11.27-41.578-22.6-62.415-33.812-19.469-10.476-42.744-11.107-62.146.042-13.18,7.574-21.429,20.311-30.389,32.132l-24.925,32.882c-3.391,4.474-.707,11.617,3.726,14.21,5.329,3.117,10.811.758,14.21-3.726l19.715-26.009c6.711-8.853,12.959-19.082,21.24-26.612,13.1-11.911,32.425-13.379,47.736-5.173,10.506,5.631,20.962,11.356,31.443,17.034l31.321,16.968c11.756,6.368,22.255-11.56,10.484-17.936Z" transform="translate(0 0)"/>
        <path class="cls-20" d="M176.436,311.789h18.752a3.26,3.26,0,0,1,3.26,3.26v31.561a3.26,3.26,0,0,1-3.26,3.26H176.436a3.261,3.261,0,0,1-3.261-3.261V315.05a3.26,3.26,0,0,1,3.26-3.26Z" transform="translate(224.905 -46.591) rotate(35.235)"/>
        <g>
          <g>
            <path class="cls-46" d="M183.291,360.752l-50.708-35.544h0c4.907-8.824,14.836-11.773,22.177-6.588l39.157,27.658Z" transform="translate(0 0)"/>
            <path class="cls-47" d="M156.236,341.643,132.578,325.2h0c4.95-8.793,14.624-11.923,21.608-6.991l2.237,1.58c5.617,3.968,6.2,12.8,1.305,19.736Z" transform="translate(0 0)"/>
            <path class="cls-48" d="M131.965,331.716l46.3,32.7a3.331,3.331,0,0,0,4.63-.713h0a3.329,3.329,0,0,0-.836-4.659l-46.3-32.7a3.331,3.331,0,0,0-4.63.713h0A3.329,3.329,0,0,0,131.965,331.716Z" transform="translate(0 0)"/>
            <path class="cls-48" d="M166.154,329.966l10.046-1.689c3.726,6.425,9.033,11.524,18.466,13.168a2.19,2.19,0,0,1,.516,3.049l-2.819,3.985Z" transform="translate(0 0)"/>
            <rect class="cls-46" x="167.928" y="316.982" width="19.358" height="27.09" rx="8.532" ry="8.532" transform="translate(131.987 702.966) rotate(-144.765)"/>
          </g>
          <path class="cls-48" d="M168.944,334.329l-4.525-5.713c-1.476-1.863,1.379-4.222,2.863-2.348l4.525,5.713c1.476,1.863-1.379,4.222-2.863,2.348Z" transform="translate(0 0)"/>
          <path class="cls-48" d="M162.134,330.349a10.614,10.614,0,0,0-2.9-4.257,1.9,1.9,0,0,1-.444-2.58,1.863,1.863,0,0,1,2.579-.444,14.538,14.538,0,0,1,4.134,5.747c.858,2.211-2.5,3.762-3.37,1.533Z" transform="translate(0 0)"/>
        </g>
      </g>
      <path class="cls-47" d="M334.461,233.771l-13.354-19a1.936,1.936,0,0,1,.48-2.7l35.255-24.47a11.739,11.739,0,0,1,16.337,2.95h0c3.7,5.326,2.178,11.117-2.95,16.337l-27.455,27.6A5.444,5.444,0,0,1,334.461,233.771Z" transform="translate(0 0)"/>
      <path class="cls-49" d="M441.155,101.813c1.416,1.374-.516-11.466.805-10,7.134,7.887,14.638,32.5,14.782,42.834s-.511,30.785-7.43,38.271c-1.027-4-3.226-18.393-2.685-22.422a52.448,52.448,0,0,0-.484-16.792c-.552-2.89-1.344-5.739-2.135-8.584-1.76-6.333-3.624-12.775-5.384-19.108Z" transform="translate(0 0)"/>
      <path class="cls-49" d="M375.487,166.536c-1.336-9.025-4.346-17.705-6.547-26.56s-2.511-13.441-1.156-22.464c3.583-23.848,13.827-32.311,22.431-35.346Z" transform="translate(0 0)"/>
      <path class="cls-50" d="M379.536,177.413l61.521-.919a9.207,9.207,0,0,0,9.277-10.19L447.16,107.53,410.28,91.319l-27.986,29.2-6.186,45.655C375.313,172.043,373.364,177.5,379.536,177.413Z" transform="translate(0 0)"/>
      <polygon class="cls-51" points="436.887 176.242 393.397 177.011 390.267 126.297 433.758 125.528 436.887 176.242"/>
      <path class="cls-47" d="M398.089,177.137c2.615-.69,9.05-.2,9.757.3.859-.087,4.806,1.522,6.754,3.422,11.854,11.563,32.415,22.474,28.954,35.141,0,0-1.757,9.112-9.052,7.178l-35.834-10.1-30.183-7.916c-7.3-1.935-6.6-14.293-6.6-14.293C364.989,178.877,382.176,181.335,398.089,177.137Z" transform="translate(0 0)"/>
      <path class="cls-19" d="M396.24,196.62c16.306,4.54,28.685,2.05,35.792-1.211-5.307-5.141-11.418-9.084-16.541-14.021-1.955-1.885-7.411-4.189-8.272-4.1a10.21,10.21,0,0,0-6.657-.974c-7.352,1.978-19.282,3.678-26.943,5.309C377.9,186.7,380.885,192.344,396.24,196.62Z" transform="translate(0 0)"/>
      <rect class="cls-19" x="397.772" y="149.586" width="17.636" height="47.804" rx="8.094" ry="8.094" transform="translate(76.931 -121.026) rotate(18.67)"/>
      <path class="cls-47" d="M441.55,220.478,414.4,215.69l-32.127-8.946-20.159-15.815s-5.218,25.117-4.464,45.433l-7.61,34.423c-.675,7.653,54.2,21.017,56.2,17.249L420.755,254.4Z" transform="translate(0 0)"/>
      <path class="cls-27" d="M399.819,165.762l19.261-1.056-1.644,4.068c-3.083,4.6-15.253,9.155-20.384,5.531Z" transform="translate(0 0)"/>
      <path class="cls-19" d="M405.281,169.437l-.488-.046c-14.812-1.39-25.737-15.242-24.278-30.782l3.478-18.377c1.357-20.72,13.476-26.984,28.287-25.593l.121,0c14.812,1.39,25.98,11.615,24.521,27.155l-2.058,21.92C433.405,159.251,420.093,170.828,405.281,169.437Z" transform="translate(0 0)"/>
      <path class="cls-28" d="M395.117,145.983l16.569,2a2.109,2.109,0,0,1,1.558,3.17c-1.707,2.9-5.177,6.915-11.092,6.2s-8.333-5.432-9.3-8.659A2.109,2.109,0,0,1,395.117,145.983Z" transform="translate(0 0)"/>
      <path class="cls-49" d="M416.724,124.416a30.27,30.27,0,0,1,8.057,1.628,1.982,1.982,0,0,0,2.558-1.407l0-.016a2,2,0,0,0-1.176-2.333,24.836,24.836,0,0,0-9.335-1.872,2,2,0,0,0-1.975,1.724l0,.012A2,2,0,0,0,416.724,124.416Z" transform="translate(0 0)"/>
      <path class="cls-49" d="M388.34,121.8a30.272,30.272,0,0,1,8.153,1.052,1.982,1.982,0,0,0,2.452-1.585l0-.016a2,2,0,0,0-1.338-2.244,24.838,24.838,0,0,0-9.444-1.2,2,2,0,0,0-1.848,1.86v.012A2,2,0,0,0,388.34,121.8Z" transform="translate(0 0)"/>
      <path class="cls-27" d="M423.231,146.286l2.94.544a2.194,2.194,0,0,0,2.549-1.753h0a2.194,2.194,0,0,0-1.753-2.549l-2.94-.544a2.194,2.194,0,0,0-2.549,1.753h0A2.194,2.194,0,0,0,423.231,146.286Z" transform="translate(0 0)"/>
      <path class="cls-27" d="M384.4,138.994l2.94.544a2.194,2.194,0,0,0,2.549-1.753h0a2.194,2.194,0,0,0-1.753-2.549l-2.94-.544a2.194,2.194,0,0,0-2.549,1.753h0A2.194,2.194,0,0,0,384.4,138.994Z" transform="translate(0 0)"/>
      <path class="cls-52" d="M401.592,278.91l-18.813-4.66c-14.188-1.623-29.625-7.826-38.617-19.8,0,0-37.912,54.025-19.187,69.083,7.863,6.323,39.907,17.364,50.254,17.033C418.747,339.172,401.592,278.91,401.592,278.91Z" transform="translate(0 0)"/>
      <path class="cls-52" d="M436.452,197.765s-37.227,46.172-36.638,44.833-6.152-8.841-6.152-8.841l37.792-41.449Z" transform="translate(0 0)"/>
      <path class="cls-52" d="M368.26,180.326s-2.228,55.674-1.8,54.384,10.334-1.885,10.334-1.885l-1.261-52.869Z" transform="translate(0 0)"/>
      <path class="cls-49" d="M406.682,97.226s25.379,11.2,29.8,34.968c0,0,11.539,20.3,14.557,20.311,0,0-2.629-25.134-2.968-44.3C447.8,92.814,430.64,74.561,407.9,80.276Z" transform="translate(0 0)"/>
      <path class="cls-49" d="M378.209,176.954a4.12,4.12,0,0,0,4.336-4.755c-1.337-9.273-3.277-31.165,3.01-44.245,7.831-16.292,22.63-20.671,25.384-36.1l.735,1.482-1.5-11.447s-1.055-5.917-13.259-3.478c-17.539,3.506-22.763,19.485-22.587,36.754.276,27.1-2.233,47.928-3.7,56.36a4.538,4.538,0,0,0,4.2,5.24Z" transform="translate(0 0)"/>
      <path class="cls-52" d="M393.317,276.931c-19.715,20.81-30.363,8.879-37.2-16.108l9.817-38.066,38.771,10Z" transform="translate(0 0)"/>
      <ellipse class="cls-53" cx="369.079" cy="231.712" rx="4.611" ry="3.579" transform="translate(52.543 531.236) rotate(-75.539)"/>
      <ellipse class="cls-53" cx="396.395" cy="238.756" rx="4.611" ry="3.883" transform="translate(66.217 562.972) rotate(-75.539)"/>
      <path class="cls-52" d="M279.416,343.922l-8.8-71.785a9.759,9.759,0,0,1,9.443-10.944l89.59-2.241,8.76,81.8-90.86,9.731A7.385,7.385,0,0,1,279.416,343.922Z" transform="translate(0 0)"/>
      <path class="cls-54" d="M313.121,299.1h0A20.141,20.141,0,0,1,331,276.93l23.163-2.481a5.1,5.1,0,0,1,5.61,4.524l3.2,29.919a5.1,5.1,0,0,1-4.524,5.61l-23.163,2.481A20.141,20.141,0,0,1,313.121,299.1Z" transform="translate(0 0)"/>
      <ellipse class="cls-19" cx="439.453" cy="139.285" rx="9.314" ry="7.128" transform="translate(180.692 520.81) rotate(-73.44)"/>
      <g>
        <path class="cls-55" d="M353.524,258.471l-44.677-7.8a5.436,5.436,0,0,1-4.479-4.871L298.224,177a5.436,5.436,0,0,1,6.349-5.838l44.677,7.8a5.436,5.436,0,0,1,4.479,4.871l6.144,68.793A5.436,5.436,0,0,1,353.524,258.471Z" transform="translate(0 0)"/>
        <path class="cls-56" d="M351.12,185.154a5.436,5.436,0,0,0-4.479-4.871l-44.677-7.8A3.183,3.183,0,0,0,298.224,177l6.144,68.793a5.436,5.436,0,0,0,4.479,4.871l44.677,7.8a3.183,3.183,0,0,0,3.739-4.524Z" transform="translate(0 0)"/>
      </g>
      <path class="cls-19" d="M366.794,235.689l-4.965-8.319s-2.824-2.046-4.361-1.409l.36,4.746c.042.053.065.1.109.152,1.61,2.013,2.759,6.974,2.261,8.606a19.858,19.858,0,0,1-3.343-1.449L342.4,221.737c-1.082-1.339-2.274-2.4-3.614-1.317l-.246.2c-1.339,1.082-.635,2.537.447,3.876l3.847,5.195-6.42-5.869c-1.216-1.22-2.512-2.15-3.731-.934l-.224.223c-1.219,1.216-.368,2.589.848,3.808l4.324,4.72-.925-.758c-1.279-1.153-2.623-2.013-3.776-.734l-.211.235c-1.153,1.279-.229,2.6,1.05,3.758l8.278,8.12-4.672-3.834c-1.279-1.153-2.623-2.013-3.776-.734l-.211.235c-1.153,1.279-.229,2.6,1.05,3.758L352.094,259c.035.031.238.238.555.564a9.045,9.045,0,0,0,13.858-1.1c1.864-2.613,3.284-5.343,2.981-7.318Z" transform="translate(0 0)"/>
      <path class="cls-19" d="M424.231,225,408.2,272.354c-.568,1.678-1.037,4.24-2.271,5.57-1.477,1.59-3.206,1.386-5.016.808-1.647-.526.527.492-.238-.022-.324-.218-.616-.5-.926-.735-7.118-5.494-14.09-11.189-21.131-16.781l-19.184-15.235c-3.257-2.586-7.621-3.12-10.81,0-2.693,2.635-3.226,8.248,0,10.81,13.6,10.8,27.167,21.659,40.812,32.409,11.823,9.315,27.185,5.2,32.273-9.117,2.827-7.957,5.42-16.005,8.128-24l9.14-26.992c3.163-9.339-11.6-13.348-14.742-4.064Z" transform="translate(0 0)"/>
      <path class="cls-47" d="M435.009,268.259l-22.249-6.67a1.936,1.936,0,0,1-1.3-2.421l12.561-41.036a11.739,11.739,0,0,1,14.661-7.789h0c6.2,1.9,8.588,7.387,7.789,14.661l-4.5,38.67A5.444,5.444,0,0,1,435.009,268.259Z" transform="translate(0 0)"/>
      <ellipse class="cls-57" cx="416.136" cy="135.882" rx="4.514" ry="3.225" transform="translate(231.444 532.773) rotate(-83.129)"/>
      <ellipse class="cls-57" cx="390.887" cy="132.84" rx="4.514" ry="3.225" transform="translate(212.237 505.027) rotate(-83.129)"/>
    </g>
    <g>
      <path class="cls-19" d="M298.588,236.9l4.156,4.458a2.028,2.028,0,0,0,3.015-.244h0a2.506,2.506,0,0,0,.17-3.3l-4.156-4.458a2.028,2.028,0,0,0-3.015.244h0A2.506,2.506,0,0,0,298.588,236.9Z" transform="translate(0 0)"/>
      <path class="cls-19" d="M297.561,229.9l6.507,6.981a2.028,2.028,0,0,0,3.015-.244h0a2.506,2.506,0,0,0,.17-3.3l-6.507-6.981a2.028,2.028,0,0,0-3.015.244h0A2.506,2.506,0,0,0,297.561,229.9Z" transform="translate(0 0)"/>
      <path class="cls-19" d="M298.126,223.826l6.507,6.981a2.028,2.028,0,0,0,3.015-.244h0a2.506,2.506,0,0,0,.17-3.3l-6.507-6.981a2.028,2.028,0,0,0-3.015.244h0A2.506,2.506,0,0,0,298.126,223.826Z" transform="translate(0 0)"/>
      <path class="cls-19" d="M298.429,217.4l6.507,6.981a2.028,2.028,0,0,0,3.015-.244h0a2.506,2.506,0,0,0,.17-3.3l-6.507-6.981a2.028,2.028,0,0,0-3.015.244h0A2.506,2.506,0,0,0,298.429,217.4Z" transform="translate(0 0)"/>
    </g>
    <g>
      <line class="cls-58" x1="308.928" y1="245.491" x2="318.719" y2="247.449"/>
      <line class="cls-58" x1="308.928" y1="243.112" x2="318.719" y2="245.07"/>
      <line class="cls-58" x1="308.841" y1="240.733" x2="318.632" y2="242.691"/>
      <line class="cls-58" x1="308.667" y1="238.354" x2="318.458" y2="240.312"/>
    </g>
    <path class="cls-40" d="M281.262,366.343a514.089,514.089,0,0,1,90.9-50.079c52.061-22.005,97.85-11.031,97.85-11.031l11.64,46.454Z" transform="translate(0 0)"/>
    <path class="cls-45" d="M477.893,199.8s-33.016,12.175-43.474,33.813c-15.565,32.2-6.441,64.406-6.441,64.406Z" transform="translate(0 0)"/>
    <path class="cls-59" d="M332.444,426.826a63.594,63.594,0,0,0,15.69-2.021,48.508,48.508,0,0,0,14.155-6.18,39.673,39.673,0,0,0,6.081-4.733,47.061,47.061,0,0,0,5.259-5.707,76.2,76.2,0,0,0,8.192-13.562,44.155,44.155,0,0,1-6.147,15.022,39.517,39.517,0,0,1-11.637,11.682,43.238,43.238,0,0,1-7.408,3.755,41.654,41.654,0,0,1-7.968,2.17,43.77,43.77,0,0,1-8.168.612A34.617,34.617,0,0,1,332.444,426.826Z" transform="translate(0 0)"/>
    <path class="cls-59" d="M389.336,424.679a131.876,131.876,0,0,0,17.791-2.726c2.9-.695,5.772-1.431,8.57-2.39a67.453,67.453,0,0,0,8.212-3.247,50.674,50.674,0,0,0,14.39-9.886,47.147,47.147,0,0,0,9.807-14.758,35.553,35.553,0,0,1-7.96,16.461,40.884,40.884,0,0,1-6.845,6.347,54.328,54.328,0,0,1-8.021,4.747,64.52,64.52,0,0,1-17.693,5.187,72.333,72.333,0,0,1-9.137.763A56.813,56.813,0,0,1,389.336,424.679Z" transform="translate(0 0)"/>
    <path class="cls-59" d="M470.011,305.232c-5.4-.851-10.793-1.547-16.191-2.005-2.7-.222-5.4-.376-8.1-.481s-5.4-.089-8.092-.07a134.267,134.267,0,0,0-16.078,1.258c-2.654.4-5.3.822-7.915,1.409a70.332,70.332,0,0,0-7.644,2.106l-.8-2.852a15.664,15.664,0,0,1,2.609-.05c.819.06,1.631.138,2.428.268.806.1,1.582.3,2.372.447.774.2,1.546.408,2.309.635a45.686,45.686,0,0,1,8.679,3.744,63.723,63.723,0,0,1,7.838,5.1c1.226.954,2.419,1.948,3.61,2.934,1.154,1.034,2.275,2.1,3.406,3.15-1.273-.878-2.557-1.734-3.807-2.625l-3.883-2.47a80.98,80.98,0,0,0-8.071-4.273,49.215,49.215,0,0,0-8.476-3.042l-2.174-.477c-.728-.106-1.453-.271-2.18-.332-.728-.094-1.45-.136-2.169-.165-.353.006-.715-.006-1.06.012a9.174,9.174,0,0,0-.944.081l-13.874,2.332,13.074-5.184a56.66,56.66,0,0,1,8.058-2.408c2.7-.621,5.423-1.156,8.167-1.509a106.739,106.739,0,0,1,16.522-.939c2.756.055,5.508.2,8.246.471,1.37.123,2.736.285,4.1.443,1.36.2,2.723.375,4.075.619A108.568,108.568,0,0,1,470.011,305.232Z" transform="translate(0 0)"/>
    <path class="cls-59" d="M481.114,198.723c-1.536.646-3.081,1.23-4.609,1.844-1.516.651-3.044,1.251-4.535,1.93s-2.985,1.342-4.442,2.075c-1.48.684-2.908,1.467-4.336,2.239a87.983,87.983,0,0,0-8.249,5.087c-1.312.929-2.6,1.889-3.815,2.925a33.518,33.518,0,0,0-3.431,3.157L444.94,221l-.012-3.974a11.09,11.09,0,0,1,.079-1.288c.042-.4.109-.777.164-1.166a22.486,22.486,0,0,1,.514-2.238c.188-.74.46-1.441.687-2.161.274-.7.538-1.4.828-2.089a43.652,43.652,0,0,1,4.342-7.731,60.141,60.141,0,0,1,5.505-6.821c1.015-1.045,2.038-2.078,3.082-3.083,1.078-.974,2.179-1.919,3.273-2.861-.9,1.141-1.785,2.278-2.7,3.386l-2.582,3.443a85.265,85.265,0,0,0-4.634,7.161,51.727,51.727,0,0,0-3.639,7.572c-.239.651-.452,1.308-.677,1.961-.174.663-.4,1.318-.532,1.984-.158.664-.293,1.323-.407,1.982-.039.325-.094.657-.122.976s-.052.677-.048.867l-2.768-.957a34.369,34.369,0,0,1,3.778-3.615c1.316-1.085,2.694-2.074,4.091-3.027a65.462,65.462,0,0,1,8.809-4.935,74.44,74.44,0,0,1,9.4-3.509c1.586-.512,3.23-.842,4.834-1.264C477.837,199.271,479.479,198.991,481.114,198.723Z" transform="translate(0 0)"/>
  </g>
  <g>
    <path class="cls-9" d="M1177.017,210.128H1107.8V180.263h69.219v2.559c-24.562,0-24.562,24.375,0,24.375Z" transform="translate(0 0)"/>
    <path class="cls-60" d="M1174.97,207.05h-70.8V183.02h70.8C1168.023,183.02,1168.023,207.05,1174.97,207.05Z" transform="translate(0 0)"/>
    <polygon class="cls-5" points="1170.065 190.8 1104.169 190.8 1104.169 187.73 1170.734 187.73 1170.065 190.8"/>
    <polygon class="cls-5" points="1170.065 199.3 1084.41 199.3 1084.41 195.121 1169.763 195.121 1170.065 199.3"/>
    <path class="cls-21" d="M1144.547,210.128h-66.056V180.263h66.056C1135.74,180.263,1135.739,210.128,1144.547,210.128Z" transform="translate(0 0)"/>
    <path class="cls-21" d="M1083.6,209.924h-43c-11.321,0-11.321-29.7,0-29.7h43Z" transform="translate(0 0)"/>
  </g>
  <g>
    <path class="cls-9" d="M1168.823,180.11H1117.3V157.881h51.521v1.9c-18.282,0-18.282,18.143,0,18.143Z" transform="translate(0 0)"/>
    <path class="cls-60" d="M1167.3,177.819h-52.7V159.932h52.7C1162.129,159.932,1162.129,177.819,1167.3,177.819Z" transform="translate(0 0)"/>
    <polygon class="cls-5" points="1163.648 165.723 1114.601 165.723 1114.601 163.438 1164.147 163.438 1163.648 165.723"/>
    <polygon class="cls-5" points="1163.648 172.05 1099.894 172.05 1099.894 168.94 1163.424 168.94 1163.648 172.05"/>
    <path class="cls-61" d="M1144.655,180.11h-49.167V157.881h49.167C1138.1,157.881,1138.1,180.11,1144.655,180.11Z" transform="translate(0 0)"/>
    <path class="cls-61" d="M1099.294,179.958h-32.007c-8.426,0-8.426-22.106,0-22.106h32.007Z" transform="translate(0 0)"/>
  </g>
  <ellipse class="cls-2" cx="1320.791" cy="438.867" rx="76.89" ry="12.736"/>
  <g>
    <path class="cls-62" d="M1249.572,384.438l8.456-61.783c1.458-10.65,13.562-19.284,27.036-19.284h1.4a29.646,29.646,0,0,1,5.3.469c-4.052-3.651-10.068-5.914-17.065-5.914h0c-13.86,0-26.311,8.881-27.811,19.837l-9.1,66.512c-1.5,10.956,8.521,19.837,22.381,19.837h0a32.776,32.776,0,0,0,6.764-.709C1255.8,401.751,1248.278,393.889,1249.572,384.438Z" transform="translate(0 0)"/>
    <path class="cls-22" d="M1304.575,289.748h23.5a38.323,38.323,0,0,1,38.323,38.323v99.356a11.865,11.865,0,0,1-11.865,11.865h-76.411a11.865,11.865,0,0,1-11.865-11.865V328.07A38.323,38.323,0,0,1,1304.575,289.748Z"/>
    <path class="cls-5" d="M1360.03,399.379h-70.784a9.662,9.662,0,0,1-9.634-9.634V320.863a31.207,31.207,0,0,1,31.116-31.116h27.82a31.207,31.207,0,0,1,31.116,31.116v68.882A9.662,9.662,0,0,1,1360.03,399.379Z" transform="translate(0 0)"/>
    <path class="cls-22" d="M1266.857,379.592h30.38a2.661,2.661,0,0,1,2.661,2.661v53.839a2.661,2.661,0,0,1-2.661,2.661h-22.93a10.111,10.111,0,0,1-10.111-10.111V382.253A2.661,2.661,0,0,1,1266.857,379.592Z"/>
    <path class="cls-63" d="M1264.2,391.372V382.21a2.67,2.67,0,0,1,2.7-2.618h30.292a2.67,2.67,0,0,1,2.7,2.618v9.031Z" transform="translate(0 0)"/>
    <path class="cls-31" d="M1372.854,439.291h-76.923c-7.126,0-12.956-5.054-12.956-11.232V322.1c0-18.336,17.3-33.339,38.454-33.339h25.926c21.15,0,33.116,14.4,33.518,33.339l4.936,105.964C1385.81,434.237,1379.98,439.291,1372.854,439.291Z" transform="translate(0 0)"/>
    <path class="cls-21" d="M1264.088,409.654v17.965a11.906,11.906,0,0,0,12.06,11.673h76.02a11.906,11.906,0,0,0,12.06-11.673V409.654Z" transform="translate(0 0)"/>
    <path class="cls-64" d="M1283.077,409.654v18.405c0,6.178,5.83,11.232,12.955,11.232h76.923c7.126,0,12.955-5.054,12.955-11.232l-.857-18.405Z" transform="translate(0 0)"/>
    <rect class="cls-5" x="1282.844" y="409.172" width="102.76" height="4.45"/>
    <rect class="cls-5" x="1263.655" y="409.172" width="19.189" height="4.45"/>
    <g>
      <path class="cls-30" d="M1308.332,389.2h58.114a2.372,2.372,0,0,1,2.372,2.372v.137a2.371,2.371,0,0,1-2.371,2.371h-58.114a2.372,2.372,0,0,1-2.372-2.372v-.137A2.372,2.372,0,0,1,1308.332,389.2Z"/>
      <path class="cls-30" d="M1288.887,322.305c-1.434,19.155,11.908,36.147,28.4,42.3,16.18,6.034,36.2,3.214,47.772-11.117a39,39,0,0,0,7.838-29.522,3.267,3.267,0,0,1,2.067-3.854,2.962,2.962,0,0,1,3.64,2.188,46.435,46.435,0,0,1-5.976,30.836,43.164,43.164,0,0,1-23.423,18.329c-19.386,6.42-42.635-.07-55.694-16.788-7.019-8.987-11.424-20.591-10.542-32.372.3-3.993,6.219-4.027,5.918,0Z" transform="translate(0 0)"/>
      <path class="cls-30" d="M1294.5,374.7h0a2.466,2.466,0,0,1-2.385-2.526v-22.5a2.466,2.466,0,0,1,2.385-2.526h0a2.466,2.466,0,0,1,2.385,2.526v22.5A2.466,2.466,0,0,1,1294.5,374.7Z" transform="translate(0 0)"/>
      <rect class="cls-65" x="1320.476" y="321.558" width="37.01" height="17.349" rx="2.975" ry="2.975"/>
      <rect class="cls-66" x="1326.645" y="325.027" width="26.987" height="10.613" rx="1.987" ry="1.987"/>
    </g>
  </g>
</svg>
