<svg id="Layer_1" data-name="Layer 1" xmlns="http://www.w3.org/2000/svg" viewBox="0 0 586.882 395.552">
  <defs>
    <style>
      .cls-1 {
        fill: #5a5a5a;
      }

      .cls-2 {
        fill: #1a1a1a;
      }

      .cls-3 {
        fill: #7c7c7b;
      }

      .cls-4 {
        opacity: 0.9;
      }

      .cls-5 {
        fill: #a0a0a0;
      }

      .cls-6 {
        fill: #fff;
      }

      .cls-7 {
        fill: #c6bcb9;
      }

      .cls-8 {
        fill: #cfc9c5;
      }

      .cls-9 {
        fill: #d9d2cf;
      }

      .cls-10 {
        fill: #e3dfdc;
      }

      .cls-11 {
        fill: #c7beba;
      }

      .cls-12 {
        fill: #d4cdc9;
      }

      .cls-13 {
        fill: #c1b6b3;
      }

      .cls-14, .cls-17 {
        fill: none;
        stroke-miterlimit: 10;
      }

      .cls-14 {
        stroke: #fff;
        stroke-width: 5.936px;
      }

      .cls-15 {
        fill: #2d65af;
      }

      .cls-16 {
        fill: #f8966f;
      }

      .cls-17 {
        stroke: #646464;
        stroke-width: 3.899px;
      }

      .cls-18 {
        fill: #f5d0d9;
      }

      .cls-19 {
        fill: #8e5533;
      }

      .cls-20 {
        fill: #78482c;
      }

      .cls-21 {
        fill: #643d25;
      }

      .cls-22 {
        fill: #e47356;
      }

      .cls-23 {
        fill: #f7f3ef;
      }

      .cls-24 {
        fill: #3f161e;
      }

      .cls-25 {
        fill: #dedad9;
      }

      .cls-26 {
        fill: #b59eb4;
      }

      .cls-27 {
        fill: #54385b;
      }

      .cls-28 {
        fill: #57b898;
      }

      .cls-29 {
        fill: #3f2945;
      }

      .cls-30 {
        fill: #8dccb7;
      }

      .cls-31 {
        fill: #ffa900;
      }

      .cls-32 {
        fill: #fdfeff;
      }

      .cls-33 {
        fill: #d8322b;
      }

      .cls-34 {
        fill: #2f1d33;
      }

      .cls-35 {
        fill: #1c4c85;
      }

      .cls-36 {
        fill: #62361d;
      }

      .cls-37 {
        fill: #391e12;
      }

      .cls-38 {
        fill: #904f1a;
      }

      .cls-39 {
        fill: #282843;
      }

      .cls-40 {
        fill: #3671b7;
      }

      .cls-41 {
        fill: #bdbcbc;
      }

      .cls-42 {
        fill: #a1a0b2;
      }
    </style>
  </defs>
  <title>e3d03312-3c5b-4000-8d8e-942bb7814b18</title>
  <g>
    <path class="cls-1" d="M385.314,8.273A8.108,8.108,0,0,0,377.18,0H215.023a8.443,8.443,0,0,0-8.412,8.273l-4.134,246.094a8.107,8.107,0,0,0,8.134,8.273H372.768a8.28,8.28,0,0,0,1.905-.241c.19-.045.367-.113.552-.17a8.3,8.3,0,0,0,1.221-.479c.094-.047.2-.066.3-.116.166-.09.318-.2.476-.3.1-.063.2-.12.3-.187a8.505,8.505,0,0,0,1.083-.881c.069-.066.128-.14.195-.208a8.473,8.473,0,0,0,.754-.9c.074-.1.149-.2.218-.3a8.394,8.394,0,0,0,.692-1.236c.025-.055.041-.115.064-.171a8.338,8.338,0,0,0,.4-1.219c.031-.126.061-.251.086-.379a8.3,8.3,0,0,0,.175-1.487l3.087-183.725.589-35.054Z"/>
    <polygon class="cls-2" points="162.555 391.537 209.083 182.877 196.268 182.877 160.64 391.537 162.555 391.537"/>
    <polygon class="cls-2" points="287.217 391.537 304.064 182.877 291.249 182.877 285.302 391.537 287.217 391.537"/>
    <polygon class="cls-2" points="378.948 394.604 322.45 95.714 335.265 95.714 380.863 394.604 378.948 394.604"/>
    <g>
      <path class="cls-3" d="M163.014,254.367,204.808,8.273A10.214,10.214,0,0,1,214.486,0H376.643a6.8,6.8,0,0,1,6.868,8.273L341.717,254.367a10.214,10.214,0,0,1-9.678,8.273H169.882A6.8,6.8,0,0,1,163.014,254.367Z"/>
      <g class="cls-4">
        <polygon class="cls-3" points="296.514 38.882 269.495 197.975 352.015 193.731 368.661 95.714 296.514 38.882"/>
        <polygon class="cls-3" points="296.514 38.882 203.456 16.233 194.216 70.642 296.514 38.882"/>
        <path class="cls-3" d="M166.1,261.634,296.514,38.882l-102.3,31.761-31.2,183.725A6.876,6.876,0,0,0,166.1,261.634Z"/>
        <polygon class="cls-3" points="184.781 262.64 283.183 262.64 269.495 197.975 184.781 262.64"/>
        <path class="cls-3" d="M352.015,193.731l-82.52,4.244,13.688,64.665h48.856a10.214,10.214,0,0,0,9.678-8.273Z"/>
        <path class="cls-3" d="M214.486,0a10.214,10.214,0,0,0-9.678,8.273l-1.352,7.96,93.058,22.648L282.34,0Z"/>
        <path class="cls-3" d="M169.882,262.64h14.9l84.714-64.665L296.514,38.882,166.1,261.634A7.287,7.287,0,0,0,169.882,262.64Z"/>
        <path class="cls-3" d="M296.514,38.882l72.148,56.833,14.85-87.441A6.8,6.8,0,0,0,376.643,0h-94.3Z"/>
      </g>
    </g>
    <g>
      <path class="cls-5" d="M157.746,254.367,199.54,8.273A10.214,10.214,0,0,1,209.218,0H371.375a6.8,6.8,0,0,1,6.868,8.273L336.449,254.367a10.214,10.214,0,0,1-9.678,8.273H164.614A6.8,6.8,0,0,1,157.746,254.367Z"/>
      <g class="cls-4">
        <polygon class="cls-5" points="291.246 38.882 264.227 197.975 346.747 193.731 363.393 95.714 291.246 38.882"/>
        <polygon class="cls-5" points="291.246 38.882 198.188 16.233 188.948 70.642 291.246 38.882"/>
        <path class="cls-5" d="M160.829,261.634,291.246,38.882l-102.3,31.761-31.2,183.725A6.876,6.876,0,0,0,160.829,261.634Z"/>
        <polygon class="cls-5" points="179.513 262.64 277.915 262.64 264.227 197.975 179.513 262.64"/>
        <path class="cls-5" d="M346.747,193.731l-82.52,4.244,13.688,64.665h48.856a10.214,10.214,0,0,0,9.678-8.273Z"/>
        <path class="cls-5" d="M209.218,0a10.214,10.214,0,0,0-9.678,8.273l-1.352,7.96,93.058,22.648L277.073,0Z"/>
        <path class="cls-5" d="M164.614,262.64h14.9l84.714-64.665L291.246,38.882,160.829,261.634A7.287,7.287,0,0,0,164.614,262.64Z"/>
        <path class="cls-5" d="M291.246,38.882l72.148,56.833,14.85-87.441A6.8,6.8,0,0,0,371.375,0h-94.3Z"/>
      </g>
    </g>
    <g>
      <path class="cls-6" d="M152.478,254.367,194.272,8.273A10.214,10.214,0,0,1,203.95,0H366.107a6.8,6.8,0,0,1,6.868,8.273L331.182,254.367a10.214,10.214,0,0,1-9.678,8.273H159.346A6.8,6.8,0,0,1,152.478,254.367Z"/>
      <g class="cls-4">
        <polygon class="cls-7" points="285.978 38.882 258.959 197.975 341.479 193.731 358.126 95.714 285.978 38.882"/>
        <polygon class="cls-8" points="285.978 38.882 192.92 16.233 183.68 70.642 285.978 38.882"/>
        <path class="cls-9" d="M155.561,261.634,285.978,38.882,183.68,70.642l-31.2,183.725A6.876,6.876,0,0,0,155.561,261.634Z"/>
        <polygon class="cls-10" points="174.245 262.64 272.647 262.64 258.959 197.975 174.245 262.64"/>
        <path class="cls-9" d="M341.479,193.731l-82.52,4.244,13.688,64.665H321.5a10.214,10.214,0,0,0,9.678-8.273Z"/>
        <path class="cls-11" d="M203.95,0a10.214,10.214,0,0,0-9.678,8.273l-1.352,7.96,93.058,22.648L271.8,0Z"/>
        <path class="cls-12" d="M159.346,262.64h14.9l84.714-64.665L285.978,38.882,155.561,261.634A7.287,7.287,0,0,0,159.346,262.64Z"/>
        <path class="cls-13" d="M285.978,38.882l72.148,56.833,14.85-87.441A6.8,6.8,0,0,0,366.107,0H271.8Z"/>
      </g>
    </g>
    <line class="cls-14" y1="392.583" x2="565.708" y2="392.583"/>
    <g>
      <g>
        <path class="cls-15" d="M319.9,150.332c-13.244-.093-26.49.232-39.735.459l-9.934.155-4.967.05a5.578,5.578,0,0,1-1.484-.132,3.879,3.879,0,0,1-1.5-.747,3.724,3.724,0,0,1-1.364-3.017l.033-.415.04-.308.08-.616.159-1.231.327-2.462.677-4.92,1.4-9.834,3-19.642c1.012-6.546,2.015-13.092,2.944-19.649s1.786-13.123,2.638-19.69q.655-4.923,1.243-9.856c.211-1.667.374-3.236.624-4.982a4.424,4.424,0,0,1,4.214-3.352q19.868-.259,39.734-.3l9.933-.018,4.967-.009a5.764,5.764,0,0,1,1.532.139,4.073,4.073,0,0,1,1.571.785,3.919,3.919,0,0,1,1.434,3.173l-.034.434-.04.309-.08.616-.159,1.231-.324,2.462-.664,4.922-1.335,9.843c-1.832,13.117-3.682,26.232-5.822,39.307l-3.118,19.625c-.531,3.269-.993,6.548-1.488,9.822-.254,1.642-.448,3.267-.717,4.928A3.944,3.944,0,0,1,319.9,150.332Zm0-.237a3.685,3.685,0,0,0,3.506-2.747c.237-1.611.443-3.273.648-4.91.4-3.288.823-6.571,1.183-9.864l2.223-19.747c1.422-13.173,3.132-26.306,4.861-39.437l2.673-19.559a1.443,1.443,0,0,0-.514-1.2,1.632,1.632,0,0,0-.628-.321,3.4,3.4,0,0,0-.933-.076l-4.966-.051-9.933-.1q-19.866-.188-39.73-.634a3.206,3.206,0,0,0-3.078,2.315c-.256,1.525-.494,3.244-.742,4.856q-.752,4.91-1.428,9.83c-.928,6.557-1.86,13.113-2.7,19.682s-1.628,13.145-2.4,19.723l-2.347,19.73-1.267,9.852L263,147.17a1.637,1.637,0,0,0,.584,1.359,1.827,1.827,0,0,0,.7.359,3.6,3.6,0,0,0,.98.082l4.966.092,9.932.239C293.411,149.639,306.654,150.076,319.9,150.095Z"/>
        <path class="cls-15" d="M315.857,132.341c-10.1-.08-20.2.259-30.3.5-2.525.06-5.049.141-7.574.165l-3.787.055h-.478a4.581,4.581,0,0,1-.616-.049,3.827,3.827,0,0,1-1.207-.374,3.727,3.727,0,0,1-1.774-1.857,3.91,3.91,0,0,1-.3-1.268,3.793,3.793,0,0,1,.013-.639c.018-.224.039-.332.059-.5l.247-1.877.518-3.751c.335-2.5.722-5,1.087-7.5l2.361-14.965c.8-4.987,1.592-9.974,2.31-14.972s1.39-10,2.018-15.011q.479-3.756.911-7.519l.22-1.881a5.609,5.609,0,0,1,.178-1.022,3.872,3.872,0,0,1,.451-1,4.464,4.464,0,0,1,3.672-2.091q15.148-.278,30.295-.339l7.573-.028,3.787-.014h.479a4.771,4.771,0,0,1,.643.051,4.019,4.019,0,0,1,1.264.392A3.921,3.921,0,0,1,329.78,58.8a4.1,4.1,0,0,1,.312,1.332,3.987,3.987,0,0,1-.014.67c-.019.236-.04.335-.06.509l-.245,1.877-.505,3.753-1.018,7.5c-1.409,10-2.836,20-4.553,29.953l-2.484,14.948c-.425,2.49-.781,4.989-1.171,7.484l-.274,1.873a3.94,3.94,0,0,1-.61,1.839A3.984,3.984,0,0,1,315.857,132.341Zm0-.237a3.723,3.723,0,0,0,3.06-1.715,3.628,3.628,0,0,0,.542-1.725l.235-1.879c.289-2.508.612-5.012.866-7.525l1.589-15.07c1-10.055,2.286-20.07,3.592-30.083l1.019-7.5.513-3.752.264-1.875c.018-.139.055-.351.058-.43a1.517,1.517,0,0,0,.012-.275,1.631,1.631,0,0,0-.1-.5,1.452,1.452,0,0,0-.685-.736,1.592,1.592,0,0,0-.532-.174,2.353,2.353,0,0,0-.3-.031l-.467-.007-3.786-.046-7.573-.092q-15.146-.168-30.291-.594a3.24,3.24,0,0,0-2.691,1.42,2.732,2.732,0,0,0-.351.705,4.529,4.529,0,0,0-.172.836l-.289,1.871q-.588,3.741-1.125,7.49-1.094,7.494-2.054,15.007c-.64,5.008-1.205,10.027-1.763,15.046l-1.712,15.053c-.314,2.5-.605,5.013-.95,7.514l-.5,3.754L272,128.657a3.842,3.842,0,0,0-.071.742,1.821,1.821,0,0,0,.12.569,1.646,1.646,0,0,0,.776.833,1.785,1.785,0,0,0,.59.193,2.546,2.546,0,0,0,.326.033l.468.007,3.786.087c2.524.046,5.048.148,7.572.229C295.664,131.675,305.76,132.1,315.858,132.1Z"/>
        <path class="cls-15" d="M297.449,141.743a2.089,2.089,0,0,0-.3-1.445,2.367,2.367,0,0,0-1.053-.886,8.9,8.9,0,0,0-2.275-.573,3.533,3.533,0,0,0-2.645.486,2.764,2.764,0,0,0-1.1,2.488,3.017,3.017,0,0,0,1.084,2,3.142,3.142,0,0,0,2,.554,4.86,4.86,0,0,0,1.143-.15,8.326,8.326,0,0,0,1.249-.363A2.772,2.772,0,0,0,297.449,141.743Zm.235.032a7.809,7.809,0,0,1-1.088,3.264,4.13,4.13,0,0,1-1.4,1.3,4.859,4.859,0,0,1-1.9.562,4.481,4.481,0,0,1-3.731-1.5,3.747,3.747,0,0,1-.782-3.76,7.5,7.5,0,0,1,1.883-2.888,5.9,5.9,0,0,1,3.041-1.888,3.345,3.345,0,0,1,3.457,1.483A5.239,5.239,0,0,1,297.684,141.775Z"/>
      </g>
      <g>
        <path class="cls-15" d="M225.151,233.168c-8.438-.073-16.878.273-25.318.52-2.11.061-4.22.144-6.33.171l-3.165.058h-.4a3.989,3.989,0,0,1-.539-.042,3.366,3.366,0,0,1-1.059-.327,3.285,3.285,0,0,1-1.564-1.636,3.44,3.44,0,0,1-.263-1.117,3.342,3.342,0,0,1,.011-.562c.016-.2.033-.28.049-.426l.205-1.569.435-3.134c.279-2.091.61-4.175.919-6.262l2.026-12.5c.689-4.165,1.369-8.33,1.975-12.506s1.167-8.358,1.684-12.545q.395-3.14.744-6.286l.178-1.573a4.732,4.732,0,0,1,.149-.869,3.331,3.331,0,0,1,.385-.861,3.831,3.831,0,0,1,3.149-1.8q12.659-.289,25.317-.36l6.329-.034,3.165-.017h.4a4.185,4.185,0,0,1,.566.044,3.558,3.558,0,0,1,1.117.346,3.479,3.479,0,0,1,1.655,1.734,3.633,3.633,0,0,1,.278,1.181,3.536,3.536,0,0,1-.012.592l-.05.432-.2,1.569-.422,3.136-.85,6.272c-1.186,8.355-2.39,16.707-3.884,25.021L229.682,222.3c-.369,2.079-.67,4.167-1,6.251l-.232,1.565a3.288,3.288,0,0,1-3.3,3.054Zm0-.237a3.09,3.09,0,0,0,2.538-1.426,3.007,3.007,0,0,0,.447-1.433l.193-1.571c.234-2.1.5-4.19.7-6.292l1.254-12.6c.775-8.411,1.84-16.782,2.923-25.151l.851-6.271.429-3.135.222-1.567c.015-.113.047-.3.048-.353a1.073,1.073,0,0,0,.01-.2,1.164,1.164,0,0,0-.071-.354,1.01,1.01,0,0,0-.476-.515,1.13,1.13,0,0,0-.385-.128,1.763,1.763,0,0,0-.221-.024l-.389-.006-3.164-.043-6.329-.087q-12.657-.157-25.314-.573a2.607,2.607,0,0,0-2.168,1.132,2.19,2.19,0,0,0-.285.565,3.643,3.643,0,0,0-.143.683l-.247,1.563q-.5,3.125-.958,6.257-.927,6.261-1.72,12.54c-.529,4.186-.982,8.383-1.428,12.58l-1.377,12.587c-.258,2.094-.494,4.191-.782,6.281l-.416,3.137-.22,1.567a3.122,3.122,0,0,0-.059.587,1.354,1.354,0,0,0,.085.418,1.2,1.2,0,0,0,.567.612,1.323,1.323,0,0,0,.443.146,1.957,1.957,0,0,0,.249.026l.39.006,3.164.084c2.109.044,4.219.145,6.328.224C208.277,232.515,216.714,232.932,225.152,232.93Z"/>
        <path class="cls-15" d="M221.766,228.954c-7.027-.067-14.055.285-21.083.538-1.757.063-3.514.147-5.271.175l-.659.015-.354,0a3.036,3.036,0,0,1-2.193-.952,2.872,2.872,0,0,1-.723-1.862,3.406,3.406,0,0,1,.025-.481l.04-.327.081-.654c.425-3.488.933-6.965,1.472-10.437l1.741-10.4c.594-3.465,1.18-6.931,1.69-10.407s.977-6.959,1.4-10.447q.324-2.615.6-5.237l.143-1.31.036-.328a3.069,3.069,0,0,1,.079-.4,2.812,2.812,0,0,1,.319-.75,3.257,3.257,0,0,1,2.7-1.576c7.028-.2,14.055-.338,21.082-.378l5.27-.038.659,0h.359a3.191,3.191,0,0,1,.5.047,3.155,3.155,0,0,1,1.832,1,3.066,3.066,0,0,1,.771,1.988,3.6,3.6,0,0,1-.026.509l-.041.327-.081.654c-.429,3.487-.917,6.967-1.388,10.448-1,6.956-2.011,13.91-3.315,20.824l-1.864,10.384c-.322,1.729-.575,3.468-.861,5.2l-.2,1.3a2.849,2.849,0,0,1-.418,1.3A2.777,2.777,0,0,1,221.766,228.954Zm0-.237a2.462,2.462,0,0,0,2.434-2.382l.157-1.308c.186-1.748.406-3.491.556-5.243l.97-10.505c.586-7.012,1.461-13.984,2.353-20.954.473-3.481.93-6.965,1.446-10.441l.1-.652.048-.326a1.126,1.126,0,0,0,.012-.147.631.631,0,0,0-.138-.424.746.746,0,0,0-.435-.244.844.844,0,0,0-.155-.019c-.049-.006-.2,0-.3-.008l-.659-.01-5.27-.082c-7.026-.1-14.052-.3-21.078-.555a2.033,2.033,0,0,0-1.71.892,1.675,1.675,0,0,0-.221.447,1.959,1.959,0,0,0-.062.239l-.053.325-.212,1.3q-.434,2.6-.815,5.208-.785,5.212-1.435,10.442c-.434,3.487-.793,6.984-1.143,10.482l-1.093,10.489c-.405,3.491-.842,6.977-1.362,10.452l-.1.652-.048.326a1.311,1.311,0,0,0-.014.176.823.823,0,0,0,.187.55.948.948,0,0,0,.543.327,2.265,2.265,0,0,0,.49.04l.659.021c1.757.043,3.513.142,5.269.219C207.714,228.313,214.74,228.724,221.767,228.716Z"/>
        <path class="cls-15" d="M269.742,233.355c-6.74-.066-13.482.287-20.224.541-1.685.063-3.371.148-5.056.176l-2.528.06-.321,0a3.391,3.391,0,0,1-.459-.035,2.894,2.894,0,0,1-.908-.28,2.833,2.833,0,0,1-1.35-1.41,2.959,2.959,0,0,1-.228-.962,2.883,2.883,0,0,1,.009-.482l.039-.347.163-1.253.349-2.5c.222-1.671.5-3.334.748-5l1.684-9.975c.574-3.323,1.141-6.647,1.633-9.982s.939-6.675,1.341-10.021q.309-2.509.573-5.024l.135-1.257a3.828,3.828,0,0,1,.119-.713,2.775,2.775,0,0,1,.318-.718,3.182,3.182,0,0,1,2.614-1.507c6.741-.2,13.483-.341,20.223-.382l5.056-.039,2.528-.02.322,0a3.587,3.587,0,0,1,.487.037,3.087,3.087,0,0,1,.966.3,3.027,3.027,0,0,1,1.441,1.507,3.152,3.152,0,0,1,.243,1.027,3.076,3.076,0,0,1-.01.513l-.04.353-.16,1.254-.336,2.505-.679,5.01c-.958,6.672-1.934,13.342-3.2,19.973l-1.807,9.958c-.312,1.658-.556,3.326-.832,4.989l-.19,1.25a2.654,2.654,0,0,1-2.663,2.459Zm0-.237a2.442,2.442,0,0,0,2-1.131,2.372,2.372,0,0,0,.35-1.133l.15-1.255c.176-1.677.386-3.349.527-5.03l.912-10.08c.547-6.728,1.384-13.417,2.238-20.1l.68-5.009.343-2.5.18-1.251c.012-.087.039-.247.038-.274a.622.622,0,0,0,.008-.118.693.693,0,0,0-.036-.2.556.556,0,0,0-.261-.289.657.657,0,0,0-.234-.08,1.152,1.152,0,0,0-.142-.017l-.31-.006-2.528-.041-5.055-.082c-6.74-.1-13.48-.3-20.219-.552a1.958,1.958,0,0,0-1.633.837,1.637,1.637,0,0,0-.218.422,2.722,2.722,0,0,0-.114.527l-.2,1.248q-.419,2.494-.786,4.995-.756,5-1.377,10.017c-.414,3.345-.754,6.7-1.086,10.056l-1.035,10.063c-.2,1.673-.38,3.35-.611,5.019l-.331,2.506-.177,1.251a2.44,2.44,0,0,0-.047.429.876.876,0,0,0,.05.264.751.751,0,0,0,.352.386.85.85,0,0,0,.291.1,1.354,1.354,0,0,0,.17.019l.311.006,2.527.082c1.685.043,3.37.141,5.055.219C256.263,232.717,263,233.127,269.743,233.118Z"/>
        <path class="cls-15" d="M267.037,229.99c-5.613-.059-11.227.283-16.841.556-1.4.064-2.807.15-4.21.18l-.526.016-.288.005a2.62,2.62,0,0,1-1.9-.821,2.5,2.5,0,0,1-.631-1.62,2.94,2.94,0,0,1,.021-.415l.032-.261.063-.522c.33-2.787.743-5.563,1.187-8.335l1.456-8.3c.5-2.764.989-5.53,1.405-8.306s.787-5.557,1.114-8.345q.252-2.09.459-4.186l.107-1.048.027-.262a2.561,2.561,0,0,1,.065-.339,2.362,2.362,0,0,1,.264-.629,2.724,2.724,0,0,1,2.255-1.327c5.614-.207,11.227-.366,16.84-.4l4.21-.043.526-.005h.293a2.79,2.79,0,0,1,.434.04,2.762,2.762,0,0,1,1.6.871,2.7,2.7,0,0,1,.68,1.745,3.143,3.143,0,0,1-.023.443l-.032.261-.063.522c-.333,2.787-.727,5.566-1.1,8.347-.806,5.555-1.631,11.107-2.744,16.62-.525,2.761-1.09,5.516-1.585,8.281-.264,1.38-.476,2.768-.713,4.152l-.161,1.04a2.309,2.309,0,0,1-.34,1.051A2.244,2.244,0,0,1,267.037,229.99Zm0-.237a1.939,1.939,0,0,0,1.913-1.883l.122-1.046c.14-1.4.306-2.791.419-4.191.26-2.8.449-5.6.679-8.4.4-5.611,1.081-11.182,1.783-16.751.378-2.781.739-5.564,1.161-8.339l.078-.52.039-.26a.743.743,0,0,0,.008-.081.267.267,0,0,0-.047-.182.345.345,0,0,0-.207-.119.44.44,0,0,0-.089-.013c-.027-.005-.159,0-.233-.007l-.526-.01-4.209-.078c-5.613-.077-11.225-.284-16.836-.538a1.5,1.5,0,0,0-1.266.644,1.227,1.227,0,0,0-.166.326,1.453,1.453,0,0,0-.048.174l-.044.26-.176,1.038q-.362,2.075-.673,4.157c-.428,2.774-.806,5.555-1.15,8.34s-.6,5.583-.858,8.38l-.808,8.387c-.31,2.79-.652,5.576-1.077,8.35l-.078.52-.039.26a.876.876,0,0,0-.01.11.455.455,0,0,0,.1.307.545.545,0,0,0,.315.2,1.451,1.451,0,0,0,.358.033l.526.02c1.4.041,2.806.139,4.209.215C255.814,229.374,261.425,229.764,267.038,229.752Z"/>
        <path class="cls-15" d="M210.615,181.472c.5-1.06,1.069-2.081,1.666-3.084.621-.984,1.276-1.948,1.955-2.895a40.365,40.365,0,0,1,4.584-5.254c.871-.775,1.773-1.517,2.678-2.249q1.395-1.06,2.7-2.2,1.328-1.117,2.574-2.323c.862-.77,1.677-1.6,2.5-2.417.849-.792,1.68-1.614,2.553-2.385.887-.752,1.8-1.477,2.713-2.2l2.815-2.072c.961-.659,1.948-1.278,2.932-1.9A51.292,51.292,0,0,1,253.109,147l.1.217c-3.886,2.574-7.769,4.947-11.59,7.429l-5.777,3.65c-1.89,1.275-3.812,2.512-5.745,3.764-.945.651-1.89,1.31-2.795,2.017s-1.746,1.49-2.579,2.279c-.8.822-1.564,1.686-2.3,2.567-.718.9-1.422,1.811-2.165,2.678-.725.884-1.473,1.744-2.27,2.56-.762.847-1.53,1.69-2.331,2.508-.769.844-1.55,1.681-2.371,2.493-.786.839-1.594,1.664-2.472,2.449Z"/>
        <path class="cls-15" d="M239.928,141.883a17.8,17.8,0,0,1,4.557-.882,17.285,17.285,0,0,1,4.589.168c1.516.308,3,.808,4.5,1.021a36.77,36.77,0,0,0,4.578.314l.666.017-.075.9a28.831,28.831,0,0,1-.754,4.2,39.313,39.313,0,0,1-1.117,4.068q-.689,1.99-1.54,3.923a41.854,41.854,0,0,1-1.9,3.821l-.23-.057a24.11,24.11,0,0,1,.371-4.284c.232-1.4.533-2.777.89-4.135s.837-2.675,1.312-3.991.946-2.629,1.514-3.906l.59.916a18.627,18.627,0,0,0-4.4-1.065,26.048,26.048,0,0,0-4.539.155,27.8,27.8,0,0,1-4.485-.195,30.032,30.032,0,0,1-4.524-.749Z"/>
      </g>
    </g>
  </g>
  <g>
    <path class="cls-16" d="M151.169,202.079l3.727-4.692,2.723-.81-6.705-7.3c-.108-.251-.21-.5-.31-.742,1.211-.434,2.719-.871,4.241-1.374,3.5-1.155,4.293-2.827,4.337-4.043a1.33,1.33,0,0,0-1.62-1.3L151.553,183l-6.244,1.093c-1.452-.418-3.117-.854-4.6-1.227a7.483,7.483,0,0,0-7.018,1.84h0a6.76,6.76,0,0,0-.31,9.484l8.215,9.024s1.321,1.251,1.33,1.248Z"/>
    <line class="cls-17" x1="137.73" y1="205.022" x2="228.708" y2="132.897"/>
    <path class="cls-16" d="M83.107,150.691c2.426,5.919,5.018,11.78,7.8,17.54,2.926,6.057,6.607,15.958,12.959,19.328,1.9,1.007,4.265,1,6.363,1.247l11.763,1.388,18.973,2.239c6.179.729,6.127-8.965,0-9.688-11.312-1.335-22.73-2.3-33.99-4.011,1.975.3,1.638.656.552-.749a39.283,39.283,0,0,1-2.493-3.752c-2.123-3.516-3.977-7.2-5.762-10.892-2.389-4.946-5.063-10.93-6.823-15.226-2.332-5.691-11.708-3.2-9.342,2.575Z"/>
    <path class="cls-18" d="M92.423,169.362l13.206-8.518a1.239,1.239,0,0,0,.356-1.771L89.422,135.781a8.266,8.266,0,0,0-11.179-2.029h0c-3.672,2.4-4.12,6.306-2.118,10.713l10.8,23.379A3.808,3.808,0,0,0,92.423,169.362Z"/>
    <path class="cls-19" d="M44.939,68.9c-1.094.761,1.468-7.406.429-6.579-5.609,4.46-13.1,19.761-14.2,26.464s-2.656,20.061,1.308,25.574c1.087-2.506,3.982-11.656,4.008-14.325A33.156,33.156,0,0,1,38.445,89.16c.656-1.827,1.471-3.605,2.285-5.381,1.812-3.953,3.7-7.967,5.516-11.919Z"/>
    <path class="cls-19" d="M83.175,117.11c1.787-5.742,4.675-11.1,7.031-16.654s3.014-8.5,2.975-14.5c-.1-15.838-6.229-22.3-11.77-25.074Z"/>
    <path class="cls-20" d="M79.368,123.8l-41.645-6.347c-3.834-.583-6.256-4.006-5.3-7.491l7.885-37.912,26.6-7.092,16.138,21.6-.255,30.258C82.757,120.707,83.546,124.439,79.368,123.8Z"/>
    <polygon class="cls-21" points="40.576 117.682 70.004 122.247 77.073 89.57 47.644 85.006 40.576 117.682"/>
    <path class="cls-18" d="M65.855,122.215a17.87,17.87,0,0,0-6.526-1.411,10.431,10.431,0,0,0-5.068,1.069c-9.846,5.41-25.359,8.977-25.229,17.6,0,0-.394,6.083,4.779,6.049l25.51-.548,21.386-.084c5.173-.034,6.826-8.007,6.826-8.007C87.524,128.75,75.7,127.495,65.855,122.215Z"/>
    <path class="cls-16" d="M63.747,134.909c-11.6.213-19.387-3.4-23.546-6.64,4.4-2.4,9.133-3.9,13.377-6.2a15.536,15.536,0,0,1,6.191-1.249,7.279,7.279,0,0,1,4.585.473c4.541,2.464,12.167,5.5,16.972,7.8C77.618,131.611,74.67,134.708,63.747,134.909Z"/>
    <rect class="cls-16" x="53.873" y="101.269" width="12.087" height="31.396" rx="5.43" ry="5.43" transform="translate(119.73 233.987) rotate(-179.949)"/>
    <path class="cls-18" d="M29.594,142.651l18.835,1.407,22.852-.42,16.085-6.752s-.835,16.829-4.813,29.626l-.841,23.14c-.862,4.978-39.567,4.476-40.248,1.753l-3.876-23.767Z"/>
    <path class="cls-22" d="M66.011,113.589l-12.27-4.718.172,2.877c.99,3.509,7.886,8.911,12.015,7.738Z"/>
    <path class="cls-16" d="M62.681,116.213l.336.016A18.737,18.737,0,0,0,82.488,98.486l-.567-12.272c1.1-13.6-6.51-18.8-16.694-19.281l-.082-.013c-10.184-.48-18.758,5.123-19.283,15.362L45.12,96.724A18.55,18.55,0,0,0,62.681,116.213Z"/>
    <path class="cls-23" d="M71.863,101.915l-11.435-.25a1.393,1.393,0,0,0-1.366,1.915,7.5,7.5,0,0,0,14.075.308A1.388,1.388,0,0,0,71.863,101.915Z"/>
    <ellipse class="cls-24" cx="58.576" cy="90.863" rx="2.965" ry="2.21" transform="translate(-33.547 147.435) rotate(-88.745)"/>
    <ellipse class="cls-24" cx="76.001" cy="91.244" rx="2.965" ry="2.21" transform="translate(-16.885 165.229) rotate(-88.745)"/>
    <path class="cls-19" d="M59.309,85.875a21.632,21.632,0,0,0-5.625.306,1.35,1.35,0,0,1-1.6-1.154v-.011a1.316,1.316,0,0,1,1.025-1.407,17.742,17.742,0,0,1,6.515-.344A1.329,1.329,0,0,1,60.8,84.57v.008A1.35,1.35,0,0,1,59.309,85.875Z"/>
    <path class="cls-19" d="M78.818,86.829a21.641,21.641,0,0,0-5.633-.078,1.34,1.34,0,0,1-1.509-1.26v-.011A1.326,1.326,0,0,1,72.8,84.148a17.75,17.75,0,0,1,6.524.1A1.319,1.319,0,0,1,80.4,85.629v.008A1.36,1.36,0,0,1,78.818,86.829Z"/>
    <path class="cls-22" d="M52.761,99.485l-2.047.079a1.479,1.479,0,0,1-1.558-1.378h0a1.467,1.467,0,0,1,1.438-1.493l2.047-.079A1.479,1.479,0,0,1,54.2,97.991h0A1.467,1.467,0,0,1,52.761,99.485Z"/>
    <path class="cls-22" d="M79.813,98.373l-2.047.079a1.479,1.479,0,0,1-1.558-1.378h0a1.467,1.467,0,0,1,1.438-1.494l2.047-.079a1.479,1.479,0,0,1,1.559,1.378h0A1.467,1.467,0,0,1,79.813,98.373Z"/>
    <path class="cls-16" d="M68.461,242.024c3.638,22.185,7.487,44.469,8.412,66.971.914,22.228-1.011,44.491-2.769,66.631-.747,9.4,13.91,9.352,14.653,0,1.789-22.521,3.749-45.171,2.72-67.78-1.065-23.406-5.1-46.634-8.885-69.717-1.522-9.283-15.644-5.344-14.129,3.9Z"/>
    <rect class="cls-25" x="73.863" y="353.771" width="18.211" height="26.297" rx="2.3" ry="2.3" transform="translate(165.936 733.839) rotate(-180)"/>
    <g>
      <g>
        <path class="cls-26" d="M72.845,384.8l44.622.154h0c.78-6.932-3.838-12.551-10.314-12.551H72.608Z"/>
        <path class="cls-18" d="M96.713,384.8l20.758.154h0c.742-6.932-3.651-12.551-9.812-12.551h-1.973c-4.956,0-8.973,4.751-8.973,10.612Z"/>
        <path class="cls-27" d="M115.125,388.871H74.278a2.356,2.356,0,0,1-2.429-2.246h0a2.352,2.352,0,0,1,2.429-2.295h40.847a2.356,2.356,0,0,1,2.429,2.246h0A2.352,2.352,0,0,1,115.125,388.871Z"/>
        <path class="cls-27" d="M95.73,374.264l-5.21-4.955a18.761,18.761,0,0,1-16.343.07,1.546,1.546,0,0,0-1.571,1.514l0,3.371Z"/>
        <rect class="cls-26" x="81.781" y="360.664" width="13.949" height="18.707" rx="6.019" ry="6.019"/>
      </g>
      <path class="cls-27" d="M92.274,375.613l5.039-1.42a1.282,1.282,0,1,0-.709-2.465l-5.039,1.42a1.282,1.282,0,1,0,.709,2.465Z"/>
      <path class="cls-27" d="M97.936,376.081a7.853,7.853,0,0,1,3.476-1.246,1.344,1.344,0,0,0,1.334-1.278,1.316,1.316,0,0,0-1.334-1.278,10.778,10.778,0,0,0-4.823,1.595,1.293,1.293,0,0,0,1.346,2.207Z"/>
    </g>
    <path class="cls-16" d="M33.4,233.833c3.75,23.073,6.008,46.371,3.3,69.69-2.751,23.686-9.438,46.957-14.725,70.155-2.092,9.181,12.031,13.1,14.129,3.9,5.591-24.532,12.34-49,15.249-74.05,2.86-24.628.135-49.233-3.823-73.585-1.509-9.284-15.631-5.344-14.129,3.9Z"/>
    <path class="cls-25" d="M22.511,378.9l13.346,2.023a2.339,2.339,0,0,0,2.688-1.872L42.1,357.52a2.266,2.266,0,0,0-1.953-2.576L26.8,352.921a2.339,2.339,0,0,0-2.688,1.872l-3.554,21.526A2.266,2.266,0,0,0,22.511,378.9Z"/>
    <path class="cls-28" d="M39.968,183.595l13.237,1.068c9.567,1.982,20.951,1.378,29.422-4.175,0,0,12.723,41.6-2.744,47.016-6.495,2.275-29.724,2.387-36.367,0C15.576,217.462,39.968,183.595,39.968,183.595Z"/>
    <path class="cls-28" d="M36.865,129.042s16.8,35.469,16.642,34.521,5.6-4.614,5.6-4.614L41.116,126.391Z"/>
    <path class="cls-28" d="M85.1,129.135s-8.049,35.772-8.114,34.881-6.536-2.894-6.536-2.894l9.885-33.416Z"/>
    <path class="cls-19" d="M68.772,69.137s-18.309,4.91-23.629,19.947c0,0-9.807,12.119-11.856,11.844,0,0,4.235-16.094,6.334-28.523C41.306,62.426,54.73,52.164,69.6,58Z"/>
    <path class="cls-19" d="M80.313,123.629a2.718,2.718,0,0,1-2.478-3.5c1.811-5.9,5.262-19.954,2.273-29.044-3.724-11.323-13.336-15.553-13.7-25.841l-.643.895,2.135-7.3s1.293-3.748,9.334-1.022c11.556,3.918,13.542,14.794,11.739,26a212.505,212.505,0,0,0-2.984,36.985,3.057,3.057,0,0,1-3.358,3.014Z"/>
    <path class="cls-28" d="M51.943,186.464c9.523,16.468,18.631,10.626,27.442-4.144V156.5H51.943Z"/>
    <ellipse class="cls-29" cx="75.767" cy="161.681" rx="2.453" ry="3.028"/>
    <ellipse class="cls-29" cx="56.433" cy="161.681" rx="2.661" ry="3.028"/>
    <path class="cls-28" d="M36.048,269.658l49.562.728a6.532,6.532,0,0,0,6.769-6.932l-5.012-58.663H30.987v60.016A4.959,4.959,0,0,0,36.048,269.658Z"/>
    <path class="cls-30" d="M66,242.962h0c7.624,0,13.8-5.922,13.8-13.228v-15.3a3.422,3.422,0,0,0-3.493-3.347H55.685a3.422,3.422,0,0,0-3.493,3.347v15.3C52.192,237.04,58.372,242.962,66,242.962Z"/>
    <path class="cls-16" d="M37.606,94.1c.514,3.342,3.094,5.746,5.764,5.369s4.417-3.392,3.9-6.734-3.094-5.746-5.764-5.369S37.092,90.757,37.606,94.1Z"/>
    <path class="cls-16" d="M145.48,197.338l.1-.1a1.913,1.913,0,0,1,2.566-.263l3.228,3.159a1.714,1.714,0,0,1-.339,2.443l-.1.1a1.913,1.913,0,0,1-2.566.263l-3.228-3.159A1.714,1.714,0,0,1,145.48,197.338Z"/>
    <path class="cls-16" d="M142.739,199.692l.1-.1a1.916,1.916,0,0,1,2.569-.267l3.228,3.159a1.717,1.717,0,0,1-.342,2.446l-.1.1a1.916,1.916,0,0,1-2.569.267l-3.228-3.159A1.717,1.717,0,0,1,142.739,199.692Z"/>
    <path class="cls-16" d="M148.671,194.959l.1-.1a1.938,1.938,0,0,1,2.592-.288l3.228,3.159a1.737,1.737,0,0,1-.365,2.467l-.1.1a1.938,1.938,0,0,1-2.592.288l-3.228-3.159A1.737,1.737,0,0,1,148.671,194.959Z"/>
    <path class="cls-16" d="M151.42,192.217l.095-.088a1.8,1.8,0,0,1,2.449-.155l3.227,3.16a1.616,1.616,0,0,1-.223,2.335l-.095.088a1.8,1.8,0,0,1-2.449.155l-3.227-3.16A1.616,1.616,0,0,1,151.42,192.217Z"/>
    <path class="cls-16" d="M27.376,140.612c-13.854,28.9-18.826,60.232-18.9,92.083-.015,6.429,9.974,6.438,9.99,0,.072-30.007,4.469-59.773,17.539-87.041,2.766-5.77-5.845-10.844-8.626-5.042Z"/>
    <path class="cls-16" d="M5.046,241.913l1.611-15.741c0-.03.02-.214.042-.5a6.01,6.01,0,0,1,7.561-5.155c2.074.516,3.971,1.271,4.663,2.364L23.4,231l3.968,5.441s-.814,2.03-4.988-.97c-1.287-.925-2.244-2.454-3.2-3.049a12.5,12.5,0,0,0-1.089,2.084l-.418,13.92c.02,1.1-.135,2.111-1.284,2.13l-.211,0c-1.149.019-1.412-.983-1.433-2.084l-.258-4.128-.77,5.515c-.1,1.1-.364,2.086-1.509,1.991l-.21-.017c-1.145-.1-1.3-1.118-1.2-2.216l.189-4.091-.148.752c-.16,1.091-.479,2.064-1.617,1.911l-.209-.028c-1.138-.154-1.234-1.183-1.073-2.274l.755-7.382-.748,3.8c-.16,1.091-.479,2.064-1.617,1.911l-.209-.028C4.982,244.034,4.886,243,5.046,241.913Z"/>
    <path class="cls-18" d="M13.157,166.051l14.921,5.316a1.344,1.344,0,0,0,1.709-.756l10.09-26.475a7.625,7.625,0,0,0-4.8-9.887h0c-4.174-1.461-7.748.469-10.317,4.6L11.241,160.888A3.519,3.519,0,0,0,13.157,166.051Z"/>
    <g>
      <rect class="cls-26" x="20.932" y="372.559" width="19.022" height="14.284" transform="translate(60.886 759.401) rotate(-180)"/>
      <path class="cls-27" d="M22.509,367.5a22.067,22.067,0,0,0,6.281,1.845v3.494h-8l0-3.684A1.69,1.69,0,0,1,22.509,367.5Z"/>
      <path class="cls-27" d="M38.174,367.5a22.067,22.067,0,0,1-6.281,1.845v3.494h8l0-3.684A1.69,1.69,0,0,0,38.174,367.5Z"/>
      <rect class="cls-26" x="23.086" y="359.891" width="15.246" height="20.446" rx="6.578" ry="6.578"/>
      <path class="cls-18" d="M19.387,386.272l22.688.168h0c.811-7.576-3.99-13.718-10.724-13.718H29.194c-5.416,0-9.807,5.193-9.807,11.6Z"/>
      <path class="cls-27" d="M29,373.7a8.714,8.714,0,0,1,4.053-.1,1.514,1.514,0,0,0,1.851-.864A1.393,1.393,0,0,0,34,370.962a11.94,11.94,0,0,0-5.574,0c-1.807.449-1.247,3.189.575,2.736Z"/>
      <path class="cls-27" d="M20.464,390.608H40.671a2.414,2.414,0,0,0,2.463-2.361h0a2.414,2.414,0,0,0-2.463-2.361H20.464A2.414,2.414,0,0,0,18,388.247h0A2.414,2.414,0,0,0,20.464,390.608Z"/>
    </g>
  </g>
  <g>
    <g>
      <path class="cls-16" d="M462.5,178.514,449.88,189.832l-7.966,7.144c-1.225,1.1-2.929,3.338-4.746,3.271-2.343-.087-2.738-3.085-3.328-4.814l-3.382-9.9-5.519-16.153c-1.861-5.446-10.552-3.108-8.673,2.391l6.774,19.825c2.275,6.659,3.739,15.627,11.822,17.39,7.653,1.669,13.382-5.625,18.462-10.181l15.538-13.934c4.318-3.873-2.06-10.216-6.36-6.36Z"/>
      <g>
        <path class="cls-31" d="M458.8,201.225l12.852-16.9c4.118-6.722,2.331-9.816.06-11.773l-.568-.489c-2.89-2.49-8.466-1.984-11.791,1.876L445.62,189.88a3.391,3.391,0,0,0,.356,4.782l8.183,7.051A3.2,3.2,0,0,0,458.8,201.225Z"/>
        <rect class="cls-32" x="446.294" y="190.744" width="16.632" height="3.212" transform="translate(235.758 -250.112) rotate(40.748)"/>
      </g>
      <path class="cls-16" d="M467,251.294l-.063,106.093-.009,14.973c0,8.268,12.844,8.281,12.849,0l.063-106.093.009-14.973c0-8.268-12.844-8.281-12.849,0Z"/>
      <rect class="cls-25" x="464.86" y="353.426" width="15.633" height="23.556" rx="2.017" ry="2.017"/>
      <g>
        <g>
          <path class="cls-33" d="M481.269,384.086l-37.614.135h0c-.658-6.1,3.235-11.04,8.694-11.04h29.119Z"/>
          <path class="cls-25" d="M461.15,384.085l-17.5.135h0c-.625-6.1,3.077-11.04,8.271-11.04h1.663c4.177,0,7.564,4.179,7.564,9.334Z"/>
          <path class="cls-34" d="M445.629,387.666h34.431a2.023,2.023,0,0,0,2.047-1.976h0a2.022,2.022,0,0,0-2.047-2.019H445.629a2.023,2.023,0,0,0-2.047,1.976h0A2.022,2.022,0,0,0,445.629,387.666Z"/>
          <path class="cls-34" d="M461.978,374.817l4.392-4.359a15.223,15.223,0,0,0,13.776.062,1.331,1.331,0,0,1,1.325,1.332l0,2.965Z"/>
          <rect class="cls-33" x="461.978" y="362.854" width="11.758" height="16.455" rx="5.183" ry="5.183" transform="translate(935.715 742.163) rotate(-180)"/>
        </g>
        <path class="cls-34" d="M464.892,376l-4.247-1.249a1.125,1.125,0,0,1,.6-2.168l4.247,1.249a1.125,1.125,0,0,1-.6,2.168Z"/>
        <path class="cls-34" d="M460.119,376.415a6.446,6.446,0,0,0-2.93-1.1,1.156,1.156,0,0,1-1.124-1.124,1.132,1.132,0,0,1,1.124-1.124,8.83,8.83,0,0,1,4.065,1.4c1.2.8.076,2.744-1.135,1.942Z"/>
      </g>
      <path class="cls-35" d="M482.064,306.688h-16.7a2.141,2.141,0,0,1-2.141-2.141v-52.9a10.493,10.493,0,0,1,10.493-10.493h0a10.493,10.493,0,0,1,10.493,10.493v52.9A2.142,2.142,0,0,1,482.064,306.688Z"/>
      <path class="cls-31" d="M481.323,157.355c1.734-1.176,6.443-2.276,7.051-2.028.6-.271,3.044.074,4.823,1.181,10.827,6.739,29.51,8.1,29.937,21.991,0,0-.071,7.578-5.689,7.687l-28.458.556-25.032.556c-5.618.11-5.984-7.46-5.984-7.46C457.452,166.7,470.767,164.511,481.323,157.355Z"/>
      <g>
        <path class="cls-16" d="M585.149,147.945l-9.633,8.679c-.019.016-.13.119-.3.283a4.743,4.743,0,0,1-7.236-.882c-.919-1.411-1.6-2.872-1.4-3.9l1.892-7.286.7-5.4s1.594-.8,2.358,3.228c.236,1.241-.053,2.674.171,3.54a10.423,10.423,0,0,0,1.784-.685l7.934-8.208c.6-.678,1.245-1.207,1.923-.61l.124.109c.678.6.276,1.343-.32,2.021l-2.131,2.636,3.494-2.932c.664-.612,1.364-1.071,1.975-.407l.112.122c.612.664.135,1.365-.529,1.977l-2.37,2.377.5-.377c.7-.576,1.419-1,1.994-.3l.106.128c.576.7.062,1.37-.634,1.946l-4.518,4.07,2.533-1.9c.7-.576,1.419-1,1.994-.3l.106.128C586.359,146.7,585.845,147.369,585.149,147.945Z"/>
        <path class="cls-16" d="M507.038,178.875c14.072,4.689,29.46,6.734,43.021-.572,11.1-5.978,18.851-16.548,27.151-25.7,3.459-3.814-2.194-9.5-5.669-5.669-7.365,8.12-14.211,17.617-23.711,23.4-12.048,7.336-25.921,5.053-38.66.807-4.906-1.635-7.01,6.1-2.131,7.731Z"/>
        <g>
          <path class="cls-31" d="M530.261,185.691l-18.735-2.679c-6.821-1.687-7.624-4.769-7.407-7.433l.054-.666c.275-3.389,4.131-6.559,8.657-6.191l18.693,1.519a3.022,3.022,0,0,1,2.767,3.257l-.78,9.6A2.855,2.855,0,0,1,530.261,185.691Z"/>
          <rect class="cls-32" x="519.952" y="176.006" width="14.825" height="2.863" transform="translate(746.948 -333.816) rotate(94.647)"/>
        </g>
      </g>
      <path class="cls-35" d="M508.495,220.406l-20.424,1.235-20.424-1.235a2.248,2.248,0,0,0-2.251,1.739c-1.294,4.678-4.107,17.918-.719,35.669,1.238,6.488,16.84,6.976,23.394,6.892,6.554.084,22.156-.4,23.394-6.892,3.387-17.751.575-30.992-.719-35.669A2.248,2.248,0,0,0,508.495,220.406Z"/>
      <path class="cls-31" d="M465.445,234.085c14.136,1.516,28.956,1.1,46.33-.35a3.214,3.214,0,0,0,3.108-2.817c.553-9.395-.157-43.342-.813-51.785-.458-5.9-1.277-12-7.735-14.664-2.1-.866-16.122-2.421-17.967-1.3a.76.76,0,0,1-1.517,0c-1.843-1.124-15.87.43-17.967,1.3-6.46,2.668-12.067,5.726-10.424,14.034,5.629,28.459,2.932,44.017,3.574,53.578C462.131,233.528,463.78,233.906,465.445,234.085Z"/>
      <path class="cls-32" d="M473.943,161.637s1.881,7.045,15.051,7.045,14.77-7.3,14.77-7.3l-8.666-3.876-17.888,2.377Z"/>
      <path class="cls-16" d="M496.458,252.536c2.357,19.9,5.075,39.777,9.879,59.252,4.614,18.7,10.167,37.169,14.866,55.855,2.015,8.014,14.41,4.619,12.39-3.416-4.615-18.354-10.039-36.5-14.618-54.856-4.66-18.688-7.4-37.727-9.668-56.836-.961-8.112-13.821-8.209-12.849,0Z"/>
      <rect class="cls-25" x="518.83" y="354.062" width="15.633" height="23.556" rx="2.017" ry="2.017" transform="translate(-17.342 26.323) rotate(-2.817)"/>
      <g>
        <g>
          <path class="cls-33" d="M535.382,384.436l-37.614.135h0c-.657-6.1,3.235-11.04,8.694-11.04h29.119Z"/>
          <path class="cls-25" d="M515.263,384.436l-17.5.135h0c-.625-6.1,3.077-11.04,8.271-11.04H507.7c4.177,0,7.564,4.179,7.564,9.334Z"/>
          <path class="cls-34" d="M499.743,388.016h34.431a2.023,2.023,0,0,0,2.047-1.976h0a2.022,2.022,0,0,0-2.047-2.019H499.743A2.023,2.023,0,0,0,497.7,386h0A2.022,2.022,0,0,0,499.743,388.016Z"/>
          <path class="cls-34" d="M516.091,375.167l4.392-4.359a15.223,15.223,0,0,0,13.776.062,1.331,1.331,0,0,1,1.325,1.332l0,2.965Z"/>
          <rect class="cls-33" x="516.091" y="363.204" width="11.758" height="16.455" rx="5.183" ry="5.183" transform="translate(1043.941 742.863) rotate(180)"/>
        </g>
        <path class="cls-34" d="M519,376.354l-4.247-1.249a1.125,1.125,0,0,1,.6-2.168l4.247,1.249a1.125,1.125,0,0,1-.6,2.168Z"/>
        <path class="cls-34" d="M514.232,376.766a6.446,6.446,0,0,0-2.93-1.1,1.156,1.156,0,0,1-1.124-1.124,1.132,1.132,0,0,1,1.124-1.124,8.83,8.83,0,0,1,4.065,1.4c1.2.8.076,2.744-1.135,1.941Z"/>
      </g>
      <path class="cls-35" d="M520,306.447l-16.559,2.193a2.226,2.226,0,0,1-2.469-1.842l-8.559-52.437a10.141,10.141,0,0,1,8.7-11.78h0a10.906,10.906,0,0,1,12.1,9.025l8.559,52.437A2.07,2.07,0,0,1,520,306.447Z"/>
      <path class="cls-36" d="M495.418,95.144s17.75,6.532,16.59,24.091-9.708,27.554-19.543,28.177c-10.973.695-15.118-40.521-15.118-40.521Z"/>
      <path class="cls-16" d="M477.369,159.941s1.952,5.459,12.159,5.55c7.961.071,10.755-5.729,10.755-5.729l-7.584-4.551-8.172.143Z"/>
      <path class="cls-16" d="M491.335,161.506l-3.078-.034a5.175,5.175,0,0,1-4.812-5.273l-.244-14.886a4.849,4.849,0,0,1,4.644-5.174l3.078.034a5.175,5.175,0,0,1,4.812,5.273l.244,14.886A4.849,4.849,0,0,1,491.335,161.506Z"/>
      <path class="cls-22" d="M483.243,148.671l11.562-4.1-.121,2.6c-.887,3.155-7.345,7.942-11.275,6.829Z"/>
      <path class="cls-16" d="M480.615,152.3l-.32,0c-9.714-.149-17.534-8.61-17.377-18.8l1.326-12.142c-.174-13.559,7.4-18.256,17.111-18.106l.079-.008c9.714.149,17.507,6.237,17.35,16.428l-.221,14.376C498.406,144.234,490.329,152.45,480.615,152.3Z"/>
      <path class="cls-23" d="M472.8,137.549,483.69,138a1.377,1.377,0,0,1,1.176,1.985c-.963,1.978-3.018,4.766-6.905,4.6s-5.7-3.111-6.5-5.163A1.377,1.377,0,0,1,472.8,137.549Z"/>
      <ellipse class="cls-37" cx="488.103" cy="128.869" rx="3.124" ry="2.232" transform="matrix(0.042, -0.999, 0.999, 0.042, 339, 611.176)"/>
      <ellipse class="cls-37" cx="471.981" cy="128.274" rx="3.124" ry="2.232" transform="translate(324.146 594.498) rotate(-87.611)"/>
      <path class="cls-38" d="M486.052,123.293a19.767,19.767,0,0,1,5.329.649,1.3,1.3,0,0,0,1.594-1.047l0-.011a1.3,1.3,0,0,0-.885-1.459,16.22,16.22,0,0,0-6.173-.742,1.3,1.3,0,0,0-1.2,1.223v.008A1.307,1.307,0,0,0,486.052,123.293Z"/>
      <path class="cls-38" d="M467.775,121.974a19.769,19.769,0,0,1,5.361.269,1.3,1.3,0,0,0,1.516-1.157v-.011a1.3,1.3,0,0,0-.986-1.392,16.219,16.219,0,0,0-6.21-.3,1.3,1.3,0,0,0-1.108,1.305v.008A1.307,1.307,0,0,0,467.775,121.974Z"/>
      <ellipse class="cls-16" cx="501.324" cy="130.926" rx="6.082" ry="4.655" transform="translate(268.396 593.756) rotate(-77.922)"/>
      <path class="cls-22" d="M491.121,136.312l1.942.2a1.433,1.433,0,0,0,1.57-1.271h0a1.433,1.433,0,0,0-1.271-1.57l-1.942-.2a1.433,1.433,0,0,0-1.57,1.271h0A1.433,1.433,0,0,0,491.121,136.312Z"/>
      <path class="cls-22" d="M465.469,133.546l1.942.2a1.433,1.433,0,0,0,1.57-1.271h0a1.433,1.433,0,0,0-1.271-1.57l-1.942-.2a1.433,1.433,0,0,0-1.57,1.271h0A1.433,1.433,0,0,0,465.469,133.546Z"/>
      <path class="cls-36" d="M495.677,95.128a41.2,41.2,0,0,0-5.038-1.163c-29.8-6.4-30.353,14.269-28.485,25.882.436,2.714,3.3,3.971,5.274,2.311,7.5-6.327,19.5,1.567,26.466-13.174Z"/>
      <path class="cls-38" d="M461.426,116.875c6.04-2.4,16.009.918,23.5-2.662,5.7-2.723,8.811-9.783,7.437-16.538-.446-2.195-1.481-4.08-3.633-4.566-23.424-5.292-28.5,13.276-29.6,21.6A1.832,1.832,0,0,0,461.426,116.875Z"/>
      <path class="cls-36" d="M492.325,107.087c6.815,5.485,4.51,25.225,6.7,24.629,6.167-1.675,3.8-27.612,3.8-27.612Z"/>
      <g>
        <path class="cls-39" d="M491.281,91.041a5.063,5.063,0,0,1-5.03,4.94,4.8,4.8,0,0,1-4.815-4.94,5.063,5.063,0,0,1,5.03-4.94A4.8,4.8,0,0,1,491.281,91.041Z"/>
        <path class="cls-39" d="M507.063,118.467H466.446a5.643,5.643,0,0,1-5.655-5.8h0a24.557,24.557,0,0,1,24.4-23.961h4.433a23.3,23.3,0,0,1,23.353,23.961h0A5.947,5.947,0,0,1,507.063,118.467Z"/>
        <path class="cls-40" d="M491.245,118.467H465.087A4.079,4.079,0,0,1,461,114.272l.179-8.247A17.752,17.752,0,0,1,478.813,88.7h0a16.844,16.844,0,0,1,16.882,17.321l-.179,8.247A4.3,4.3,0,0,1,491.245,118.467Z"/>
        <path class="cls-32" d="M481.337,87.722c-8.047,2.349-7.445,12.78-6.915,19.433.148,1.859,3.066,1.875,2.917,0-.4-5.063-1.517-14.784,4.773-16.62a1.46,1.46,0,0,0-.775-2.813Z"/>
        <path class="cls-39" d="M461.475,113.5c10.667-6.714,23.8-5.078,32.115,4.523,1.231,1.422,3.286-.649,2.063-2.063-9.144-10.563-23.925-12.359-35.65-4.979-1.585,1-.123,3.523,1.472,2.519Z"/>
        <path class="cls-33" d="M458.829,113.425l-11.349,7.3a1.3,1.3,0,0,0,.946,2.393c6.025-1.393,13.8-2.017,20.274,1.319a10.042,10.042,0,0,0,8.116.347L494.1,118.3A26.505,26.505,0,0,0,458.829,113.425Z"/>
      </g>
    </g>
    <g>
      <path class="cls-16" d="M427.487,158.108l.123,6.173a1.855,1.855,0,0,0,1.981,1.8l1.505-.094a1.845,1.845,0,0,1,1.816,2.6l-4.511,9.867a1.864,1.864,0,0,1-1.672,1.083l-7.92.111a8.358,8.358,0,0,1-7.4-4.227h0a11.624,11.624,0,0,1-1.259-4.513l-.886-12.822a1.851,1.851,0,0,1,1.883-1.967l14.5.185A1.853,1.853,0,0,1,427.487,158.108Z"/>
      <polygon class="cls-41" points="425.944 168.03 425.614 168.026 425.625 167.997 425.958 167.993 425.944 168.03"/>
      <rect class="cls-6" x="419.87" y="168.064" width="2.029" height="0.029" transform="translate(-2.312 5.909) rotate(-0.802)"/>
      <rect class="cls-6" x="419.825" y="161.831" width="2.029" height="6.233" transform="translate(-2.321 6.049) rotate(-0.821)"/>
      <polygon class="cls-6" points="427.435 146.141 427.537 146.139 427.617 151.755 427.533 151.756 427.435 146.141"/>
      <polygon class="cls-41" points="418.484 168.091 412.62 168.202 412.62 168.129 418.335 168.051 418.484 168.091"/>
      <path class="cls-16" d="M434.219,165.783c-.081-.3-.687-16.178-.687-16.178s-4.008-.962-4,6.672c0,.222.216,1.6.489,3.268l-.332,6.156Z"/>
      <path class="cls-16" d="M431.481,160.591s-5.99,4.6-5.523,14.469l4.385-.854,3.876-8.394Z"/>
      <rect class="cls-6" x="405.254" y="124.916" width="26.096" height="47.211" rx="2.033" ry="2.033" transform="translate(838.641 291.174) rotate(179.198)"/>
      <path class="cls-42" d="M408.216,164.851l20.693-.289.092-.095-.518-36.15-.095-.092-20.693.289-.092.095.518,36.15Z"/>
      <circle class="cls-42" cx="418.302" cy="168.091" r="2.016"/>
    </g>
  </g>
</svg>
