<svg id="Layer_1" data-name="Layer 1" xmlns="http://www.w3.org/2000/svg" viewBox="0 0 233.675 373.771">
  <defs>
    <style>
      .cls-1 {
        opacity: 0.85;
      }

      .cls-2 {
        fill: #f5f6f8;
      }
    </style>
  </defs>
  <title>489e5153-2494-45d2-a226-246b9bbf5be9</title>
  <g class="cls-1">
    <path class="cls-2" d="M28.933,344.964l-1.44-3.5a7.333,7.333,0,0,1,.139,2.01C27.763,344.321,28.333,344.55,28.933,344.964Z" transform="translate(0)"/>
    <path class="cls-2" d="M26.331,338.17l-.216-.635c-.123-.17-.245-.332-.363-.475C25.953,337.426,26.147,337.8,26.331,338.17Z" transform="translate(0)"/>
    <path class="cls-2" d="M23.559,332.178a16.35,16.35,0,0,0,1.253,3.115A10.3,10.3,0,0,0,23.559,332.178Z" transform="translate(0)"/>
    <path class="cls-2" d="M24.967,337.263c.124-.483.333-.774.771-.226l.015.024c-.315-.582-.632-1.157-.94-1.768A7.532,7.532,0,0,1,24.967,337.263Z" transform="translate(0)"/>
    <path class="cls-2" d="M24.967,337.263c-.119.465-.141,1.145-.214,1.4A7.4,7.4,0,0,0,24.967,337.263Z" transform="translate(0)"/>
    <path class="cls-2" d="M18.029,338.084c-.443-.571,1.414-1.088.537-2.205-.8-1.4-1.676-2.653-2.418-3.935a22.591,22.591,0,0,1-1.78-4.022c-.819-1.177.582-3.846-.229-5.007-.357-.725-.967-1.7-1.569-2.714-.582-1.019-1.224-2.059-1.786-2.865-1.125-1.613-1.929-2.289-1.281.053l.753,2.517c.234.808.491,1.577.785,2.311l1.63,4.224,1.6,4.074.814,2.1.961,2.175c1.292,2.352,2.6,4.631,3.9,6.912l.971,1.713,1.063,1.683,2.121,3.418a27.935,27.935,0,0,1,1.578,4.03c-.477-1.815-.97-3.661-1.555-5.683-.305-1.365-1.386-2.549-2.606-3.908A24.183,24.183,0,0,1,18.029,338.084Z" transform="translate(0)"/>
    <path class="cls-2" d="M40.728,370.267l-1.566-1.375a9.961,9.961,0,0,0-1.552-4.329c-.4-.653-.871-1.269-1.335-1.895-.445-.636-.918-1.261-1.391-1.888l-.211,1.683c.451.77.829,1.129,1.052,1.093s.236-.437.069-1.243a26.8,26.8,0,0,0,4.345,9.679C40.469,371.529,41,371.252,40.728,370.267Z" transform="translate(0)"/>
    <path class="cls-2" d="M41.322,373.682c-.4-.56-.8-1.128-1.185-1.69a1.3,1.3,0,0,0-.1.151l1.287,1.627Z" transform="translate(0)"/>
    <path class="cls-2" d="M17.586,319.342c-1.108-4.278-2.2-8.433-3.1-12.536l-1.1-6.144-.527-3.033c-.179-1.006-.352-2.01-.443-3.023-.454-.56-.942-.93-.833-1.8A7.646,7.646,0,0,0,12,290.818q-.189-1.77-.376-3.526l-.317-1.22-.014-.033c-.306-.634-.573-.406-.8.036a7.331,7.331,0,0,1-.523,1.319c.129-.249.3-.888.523-1.319a7.422,7.422,0,0,0,.284-1.957,16.018,16.018,0,0,1-.347-3.364,10.554,10.554,0,0,1,.347,3.364l.53,1.954.25.551c-.349-2.683-.376-5.381-.512-8.066-.1-.613-.188-1.2-.291-1.674-.4-1.923-.839-3.855.031-5.1.008-.475.017-.96.025-1.444-.057.092-.1.192-.166.285a4.715,4.715,0,0,1,.168-.549q.051-3.038.1-6.1c-.387-1.311-.9-2.671-1.172-4.039l1-1.362a4.587,4.587,0,0,1-.885-2.289c-.61,1.09-1.275,2.088-1.7,3.029-1.026,1.389,1.973,3.079.179,4.722,1.794-1.642-1.2-3.332-.179-4.722.424-.941,1.089-1.94,1.7-3.029a11.432,11.432,0,0,1,1.139-6.4c.732,2.528-.119,4.575-1.139,6.4a4.587,4.587,0,0,0,.885,2.289l-1,1.362c.276,1.368.784,2.728,1.172,4.039-.032-3.98.413-7.988.669-12.078a258.142,258.142,0,0,1,6.208-37.979,187.643,187.643,0,0,1,13.441-36.6A165.912,165.912,0,0,1,54.863,142.2c9.052-10.226,17.743-19.845,27.471-28.48l3.691-3.183,1.857-1.581c.64-.5,1.3-.982,1.952-1.471,2.627-1.934,5.245-3.893,7.984-5.712q4.217-2.583,8.589-5.009c2.965-1.542,6.1-2.856,9.237-4.169q.9-.385,1.866-.848l2.042-.89c1.4-.626,2.876-1.33,4.391-2.092,1.525-.743,3.052-1.624,4.67-2.395s3.267-1.549,4.9-2.354,3.247-1.646,4.852-2.414l4.746-2.095,4.341-1.947c1.351-.633,2.672-1.037,3.823-1.49,5.716-3.666,6.445-6.949,5.555-9.3a7.76,7.76,0,0,0-3.808-3.891,18.692,18.692,0,0,0-7.195-1.226,22.079,22.079,0,0,0-3.43.376c-1.134.267-2.292.61-3.509,1-2.433.789-5.111,1.751-8.317,2.763a95.5,95.5,0,0,1-11.4,3.439c3.069-.842,4.2-.75,3.991-.14-.2.634-1.777,1.688-4.031,3.046a58.107,58.107,0,0,1-8.464,4.246c-1.638.619-3.239,1.34-4.872,1.9a32.736,32.736,0,0,1-4.824,1.3c-4.652.655-9.026,2.736-13.467,5.258a50.351,50.351,0,0,0-6.437,4.441c-2.095,1.648-4.222,3.344-6.261,5.187-1.992,1.9-3.975,3.849-5.96,5.807-.983.989-2.007,1.937-2.958,2.959l-2.841,3.075c-1.892,2.044-3.837,4.017-5.75,5.979-1.847,2.025-3.731,3.973-5.675,5.811-.97.92-1.926,1.884-2.861,2.9-.888,1.057-1.769,2.154-2.662,3.284l-5.619,7.133a150.028,150.028,0,0,0-25.146,41.7c-6.2,15.069-10.515,31.01-13.927,48.056a26.869,26.869,0,0,0-.488,3.372q-.166,1.673-.262,3.308c-.132,2.179-.183,4.306-.2,6.384.1,4.169.51,8.153.641,12-.072,1.4-.085,2.82-.177,4.235s-.22,2.825-.361,4.2a57.785,57.785,0,0,0-.549,7.674c.091,3.584.344,6.916.7,10.072.5,3.149,1.134,6.121,1.783,9.007-.432-3.254-.885-6.071-1.307-8.992-.282-2.928-.557-5.96-.787-9.634-.232-4.888,2.54,3.393,3.16,6.541.459,1.345-1.635,3.608-1.052,4.965.239,2.992,1.316,5.671,2.11,8.8.543,1.321-1.4,1.367-1.105,2.028,1.021,4.316,3.911,7.29,3.762,10.1q0,.8,0,1.562.032.76.063,1.492c.034.981.068,1.93.1,2.867a23.456,23.456,0,0,0,.563,3.544l.92,2.228a4.137,4.137,0,0,1,1.784-1.464c.134,1.133-.048,2.817.164,3.94-.212-1.123-.03-2.807-.164-3.94a4.137,4.137,0,0,0-1.784,1.464c.28.672.532,1.363.836,2.052l.941,2.089,1.874,4.293,1.832,4.351c.646,1.434,1.341,2.841,1.981,4.229l.14-.127c-.31-.831-.6-1.664-.85-2.505a15.629,15.629,0,0,1-.6-2.572,25.216,25.216,0,0,1-.256-5.481c-.027,1.636-.59,1.583-1.141-.148l.6-1.569c1.314,2.919,2.514,5.8,2.013,9.034l1.217,1.738c.041,1.023-.55,1.155-.979,1.5.239.648.5,1.3.766,1.949C17.771,324.073,17.586,319.342,17.586,319.342Z" transform="translate(0)"/>
    <path class="cls-2" d="M10.826,284.033c.125.466.247,1.041.378,1.653L11.041,284l-.07-1.7q-.068-1.7-.137-3.4C10,280.175,10.413,282.109,10.826,284.033Z" transform="translate(0)"/>
  </g>
  <g class="cls-1">
    <path class="cls-2" d="M173.989,131.317l1.54-1.818a3.752,3.752,0,0,1-1.28.526C173.756,130.3,173.928,130.776,173.989,131.317Z" transform="translate(0)"/>
    <path class="cls-2" d="M176.953,127.819l.273-.322c.034-.135.063-.268.083-.392C177.2,127.348,177.078,127.587,176.953,127.819Z" transform="translate(0)"/>
    <path class="cls-2" d="M179.086,124.239a6.468,6.468,0,0,0-1.221,1.719A4.1,4.1,0,0,0,179.086,124.239Z" transform="translate(0)"/>
    <path class="cls-2" d="M176.706,126.567c.381-.027.694.056.61.521l-.006.017c.179-.382.354-.764.555-1.148A3.5,3.5,0,0,1,176.706,126.567Z" transform="translate(0)"/>
    <path class="cls-2" d="M176.706,126.567c-.367.026-.81.178-1.018.186A4.513,4.513,0,0,0,176.706,126.567Z" transform="translate(0)"/>
    <path class="cls-2" d="M171.965,121.6c.084-.46,1.546.788,1.707-.125.75-1.855,1.067-3.69,2.158-5.13.155-.915,2.637-.655,2.793-1.569.748-1.865,1.675-7.366.009-4.975-2.421,3.658-3.737,6.241-5.842,9.57-1.33,3-2.469,5.989-3.929,8.985a10.343,10.343,0,0,1-1.761,1.957c.924-.7,1.862-1.425,2.869-2.257C171.422,127.061,170.716,123.953,171.965,121.6Z" transform="translate(0)"/>
    <path class="cls-2" d="M162.071,144.277l.318-1.368c2.27-.518,3.061-2.4,3.876-4.234l-1.289.064c-.614.927-.281,1.367.667.867a12.131,12.131,0,0,0-5.1,4.316C161.032,144.16,161.467,144.575,162.071,144.277Z" transform="translate(0)"/>
    <path class="cls-2" d="M159.837,145c.231-.367.471-.73.712-1.078-.048-.029-.1-.048-.155-.074L159.772,145Z" transform="translate(0)"/>
    <path class="cls-2" d="M183.012,116.2c3.263-4.423,6.46-8.49,9.657-12.406-.065-.536-.247-1.014.248-1.295a3.738,3.738,0,0,0,1.261-.532l1.411-1.7.349-.711,0-.023c.076-.461-.234-.542-.614-.509a4.6,4.6,0,0,1-1.02.2c.215-.017.649-.163,1.02-.2a3.451,3.451,0,0,0,1.15-.619,6.364,6.364,0,0,1,1.208-1.722,4.06,4.06,0,0,1-1.208,1.722c-.2.386-.366.77-.541,1.151l-.078.391,3.257-3.846c.193-.337.382-.657.512-.934.529-1.122,1.056-2.242,2.251-2.275l.591-.681c-.081.008-.156.029-.242.034a2.267,2.267,0,0,1,.349-.159l2.5-2.878a27.169,27.169,0,0,1,.662-2.665l1.279-.1a2.55,2.55,0,0,1,.1-1.708c-.872.2-1.754.308-2.42.533-1.281.1.375,2.687-1.677,2.39,2.051.3.4-2.293,1.677-2.39.667-.225,1.548-.336,2.42-.533a4.791,4.791,0,0,1,3.185-2.609c-.3,1.727-1.724,2.284-3.185,2.609a2.55,2.55,0,0,0-.1,1.708l-1.279.1a27.169,27.169,0,0,0-.662,2.665l4.984-5.7c4.613-5.171,8.919-10.291,13.278-15.329,1.084-1.272,2.183-2.509,3.292-3.725l2.1-2.368c.706-.836,1.377-1.7,2-2.6a17.449,17.449,0,0,0,2.681-5.853,10.016,10.016,0,0,0-.608-6.411c-1.326-2.867-4.06-5-7.291-6.727l-7.253-3.666-6.252-3.044-12.29-5.822c-16.165-7.6-32.429-9.223-47.488-19.065-2.9-1.8-7.291-3.443-11.642-4.938S131.938,1.088,129.078.007c-4.346-.142-6.481,2.052-7.439,4.378a9.993,9.993,0,0,0-.631,5.091,10.318,10.318,0,0,0,5.819,7.519c1.393.77,2.983,1.544,4.807,2.527a42.978,42.978,0,0,1,6.173,4.181c-3.219-2.325-1.509-2.939,1.62-2.131,3.13.836,7.722,2.98,10.413,6.34,7.734,10.093,23.507,8.439,34.771,13.843,2.832,1.342,6.033,2.02,9.482,3.277,5.241,2.544,10.467,4.571,15.536,6.584,1.265.5,2.578.952,3.808,1.474l.938.376.469.187.219.086.008-.006a.581.581,0,0,1,.074-.049.781.781,0,0,1,.579-.062.509.509,0,0,1,.3.718,1.276,1.276,0,0,1-.113.23c-.02.034-.01.012.011,0l.007,0-.06.071-.125.15-.251.3-1.012,1.2c-1.361,1.6-2.605,3.147-3.973,4.72-3.463,4.358-5.022,9.254-7.056,13.489-1.786,2.86-4.717,5.13-6.36,7.3a47.967,47.967,0,0,0-5.724,10.067c2.1-3.348,3.419-5.951,5.859-9.621,1.684-2.4.72,3.114-.02,4.983-.159.92-2.643.668-2.8,1.591-1.087,1.439-1.4,3.278-2.139,5.147-.158.92-1.633-.317-1.713.142-1.244,2.365-.506,5.473-1.942,6.5-1,.847-1.931,1.587-2.844,2.3a8.644,8.644,0,0,0-1.4,1.659l-.48,1.434a5.371,5.371,0,0,1,2.01.708c-.5.492-1.435,1.017-1.94,1.507.505-.489,1.437-1.015,1.94-1.507a5.371,5.371,0,0,0-2.01-.708c-1.2,3.44-2.8,7.245-4.4,10.7l.166.064a11.408,11.408,0,0,1,4.88-4.521c-.928.522-1.28.1-.7-.852l1.279-.1c-.742,1.87-1.477,3.743-3.691,4.364l-.238,1.377c-.583.327-1.046-.06-1.533-.269-.229.358-.446.732-.657,1.112A16.25,16.25,0,0,0,183.012,116.2Z" transform="translate(0)"/>
    <path class="cls-2" d="M196.556,98.4c-.129.274-.314.59-.51.928l2.76-3.211C197.61,96.153,197.084,97.277,196.556,98.4Z" transform="translate(0)"/>
  </g>
</svg>
