<svg xmlns="http://www.w3.org/2000/svg" viewBox="0 0 293.524 608.486">
  <defs>
    <style>
      .cls-1 {
        isolation: isolate;
      }

      .cls-2 {
        fill: #8e8cc4;
      }

      .cls-3 {
        fill: #fff;
      }

      .cls-4 {
        fill: #4d3651;
      }

      .cls-5 {
        fill: #7b7baf;
      }

      .cls-6 {
        fill: #dbdad9;
      }

      .cls-7 {
        fill: #ffaa82;
      }

      .cls-8 {
        fill: #f9d9e0;
      }

      .cls-9 {
        fill: #93aecc;
        opacity: 0.39;
        mix-blend-mode: multiply;
      }

      .cls-10 {
        fill: #bdc5c6;
      }

      .cls-11 {
        fill: #402742;
      }

      .cls-12 {
        fill: #fcfeff;
      }

      .cls-13 {
        fill: #f18c9d;
      }

      .cls-14 {
        fill: #9e6944;
      }

      .cls-15 {
        fill: #895a3a;
      }

      .cls-16 {
        fill: #774e32;
      }

      .cls-17 {
        fill: #ea8a6c;
      }

      .cls-18 {
        fill: #f9f6f2;
      }

      .cls-19 {
        fill: #511f28;
      }

      .cls-20 {
        fill: #e5e1e1;
      }

      .cls-21 {
        fill: #c4aec1;
      }

      .cls-22 {
        fill: #6a486d;
      }

      .cls-23 {
        fill: #5bc7ab;
      }

      .cls-24 {
        fill: #533656;
      }

      .cls-25 {
        fill: #98dac6;
      }
    </style>
  </defs>
  <title>9355154b-a121-48a1-8729-b367864819f4</title>
  <g class="cls-1">
    <g id="Layer_1" data-name="Layer 1">
      <g>
        <path class="cls-2" d="M188.973,128.6H262.71a11.031,11.031,0,0,1,11.031,11.031v88.452a35.628,35.628,0,0,1-35.628,35.628H213.571a35.628,35.628,0,0,1-35.628-35.628V139.626a11.03,11.03,0,0,1,11.03-11.03Z" transform="translate(451.683 392.301) rotate(-180)"/>
        <path class="cls-3" d="M183.771,128.6H252a8.956,8.956,0,0,1,8.956,8.956v61.166a28.927,28.927,0,0,1-28.927,28.927H203.742a28.927,28.927,0,0,1-28.927-28.927V137.552a8.956,8.956,0,0,1,8.956-8.956Z" transform="translate(435.774 356.241) rotate(-180)"/>
        <path class="cls-4" d="M250.954,209.768h22.279a2.474,2.474,0,0,1,2.474,2.474v48.5a2.474,2.474,0,0,1-2.474,2.474H244.028a2.474,2.474,0,0,1-2.474-2.474V219.169a9.4,9.4,0,0,1,9.4-9.4Z" transform="translate(517.261 472.987) rotate(180)"/>
        <path class="cls-2" d="M275.707,220.411v-8.278a2.491,2.491,0,0,0-2.587-2.365H244.141a2.491,2.491,0,0,0-2.587,2.365v8.16Z"/>
        <path class="cls-5" d="M171.762,263.705h73.586c6.816,0,12.394-4.567,12.394-10.148V157.822c0-16.566-16.554-30.121-36.786-30.121h-24.8c-20.232,0-31.679,13.008-32.064,30.121l-4.722,95.736C159.368,259.139,164.945,263.705,171.762,263.705Z"/>
        <path class="cls-2" d="M275.811,236.929V253.16c0,5.8-5.192,10.546-11.537,10.546H191.55c-6.345,0-11.537-4.746-11.537-10.546V236.929Z"/>
        <path class="cls-4" d="M257.646,236.929v16.629c0,5.581-5.577,10.148-12.394,10.148H171.666c-6.816,0-12.394-4.567-12.394-10.148l.82-16.629Z"/>
        <rect class="cls-6" x="159.565" y="236.494" width="98.302" height="4.021" transform="translate(417.432 477.008) rotate(-180)"/>
        <rect class="cls-3" x="247.591" y="236.494" width="28.633" height="4.021" transform="translate(523.815 477.008) rotate(180)"/>
      </g>
      <path class="cls-7" d="M18.755,133.34l9.912-5.445,2.276-4.72,12.021,14.257c.447.267.889.523,1.324.774,1.152-2.079,2.39-4.695,3.757-7.32,3.14-6.027,6.529-7,8.848-6.738a2.474,2.474,0,0,1,2.032,3.315l-3.884,10.584-3.77,11.041c.4,2.757.773,5.908,1.079,8.708a13.357,13.357,0,0,1-5.4,12.236h0a13.369,13.369,0,0,1-18.074-2.124L13.993,150.418s-2.014-2.756-2.006-2.771Z"/>
      <path class="cls-7" d="M121.893,149.616,87.629,198.683c-1.126,1.613-2.261,3.922-3.972,4.846-3.108,1.679-5.543-.233-7.346-2.939-5.8-8.7-11.12-17.76-16.668-26.622l-15.929-25.44c-6.2-9.9-21.941-.779-15.705,9.18,10.921,17.442,21.661,35.013,32.769,52.336,9.7,15.119,29.485,16.007,40.107,1.327,6.125-8.465,11.973-17.145,17.955-25.711L137.6,158.8c2.814-4.029.735-10.1-3.263-12.443-4.533-2.651-9.623-.776-12.443,3.263Z"/>
      <path class="cls-8" d="M108.285,204.662,87.254,186.735a2.3,2.3,0,0,1-.25-3.258l33.346-38.665a13.967,13.967,0,0,1,19.7-1.455h0c5.841,5.038,5.811,12.16,1.455,19.7l-23.43,39.954A6.477,6.477,0,0,1,108.285,204.662Z"/>
      <rect class="cls-9" x="24.001" y="600.119" width="269.523" height="8.367" rx="3.106" ry="3.106"/>
      <g>
        <polygon class="cls-10" points="1.206 162.521 9.476 150.475 15.284 158.49 1.206 162.521"/>
        <polygon class="cls-11" points="0 163.485 4.084 158.329 6.203 161.09 0 163.485"/>
        <polygon class="cls-2" points="15.178 158.503 9.488 150.581 45.456 124.873 50.585 132.77 15.178 158.503"/>
        <polygon class="cls-12" points="49.284 131.64 48.816 130.987 13.755 156.361 14.223 157.015 49.284 131.64"/>
        <polygon class="cls-12" points="46.007 127.108 45.539 126.454 10.522 151.796 10.99 152.45 46.007 127.108"/>
        <path class="cls-10" d="M55.438,125.472l-1.954-2.723a3,3,0,0,0-4.191-.679l-4.414,3.2,5.447,7.59,4.437-3.216A3,3,0,0,0,55.438,125.472Z"/>
        <polygon class="cls-13" points="53.037 130.894 47.59 123.305 44.879 125.27 50.326 132.859 53.037 130.894"/>
      </g>
      <path class="cls-14" d="M205.066,29.363c1.655,1.664-.373-13.65,1.169-11.884,8.32,9.532,16.728,38.97,16.682,51.265s-1.256,36.61-9.644,45.369c-1.138-4.784-3.45-21.947-2.722-26.729a62.4,62.4,0,0,0-.222-19.985c-.6-3.449-1.478-6.855-2.358-10.256-1.96-7.571-4.041-15.273-6-22.844Z"/>
      <path class="cls-14" d="M125.587,104.973c-1.4-10.764-4.8-21.153-7.229-31.732s-2.7-16.042-.9-26.747C122.22,18.2,134.585,8.35,144.884,4.92Z"/>
      <path class="cls-15" d="M130.175,118l73.2.2a10.955,10.955,0,0,0,11.25-11.926l-2.538-69.983-43.53-20.06L134.654,50.376l-8.32,54.179C125.264,111.521,122.831,117.975,130.175,118Z"/>
      <polygon class="cls-16" points="198.423 117.812 146.671 117.812 144.016 57.418 195.768 57.418 198.423 117.812"/>
      <path class="cls-8" d="M164.762,120.512c2.807-1.572,10.365-2.924,11.329-2.556.963-.355,5.989.326,8.8,1.936,17.092,9.8,44.021,16.261,43.8,31.883,0,0,.684,11.02-8.3,10.958L176.1,161.74l-37.125-.152c-8.979-.062-11.85-14.505-11.85-14.505C127.145,132.351,147.676,130.077,164.762,120.512Z"/>
      <path class="cls-7" d="M168.42,143.507c20.134.386,33.656-6.16,40.874-12.029-7.642-4.346-15.854-7.073-23.222-11.238-2.813-1.59-9.782-2.624-10.747-2.262a12.147,12.147,0,0,0-7.959.856c-7.882,4.463-21.121,9.966-29.462,14.121C144.341,137.532,149.459,143.143,168.42,143.507Z"/>
      <rect class="cls-7" x="164.578" y="82.568" width="20.982" height="56.874" rx="9.63" ry="9.63"/>
      <path class="cls-8" d="M227.708,157.532l-32.7,2.549-39.67-.762-27.923-12.231s1.45,30.487,8.355,53.668l1.459,41.918c1.5,9.017,68.687,8.109,69.868,3.176L213.83,202.8Z"/>
      <path class="cls-17" d="M164.49,104.886l21.3-8.546-.3,5.212c-1.719,6.356-13.69,16.141-20.857,14.017Z"/>
      <path class="cls-7" d="M160.968,109.052l-.58-.065c-17.59-1.966-30.295-18.674-28.232-37.129l4.524-21.788c2.05-24.619,16.6-31.815,34.189-29.849h.144c17.59,1.966,30.661,14.364,28.6,32.819L196.7,79.072C194.638,97.527,178.558,111.018,160.968,109.052Z"/>
      <path class="cls-18" d="M149.371,80.937l19.668,2.724a2.509,2.509,0,0,1,1.787,3.8c-2.092,3.42-6.3,8.117-13.326,7.144s-9.8-6.637-10.883-10.5A2.509,2.509,0,0,1,149.371,80.937Z"/>
      <ellipse class="cls-19" cx="178.452" cy="67.517" rx="5.37" ry="3.837" transform="translate(87.092 235.019) rotate(-82.115)"/>
      <ellipse class="cls-19" cx="148.481" cy="63.366" rx="5.37" ry="3.837" transform="translate(65.344 201.75) rotate(-82.115)"/>
      <path class="cls-14" d="M175.528,55.737a36.014,36.014,0,0,1,9.55,2.107,2.358,2.358,0,0,0,3.073-1.62l.005-.019a2.375,2.375,0,0,0-1.35-2.8,29.548,29.548,0,0,0-11.065-2.423,2.373,2.373,0,0,0-2.386,2.009l0,.014A2.382,2.382,0,0,0,175.528,55.737Z"/>
      <path class="cls-14" d="M141.819,52.032a36.016,36.016,0,0,1,9.676,1.423,2.358,2.358,0,0,0,2.95-1.834l0-.019a2.375,2.375,0,0,0-1.545-2.7,29.551,29.551,0,0,0-11.209-1.631,2.373,2.373,0,0,0-2.237,2.173v.014A2.382,2.382,0,0,0,141.819,52.032Z"/>
      <path class="cls-17" d="M182.809,81.89l3.485.71a2.61,2.61,0,0,0,3.069-2.031h0a2.61,2.61,0,0,0-2.031-3.069l-3.485-.71a2.61,2.61,0,0,0-3.069,2.031h0A2.61,2.61,0,0,0,182.809,81.89Z"/>
      <path class="cls-17" d="M136.774,72.4l3.485.71a2.61,2.61,0,0,0,3.069-2.031h0a2.61,2.61,0,0,0-2.031-3.069l-3.485-.71a2.61,2.61,0,0,0-3.069,2.031h0A2.61,2.61,0,0,0,136.774,72.4Z"/>
      <path class="cls-7" d="M135.446,330.565c-5.451,34.671-11.078,69.435-14.03,104.429-2.3,27.257-2.224,54.546-.875,81.851,1.034,20.929,2.6,41.83,4.191,62.723.533,7,5.589,12.992,12.992,12.992,6.617,0,13.528-5.957,12.992-12.992-2.511-32.937-5.161-65.963-5.211-99.017-.042-27.359,2.328-54.564,5.869-81.675.414-3.167.253-1.971.694-5.184q.464-3.377.943-6.752,1.071-7.559,2.2-15.11,2.562-17.192,5.29-34.358c1.089-6.923-1.772-13.975-9.074-15.982-6.172-1.7-14.885,2.1-15.982,9.074Z"/>
      <rect class="cls-20" x="119.247" y="539.978" width="31.614" height="47.637" rx="4.078" ry="4.078"/>
      <g>
        <g>
          <path class="cls-21" d="M152.628,596.189l-77.462.278h0c-1.354-12.557,6.662-22.736,17.9-22.736h59.969Z"/>
          <path class="cls-8" d="M111.193,596.189l-36.035.278h0C73.87,583.91,81.5,573.73,92.191,573.73h3.426c8.6,0,15.577,8.607,15.577,19.224Z"/>
          <path class="cls-22" d="M79.231,603.562h70.908a4.167,4.167,0,0,0,4.216-4.069h0a4.164,4.164,0,0,0-4.216-4.157H79.231a4.167,4.167,0,0,0-4.216,4.069h0A4.164,4.164,0,0,0,79.231,603.562Z"/>
          <path class="cls-22" d="M112.9,577.1l9.045-8.976c8.443,3.876,17.546,5.256,28.37.127a2.74,2.74,0,0,1,2.728,2.742l0,6.107Z"/>
          <rect class="cls-21" x="112.9" y="552.464" width="24.215" height="33.888" rx="10.673" ry="10.673" transform="translate(250.015 1138.816) rotate(180)"/>
        </g>
        <path class="cls-22" d="M118.9,579.544l-8.747-2.572c-2.853-.839-1.639-5.309,1.231-4.465l8.747,2.572c2.853.839,1.639,5.309-1.231,4.465Z"/>
        <path class="cls-22" d="M109.07,580.393a13.275,13.275,0,0,0-6.035-2.256,2.381,2.381,0,0,1-2.315-2.315,2.331,2.331,0,0,1,2.315-2.315,18.184,18.184,0,0,1,8.372,2.889c2.472,1.64.156,5.652-2.337,4Z"/>
      </g>
      <path class="cls-7" d="M196.306,315.728c-5.629,35.976-10.079,72.406-8.529,108.886,1.321,31.084,7.082,61.741,13.65,92.084,4.791,22.133,9.886,44.2,14.713,66.324,1.5,6.858,9.479,10.861,15.982,9.074,7.079-1.945,10.575-9.1,9.074-15.982-7.62-34.925-16.341-69.7-22.355-104.958a337.891,337.891,0,0,1-4.755-40.231,380.884,380.884,0,0,1,.125-46c1.259-20.878,3.918-41.631,7.15-62.286,1.083-6.924-1.768-13.974-9.074-15.982-6.168-1.695-14.891,2.1-15.982,9.074Z"/>
      <rect class="cls-20" x="208.891" y="539.978" width="31.614" height="47.637" rx="4.079" ry="4.079" transform="translate(-85.34 42.038) rotate(-8.99)"/>
      <path class="cls-23" d="M209.7,231.7l-22.978,1.934c-16.607,3.59-36.37,2.5-51.076-7.564,0,0-22.086,75.354,4.764,85.17,11.275,4.122,51.6,4.325,63.131,0C252.043,293.053,209.7,231.7,209.7,231.7Z"/>
      <path class="cls-23" d="M215.087,132.88s-29.171,64.253-28.89,62.536-9.715-8.358-9.715-8.358l31.225-58.98Z"/>
      <path class="cls-23" d="M131.345,133.049s13.973,64.8,14.086,63.188,11.345-5.242,11.345-5.242l-17.16-60.534Z"/>
      <path class="cls-14" d="M164.155,23.181s29.954,13.858,34.718,42.224c0,0,13.3,24.392,16.889,24.468,0,0-2.6-29.954-2.6-52.762,0-18.313-20.033-40.387-47.2-34.068Z"/>
      <path class="cls-14" d="M128.606,117.423a4.9,4.9,0,0,0,5.258-5.565c-1.4-11.058-3.242-37.142,4.512-52.569,9.658-19.215,27.355-24.113,30.956-42.41l.843,1.779L168.631,5.009s-1.13-7.061-15.7-4.416c-20.938,3.8-27.488,22.7-27.642,43.246-.242,32.245-3.665,56.966-5.591,66.966a5.4,5.4,0,0,0,4.882,6.321Z"/>
      <path class="cls-23" d="M188.912,236.9c-16.531,29.831-32.343,19.25-47.637-7.507V182.622h47.637Z"/>
      <ellipse class="cls-24" cx="147.555" cy="192.005" rx="4.258" ry="5.486"/>
      <ellipse class="cls-24" cx="181.117" cy="192.005" rx="4.619" ry="5.486"/>
      <path class="cls-23" d="M216.5,387.606l-86.037,1.319a11.611,11.611,0,0,1-11.75-12.557l8.7-106.268H225.29V378.82A8.786,8.786,0,0,1,216.5,387.606Z"/>
      <path class="cls-25" d="M164.516,339.247h0a23.963,23.963,0,0,1-23.963-23.963V287.568a6.063,6.063,0,0,1,6.063-6.063h35.8a6.063,6.063,0,0,1,6.063,6.063v27.716A23.963,23.963,0,0,1,164.516,339.247Z"/>
      <ellipse class="cls-7" cx="202.252" cy="73.903" rx="11.081" ry="8.481" transform="translate(70.731 244.401) rotate(-72.426)"/>
      <path class="cls-7" d="M26.2,145.024l.21-.16c1.636-1.246,2.171-3.3,1.2-4.589l-5.116-6.762c-.975-1.288-3.091-1.322-4.727-.076l-.21.16c-1.636,1.246-2.171,3.3-1.2,4.589l5.116,6.762C22.45,146.236,24.567,146.271,26.2,145.024Z"/>
      <path class="cls-7" d="M20.993,149.341l.211-.161c1.639-1.249,2.178-3.306,1.2-4.595l-5.116-6.762c-.975-1.288-3.094-1.32-4.733-.071l-.211.161c-1.639,1.249-2.178,3.306-1.2,4.595l5.116,6.763C17.234,150.558,19.353,150.59,20.993,149.341Z"/>
      <path class="cls-7" d="M31.582,139.9l.214-.163c1.665-1.268,2.224-3.341,1.249-4.63l-5.116-6.762c-.975-1.288-3.114-1.3-4.779-.036l-.214.163c-1.665,1.268-2.224,3.341-1.249,4.629l5.116,6.762C27.777,141.151,29.917,141.167,31.582,139.9Z"/>
      <path class="cls-7" d="M37.53,135.678l.193-.147a3.217,3.217,0,0,0,.958-4.408l-5.117-6.761a3.192,3.192,0,0,0-4.489-.257l-.193.148a3.218,3.218,0,0,0-.958,4.408l5.117,6.761A3.192,3.192,0,0,0,37.53,135.678Z"/>
      <path class="cls-4" d="M201.565,234.376l1.889-71.176c.326-12.27,13.173-22.216,28.7-22.216h1.611a35.139,35.139,0,0,1,6.167.54,32.24,32.24,0,0,0-20.411-6.814h0c-15.967,0-29.183,10.232-29.518,22.853l-2.034,76.624c-.335,12.621,12.337,22.853,28.3,22.853h0a36.485,36.485,0,0,0,7.7-.817C210.944,254.321,201.276,245.264,201.565,234.376Z"/>
      <g>
        <g>
          <path class="cls-12" d="M104.92,172.781l8.8-4.517a5.288,5.288,0,0,1,4.129-.3l41.084,14.08S136.214,210.39,104.92,172.781Z"/>
          <path class="cls-12" d="M205.781,170.234l-7.706-3.826a5.289,5.289,0,0,0-4.3-.18l-40.284,15.945S176.278,209.264,205.781,170.234Z"/>
          <path class="cls-13" d="M149.344,254.5,108.8,244.64a5,5,0,0,1-3.818-4.743L103.5,176.368a5,5,0,0,1,6.182-4.976l40.546,9.863A5,5,0,0,1,154.042,186l1.484,63.529A5,5,0,0,1,149.344,254.5Z"/>
          <path class="cls-13" d="M167.239,253.979l38.994-11.558a5.247,5.247,0,0,0,3.754-5.153l-1.472-63.012a5.247,5.247,0,0,0-6.737-4.908l-38.994,11.558a5.247,5.247,0,0,0-3.754,5.153L160.5,249.07A5.247,5.247,0,0,0,167.239,253.979Z"/>
          <rect class="cls-11" x="150.708" y="181.486" width="15.054" height="74.978" rx="5.706" ry="5.706" transform="translate(-5.073 3.757) rotate(-1.339)"/>
        </g>
        <path class="cls-12" d="M196.659,194.742l-18.2,5.042a3.265,3.265,0,0,1-4.006-2.268h0a3.265,3.265,0,0,1,2.268-4.006l18.2-5.042a3.265,3.265,0,0,1,4.006,2.268h0A3.265,3.265,0,0,1,196.659,194.742Z"/>
      </g>
      <path class="cls-7" d="M160.636,250.091l29.3-2.608c.055-.007.4-.031.939-.067a10.761,10.761,0,0,0,9.708-13.39c-.926-3.705-2.3-7.1-4.322-8.349L181.23,217.57l-10.056-7.162s-3.788,1.416,1.724,8.905c1.7,2.308,4.527,4.041,5.62,5.752a23.634,23.634,0,0,1-3.893,1.907l-25.9.512c-2.048-.055-3.928.206-3.983,2.254l-.01.376c-.055,2.048,1.806,2.534,3.854,2.588l7.672.529-10.27,1.28c-2.043.159-3.885.613-3.727,2.655l.029.375c.159,2.042,2.059,2.332,4.1,2.173l7.611-.269-1.4.251c-2.031.268-3.847.82-3.579,2.851l.049.373c.268,2.031,2.181,2.219,4.212,1.951l13.742-1.223-7.078,1.269c-2.031.268-3.847.82-3.579,2.851l.049.373C156.692,250.171,158.6,250.359,160.636,250.091Z"/>
      <path class="cls-7" d="M214.786,161.186l26.029,53.576c.911,1.876,2.48,4.1,2.4,6.2-.134,3.532-3.06,4.709-6.105,4.9-10.716.682-21.458,1.083-32.183,1.625l-28.985,1.464c-11.648.588-11.719,18.78,0,18.189,20.554-1.038,41.128-1.866,61.67-3.114,17.992-1.093,28.616-17.826,20.863-34.426-4.409-9.441-9.112-18.756-13.665-28.128l-14.318-29.472c-2.146-4.417-8.436-5.606-12.443-3.263-4.51,2.638-5.417,8.009-3.263,12.443Z"/>
      <path class="cls-8" d="M256.242,199.922l-25.9,9.63a2.3,2.3,0,0,1-2.967-1.369l-17.516-47.96a13.967,13.967,0,0,1,8.328-17.911h0c7.246-2.646,13.451.85,17.91,8.327l23.474,39.929A6.477,6.477,0,0,1,256.242,199.922Z"/>
      <g>
        <rect class="cls-21" x="209.725" y="574.011" width="33.021" height="25.876"/>
        <path class="cls-22" d="M240.008,564.855a37.109,37.109,0,0,1-10.9,3.343v6.328h13.88l0-6.674A3,3,0,0,0,240.008,564.855Z"/>
        <path class="cls-22" d="M212.814,564.855a37.109,37.109,0,0,0,10.9,3.343v6.328h-13.88l0-6.674A3,3,0,0,1,212.814,564.855Z"/>
        <rect class="cls-21" x="212.54" y="551.065" width="26.466" height="37.037" rx="11.665" ry="11.665" transform="translate(451.546 1139.166) rotate(180)"/>
        <path class="cls-8" d="M245.428,598.853l-39.384.3h0c-1.408-13.724,6.927-24.85,18.616-24.85H228.4c9.4,0,17.025,9.407,17.025,21.01Z"/>
        <path class="cls-22" d="M228.741,576.08a14.515,14.515,0,0,0-7.036-.183,2.6,2.6,0,0,1-3.214-1.566,2.547,2.547,0,0,1,1.572-3.213,19.887,19.887,0,0,1,9.676,0c3.136.813,2.165,5.777-1,4.957Z"/>
        <path class="cls-22" d="M243.558,606.708H208.479a4.277,4.277,0,0,1-4.276-4.277h0a4.277,4.277,0,0,1,4.276-4.277h35.078a4.277,4.277,0,0,1,4.276,4.277h0A4.276,4.276,0,0,1,243.558,606.708Z"/>
      </g>
    </g>
  </g>
</svg>
