<svg id="Layer_1" data-name="Layer 1" xmlns="http://www.w3.org/2000/svg" viewBox="0 0 986.771 591.471">
  <defs>
    <style>
      .cls-1 {
        fill: #66267c;
      }

      .cls-2 {
        fill: #8fb529;
      }

      .cls-3 {
        fill: #de181e;
      }

      .cls-4 {
        fill: #d7006c;
      }

      .cls-5 {
        fill: #ee7b10;
      }

      .cls-6 {
        fill: #fff;
      }

      .cls-7 {
        fill: #fffefe;
      }

      .cls-8 {
        fill: none;
        stroke: #fff;
        stroke-miterlimit: 10;
        stroke-width: 5px;
      }

      .cls-9 {
        fill: #ffba00;
      }

      .cls-10 {
        fill: #fcfdfe;
      }
    </style>
  </defs>
  <title>97ca0c55-0372-4443-b567-65455acdf89a</title>
  <g>
    <polygon class="cls-1" points="159.775 206.919 53.258 206.919 0 299.165 53.258 391.411 159.775 391.411 213.033 299.165 159.775 206.919"/>
    <polygon class="cls-2" points="330.262 301.996 223.745 301.996 170.487 394.242 223.745 486.488 330.262 486.488 383.52 394.242 330.262 301.996"/>
    <polygon class="cls-3" points="674.456 301.996 567.939 301.996 514.681 394.242 567.939 486.488 674.456 486.488 727.714 394.242 674.456 301.996"/>
    <polygon class="cls-4" points="845.022 404.387 738.506 404.387 685.247 496.633 738.506 588.879 845.022 588.879 898.281 496.633 845.022 404.387"/>
    <polygon class="cls-5" points="503.362 206.919 396.845 206.919 343.587 299.165 396.845 391.411 503.362 391.411 556.62 299.165 503.362 206.919"/>
    <g>
      <path class="cls-6" d="M82.869,116.82l3.179,11.631q.308,1.113.571,2.388t.5,2.856a24.583,24.583,0,0,1,.2-2.629,22.013,22.013,0,0,1,.505-2.615L90.6,116.82h4.526l-5.61,21.445H85.11l-3.838-13.682a16.037,16.037,0,0,1-.439-1.89,18,18,0,0,1-.22-1.978q-.073,1.084-.227,2.051a14.633,14.633,0,0,1-.4,1.816l-3.867,13.682H71.707L66.1,116.82h4.585l2.827,11.909a22.011,22.011,0,0,1,.381,2.219q.146,1.194.22,2.6a46.718,46.718,0,0,1,1.025-4.717l.073-.308,3.149-11.7Z"/>
      <path class="cls-6" d="M97.737,138.266V115.561h4.087v8.071q0,.674-.044,1.34t-.132,1.3a8.932,8.932,0,0,1,2.585-2.183,6.178,6.178,0,0,1,2.893-.674,6.3,6.3,0,0,1,2.82.571,4.049,4.049,0,0,1,1.78,1.714,4.619,4.619,0,0,1,.461,1.355,14.389,14.389,0,0,1,.139,2.366v8.848h-4.175v-7.1a6.632,6.632,0,0,0-.615-3.5,2.431,2.431,0,0,0-2.109-.85,3.533,3.533,0,0,0-1.589.359,3.288,3.288,0,0,0-1.208,1.018,3.322,3.322,0,0,0-.549,1.172,8.774,8.774,0,0,0-.168,2.007v6.9Z"/>
      <path class="cls-6" d="M131.4,131.132a7.358,7.358,0,0,1-2.263,5.508,8.63,8.63,0,0,1-11.506,0,7.8,7.8,0,0,1,.015-11.016,8.621,8.621,0,0,1,11.5-.029A7.375,7.375,0,0,1,131.4,131.132Zm-4.248-.029a3.837,3.837,0,0,0-1.025-2.805,4.136,4.136,0,0,0-5.493-.007,4.418,4.418,0,0,0,0,5.625,3.616,3.616,0,0,0,2.739,1.055,3.67,3.67,0,0,0,2.747-1.055A3.847,3.847,0,0,0,127.151,131.1Z"/>
    </g>
    <g>
      <path class="cls-7" d="M50.237,286.939V265.494H62.864v3.867H54.822v4.409h8.042v3.9H54.822v5.376h8.042v3.9Z"/>
      <path class="cls-7" d="M71.111,286.939H66.937v-14.37h4.175v2.256a7.085,7.085,0,0,1,2.19-2.08,5.887,5.887,0,0,1,5.552.073,3.957,3.957,0,0,1,1.589,2.212,7.116,7.116,0,0,1,2.263-2.2,5.862,5.862,0,0,1,5.361-.176,3.888,3.888,0,0,1,1.648,1.692,4.948,4.948,0,0,1,.439,1.392,15.371,15.371,0,0,1,.132,2.358v8.848H86.111v-7.1a7.5,7.5,0,0,0-.535-3.486,2.019,2.019,0,0,0-1.868-.864,2.522,2.522,0,0,0-2.336,1.2,7.947,7.947,0,0,0-.725,3.926v6.328H76.473v-7.1a7.919,7.919,0,0,0-.5-3.428,1.8,1.8,0,0,0-1.714-.894,2.611,2.611,0,0,0-2.4,1.208,7.677,7.677,0,0,0-.747,3.889Z"/>
      <path class="cls-7" d="M94.271,293.472v-20.9h4v2.373a5.719,5.719,0,0,1,2.014-2.146,5.325,5.325,0,0,1,2.776-.71,5.955,5.955,0,0,1,4.79,2.029,8.465,8.465,0,0,1,1.729,5.662,8.559,8.559,0,0,1-1.743,5.618,5.65,5.65,0,0,1-4.585,2.117,6.107,6.107,0,0,1-2.908-.637,5.468,5.468,0,0,1-2.043-2q.073.542.11,1.179t.037,1.458v5.962Zm3.809-13.74a4.421,4.421,0,0,0,.959,3.032,3.839,3.839,0,0,0,5.347,0,4.421,4.421,0,0,0,.959-3.032,4.52,4.52,0,0,0-.974-3.069,3.374,3.374,0,0,0-2.688-1.121,3.3,3.3,0,0,0-2.629,1.128A4.526,4.526,0,0,0,98.079,279.732Z"/>
      <path class="cls-7" d="M127.156,286.939h-4.043l.059-2.065a5.468,5.468,0,0,1-2.043,2,6.107,6.107,0,0,1-2.908.637,5.678,5.678,0,0,1-4.607-2.124,10.017,10.017,0,0,1-.029-11.272,5.934,5.934,0,0,1,4.783-2.029,5.389,5.389,0,0,1,2.805.718,5.762,5.762,0,0,1,2.029,2.139v-2.373h3.955Zm-3.809-7.207a4.526,4.526,0,0,0-.974-3.062,3.3,3.3,0,0,0-2.629-1.128,3.357,3.357,0,0,0-2.673,1.121,4.52,4.52,0,0,0-.974,3.069,4.421,4.421,0,0,0,.959,3.032,3.829,3.829,0,0,0,5.339,0A4.443,4.443,0,0,0,123.348,279.732Z"/>
      <path class="cls-7" d="M131.595,286.939v-11.1h-2.007v-3.267h2.007v-4.775h4.175v4.775h2.007v3.267H135.77v11.1Z"/>
      <path class="cls-7" d="M140.149,266.666a2.451,2.451,0,0,1,2.432-2.432,2.393,2.393,0,0,1,1.736.71,2.32,2.32,0,0,1,.725,1.721,2.344,2.344,0,0,1-.725,1.729,2.38,2.38,0,0,1-1.736.718,2.316,2.316,0,0,1-1.714-.732A2.371,2.371,0,0,1,140.149,266.666Zm.366,20.273v-14.37h4.16v14.37Z"/>
      <path class="cls-7" d="M163.309,286.939h-4.043l.059-2.065a5.468,5.468,0,0,1-2.043,2,6.107,6.107,0,0,1-2.908.637,5.678,5.678,0,0,1-4.607-2.124,10.017,10.017,0,0,1-.029-11.272,5.934,5.934,0,0,1,4.783-2.029,5.389,5.389,0,0,1,2.805.718,5.762,5.762,0,0,1,2.029,2.139v-2.373h3.955Zm-3.809-7.207a4.526,4.526,0,0,0-.974-3.062,3.3,3.3,0,0,0-2.629-1.128,3.357,3.357,0,0,0-2.673,1.121,4.52,4.52,0,0,0-.974,3.069,4.421,4.421,0,0,0,.959,3.032,3.829,3.829,0,0,0,5.339,0A4.443,4.443,0,0,0,159.5,279.732Z"/>
      <path class="cls-7" d="M50.962,301.464A28.452,28.452,0,0,0,48.626,308a32.961,32.961,0,0,0-.754,7.2,34.588,34.588,0,0,0,.747,7.537,24.44,24.44,0,0,0,2.344,6.292l-3.311.776a28.848,28.848,0,0,1-2.593-6.841,32.034,32.034,0,0,1-.879-7.559,34.092,34.092,0,0,1,.857-7.9,26.737,26.737,0,0,1,2.615-6.775Z"/>
      <path class="cls-7" d="M53.687,302.666a2.451,2.451,0,0,1,2.432-2.432,2.393,2.393,0,0,1,1.736.71,2.32,2.32,0,0,1,.725,1.721,2.344,2.344,0,0,1-.725,1.729,2.38,2.38,0,0,1-1.736.718,2.316,2.316,0,0,1-1.714-.732A2.371,2.371,0,0,1,53.687,302.666Zm.366,20.273v-14.37h4.16v14.37Z"/>
      <path class="cls-7" d="M62.447,322.939v-14.37h4.087v2.256a7.634,7.634,0,0,1,2.424-2.073,6.2,6.2,0,0,1,2.878-.667,6.269,6.269,0,0,1,2.805.564,4.174,4.174,0,0,1,1.794,1.721,4.619,4.619,0,0,1,.461,1.355,14.389,14.389,0,0,1,.139,2.366v8.848H72.862v-7.1a6.632,6.632,0,0,0-.615-3.5,2.431,2.431,0,0,0-2.109-.85,3.533,3.533,0,0,0-1.589.359,3.288,3.288,0,0,0-1.208,1.018,3.322,3.322,0,0,0-.549,1.172,8.774,8.774,0,0,0-.168,2.007v6.9Z"/>
      <path class="cls-7" d="M79.585,320.419l3.208-1.655a2,2,0,0,0,.864,1.318,3.511,3.511,0,0,0,3.354.11,1.165,1.165,0,0,0,.586-1.033q0-1.04-2.08-1.743-.645-.22-1.025-.366a10.3,10.3,0,0,1-3.508-1.919,3.231,3.231,0,0,1-.974-2.388,4.138,4.138,0,0,1,1.655-3.413,7.8,7.8,0,0,1,7.712-.527,4.648,4.648,0,0,1,2.058,2.2l-3.062,1.523a2.207,2.207,0,0,0-.864-1.223,2.679,2.679,0,0,0-1.538-.417,2.649,2.649,0,0,0-1.494.381,1.152,1.152,0,0,0-.571,1q0,1.069,2.842,1.992.337.1.513.161a8.273,8.273,0,0,1,3.354,1.809,3.633,3.633,0,0,1,1,2.629,4.048,4.048,0,0,1-1.655,3.4,7.2,7.2,0,0,1-4.468,1.26,8.079,8.079,0,0,1-3.8-.828A4.179,4.179,0,0,1,79.585,320.419Z"/>
      <path class="cls-7" d="M94.468,302.666a2.451,2.451,0,0,1,2.432-2.432,2.393,2.393,0,0,1,1.736.71,2.32,2.32,0,0,1,.725,1.721,2.344,2.344,0,0,1-.725,1.729,2.38,2.38,0,0,1-1.736.718,2.316,2.316,0,0,1-1.714-.732A2.371,2.371,0,0,1,94.468,302.666Zm.366,20.273v-14.37h4.16v14.37Z"/>
      <path class="cls-7" d="M117.6,322.7a12.859,12.859,0,0,1-.271,3.193,3.763,3.763,0,0,1-.93,1.6,5.6,5.6,0,0,1-2.4,1.494,11.447,11.447,0,0,1-3.56.483,10.294,10.294,0,0,1-5.317-1.113,4.066,4.066,0,0,1-1.978-3.384h4.585a1.573,1.573,0,0,0,.762,1.23,3.848,3.848,0,0,0,1.948.4,3.072,3.072,0,0,0,2.454-.879,4.5,4.5,0,0,0,.754-2.93v-2.051a5.521,5.521,0,0,1-2.014,1.978,5.733,5.733,0,0,1-2.791.645,5.912,5.912,0,0,1-4.731-2.073,9.807,9.807,0,0,1-.044-11.184,5.948,5.948,0,0,1,4.775-2.021,5.367,5.367,0,0,1,2.791.725,5.807,5.807,0,0,1,2.043,2.131v-2.373H117.6Zm-3.779-6.973a4.387,4.387,0,0,0-.967-3,3.332,3.332,0,0,0-2.637-1.1,3.4,3.4,0,0,0-2.681,1.091,5.168,5.168,0,0,0-.015,6,3.867,3.867,0,0,0,5.339,0A4.318,4.318,0,0,0,113.819,315.732Z"/>
      <path class="cls-7" d="M121.714,322.939V300.234H125.8v8.071q0,.674-.044,1.34t-.132,1.3a8.932,8.932,0,0,1,2.585-2.183,6.178,6.178,0,0,1,2.893-.674,6.3,6.3,0,0,1,2.82.571,4.049,4.049,0,0,1,1.78,1.714,4.619,4.619,0,0,1,.461,1.355,14.389,14.389,0,0,1,.139,2.366v8.848h-4.175v-7.1a6.632,6.632,0,0,0-.615-3.5,2.431,2.431,0,0,0-2.109-.85,3.533,3.533,0,0,0-1.589.359,3.288,3.288,0,0,0-1.208,1.018,3.322,3.322,0,0,0-.549,1.172,8.774,8.774,0,0,0-.168,2.007v6.9Z"/>
      <path class="cls-7" d="M140.772,322.939v-11.1h-2.007v-3.267h2.007v-4.775h4.175v4.775h2.007v3.267h-2.007v11.1Z"/>
      <path class="cls-7" d="M148.126,320.419l3.208-1.655a2,2,0,0,0,.864,1.318,3.511,3.511,0,0,0,3.354.11,1.165,1.165,0,0,0,.586-1.033q0-1.04-2.08-1.743-.645-.22-1.025-.366a10.3,10.3,0,0,1-3.508-1.919,3.231,3.231,0,0,1-.974-2.388,4.138,4.138,0,0,1,1.655-3.413,7.8,7.8,0,0,1,7.712-.527,4.648,4.648,0,0,1,2.058,2.2l-3.062,1.523a2.207,2.207,0,0,0-.864-1.223,2.679,2.679,0,0,0-1.538-.417,2.649,2.649,0,0,0-1.494.381,1.152,1.152,0,0,0-.571,1q0,1.069,2.842,1.992.337.1.513.161a8.273,8.273,0,0,1,3.354,1.809,3.633,3.633,0,0,1,1,2.629,4.048,4.048,0,0,1-1.655,3.4,7.2,7.2,0,0,1-4.468,1.26,8.079,8.079,0,0,1-3.8-.828A4.179,4.179,0,0,1,148.126,320.419Z"/>
      <path class="cls-7" d="M162.071,301.464l3.311-.732a25.884,25.884,0,0,1,2.607,6.775,34.418,34.418,0,0,1,.864,7.9,32.034,32.034,0,0,1-.879,7.559,28.848,28.848,0,0,1-2.593,6.841l-3.311-.776a24.44,24.44,0,0,0,2.344-6.292,34.588,34.588,0,0,0,.747-7.537,32.8,32.8,0,0,0-.754-7.207A28.81,28.81,0,0,0,162.071,301.464Z"/>
    </g>
    <g>
      <path class="cls-7" d="M211.554,385.567V364.122H217.4a24.161,24.161,0,0,1,5.449.483,9.525,9.525,0,0,1,3.5,1.611,9.28,9.28,0,0,1,2.952,3.655,13.023,13.023,0,0,1-.022,10.078,9.25,9.25,0,0,1-3,3.64,9.631,9.631,0,0,1-3.259,1.516,22.5,22.5,0,0,1-5.251.461h-6.211Zm4.585-3.867h2.549q3.6,0,5.251-1.641t1.648-5.2q0-3.545-1.648-5.193t-5.251-1.648h-2.549Z"/>
      <path class="cls-7" d="M247.809,379.415h-10.8a3.753,3.753,0,0,0,1.128,2.322,3.5,3.5,0,0,0,2.388.769,4.147,4.147,0,0,0,1.97-.439,3.65,3.65,0,0,0,1.384-1.333l3.369,1.685a7.762,7.762,0,0,1-2.842,2.805,8.139,8.139,0,0,1-3.97.916,7.373,7.373,0,0,1-5.522-2.08,8.516,8.516,0,0,1,.1-11.162,7.3,7.3,0,0,1,5.457-2.183,7.221,7.221,0,0,1,5.42,2.043,7.644,7.644,0,0,1,1.992,5.574c0,.127-.005.266-.015.417S247.838,379.122,247.809,379.415Zm-4.131-2.52a3.114,3.114,0,0,0-.989-2.058,3.3,3.3,0,0,0-2.219-.7,3.419,3.419,0,0,0-2.249.7,3.273,3.273,0,0,0-1.077,2.058Z"/>
      <path class="cls-7" d="M251.486,385.567v-11.1h-1.86V371.2h1.86v-3.237q0-2.9,1.333-4.153t4.395-1.252a5.459,5.459,0,0,1,.784.066q.446.066,1.165.242v3.325a3.471,3.471,0,0,0-.732-.3,2.791,2.791,0,0,0-.732-.1,1.906,1.906,0,0,0-1.567.579,3.238,3.238,0,0,0-.469,2V371.2h2.666v3.267H255.66v11.1Z"/>
      <path class="cls-7" d="M260.7,365.293a2.451,2.451,0,0,1,2.432-2.432,2.393,2.393,0,0,1,1.736.71,2.32,2.32,0,0,1,.725,1.721,2.344,2.344,0,0,1-.725,1.729,2.38,2.38,0,0,1-1.736.718,2.316,2.316,0,0,1-1.714-.732A2.37,2.37,0,0,1,260.7,365.293Zm.366,20.273V371.2h4.16v14.37Z"/>
      <path class="cls-7" d="M269.459,385.567V371.2h4.087v2.256a7.631,7.631,0,0,1,2.424-2.073,6.2,6.2,0,0,1,2.878-.667,6.27,6.27,0,0,1,2.805.564A4.175,4.175,0,0,1,283.449,373a4.634,4.634,0,0,1,.461,1.355,14.417,14.417,0,0,1,.139,2.366v8.848h-4.175v-7.1a6.632,6.632,0,0,0-.615-3.5,2.431,2.431,0,0,0-2.109-.85,3.532,3.532,0,0,0-1.589.359,3.351,3.351,0,0,0-1.758,2.19,8.76,8.76,0,0,0-.168,2.007v6.9Z"/>
      <path class="cls-7" d="M287.8,365.293a2.451,2.451,0,0,1,2.432-2.432,2.393,2.393,0,0,1,1.736.71,2.32,2.32,0,0,1,.725,1.721,2.344,2.344,0,0,1-.725,1.729,2.38,2.38,0,0,1-1.736.718,2.316,2.316,0,0,1-1.714-.732A2.37,2.37,0,0,1,287.8,365.293Zm.366,20.273V371.2h4.16v14.37Z"/>
      <path class="cls-7" d="M307.15,385.142a6.67,6.67,0,0,1-1.787.754,8.206,8.206,0,0,1-2.051.242,7.45,7.45,0,0,1-5.537-2.161,7.641,7.641,0,0,1-2.139-5.618,7.422,7.422,0,0,1,2.153-5.515,7.594,7.594,0,0,1,5.581-2.131,8.747,8.747,0,0,1,2.051.22,6.6,6.6,0,0,1,1.729.688l-.029,4.189a4.652,4.652,0,0,0-3.354-1.406,3.758,3.758,0,0,0-2.812,1.077,3.963,3.963,0,0,0,2.93,6.819,4.193,4.193,0,0,0,1.794-.366,4.291,4.291,0,0,0,1.443-1.143Zm-8.276,6.841v-1.86q1.172.308,2.153.469a10.39,10.39,0,0,0,1.626.161,1.835,1.835,0,0,0,1.106-.271.971.971,0,0,0,.359-.828.811.811,0,0,0-.4-.769,2.984,2.984,0,0,0-1.37-.227q-.279,0-.469.007c-.127,0-.249.012-.366.022v-3.12H303v1.318h.22a4,4,0,0,1,2.571.71,2.571,2.571,0,0,1,.872,2.117,2.538,2.538,0,0,1-.974,2.175,4.874,4.874,0,0,1-2.922.725,11.371,11.371,0,0,1-1.736-.161A20.909,20.909,0,0,1,298.873,391.983Z"/>
      <path class="cls-7" d="M324.7,385.567h-4.043l.059-2.065a5.472,5.472,0,0,1-2.043,2,6.108,6.108,0,0,1-2.908.637,5.678,5.678,0,0,1-4.607-2.124,10.017,10.017,0,0,1-.029-11.272,5.933,5.933,0,0,1,4.783-2.029,5.389,5.389,0,0,1,2.805.718,5.764,5.764,0,0,1,2.029,2.139V371.2H324.7Zm-2.344-21.182a6.186,6.186,0,0,1-1.143,2.7,2.4,2.4,0,0,1-1.9.842,4.163,4.163,0,0,1-.571-.037,2.948,2.948,0,0,1-.527-.125l-1.274-.381a3.8,3.8,0,0,0-.527-.117,3.322,3.322,0,0,0-.439-.029,1.174,1.174,0,0,0-.806.271,1.81,1.81,0,0,0-.483.857h-1.611a5.819,5.819,0,0,1,1.106-2.615,2.385,2.385,0,0,1,1.882-.828,3.761,3.761,0,0,1,.586.051,5.506,5.506,0,0,1,.674.154l1.362.366a2.2,2.2,0,0,0,.374.088,2.955,2.955,0,0,0,.432.029,1.085,1.085,0,0,0,.791-.3,1.958,1.958,0,0,0,.469-.93ZM320.89,378.36a4.527,4.527,0,0,0-.974-3.062,3.3,3.3,0,0,0-2.629-1.128,3.357,3.357,0,0,0-2.673,1.121,4.519,4.519,0,0,0-.974,3.069,4.42,4.42,0,0,0,.959,3.032,3.829,3.829,0,0,0,5.339,0A4.445,4.445,0,0,0,320.89,378.36Z"/>
      <path class="cls-7" d="M343.741,378.433a7.358,7.358,0,0,1-2.263,5.508,8.63,8.63,0,0,1-11.506,0,7.8,7.8,0,0,1,.015-11.016,8.621,8.621,0,0,1,11.5-.029A7.376,7.376,0,0,1,343.741,378.433Zm-4.248-.029a3.838,3.838,0,0,0-1.025-2.805,4.136,4.136,0,0,0-5.493-.007,4.418,4.418,0,0,0,0,5.625,3.615,3.615,0,0,0,2.739,1.055,3.67,3.67,0,0,0,2.747-1.055A3.847,3.847,0,0,0,339.493,378.4Z"/>
      <path class="cls-7" d="M246.007,400.092a28.44,28.44,0,0,0-2.336,6.541,32.946,32.946,0,0,0-.754,7.2,34.588,34.588,0,0,0,.747,7.537,24.431,24.431,0,0,0,2.344,6.292l-3.311.776A28.848,28.848,0,0,1,240.1,421.6a32.034,32.034,0,0,1-.879-7.559,34.092,34.092,0,0,1,.857-7.9,26.737,26.737,0,0,1,2.615-6.775Z"/>
      <path class="cls-7" d="M249.449,421.567v-11.1h-1.86V407.2h1.86v-3.237q0-2.9,1.333-4.153t4.395-1.252a5.459,5.459,0,0,1,.784.066q.446.066,1.165.242v3.325a3.471,3.471,0,0,0-.732-.3,2.791,2.791,0,0,0-.732-.1,1.906,1.906,0,0,0-1.567.579,3.238,3.238,0,0,0-.469,2V407.2h2.666v3.267h-2.666v11.1Z"/>
      <path class="cls-7" d="M273.986,414.433a7.358,7.358,0,0,1-2.263,5.508,8.63,8.63,0,0,1-11.506,0,7.8,7.8,0,0,1,.015-11.016,8.621,8.621,0,0,1,11.5-.029A7.376,7.376,0,0,1,273.986,414.433Zm-4.248-.029a3.838,3.838,0,0,0-1.025-2.805,4.136,4.136,0,0,0-5.493-.007,4.418,4.418,0,0,0,0,5.625,3.615,3.615,0,0,0,2.739,1.055,3.67,3.67,0,0,0,2.747-1.055A3.847,3.847,0,0,0,269.738,414.4Z"/>
      <path class="cls-7" d="M287.726,421.142a6.67,6.67,0,0,1-1.787.754,8.206,8.206,0,0,1-2.051.242,7.45,7.45,0,0,1-5.537-2.161,7.641,7.641,0,0,1-2.139-5.618,7.422,7.422,0,0,1,2.153-5.515,7.594,7.594,0,0,1,5.581-2.131,8.747,8.747,0,0,1,2.051.22,6.6,6.6,0,0,1,1.729.688l-.029,4.189a4.652,4.652,0,0,0-3.354-1.406,3.758,3.758,0,0,0-2.812,1.077,3.963,3.963,0,0,0,2.93,6.819,4.193,4.193,0,0,0,1.794-.366,4.291,4.291,0,0,0,1.443-1.143Z"/>
      <path class="cls-7" d="M305.992,414.433a7.358,7.358,0,0,1-2.263,5.508,8.63,8.63,0,0,1-11.506,0,7.8,7.8,0,0,1,.015-11.016,8.621,8.621,0,0,1,11.5-.029A7.376,7.376,0,0,1,305.992,414.433Zm-4.248-.029a3.838,3.838,0,0,0-1.025-2.805,4.136,4.136,0,0,0-5.493-.007,4.418,4.418,0,0,0,0,5.625,3.615,3.615,0,0,0,2.739,1.055,3.67,3.67,0,0,0,2.747-1.055A3.847,3.847,0,0,0,301.744,414.4Z"/>
      <path class="cls-7" d="M308,400.092l3.311-.732a25.9,25.9,0,0,1,2.607,6.775,34.431,34.431,0,0,1,.864,7.9,32.034,32.034,0,0,1-.879,7.559,28.848,28.848,0,0,1-2.593,6.841L308,427.661a24.449,24.449,0,0,0,2.344-6.292,34.588,34.588,0,0,0,.747-7.537,32.819,32.819,0,0,0-.754-7.207A28.822,28.822,0,0,0,308,400.092Z"/>
    </g>
    <g>
      <path class="cls-7" d="M389.767,279.837V258.392h4.585v21.445Z"/>
      <path class="cls-7" d="M413.277,279.837h-4.043l.059-2.065a5.468,5.468,0,0,1-2.043,2,6.107,6.107,0,0,1-2.908.637,5.678,5.678,0,0,1-4.607-2.124,10.053,10.053,0,0,1-.029-11.294,5.924,5.924,0,0,1,4.783-2.036,5.215,5.215,0,0,1,2.754.718,7.38,7.38,0,0,1,2.227,2.271q-.073-.527-.11-1.165t-.037-1.458v-8.188h3.955Zm-3.809-7.207a4.526,4.526,0,0,0-.974-3.062,3.3,3.3,0,0,0-2.629-1.128,3.378,3.378,0,0,0-2.673,1.106,5.3,5.3,0,0,0-.015,6.1,3.344,3.344,0,0,0,2.659,1.1,3.379,3.379,0,0,0,2.681-1.084A4.443,4.443,0,0,0,409.469,272.63Z"/>
      <path class="cls-7" d="M431.4,273.685H420.6a3.755,3.755,0,0,0,1.128,2.322,3.5,3.5,0,0,0,2.388.769,4.147,4.147,0,0,0,1.97-.439A3.646,3.646,0,0,0,427.472,275l3.369,1.685A7.76,7.76,0,0,1,428,279.493a8.138,8.138,0,0,1-3.97.916,7.374,7.374,0,0,1-5.522-2.08,8.516,8.516,0,0,1,.1-11.162,7.3,7.3,0,0,1,5.457-2.183,7.22,7.22,0,0,1,5.42,2.043,7.643,7.643,0,0,1,1.992,5.574q0,.19-.015.417T431.4,273.685Zm-4.131-2.52a3.114,3.114,0,0,0-.989-2.058,3.3,3.3,0,0,0-2.219-.7,3.42,3.42,0,0,0-2.249.7,3.275,3.275,0,0,0-1.077,2.058Z"/>
      <path class="cls-7" d="M448.961,279.837h-4.043l.059-2.065a5.468,5.468,0,0,1-2.043,2,6.107,6.107,0,0,1-2.908.637,5.678,5.678,0,0,1-4.607-2.124,10.017,10.017,0,0,1-.029-11.272,5.934,5.934,0,0,1,4.783-2.029,5.389,5.389,0,0,1,2.805.718,5.762,5.762,0,0,1,2.029,2.139v-2.373h3.955Zm-3.809-7.207a4.526,4.526,0,0,0-.974-3.062,3.3,3.3,0,0,0-2.629-1.128,3.357,3.357,0,0,0-2.673,1.121,4.52,4.52,0,0,0-.974,3.069,4.421,4.421,0,0,0,.959,3.032,3.829,3.829,0,0,0,5.339,0A4.443,4.443,0,0,0,445.152,272.63Z"/>
      <path class="cls-7" d="M453.048,279.837V257.132h4.16v22.705Z"/>
      <path class="cls-7" d="M461.236,259.564a2.451,2.451,0,0,1,2.432-2.432,2.393,2.393,0,0,1,1.736.71,2.32,2.32,0,0,1,.725,1.721,2.344,2.344,0,0,1-.725,1.729,2.38,2.38,0,0,1-1.736.718,2.316,2.316,0,0,1-1.714-.732A2.371,2.371,0,0,1,461.236,259.564Zm.366,20.273v-14.37h4.16v14.37Z"/>
      <path class="cls-7" d="M481.73,279.837H467.96l7.617-11.1h-6.694v-3.267h13.022l-7.529,11.1h7.354Z"/>
      <path class="cls-7" d="M498.824,279.837h-4.043l.059-2.065a5.468,5.468,0,0,1-2.043,2,6.107,6.107,0,0,1-2.908.637,5.678,5.678,0,0,1-4.607-2.124,10.017,10.017,0,0,1-.029-11.272,5.934,5.934,0,0,1,4.783-2.029,5.389,5.389,0,0,1,2.805.718,5.762,5.762,0,0,1,2.029,2.139v-2.373h3.955Zm-3.809-7.207a4.526,4.526,0,0,0-.974-3.062,3.3,3.3,0,0,0-2.629-1.128,3.357,3.357,0,0,0-2.673,1.121,4.52,4.52,0,0,0-.974,3.069,4.421,4.421,0,0,0,.959,3.032,3.829,3.829,0,0,0,5.339,0A4.443,4.443,0,0,0,495.016,272.63Z"/>
      <path class="cls-7" d="M506.778,269.159a6.607,6.607,0,0,1,1.809-3.135,4.258,4.258,0,0,1,2.922-1.04,9.364,9.364,0,0,1,1.3.146l.264.044-.63,4.482a5.235,5.235,0,0,0-.945-.286,5.109,5.109,0,0,0-1-.1,3.43,3.43,0,0,0-2.739.974,5.015,5.015,0,0,0-.835,3.259v6.328H502.75v-14.37h4.116Z"/>
      <path class="cls-7" d="M370.79,294.363a28.452,28.452,0,0,0-2.336,6.541,32.961,32.961,0,0,0-.754,7.2,34.588,34.588,0,0,0,.747,7.537,24.44,24.44,0,0,0,2.344,6.292l-3.311.776a28.848,28.848,0,0,1-2.593-6.841,32.034,32.034,0,0,1-.879-7.559,34.092,34.092,0,0,1,.857-7.9,26.737,26.737,0,0,1,2.615-6.775Z"/>
      <path class="cls-7" d="M373.719,315.837V293.132h4v8.188q0,.674-.051,1.34t-.139,1.3a7.089,7.089,0,0,1,2.227-2.263,5.306,5.306,0,0,1,2.754-.71,5.951,5.951,0,0,1,4.8,2.029,10.047,10.047,0,0,1-.022,11.279,5.65,5.65,0,0,1-4.585,2.117,6.107,6.107,0,0,1-2.908-.637,5.468,5.468,0,0,1-2.043-2l.029,2.065Zm3.809-7.207a4.421,4.421,0,0,0,.959,3.032,3.839,3.839,0,0,0,5.347,0,4.421,4.421,0,0,0,.959-3.032,4.52,4.52,0,0,0-.974-3.069,3.374,3.374,0,0,0-2.688-1.121,3.3,3.3,0,0,0-2.629,1.128A4.526,4.526,0,0,0,377.528,308.63Z"/>
      <path class="cls-7" d="M396.234,305.159a6.607,6.607,0,0,1,1.809-3.135,4.258,4.258,0,0,1,2.922-1.04,9.364,9.364,0,0,1,1.3.146l.264.044-.63,4.482a5.235,5.235,0,0,0-.945-.286,5.109,5.109,0,0,0-1-.1,3.43,3.43,0,0,0-2.739.974,5.015,5.015,0,0,0-.835,3.259v6.328h-4.175v-14.37h4.116Z"/>
      <path class="cls-7" d="M418.822,315.837h-4.043l.059-2.065a5.468,5.468,0,0,1-2.043,2,6.107,6.107,0,0,1-2.908.637,5.678,5.678,0,0,1-4.607-2.124,10.017,10.017,0,0,1-.029-11.272,5.934,5.934,0,0,1,4.783-2.029,5.389,5.389,0,0,1,2.805.718,5.762,5.762,0,0,1,2.029,2.139v-2.373h3.955Zm-3.809-7.207a4.526,4.526,0,0,0-.974-3.062,3.3,3.3,0,0,0-2.629-1.128,3.357,3.357,0,0,0-2.673,1.121,4.52,4.52,0,0,0-.974,3.069,4.421,4.421,0,0,0,.959,3.032,3.829,3.829,0,0,0,5.339,0A4.443,4.443,0,0,0,415.013,308.63Z"/>
      <path class="cls-7" d="M422.543,295.564a2.451,2.451,0,0,1,2.432-2.432,2.393,2.393,0,0,1,1.736.71,2.32,2.32,0,0,1,.725,1.721,2.344,2.344,0,0,1-.725,1.729,2.38,2.38,0,0,1-1.736.718,2.316,2.316,0,0,1-1.714-.732A2.371,2.371,0,0,1,422.543,295.564Zm.366,20.273v-14.37h4.16v14.37Z"/>
      <path class="cls-7" d="M431.3,315.837v-14.37h4.087v2.256a7.634,7.634,0,0,1,2.424-2.073,6.2,6.2,0,0,1,2.878-.667,6.269,6.269,0,0,1,2.805.564,4.174,4.174,0,0,1,1.794,1.721,4.619,4.619,0,0,1,.461,1.355,14.389,14.389,0,0,1,.139,2.366v8.848h-4.175v-7.1a6.632,6.632,0,0,0-.615-3.5,2.431,2.431,0,0,0-2.109-.85,3.533,3.533,0,0,0-1.589.359,3.288,3.288,0,0,0-1.208,1.018,3.322,3.322,0,0,0-.549,1.172,8.774,8.774,0,0,0-.168,2.007v6.9Z"/>
      <path class="cls-7" d="M448.441,313.318l3.208-1.655a2,2,0,0,0,.864,1.318,3.511,3.511,0,0,0,3.354.11,1.165,1.165,0,0,0,.586-1.033q0-1.04-2.08-1.743-.645-.22-1.025-.366a10.3,10.3,0,0,1-3.508-1.919,3.231,3.231,0,0,1-.974-2.388,4.138,4.138,0,0,1,1.655-3.413,7.8,7.8,0,0,1,7.712-.527,4.648,4.648,0,0,1,2.058,2.2l-3.062,1.523a2.207,2.207,0,0,0-.864-1.223,2.679,2.679,0,0,0-1.538-.417,2.649,2.649,0,0,0-1.494.381,1.152,1.152,0,0,0-.571,1q0,1.069,2.842,1.992.337.1.513.161a8.273,8.273,0,0,1,3.354,1.809,3.633,3.633,0,0,1,1,2.629,4.048,4.048,0,0,1-1.655,3.4,7.2,7.2,0,0,1-4.468,1.26,8.079,8.079,0,0,1-3.8-.828A4.179,4.179,0,0,1,448.441,313.318Z"/>
      <path class="cls-7" d="M464.042,315.837v-11.1h-2.007v-3.267h2.007v-4.775h4.175v4.775h2.007v3.267h-2.007v11.1Z"/>
      <path class="cls-7" d="M487.918,308.7a7.358,7.358,0,0,1-2.263,5.508,8.63,8.63,0,0,1-11.506,0,7.8,7.8,0,0,1,.015-11.016,8.621,8.621,0,0,1,11.5-.029A7.375,7.375,0,0,1,487.918,308.7Zm-4.248-.029a3.837,3.837,0,0,0-1.025-2.805,4.136,4.136,0,0,0-5.493-.007,4.418,4.418,0,0,0,0,5.625,3.616,3.616,0,0,0,2.739,1.055,3.67,3.67,0,0,0,2.747-1.055A3.847,3.847,0,0,0,483.67,308.674Z"/>
      <path class="cls-7" d="M495.1,305.159a6.607,6.607,0,0,1,1.809-3.135,4.258,4.258,0,0,1,2.922-1.04,9.364,9.364,0,0,1,1.3.146l.264.044-.63,4.482a5.235,5.235,0,0,0-.945-.286,5.109,5.109,0,0,0-1-.1,3.43,3.43,0,0,0-2.739.974,5.015,5.015,0,0,0-.835,3.259v6.328h-4.175v-14.37h4.116Z"/>
      <path class="cls-7" d="M507.4,315.837h-4.175v-14.37H507.4v2.256a7.085,7.085,0,0,1,2.19-2.08,5.887,5.887,0,0,1,5.552.073,3.957,3.957,0,0,1,1.589,2.212,7.116,7.116,0,0,1,2.263-2.2,5.862,5.862,0,0,1,5.361-.176A3.888,3.888,0,0,1,526,303.24a4.948,4.948,0,0,1,.439,1.392,15.371,15.371,0,0,1,.132,2.358v8.848H522.4v-7.1a7.5,7.5,0,0,0-.535-3.486,2.019,2.019,0,0,0-1.868-.864,2.522,2.522,0,0,0-2.336,1.2,7.947,7.947,0,0,0-.725,3.926v6.328h-4.175v-7.1a7.919,7.919,0,0,0-.5-3.428,1.8,1.8,0,0,0-1.714-.894,2.611,2.611,0,0,0-2.4,1.208,7.677,7.677,0,0,0-.747,3.889Z"/>
      <path class="cls-7" d="M529.418,294.363l3.311-.732a25.884,25.884,0,0,1,2.607,6.775,34.418,34.418,0,0,1,.864,7.9,32.034,32.034,0,0,1-.879,7.559,28.848,28.848,0,0,1-2.593,6.841l-3.311-.776a24.44,24.44,0,0,0,2.344-6.292,34.588,34.588,0,0,0,.747-7.537,32.8,32.8,0,0,0-.754-7.207A28.81,28.81,0,0,0,529.418,294.363Z"/>
    </g>
    <g>
      <path class="cls-7" d="M553.082,378.465V357.02h5.273q4.219,0,6.233,1.611a6,6,0,0,1,2.014,4.98,6.157,6.157,0,0,1-2.029,4.893,8.255,8.255,0,0,1-5.618,1.772H557.7v8.188ZM557.7,366.7h.659a3.966,3.966,0,0,0,2.725-.776,3.228,3.228,0,0,0,.85-2.49,2.875,2.875,0,0,0-.85-2.307,4.163,4.163,0,0,0-2.725-.725H557.7Z"/>
      <path class="cls-7" d="M572.9,367.787a6.6,6.6,0,0,1,1.809-3.135,4.258,4.258,0,0,1,2.922-1.04,9.368,9.368,0,0,1,1.3.146l.264.044-.63,4.482a5.246,5.246,0,0,0-.945-.286,5.109,5.109,0,0,0-1-.1,3.43,3.43,0,0,0-2.739.974,5.015,5.015,0,0,0-.835,3.259v6.328h-4.175V364.1h4.116Z"/>
      <path class="cls-7" d="M596.207,371.332a7.358,7.358,0,0,1-2.263,5.508,8.63,8.63,0,0,1-11.506,0,7.8,7.8,0,0,1,.015-11.016,8.621,8.621,0,0,1,11.5-.029A7.376,7.376,0,0,1,596.207,371.332Zm-4.248-.029a3.838,3.838,0,0,0-1.025-2.805,4.136,4.136,0,0,0-5.493-.007,4.418,4.418,0,0,0,0,5.625,3.615,3.615,0,0,0,2.739,1.055,3.67,3.67,0,0,0,2.747-1.055A3.847,3.847,0,0,0,591.959,371.3Z"/>
      <path class="cls-7" d="M599.869,378.465v-11.1h-2.007V364.1h2.007V359.32h4.175V364.1h2.007v3.267h-2.007v11.1Z"/>
      <path class="cls-7" d="M623.746,371.332a7.358,7.358,0,0,1-2.263,5.508,8.63,8.63,0,0,1-11.506,0,7.8,7.8,0,0,1,.015-11.016,8.621,8.621,0,0,1,11.5-.029A7.376,7.376,0,0,1,623.746,371.332ZM619.5,371.3a3.838,3.838,0,0,0-1.025-2.805,4.136,4.136,0,0,0-5.493-.007,4.418,4.418,0,0,0,0,5.625,3.615,3.615,0,0,0,2.739,1.055,3.67,3.67,0,0,0,2.747-1.055A3.847,3.847,0,0,0,619.5,371.3Z"/>
      <path class="cls-7" d="M627.408,378.465v-11.1H625.4V364.1h2.007V359.32h4.175V364.1h2.007v3.267h-2.007v11.1Z"/>
      <path class="cls-7" d="M635.963,358.192a2.451,2.451,0,0,1,2.432-2.432,2.393,2.393,0,0,1,1.736.71,2.32,2.32,0,0,1,.725,1.721,2.344,2.344,0,0,1-.725,1.729,2.38,2.38,0,0,1-1.736.718,2.316,2.316,0,0,1-1.714-.732A2.37,2.37,0,0,1,635.963,358.192Zm.366,20.273V364.1h4.16v14.37Z"/>
      <path class="cls-7" d="M644.723,385V364.1h4v2.373a5.716,5.716,0,0,1,2.014-2.146,5.324,5.324,0,0,1,2.776-.71,5.956,5.956,0,0,1,4.79,2.029,8.466,8.466,0,0,1,1.729,5.662,8.56,8.56,0,0,1-1.743,5.618,5.65,5.65,0,0,1-4.585,2.117,6.106,6.106,0,0,1-2.908-.637,5.465,5.465,0,0,1-2.043-2q.073.542.11,1.179t.037,1.458V385Zm3.809-13.74a4.42,4.42,0,0,0,.959,3.032,3.839,3.839,0,0,0,5.347,0,4.422,4.422,0,0,0,.959-3.032,4.521,4.521,0,0,0-.974-3.069,3.375,3.375,0,0,0-2.688-1.121,3.3,3.3,0,0,0-2.629,1.128A4.525,4.525,0,0,0,648.532,371.258Z"/>
      <path class="cls-7" d="M677.609,378.465h-4.043l.059-2.065a5.472,5.472,0,0,1-2.043,2,6.108,6.108,0,0,1-2.908.637,5.678,5.678,0,0,1-4.607-2.124,10.017,10.017,0,0,1-.029-11.272,5.933,5.933,0,0,1,4.783-2.029,5.389,5.389,0,0,1,2.805.718,5.764,5.764,0,0,1,2.029,2.139V364.1h3.955Zm-3.809-7.207a4.527,4.527,0,0,0-.974-3.062,3.3,3.3,0,0,0-2.629-1.128,3.357,3.357,0,0,0-2.673,1.121,4.519,4.519,0,0,0-.974,3.069,4.42,4.42,0,0,0,.959,3.032,3.829,3.829,0,0,0,5.339,0A4.445,4.445,0,0,0,673.8,371.258Z"/>
      <path class="cls-7" d="M685.563,367.787a6.6,6.6,0,0,1,1.809-3.135,4.258,4.258,0,0,1,2.922-1.04,9.368,9.368,0,0,1,1.3.146l.264.044-.63,4.482a5.246,5.246,0,0,0-.945-.286,5.11,5.11,0,0,0-1-.1,3.43,3.43,0,0,0-2.739.974,5.015,5.015,0,0,0-.835,3.259v6.328h-4.175V364.1h4.116Z"/>
      <path class="cls-7" d="M553.873,392.991a28.452,28.452,0,0,0-2.336,6.541,32.946,32.946,0,0,0-.754,7.2,34.588,34.588,0,0,0,.747,7.537,24.44,24.44,0,0,0,2.344,6.292l-3.311.776a28.848,28.848,0,0,1-2.593-6.841,32.034,32.034,0,0,1-.879-7.559,34.092,34.092,0,0,1,.857-7.9,26.737,26.737,0,0,1,2.615-6.775Z"/>
      <path class="cls-7" d="M574.44,398.6a9.615,9.615,0,0,0-2.856-1.824,8.455,8.455,0,0,0-3.135-.579,7.354,7.354,0,0,0-5.464,2.051,8.518,8.518,0,0,0-.146,10.876,6.781,6.781,0,0,0,5.156,1.985,9.166,9.166,0,0,0,6.416-2.49l-.029,4.7a12.125,12.125,0,0,1-3.069,1.289,13.139,13.139,0,0,1-3.376.425,11.593,11.593,0,0,1-8.416-3.186,11.567,11.567,0,0,1,.007-16.165,11.731,11.731,0,0,1,8.5-3.179,15.288,15.288,0,0,1,3.369.366A14.959,14.959,0,0,1,574.6,394Z"/>
      <path class="cls-7" d="M593.453,407.332a7.358,7.358,0,0,1-2.263,5.508,8.63,8.63,0,0,1-11.506,0,7.8,7.8,0,0,1,.015-11.016,8.621,8.621,0,0,1,11.5-.029A7.376,7.376,0,0,1,593.453,407.332Zm-4.248-.029a3.838,3.838,0,0,0-1.025-2.805,4.136,4.136,0,0,0-5.493-.007,4.418,4.418,0,0,0,0,5.625,3.615,3.615,0,0,0,2.739,1.055,3.67,3.67,0,0,0,2.747-1.055A3.847,3.847,0,0,0,589.205,407.3Z"/>
      <path class="cls-7" d="M596.6,414.465V400.1h4.087v2.256a7.631,7.631,0,0,1,2.424-2.073,6.2,6.2,0,0,1,2.878-.667,6.27,6.27,0,0,1,2.805.564,4.175,4.175,0,0,1,1.794,1.721,4.634,4.634,0,0,1,.461,1.355,14.417,14.417,0,0,1,.139,2.366v8.848h-4.175v-7.1a6.632,6.632,0,0,0-.615-3.5,2.431,2.431,0,0,0-2.109-.85,3.532,3.532,0,0,0-1.589.359,3.351,3.351,0,0,0-1.758,2.19,8.76,8.76,0,0,0-.168,2.007v6.9Z"/>
      <path class="cls-7" d="M613.741,411.946l3.208-1.655a2,2,0,0,0,.864,1.318,3.511,3.511,0,0,0,3.354.11,1.165,1.165,0,0,0,.586-1.033q0-1.04-2.08-1.743-.645-.22-1.025-.366a10.291,10.291,0,0,1-3.508-1.919,3.23,3.23,0,0,1-.974-2.388,4.138,4.138,0,0,1,1.655-3.413,7.8,7.8,0,0,1,7.712-.527,4.651,4.651,0,0,1,2.058,2.2l-3.062,1.523a2.208,2.208,0,0,0-.864-1.223,2.679,2.679,0,0,0-1.538-.417,2.649,2.649,0,0,0-1.494.381,1.152,1.152,0,0,0-.571,1q0,1.069,2.842,1.992.337.1.513.161a8.277,8.277,0,0,1,3.354,1.809,3.634,3.634,0,0,1,1,2.629,4.049,4.049,0,0,1-1.655,3.4,7.2,7.2,0,0,1-4.468,1.26,8.078,8.078,0,0,1-3.8-.828A4.179,4.179,0,0,1,613.741,411.946Z"/>
      <path class="cls-7" d="M629.342,414.465v-11.1h-2.007V400.1h2.007V395.32h4.175V400.1h2.007v3.267h-2.007v11.1Z"/>
      <path class="cls-7" d="M642.13,403.787a6.6,6.6,0,0,1,1.809-3.135,4.258,4.258,0,0,1,2.922-1.04,9.368,9.368,0,0,1,1.3.146l.264.044-.63,4.482a5.246,5.246,0,0,0-.945-.286,5.11,5.11,0,0,0-1-.1,3.43,3.43,0,0,0-2.739.974,5.015,5.015,0,0,0-.835,3.259v6.328H638.1V400.1h4.116Z"/>
      <path class="cls-7" d="M654.406,400.1v7.559a4.032,4.032,0,0,0,.74,2.725,3.925,3.925,0,0,0,4.812-.007,4.009,4.009,0,0,0,.747-2.717V400.1h4.175v7.559q0,3.794-1.772,5.588t-5.493,1.794q-3.794,0-5.574-1.787t-1.78-5.6V400.1Z"/>
      <path class="cls-7" d="M668.688,394.192a2.451,2.451,0,0,1,2.432-2.432,2.393,2.393,0,0,1,1.736.71,2.32,2.32,0,0,1,.725,1.721,2.344,2.344,0,0,1-.725,1.729,2.38,2.38,0,0,1-1.736.718,2.316,2.316,0,0,1-1.714-.732A2.37,2.37,0,0,1,668.688,394.192Zm.366,20.273V400.1h4.16v14.37Z"/>
      <path class="cls-7" d="M681.476,403.787a6.6,6.6,0,0,1,1.809-3.135,4.258,4.258,0,0,1,2.922-1.04,9.368,9.368,0,0,1,1.3.146l.264.044-.63,4.482A5.246,5.246,0,0,0,686.2,404a5.11,5.11,0,0,0-1-.1,3.43,3.43,0,0,0-2.739.974,5.015,5.015,0,0,0-.835,3.259v6.328h-4.175V400.1h4.116Z"/>
      <path class="cls-7" d="M688.522,392.991l3.311-.732a25.9,25.9,0,0,1,2.607,6.775,34.431,34.431,0,0,1,.864,7.9,32.034,32.034,0,0,1-.879,7.559,28.848,28.848,0,0,1-2.593,6.841l-3.311-.776a24.449,24.449,0,0,0,2.344-6.292,34.588,34.588,0,0,0,.747-7.537,32.819,32.819,0,0,0-.754-7.207A28.822,28.822,0,0,0,688.522,392.991Z"/>
    </g>
    <g>
      <path class="cls-7" d="M760.211,463.307v17.549h-4.6V463.307h-5.244v-3.9h15.088v3.9Z"/>
      <path class="cls-7" d="M779.108,474.7h-10.8a3.755,3.755,0,0,0,1.128,2.322,3.5,3.5,0,0,0,2.388.769,4.147,4.147,0,0,0,1.97-.439,3.646,3.646,0,0,0,1.384-1.333l3.369,1.685a7.76,7.76,0,0,1-2.842,2.805,8.138,8.138,0,0,1-3.97.916,7.374,7.374,0,0,1-5.522-2.08,8.516,8.516,0,0,1,.1-11.162A7.3,7.3,0,0,1,771.769,466a7.22,7.22,0,0,1,5.42,2.043,7.643,7.643,0,0,1,1.992,5.574q0,.19-.015.417T779.108,474.7Zm-4.131-2.52a3.114,3.114,0,0,0-.989-2.058,3.3,3.3,0,0,0-2.219-.7,3.42,3.42,0,0,0-2.249.7,3.275,3.275,0,0,0-1.077,2.058Z"/>
      <path class="cls-7" d="M780.866,478.336l3.208-1.655a2,2,0,0,0,.864,1.318,3.511,3.511,0,0,0,3.354.11,1.165,1.165,0,0,0,.586-1.033q0-1.04-2.08-1.743-.645-.22-1.025-.366a10.3,10.3,0,0,1-3.508-1.919,3.231,3.231,0,0,1-.974-2.388,4.138,4.138,0,0,1,1.655-3.413,7.8,7.8,0,0,1,7.712-.527,4.648,4.648,0,0,1,2.058,2.2l-3.062,1.523a2.207,2.207,0,0,0-.864-1.223,2.679,2.679,0,0,0-1.538-.417,2.649,2.649,0,0,0-1.494.381,1.152,1.152,0,0,0-.571,1q0,1.069,2.842,1.992.337.1.513.161a8.273,8.273,0,0,1,3.354,1.809,3.633,3.633,0,0,1,1,2.629,4.048,4.048,0,0,1-1.655,3.4,7.2,7.2,0,0,1-4.468,1.26,8.079,8.079,0,0,1-3.8-.828A4.179,4.179,0,0,1,780.866,478.336Z"/>
      <path class="cls-7" d="M796.466,480.856v-11.1H794.46v-3.267h2.007V461.71h4.175v4.775h2.007v3.267h-2.007v11.1Z"/>
      <path class="cls-7" d="M819.626,480.856h-4.043l.059-2.065a5.468,5.468,0,0,1-2.043,2,6.107,6.107,0,0,1-2.908.637,5.678,5.678,0,0,1-4.607-2.124,10.017,10.017,0,0,1-.029-11.272A5.934,5.934,0,0,1,810.836,466a5.389,5.389,0,0,1,2.805.718,5.762,5.762,0,0,1,2.029,2.139v-2.373h3.955Zm-3.809-7.207a4.526,4.526,0,0,0-.974-3.062,3.3,3.3,0,0,0-2.629-1.128,3.357,3.357,0,0,0-2.673,1.121,4.52,4.52,0,0,0-.974,3.069,4.421,4.421,0,0,0,.959,3.032,3.829,3.829,0,0,0,5.339,0A4.443,4.443,0,0,0,815.817,473.649Z"/>
      <path class="cls-7" d="M827.58,470.177a6.607,6.607,0,0,1,1.809-3.135,4.258,4.258,0,0,1,2.922-1.04,9.364,9.364,0,0,1,1.3.146l.264.044-.63,4.482a5.235,5.235,0,0,0-.945-.286,5.109,5.109,0,0,0-1-.1,3.43,3.43,0,0,0-2.739.974,5.015,5.015,0,0,0-.835,3.259v6.328h-4.175v-14.37h4.116Z"/>
      <path class="cls-7" d="M729.179,495.381a28.452,28.452,0,0,0-2.336,6.541,32.961,32.961,0,0,0-.754,7.2,34.588,34.588,0,0,0,.747,7.537,24.44,24.44,0,0,0,2.344,6.292l-3.311.776a28.848,28.848,0,0,1-2.593-6.841,32.034,32.034,0,0,1-.879-7.559,34.092,34.092,0,0,1,.857-7.9,26.737,26.737,0,0,1,2.615-6.775Z"/>
      <path class="cls-7" d="M732.475,516.856V495.411H745.1v3.867H737.06v4.409H745.1v3.9H737.06v5.376H745.1v3.9Z"/>
      <path class="cls-7" d="M749.232,516.856v-14.37h4.087v2.256a7.634,7.634,0,0,1,2.424-2.073,6.2,6.2,0,0,1,2.878-.667,6.269,6.269,0,0,1,2.805.564,4.174,4.174,0,0,1,1.794,1.721,4.619,4.619,0,0,1,.461,1.355,14.389,14.389,0,0,1,.139,2.366v8.848h-4.175v-7.1a6.632,6.632,0,0,0-.615-3.5,2.431,2.431,0,0,0-2.109-.85,3.533,3.533,0,0,0-1.589.359,3.288,3.288,0,0,0-1.208,1.018,3.322,3.322,0,0,0-.549,1.172,8.774,8.774,0,0,0-.168,2.007v6.9Z"/>
      <path class="cls-7" d="M768.29,516.856v-11.1h-2.007v-3.267h2.007V497.71h4.175v4.775h2.007v3.267h-2.007v11.1Z"/>
      <path class="cls-7" d="M781.078,506.177a6.607,6.607,0,0,1,1.809-3.135A4.258,4.258,0,0,1,785.81,502a9.364,9.364,0,0,1,1.3.146l.264.044-.63,4.482a5.235,5.235,0,0,0-.945-.286,5.109,5.109,0,0,0-1-.1,3.43,3.43,0,0,0-2.739.974,5.015,5.015,0,0,0-.835,3.259v6.328H777.05v-14.37h4.116Z"/>
      <path class="cls-7" d="M803.3,510.7H792.5a3.755,3.755,0,0,0,1.128,2.322,3.5,3.5,0,0,0,2.388.769,4.147,4.147,0,0,0,1.97-.439,3.646,3.646,0,0,0,1.384-1.333l3.369,1.685a7.76,7.76,0,0,1-2.842,2.805,8.138,8.138,0,0,1-3.97.916,7.374,7.374,0,0,1-5.522-2.08,8.516,8.516,0,0,1,.1-11.162A7.3,7.3,0,0,1,795.961,502a7.22,7.22,0,0,1,5.42,2.043,7.643,7.643,0,0,1,1.992,5.574q0,.19-.015.417T803.3,510.7Zm-4.131-2.52a3.114,3.114,0,0,0-.989-2.058,3.3,3.3,0,0,0-2.219-.7,3.42,3.42,0,0,0-2.249.7,3.275,3.275,0,0,0-1.077,2.058Z"/>
      <path class="cls-7" d="M820.834,516.622a12.859,12.859,0,0,1-.271,3.193,3.763,3.763,0,0,1-.93,1.6,5.6,5.6,0,0,1-2.4,1.494,11.447,11.447,0,0,1-3.56.483,10.294,10.294,0,0,1-5.317-1.113,4.066,4.066,0,0,1-1.978-3.384h4.585a1.573,1.573,0,0,0,.762,1.23,3.848,3.848,0,0,0,1.948.4,3.072,3.072,0,0,0,2.454-.879,4.5,4.5,0,0,0,.754-2.93v-2.051a5.521,5.521,0,0,1-2.014,1.978,5.733,5.733,0,0,1-2.791.645,5.912,5.912,0,0,1-4.731-2.073,9.807,9.807,0,0,1-.044-11.184A5.948,5.948,0,0,1,812.074,502a5.367,5.367,0,0,1,2.791.725,5.807,5.807,0,0,1,2.043,2.131v-2.373h3.926Zm-3.779-6.973a4.387,4.387,0,0,0-.967-3,3.332,3.332,0,0,0-2.637-1.1,3.4,3.4,0,0,0-2.681,1.091,5.168,5.168,0,0,0-.015,6,3.867,3.867,0,0,0,5.339,0A4.318,4.318,0,0,0,817.055,509.649Z"/>
      <path class="cls-7" d="M839.35,516.856h-4.043l.059-2.065a5.468,5.468,0,0,1-2.043,2,6.107,6.107,0,0,1-2.908.637,5.678,5.678,0,0,1-4.607-2.124,10.017,10.017,0,0,1-.029-11.272A5.934,5.934,0,0,1,830.561,502a5.389,5.389,0,0,1,2.805.718,5.762,5.762,0,0,1,2.029,2.139v-2.373h3.955Zm-3.809-7.207a4.526,4.526,0,0,0-.974-3.062,3.3,3.3,0,0,0-2.629-1.128,3.357,3.357,0,0,0-2.673,1.121,4.52,4.52,0,0,0-.974,3.069,4.421,4.421,0,0,0,.959,3.032,3.829,3.829,0,0,0,5.339,0A4.443,4.443,0,0,0,835.541,509.649Z"/>
      <path class="cls-7" d="M847.3,506.177a6.607,6.607,0,0,1,1.809-3.135,4.258,4.258,0,0,1,2.922-1.04,9.364,9.364,0,0,1,1.3.146l.264.044-.63,4.482a5.235,5.235,0,0,0-.945-.286,5.109,5.109,0,0,0-1-.1,3.43,3.43,0,0,0-2.739.974,5.015,5.015,0,0,0-.835,3.259v6.328h-4.175v-14.37h4.116Z"/>
      <path class="cls-7" d="M854.35,495.381l3.311-.732a25.884,25.884,0,0,1,2.607,6.775,34.418,34.418,0,0,1,.864,7.9,32.034,32.034,0,0,1-.879,7.559,28.848,28.848,0,0,1-2.593,6.841l-3.311-.776a24.44,24.44,0,0,0,2.344-6.292,34.588,34.588,0,0,0,.747-7.537,32.8,32.8,0,0,0-.754-7.207A28.81,28.81,0,0,0,854.35,495.381Z"/>
    </g>
    <g>
      <path class="cls-6" d="M244.2,562.951l3.179,11.631q.308,1.113.571,2.388t.5,2.856a24.583,24.583,0,0,1,.2-2.629,22.013,22.013,0,0,1,.505-2.615l2.783-11.631h4.526l-5.61,21.445h-4.409l-3.838-13.682a16.037,16.037,0,0,1-.439-1.89,18,18,0,0,1-.22-1.978q-.073,1.084-.227,2.051a14.633,14.633,0,0,1-.4,1.816L237.45,584.4h-4.409l-5.61-21.445h4.585l2.827,11.909a22.011,22.011,0,0,1,.381,2.219q.146,1.194.22,2.6a46.718,46.718,0,0,1,1.025-4.717l.073-.308,3.149-11.7Z"/>
      <path class="cls-6" d="M259.071,584.4V561.691h4.087v8.071q0,.674-.044,1.34t-.132,1.3a8.932,8.932,0,0,1,2.585-2.183,6.178,6.178,0,0,1,2.893-.674,6.3,6.3,0,0,1,2.82.571,4.049,4.049,0,0,1,1.78,1.714,4.619,4.619,0,0,1,.461,1.355,14.389,14.389,0,0,1,.139,2.366V584.4h-4.175v-7.1a6.632,6.632,0,0,0-.615-3.5,2.431,2.431,0,0,0-2.109-.85,3.533,3.533,0,0,0-1.589.359,3.288,3.288,0,0,0-1.208,1.018,3.322,3.322,0,0,0-.549,1.172,8.774,8.774,0,0,0-.168,2.007v6.9Z"/>
      <path class="cls-6" d="M292.016,584.4h-4.043l.059-2.065a5.468,5.468,0,0,1-2.043,2,6.107,6.107,0,0,1-2.908.637,5.678,5.678,0,0,1-4.607-2.124,10.017,10.017,0,0,1-.029-11.272,5.934,5.934,0,0,1,4.783-2.029,5.389,5.389,0,0,1,2.805.718,5.762,5.762,0,0,1,2.029,2.139v-2.373h3.955Zm-3.809-7.207a4.526,4.526,0,0,0-.974-3.062A3.3,3.3,0,0,0,284.6,573a3.357,3.357,0,0,0-2.673,1.121,4.52,4.52,0,0,0-.974,3.069,4.421,4.421,0,0,0,.959,3.032,3.829,3.829,0,0,0,5.339,0A4.443,4.443,0,0,0,288.207,577.189Z"/>
      <path class="cls-6" d="M296.454,584.4v-11.1h-2.007v-3.267h2.007V565.25h4.175v4.775h2.007v3.267h-2.007v11.1Z"/>
    </g>
    <g>
      <path class="cls-6" d="M439.425,518.574V497.128h4.585v8.6h9.3v-8.6H457.9v21.445h-4.585v-8.965h-9.3v8.965Z"/>
      <path class="cls-6" d="M477.423,511.44a7.358,7.358,0,0,1-2.263,5.508,8.63,8.63,0,0,1-11.506,0,7.8,7.8,0,0,1,.015-11.016,8.621,8.621,0,0,1,11.5-.029A7.375,7.375,0,0,1,477.423,511.44Zm-4.248-.029a3.837,3.837,0,0,0-1.025-2.805,4.136,4.136,0,0,0-5.493-.007,4.418,4.418,0,0,0,0,5.625,3.616,3.616,0,0,0,2.739,1.055,3.67,3.67,0,0,0,2.747-1.055A3.847,3.847,0,0,0,473.175,511.411Z"/>
      <path class="cls-6" d="M493.053,504.2l2.08,7.441q.059.22.154.776t.344,2.285q.132-.674.33-1.421t.491-1.67l2.241-7.412h4.541l-4.98,14.37H493.8l-2.153-7.441q-.059-.205-.19-.659-.483-1.685-.7-2.754-.19,1-.374,1.816t-.388,1.538l-2.212,7.5h-4.438l-4.98-14.37h4.556l2.2,7.134q.293.967.483,1.75t.322,1.6q.117-.894.278-1.721t.381-1.6L488.5,504.2Z"/>
    </g>
    <g>
      <path class="cls-6" d="M786.29,314.288l3.179,11.631q.308,1.113.571,2.388t.5,2.856a24.574,24.574,0,0,1,.2-2.629,22.02,22.02,0,0,1,.505-2.615l2.783-11.631h4.526l-5.61,21.445h-4.409l-3.838-13.682a16.037,16.037,0,0,1-.439-1.89,18,18,0,0,1-.22-1.978q-.073,1.084-.227,2.051a14.633,14.633,0,0,1-.4,1.816l-3.867,13.682h-4.409l-5.61-21.445H774.1l2.827,11.909a22.021,22.021,0,0,1,.381,2.22q.146,1.194.22,2.6a46.718,46.718,0,0,1,1.025-4.717l.073-.308,3.149-11.7Z"/>
      <path class="cls-6" d="M801.158,335.733V313.028h4.087V321.1q0,.674-.044,1.341t-.132,1.3a8.932,8.932,0,0,1,2.585-2.183,6.178,6.178,0,0,1,2.893-.674,6.3,6.3,0,0,1,2.82.571,4.049,4.049,0,0,1,1.78,1.714,4.623,4.623,0,0,1,.461,1.355,14.382,14.382,0,0,1,.139,2.365v8.848h-4.175v-7.1a6.632,6.632,0,0,0-.615-3.5,2.431,2.431,0,0,0-2.109-.85,3.533,3.533,0,0,0-1.589.359,3.286,3.286,0,0,0-1.208,1.018,3.322,3.322,0,0,0-.549,1.172,8.774,8.774,0,0,0-.168,2.007v6.9Z"/>
      <path class="cls-6" d="M823.248,334.62l-5.786-13.257h4.819l2.49,6.577a8,8,0,0,1,.41,1.414,16.458,16.458,0,0,1,.249,1.779q.146-.791.366-1.611t.542-1.743l2.183-6.416H833.3l-8.555,20.9h-4.614Z"/>
    </g>
    <g>
      <line class="cls-8" x1="106.517" y1="178.854" x2="106.517" y2="150.614"/>
      <polygon class="cls-6" points="118.982 175.206 106.517 196.794 94.051 175.206 118.982 175.206"/>
    </g>
    <g>
      <line class="cls-8" x1="277.003" y1="528.423" x2="277.003" y2="500.184"/>
      <polygon class="cls-6" points="289.469 524.776 277.003 546.364 264.537 524.776 289.469 524.776"/>
    </g>
    <g>
      <line class="cls-8" x1="450.104" y1="461.09" x2="450.104" y2="413.948"/>
      <polygon class="cls-6" points="462.569 457.443 450.104 479.031 437.638 457.443 462.569 457.443"/>
    </g>
    <g>
      <line class="cls-8" x1="791.764" y1="368.301" x2="791.764" y2="396.541"/>
      <polygon class="cls-6" points="779.298 371.949 791.764 350.361 804.23 371.949 779.298 371.949"/>
    </g>
    <g>
      <line class="cls-8" x1="509.929" y1="471.447" x2="522.59" y2="446.205"/>
      <polygon class="cls-6" points="522.707 473.776 501.885 487.484 500.421 462.598 522.707 473.776"/>
    </g>
    <g>
      <path class="cls-9" d="M578.6,159.048V65.3h62.5v6.25h6.25V152.8H641.1v6.25Zm50-18.75V84.048h-31.25V140.3Z"/>
      <path class="cls-9" d="M659.849,159.048V152.8H653.6V71.548h6.25V65.3h62.5v18.75h-50V102.8H703.6v18.75h-31.25V140.3h50v18.75Z"/>
      <path class="cls-9" d="M734.849,159.048V152.8H728.6v-18.75h18.75v6.25H778.6v-18.75h-43.75V115.3H728.6V71.548h6.25V65.3H791.1v6.25h6.25V90.3H778.6v-6.25h-31.25V102.8H791.1v6.25h6.25V152.8H791.1v6.25Z"/>
      <path class="cls-9" d="M803.6,159.048V65.3h18.75v93.75Z"/>
      <path class="cls-9" d="M834.849,159.048V152.8H828.6V71.548h6.25V65.3H891.1v6.25h6.25V90.3H878.6v-6.25h-31.25V140.3H878.6v-18.75H866.1V102.8h25v6.25h6.25V152.8H891.1v6.25Z"/>
      <path class="cls-9" d="M903.6,159.048V65.3h18.75v6.25h6.25v12.5h6.25v12.5h6.25v12.5h6.25v6.25h6.25v-50h18.75v93.75H953.6V152.8h-6.25V140.3H941.1V127.8h-6.25V115.3H928.6v-6.25h-6.25v50Z"/>
    </g>
    <g>
      <path class="cls-10" d="M593.843,25.981l.046,13.869H579.951V7.489h27.738v4.623h4.623v9.246h-4.623v4.623Zm-.023-13.869v9.246h9.246V12.112Z"/>
      <path class="cls-10" d="M616.935,39.85V7.489h27.738v4.623H649.3v9.246h-4.623v4.623H649.3V39.85H635.427V25.981H626.2V39.85ZM630.8,12.112v9.246h9.246V12.112Z"/>
      <path class="cls-10" d="M681.656,39.85H658.541V35.227h-4.623V12.112h4.623V7.489h23.115v4.623h4.623V35.227h-4.623Zm-4.623-4.623V12.112h-9.246V35.227Z"/>
      <path class="cls-10" d="M704.771,12.112V35.227h18.492V39.85H695.525V35.227H690.9V12.112h4.623V7.489h27.738v4.623Z"/>
      <path class="cls-10" d="M760.246,39.85H727.886V7.489h32.361v4.623H741.754v9.246h13.869v4.623H741.754v9.246h18.492Z"/>
      <path class="cls-10" d="M764.869,30.6h9.246v4.623h13.869V25.981H769.492V21.358h-4.623V12.112h4.623V7.489h23.115v4.623h4.623v4.623h-9.246V12.112h-9.246v9.246h13.869v4.623h4.623v9.246h-4.623V39.85H769.492V35.227h-4.623Z"/>
      <path class="cls-10" d="M801.853,30.6H811.1v4.623h13.869V25.981H806.476V21.358h-4.623V12.112h4.623V7.489H829.59v4.623h4.623v4.623h-9.246V12.112h-9.246v9.246H829.59v4.623h4.623v9.246H829.59V39.85H806.476V35.227h-4.623Z"/>
      <path class="cls-10" d="M866.574,39.85H843.459V35.227h-4.623V12.112h4.623V7.489h23.115v4.623H871.2V35.227h-4.623Zm-4.623-4.623V12.112h-9.246V35.227Z"/>
      <path class="cls-10" d="M912.8,39.85V7.489h27.738v4.623h4.623V35.227h-4.623V39.85ZM926.7,35.227h9.223V12.112h-9.246Z"/>
      <path class="cls-10" d="M982.147,39.85H949.787V7.489h32.361v4.623H963.656v9.246h13.869v4.623H963.656v9.246h18.492Z"/>
    </g>
    <g>
      <path class="cls-10" d="M622.068,188.189v6.21h-12.42v37.259h-18.63V194.4H578.6v-6.21Z"/>
      <path class="cls-10" d="M671.748,188.189v43.469h-12.42v-18.63h-12.42v18.63h-18.63V188.189h18.63v18.629h12.42V188.189Z"/>
      <path class="cls-10" d="M715.217,188.189v6.21h-6.21v31.049h6.21v6.21H684.168v-6.21h6.21V194.4h-6.21v-6.21Z"/>
      <path class="cls-10" d="M727.637,231.658V188.189H764.9v6.21h6.21v37.259h-12.42V194.4h-12.42l.031,37.259Z"/>
      <path class="cls-10" d="M795.946,188.189v12.419h6.21V194.4h6.21v-6.21h12.42v6.21h-6.21v6.209h-6.21v6.21h-6.21v6.21h12.42v6.21h6.21v12.42h-18.63v-12.42h-6.21v-6.21h-6.21v18.63h-12.42V188.189Z"/>
      <path class="cls-10" d="M864.255,188.189v6.21h-6.21v31.049h6.21v6.21h-31.05v-6.21h6.21V194.4h-6.21v-6.21Z"/>
      <path class="cls-10" d="M876.675,231.658V188.189h37.26v6.21h6.21v37.259h-12.42V194.4H895.3l.031,37.259Z"/>
      <path class="cls-10" d="M969.823,206.818v18.63h-6.21v6.21H932.564v-6.21h-6.21V194.4h6.21v-6.21h31.081v6.21h6.179v6.209h-6.21V194.4h-18.63v31.049H957.4v-12.42h-6.21l.031-6.21Z"/>
    </g>
  </g>
</svg>
