<svg id="Layer_1" data-name="Layer 1" xmlns="http://www.w3.org/2000/svg" viewBox="0 0 306.048 306.048">
  <defs>
    <style>
      .cls-1 {
        fill: #ee6c11;
      }

      .cls-2 {
        fill: #e95716;
      }

      .cls-3 {
        fill: #ec6513;
      }

      .cls-4 {
        fill: #f27b0f;
      }

      .cls-5 {
        fill: #f89818;
      }

      .cls-6 {
        fill: #f27d10;
      }

      .cls-7 {
        fill: #e14718;
      }

      .cls-8 {
        fill: #e75c16;
      }

      .cls-9 {
        fill: #fff;
        stroke: #fff;
        stroke-miterlimit: 10;
        stroke-width: 6px;
        fill-rule: evenodd;
      }
    </style>
  </defs>
  <title>bc30d3f9-6195-4731-b328-8068e62c640f</title>
  <g>
    <circle class="cls-1" cx="153.024" cy="153.024" r="153.024"/>
    <path class="cls-2" d="M69.7,128.312H210.068L203.86,8.659A152.5,152.5,0,0,0,158.77.118Z"/>
    <path class="cls-3" d="M127.245,303.875,69.7,128.312,39.855,256.024A152.761,152.761,0,0,0,127.245,303.875Z"/>
    <path class="cls-4" d="M290.584,220.12,69.7,128.312l57.542,175.563A153.18,153.18,0,0,0,290.584,220.12Z"/>
    <path class="cls-5" d="M290.585,220.118A153.365,153.365,0,0,0,295.021,95.9l-84.953,32.41Z"/>
    <path class="cls-6" d="M203.86,8.659l6.208,119.653L295.021,95.9A153.47,153.47,0,0,0,203.86,8.659Z"/>
    <path class="cls-7" d="M158.77.118C156.862.048,154.949,0,153.024,0A153.024,153.024,0,0,0,0,153.024q0,6.2.49,12.272L69.7,128.312Z"/>
    <path class="cls-8" d="M39.855,256.024,69.7,128.312.49,165.3A152.427,152.427,0,0,0,39.855,256.024Z"/>
    <polygon class="cls-1" points="290.589 220.122 210.068 128.312 69.704 128.312 290.589 220.122"/>
  </g>
  <path class="cls-9" d="M241.752,215.742H64.3A3.644,3.644,0,0,1,60.65,212.1V93.948A3.644,3.644,0,0,1,64.3,90.306H241.752a3.644,3.644,0,0,1,3.647,3.642V212.1A3.644,3.644,0,0,1,241.752,215.742Zm-6.859-7.284L181.21,138.826,153.145,157.6l-28.511-19.018-53.788,69.88ZM67.944,200.273l50.61-65.751-50.61-33.76ZM76.321,97.591l76.711,51.185,76.7-51.185Zm110.964,37.172,50.82,65.917V100.772Z"/>
</svg>
